<?xml version="1.0" encoding="utf-8" standalone="no"?>
<!DOCTYPE svg PUBLIC "-//W3C//DTD SVG 1.1//EN"
  "http://www.w3.org/Graphics/SVG/1.1/DTD/svg11.dtd">
<svg xmlns:xlink="http://www.w3.org/1999/xlink" width="864pt" height="644.48pt" viewBox="0 0 864 644.48" xmlns="http://www.w3.org/2000/svg" version="1.1">
 <metadata>
  <rdf:RDF xmlns:dc="http://purl.org/dc/elements/1.1/" xmlns:cc="http://creativecommons.org/ns#" xmlns:rdf="http://www.w3.org/1999/02/22-rdf-syntax-ns#">
   <cc:Work>
    <dc:type rdf:resource="http://purl.org/dc/dcmitype/StillImage"/>
    <dc:date>2024-12-06T11:30:34.731631</dc:date>
    <dc:format>image/svg+xml</dc:format>
    <dc:creator>
     <cc:Agent>
      <dc:title>Matplotlib v3.7.2, https://matplotlib.org/</dc:title>
     </cc:Agent>
    </dc:creator>
   </cc:Work>
  </rdf:RDF>
 </metadata>
 <defs>
  <style type="text/css">*{stroke-linejoin: round; stroke-linecap: butt}</style>
 </defs>
 <g id="figure_1">
  <g id="patch_1">
   <path d="M 0 644.48 
L 864 644.48 
L 864 0 
L 0 0 
z
" style="fill: #ffffff"/>
  </g>
  <g id="axes_1">
   <g id="patch_2">
    <path d="M 108 573.5872 
L 777.6 573.5872 
L 777.6 77.3376 
L 108 77.3376 
z
" style="fill: #ffffff"/>
   </g>
   <g id="patch_3">
    <path d="M 378.479887 573.5872 
L 378.479887 77.3376 
L 531.987623 77.3376 
L 531.987623 573.5872 
z
" clip-path="url(#pe9ca581469)" style="fill: #00ffff; opacity: 0.3; stroke: #00ffff; stroke-linejoin: miter"/>
   </g>
   <g id="patch_4">
    <path d="M 301.726019 573.5872 
L 301.726019 77.3376 
L 108 77.3376 
L 108 573.5872 
z
" clip-path="url(#pe9ca581469)" style="fill: #00ffff; opacity: 0.3; stroke: #00ffff; stroke-linejoin: miter"/>
   </g>
   <g id="patch_5">
    <path d="M 608.741491 573.5872 
L 608.741491 77.3376 
L 777.6 77.3376 
L 777.6 573.5872 
z
" clip-path="url(#pe9ca581469)" style="fill: #00ffff; opacity: 0.3; stroke: #00ffff; stroke-linejoin: miter"/>
   </g>
   <g id="PolyCollection_1">
    <defs>
     <path id="m8310523b5d" d="M 108 -544.5856 
L 108 -510.306726 
L 121.665306 -502.992646 
L 135.330612 -495.687606 
L 148.995918 -488.392776 
L 162.661224 -481.109534 
L 176.326531 -473.839515 
L 189.991837 -466.584675 
L 203.657143 -459.347367 
L 217.322449 -452.130452 
L 230.987755 -444.937434 
L 244.653061 -437.772657 
L 258.318367 -430.64156 
L 271.983673 -423.551034 
L 285.64898 -416.509932 
L 299.314286 -409.529791 
L 312.979592 -402.625879 
L 326.644898 -395.818755 
L 340.310204 -389.136616 
L 353.97551 -382.618866 
L 367.640816 -376.321625 
L 381.306122 -370.32615 
L 394.971429 -364.751275 
L 408.636735 -359.76998 
L 422.302041 -355.62538 
L 435.967347 -352.628437 
L 449.632653 -351.102377 
L 463.297959 -351.256755 
L 476.963265 -353.068724 
L 490.628571 -356.297362 
L 504.293878 -360.614089 
L 517.959184 -365.718145 
L 531.62449 -371.379797 
L 545.289796 -377.437152 
L 558.955102 -383.779272 
L 572.620408 -390.330221 
L 586.285714 -397.037414 
L 599.95102 -403.863806 
L 613.616327 -410.782798 
L 627.281633 -417.774929 
L 640.946939 -424.825702 
L 654.612245 -431.924129 
L 668.277551 -439.061759 
L 681.942857 -446.231992 
L 695.608163 -453.42961 
L 709.273469 -460.65044 
L 722.938776 -467.891103 
L 736.604082 -475.14884 
L 750.269388 -482.421376 
L 763.934694 -489.706819 
L 777.6 -497.003585 
L 777.6 -529.535235 
L 777.6 -529.535235 
L 763.934694 -521.300962 
L 750.269388 -513.096587 
L 736.604082 -504.926068 
L 722.938776 -496.794074 
L 709.273469 -488.706143 
L 695.608163 -480.66889 
L 681.942857 -472.690266 
L 668.277551 -464.7799 
L 654.612245 -456.949534 
L 640.946939 -449.213605 
L 627.281633 -441.589994 
L 613.616327 -434.101025 
L 599.95102 -426.774773 
L 586.285714 -419.646786 
L 572.620408 -412.762298 
L 558.955102 -406.179029 
L 545.289796 -399.970499 
L 531.62449 -394.229566 
L 517.959184 -389.071284 
L 504.293878 -384.63321 
L 490.628571 -381.070068 
L 476.963265 -378.539194 
L 463.297959 -377.175508 
L 449.632653 -377.061336 
L 435.967347 -378.203908 
L 422.302041 -380.533238 
L 408.636735 -383.921677 
L 394.971429 -388.213811 
L 381.306122 -393.253055 
L 367.640816 -398.898141 
L 353.97551 -405.029865 
L 340.310204 -411.551536 
L 326.644898 -418.386408 
L 312.979592 -425.47417 
L 299.314286 -432.767561 
L 285.64898 -440.229467 
L 271.983673 -447.830606 
L 258.318367 -455.547726 
L 244.653061 -463.362225 
L 230.987755 -471.259109 
L 217.322449 -479.226197 
L 203.657143 -487.253513 
L 189.991837 -495.332833 
L 176.326531 -503.457322 
L 162.661224 -511.621265 
L 148.995918 -519.819849 
L 135.330612 -528.048998 
L 121.665306 -536.30524 
L 108 -544.5856 
z
" style="stroke: #ff0000; stroke-opacity: 0.5"/>
    </defs>
    <g clip-path="url(#pe9ca581469)">
     <use xlink:href="#m8310523b5d" x="0" y="644.48" style="fill: #ff0000; fill-opacity: 0.5; stroke: #ff0000; stroke-opacity: 0.5"/>
    </g>
   </g>
   <g id="PolyCollection_2">
    <defs>
     <path id="mdeb402ad7c" d="M 108 -93.4496 
L 108 -127.728474 
L 121.665306 -135.042554 
L 135.330612 -142.347594 
L 148.995918 -149.642424 
L 162.661224 -156.925666 
L 176.326531 -164.195685 
L 189.991837 -171.450525 
L 203.657143 -178.687833 
L 217.322449 -185.904748 
L 230.987755 -193.097766 
L 244.653061 -200.262543 
L 258.318367 -207.39364 
L 271.983673 -214.484166 
L 285.64898 -221.525268 
L 299.314286 -228.505409 
L 312.979592 -235.409321 
L 326.644898 -242.216445 
L 340.310204 -248.898584 
L 353.97551 -255.416334 
L 367.640816 -261.713575 
L 381.306122 -267.70905 
L 394.971429 -273.283925 
L 408.636735 -278.26522 
L 422.302041 -282.40982 
L 435.967347 -285.406763 
L 449.632653 -286.932823 
L 463.297959 -286.778445 
L 476.963265 -284.966476 
L 490.628571 -281.737838 
L 504.293878 -277.421111 
L 517.959184 -272.317055 
L 531.62449 -266.655403 
L 545.289796 -260.598048 
L 558.955102 -254.255928 
L 572.620408 -247.704979 
L 586.285714 -240.997786 
L 599.95102 -234.171394 
L 613.616327 -227.252402 
L 627.281633 -220.260271 
L 640.946939 -213.209498 
L 654.612245 -206.111071 
L 668.277551 -198.973441 
L 681.942857 -191.803208 
L 695.608163 -184.60559 
L 709.273469 -177.38476 
L 722.938776 -170.144097 
L 736.604082 -162.88636 
L 750.269388 -155.613824 
L 763.934694 -148.328381 
L 777.6 -141.031615 
L 777.6 -108.499965 
L 777.6 -108.499965 
L 763.934694 -116.734238 
L 750.269388 -124.938613 
L 736.604082 -133.109132 
L 722.938776 -141.241126 
L 709.273469 -149.329057 
L 695.608163 -157.36631 
L 681.942857 -165.344934 
L 668.277551 -173.2553 
L 654.612245 -181.085666 
L 640.946939 -188.821595 
L 627.281633 -196.445206 
L 613.616327 -203.934175 
L 599.95102 -211.260427 
L 586.285714 -218.388414 
L 572.620408 -225.272902 
L 558.955102 -231.856171 
L 545.289796 -238.064701 
L 531.62449 -243.805634 
L 517.959184 -248.963916 
L 504.293878 -253.40199 
L 490.628571 -256.965132 
L 476.963265 -259.496006 
L 463.297959 -260.859692 
L 449.632653 -260.973864 
L 435.967347 -259.831292 
L 422.302041 -257.501962 
L 408.636735 -254.113523 
L 394.971429 -249.821389 
L 381.306122 -244.782145 
L 367.640816 -239.137059 
L 353.97551 -233.005335 
L 340.310204 -226.483664 
L 326.644898 -219.648792 
L 312.979592 -212.56103 
L 299.314286 -205.267639 
L 285.64898 -197.805733 
L 271.983673 -190.204594 
L 258.318367 -182.487474 
L 244.653061 -174.672975 
L 230.987755 -166.776091 
L 217.322449 -158.809003 
L 203.657143 -150.781687 
L 189.991837 -142.702367 
L 176.326531 -134.577878 
L 162.661224 -126.413935 
L 148.995918 -118.215351 
L 135.330612 -109.986202 
L 121.665306 -101.72996 
L 108 -93.4496 
z
" style="stroke: #ff0000; stroke-opacity: 0.5"/>
    </defs>
    <g clip-path="url(#pe9ca581469)">
     <use xlink:href="#mdeb402ad7c" x="0" y="644.48" style="fill: #ff0000; fill-opacity: 0.5; stroke: #ff0000; stroke-opacity: 0.5"/>
    </g>
   </g>
   <g id="matplotlib.axis_1">
    <g id="xtick_1">
     <g id="line2d_1">
      <defs>
       <path id="ma33aac334c" d="M 0 0 
L 0 3.5 
" style="stroke: #000000; stroke-width: 0.8"/>
      </defs>
      <g>
       <use xlink:href="#ma33aac334c" x="148.218283" y="573.5872" style="stroke: #000000; stroke-width: 0.8"/>
      </g>
     </g>
     <g id="text_1">
      <!-- -0.4734 -->
      <g transform="translate(121.199377 591.225013) scale(0.14 -0.14)">
       <defs>
        <path id="DejaVuSans-2d" d="M 313 2009 
L 1997 2009 
L 1997 1497 
L 313 1497 
L 313 2009 
z
" transform="scale(0.015625)"/>
        <path id="DejaVuSans-30" d="M 2034 4250 
Q 1547 4250 1301 3770 
Q 1056 3291 1056 2328 
Q 1056 1369 1301 889 
Q 1547 409 2034 409 
Q 2525 409 2770 889 
Q 3016 1369 3016 2328 
Q 3016 3291 2770 3770 
Q 2525 4250 2034 4250 
z
M 2034 4750 
Q 2819 4750 3233 4129 
Q 3647 3509 3647 2328 
Q 3647 1150 3233 529 
Q 2819 -91 2034 -91 
Q 1250 -91 836 529 
Q 422 1150 422 2328 
Q 422 3509 836 4129 
Q 1250 4750 2034 4750 
z
" transform="scale(0.015625)"/>
        <path id="DejaVuSans-2e" d="M 684 794 
L 1344 794 
L 1344 0 
L 684 0 
L 684 794 
z
" transform="scale(0.015625)"/>
        <path id="DejaVuSans-34" d="M 2419 4116 
L 825 1625 
L 2419 1625 
L 2419 4116 
z
M 2253 4666 
L 3047 4666 
L 3047 1625 
L 3713 1625 
L 3713 1100 
L 3047 1100 
L 3047 0 
L 2419 0 
L 2419 1100 
L 313 1100 
L 313 1709 
L 2253 4666 
z
" transform="scale(0.015625)"/>
        <path id="DejaVuSans-37" d="M 525 4666 
L 3525 4666 
L 3525 4397 
L 1831 0 
L 1172 0 
L 2766 4134 
L 525 4134 
L 525 4666 
z
" transform="scale(0.015625)"/>
        <path id="DejaVuSans-33" d="M 2597 2516 
Q 3050 2419 3304 2112 
Q 3559 1806 3559 1356 
Q 3559 666 3084 287 
Q 2609 -91 1734 -91 
Q 1441 -91 1130 -33 
Q 819 25 488 141 
L 488 750 
Q 750 597 1062 519 
Q 1375 441 1716 441 
Q 2309 441 2620 675 
Q 2931 909 2931 1356 
Q 2931 1769 2642 2001 
Q 2353 2234 1838 2234 
L 1294 2234 
L 1294 2753 
L 1863 2753 
Q 2328 2753 2575 2939 
Q 2822 3125 2822 3475 
Q 2822 3834 2567 4026 
Q 2313 4219 1838 4219 
Q 1578 4219 1281 4162 
Q 984 4106 628 3988 
L 628 4550 
Q 988 4650 1302 4700 
Q 1616 4750 1894 4750 
Q 2613 4750 3031 4423 
Q 3450 4097 3450 3541 
Q 3450 3153 3228 2886 
Q 3006 2619 2597 2516 
z
" transform="scale(0.015625)"/>
       </defs>
       <use xlink:href="#DejaVuSans-2d"/>
       <use xlink:href="#DejaVuSans-30" x="36.083984"/>
       <use xlink:href="#DejaVuSans-2e" x="99.707031"/>
       <use xlink:href="#DejaVuSans-34" x="131.494141"/>
       <use xlink:href="#DejaVuSans-37" x="195.117188"/>
       <use xlink:href="#DejaVuSans-33" x="258.740234"/>
       <use xlink:href="#DejaVuSans-34" x="322.363281"/>
      </g>
     </g>
    </g>
    <g id="xtick_2">
     <g id="line2d_2">
      <g>
       <use xlink:href="#ma33aac334c" x="224.972151" y="573.5872" style="stroke: #000000; stroke-width: 0.8"/>
      </g>
     </g>
     <g id="text_2">
      <!-- -0.355 -->
      <g transform="translate(202.406995 591.225013) scale(0.14 -0.14)">
       <defs>
        <path id="DejaVuSans-35" d="M 691 4666 
L 3169 4666 
L 3169 4134 
L 1269 4134 
L 1269 2991 
Q 1406 3038 1543 3061 
Q 1681 3084 1819 3084 
Q 2600 3084 3056 2656 
Q 3513 2228 3513 1497 
Q 3513 744 3044 326 
Q 2575 -91 1722 -91 
Q 1428 -91 1123 -41 
Q 819 9 494 109 
L 494 744 
Q 775 591 1075 516 
Q 1375 441 1709 441 
Q 2250 441 2565 725 
Q 2881 1009 2881 1497 
Q 2881 1984 2565 2268 
Q 2250 2553 1709 2553 
Q 1456 2553 1204 2497 
Q 953 2441 691 2322 
L 691 4666 
z
" transform="scale(0.015625)"/>
       </defs>
       <use xlink:href="#DejaVuSans-2d"/>
       <use xlink:href="#DejaVuSans-30" x="36.083984"/>
       <use xlink:href="#DejaVuSans-2e" x="99.707031"/>
       <use xlink:href="#DejaVuSans-33" x="131.494141"/>
       <use xlink:href="#DejaVuSans-35" x="195.117188"/>
       <use xlink:href="#DejaVuSans-35" x="258.740234"/>
      </g>
     </g>
    </g>
    <g id="xtick_3">
     <g id="line2d_3">
      <g>
       <use xlink:href="#ma33aac334c" x="301.726019" y="573.5872" style="stroke: #000000; stroke-width: 0.8"/>
      </g>
     </g>
     <g id="text_3">
      <!-- -0.2367 -->
      <g transform="translate(274.707113 591.225013) scale(0.14 -0.14)">
       <defs>
        <path id="DejaVuSans-32" d="M 1228 531 
L 3431 531 
L 3431 0 
L 469 0 
L 469 531 
Q 828 903 1448 1529 
Q 2069 2156 2228 2338 
Q 2531 2678 2651 2914 
Q 2772 3150 2772 3378 
Q 2772 3750 2511 3984 
Q 2250 4219 1831 4219 
Q 1534 4219 1204 4116 
Q 875 4013 500 3803 
L 500 4441 
Q 881 4594 1212 4672 
Q 1544 4750 1819 4750 
Q 2544 4750 2975 4387 
Q 3406 4025 3406 3419 
Q 3406 3131 3298 2873 
Q 3191 2616 2906 2266 
Q 2828 2175 2409 1742 
Q 1991 1309 1228 531 
z
" transform="scale(0.015625)"/>
        <path id="DejaVuSans-36" d="M 2113 2584 
Q 1688 2584 1439 2293 
Q 1191 2003 1191 1497 
Q 1191 994 1439 701 
Q 1688 409 2113 409 
Q 2538 409 2786 701 
Q 3034 994 3034 1497 
Q 3034 2003 2786 2293 
Q 2538 2584 2113 2584 
z
M 3366 4563 
L 3366 3988 
Q 3128 4100 2886 4159 
Q 2644 4219 2406 4219 
Q 1781 4219 1451 3797 
Q 1122 3375 1075 2522 
Q 1259 2794 1537 2939 
Q 1816 3084 2150 3084 
Q 2853 3084 3261 2657 
Q 3669 2231 3669 1497 
Q 3669 778 3244 343 
Q 2819 -91 2113 -91 
Q 1303 -91 875 529 
Q 447 1150 447 2328 
Q 447 3434 972 4092 
Q 1497 4750 2381 4750 
Q 2619 4750 2861 4703 
Q 3103 4656 3366 4563 
z
" transform="scale(0.015625)"/>
       </defs>
       <use xlink:href="#DejaVuSans-2d"/>
       <use xlink:href="#DejaVuSans-30" x="36.083984"/>
       <use xlink:href="#DejaVuSans-2e" x="99.707031"/>
       <use xlink:href="#DejaVuSans-32" x="131.494141"/>
       <use xlink:href="#DejaVuSans-33" x="195.117188"/>
       <use xlink:href="#DejaVuSans-36" x="258.740234"/>
       <use xlink:href="#DejaVuSans-37" x="322.363281"/>
      </g>
     </g>
    </g>
    <g id="xtick_4">
     <g id="line2d_4">
      <g>
       <use xlink:href="#ma33aac334c" x="378.479887" y="573.5872" style="stroke: #000000; stroke-width: 0.8"/>
      </g>
     </g>
     <g id="text_4">
      <!-- -0.1183 -->
      <g transform="translate(351.460981 591.225013) scale(0.14 -0.14)">
       <defs>
        <path id="DejaVuSans-31" d="M 794 531 
L 1825 531 
L 1825 4091 
L 703 3866 
L 703 4441 
L 1819 4666 
L 2450 4666 
L 2450 531 
L 3481 531 
L 3481 0 
L 794 0 
L 794 531 
z
" transform="scale(0.015625)"/>
        <path id="DejaVuSans-38" d="M 2034 2216 
Q 1584 2216 1326 1975 
Q 1069 1734 1069 1313 
Q 1069 891 1326 650 
Q 1584 409 2034 409 
Q 2484 409 2743 651 
Q 3003 894 3003 1313 
Q 3003 1734 2745 1975 
Q 2488 2216 2034 2216 
z
M 1403 2484 
Q 997 2584 770 2862 
Q 544 3141 544 3541 
Q 544 4100 942 4425 
Q 1341 4750 2034 4750 
Q 2731 4750 3128 4425 
Q 3525 4100 3525 3541 
Q 3525 3141 3298 2862 
Q 3072 2584 2669 2484 
Q 3125 2378 3379 2068 
Q 3634 1759 3634 1313 
Q 3634 634 3220 271 
Q 2806 -91 2034 -91 
Q 1263 -91 848 271 
Q 434 634 434 1313 
Q 434 1759 690 2068 
Q 947 2378 1403 2484 
z
M 1172 3481 
Q 1172 3119 1398 2916 
Q 1625 2713 2034 2713 
Q 2441 2713 2670 2916 
Q 2900 3119 2900 3481 
Q 2900 3844 2670 4047 
Q 2441 4250 2034 4250 
Q 1625 4250 1398 4047 
Q 1172 3844 1172 3481 
z
" transform="scale(0.015625)"/>
       </defs>
       <use xlink:href="#DejaVuSans-2d"/>
       <use xlink:href="#DejaVuSans-30" x="36.083984"/>
       <use xlink:href="#DejaVuSans-2e" x="99.707031"/>
       <use xlink:href="#DejaVuSans-31" x="131.494141"/>
       <use xlink:href="#DejaVuSans-31" x="195.117188"/>
       <use xlink:href="#DejaVuSans-38" x="258.740234"/>
       <use xlink:href="#DejaVuSans-33" x="322.363281"/>
      </g>
     </g>
    </g>
    <g id="xtick_5">
     <g id="line2d_5">
      <g>
       <use xlink:href="#ma33aac334c" x="455.233755" y="573.5872" style="stroke: #000000; stroke-width: 0.8"/>
      </g>
     </g>
     <g id="text_5">
      <!-- 0.0 -->
      <g transform="translate(444.101567 591.225013) scale(0.14 -0.14)">
       <use xlink:href="#DejaVuSans-30"/>
       <use xlink:href="#DejaVuSans-2e" x="63.623047"/>
       <use xlink:href="#DejaVuSans-30" x="95.410156"/>
      </g>
     </g>
    </g>
    <g id="xtick_6">
     <g id="line2d_6">
      <g>
       <use xlink:href="#ma33aac334c" x="531.987623" y="573.5872" style="stroke: #000000; stroke-width: 0.8"/>
      </g>
     </g>
     <g id="text_6">
      <!-- 0.1183 -->
      <g transform="translate(507.494185 591.225013) scale(0.14 -0.14)">
       <use xlink:href="#DejaVuSans-30"/>
       <use xlink:href="#DejaVuSans-2e" x="63.623047"/>
       <use xlink:href="#DejaVuSans-31" x="95.410156"/>
       <use xlink:href="#DejaVuSans-31" x="159.033203"/>
       <use xlink:href="#DejaVuSans-38" x="222.65625"/>
       <use xlink:href="#DejaVuSans-33" x="286.279297"/>
      </g>
     </g>
    </g>
    <g id="xtick_7">
     <g id="line2d_7">
      <g>
       <use xlink:href="#ma33aac334c" x="608.741491" y="573.5872" style="stroke: #000000; stroke-width: 0.8"/>
      </g>
     </g>
     <g id="text_7">
      <!-- 0.2367 -->
      <g transform="translate(584.248053 591.225013) scale(0.14 -0.14)">
       <use xlink:href="#DejaVuSans-30"/>
       <use xlink:href="#DejaVuSans-2e" x="63.623047"/>
       <use xlink:href="#DejaVuSans-32" x="95.410156"/>
       <use xlink:href="#DejaVuSans-33" x="159.033203"/>
       <use xlink:href="#DejaVuSans-36" x="222.65625"/>
       <use xlink:href="#DejaVuSans-37" x="286.279297"/>
      </g>
     </g>
    </g>
    <g id="xtick_8">
     <g id="line2d_8">
      <g>
       <use xlink:href="#ma33aac334c" x="685.495359" y="573.5872" style="stroke: #000000; stroke-width: 0.8"/>
      </g>
     </g>
     <g id="text_8">
      <!-- 0.355 -->
      <g transform="translate(665.455671 591.225013) scale(0.14 -0.14)">
       <use xlink:href="#DejaVuSans-30"/>
       <use xlink:href="#DejaVuSans-2e" x="63.623047"/>
       <use xlink:href="#DejaVuSans-33" x="95.410156"/>
       <use xlink:href="#DejaVuSans-35" x="159.033203"/>
       <use xlink:href="#DejaVuSans-35" x="222.65625"/>
      </g>
     </g>
    </g>
    <g id="xtick_9">
     <g id="line2d_9">
      <g>
       <use xlink:href="#ma33aac334c" x="762.249226" y="573.5872" style="stroke: #000000; stroke-width: 0.8"/>
      </g>
     </g>
     <g id="text_9">
      <!-- 0.4734 -->
      <g transform="translate(737.755789 591.225013) scale(0.14 -0.14)">
       <use xlink:href="#DejaVuSans-30"/>
       <use xlink:href="#DejaVuSans-2e" x="63.623047"/>
       <use xlink:href="#DejaVuSans-34" x="95.410156"/>
       <use xlink:href="#DejaVuSans-37" x="159.033203"/>
       <use xlink:href="#DejaVuSans-33" x="222.65625"/>
       <use xlink:href="#DejaVuSans-34" x="286.279297"/>
      </g>
     </g>
    </g>
    <g id="text_10">
     <!-- Axial Location (mm) -->
     <g transform="translate(372.533125 608.774387) scale(0.14 -0.14)">
      <defs>
       <path id="DejaVuSans-41" d="M 2188 4044 
L 1331 1722 
L 3047 1722 
L 2188 4044 
z
M 1831 4666 
L 2547 4666 
L 4325 0 
L 3669 0 
L 3244 1197 
L 1141 1197 
L 716 0 
L 50 0 
L 1831 4666 
z
" transform="scale(0.015625)"/>
       <path id="DejaVuSans-78" d="M 3513 3500 
L 2247 1797 
L 3578 0 
L 2900 0 
L 1881 1375 
L 863 0 
L 184 0 
L 1544 1831 
L 300 3500 
L 978 3500 
L 1906 2253 
L 2834 3500 
L 3513 3500 
z
" transform="scale(0.015625)"/>
       <path id="DejaVuSans-69" d="M 603 3500 
L 1178 3500 
L 1178 0 
L 603 0 
L 603 3500 
z
M 603 4863 
L 1178 4863 
L 1178 4134 
L 603 4134 
L 603 4863 
z
" transform="scale(0.015625)"/>
       <path id="DejaVuSans-61" d="M 2194 1759 
Q 1497 1759 1228 1600 
Q 959 1441 959 1056 
Q 959 750 1161 570 
Q 1363 391 1709 391 
Q 2188 391 2477 730 
Q 2766 1069 2766 1631 
L 2766 1759 
L 2194 1759 
z
M 3341 1997 
L 3341 0 
L 2766 0 
L 2766 531 
Q 2569 213 2275 61 
Q 1981 -91 1556 -91 
Q 1019 -91 701 211 
Q 384 513 384 1019 
Q 384 1609 779 1909 
Q 1175 2209 1959 2209 
L 2766 2209 
L 2766 2266 
Q 2766 2663 2505 2880 
Q 2244 3097 1772 3097 
Q 1472 3097 1187 3025 
Q 903 2953 641 2809 
L 641 3341 
Q 956 3463 1253 3523 
Q 1550 3584 1831 3584 
Q 2591 3584 2966 3190 
Q 3341 2797 3341 1997 
z
" transform="scale(0.015625)"/>
       <path id="DejaVuSans-6c" d="M 603 4863 
L 1178 4863 
L 1178 0 
L 603 0 
L 603 4863 
z
" transform="scale(0.015625)"/>
       <path id="DejaVuSans-20" transform="scale(0.015625)"/>
       <path id="DejaVuSans-4c" d="M 628 4666 
L 1259 4666 
L 1259 531 
L 3531 531 
L 3531 0 
L 628 0 
L 628 4666 
z
" transform="scale(0.015625)"/>
       <path id="DejaVuSans-6f" d="M 1959 3097 
Q 1497 3097 1228 2736 
Q 959 2375 959 1747 
Q 959 1119 1226 758 
Q 1494 397 1959 397 
Q 2419 397 2687 759 
Q 2956 1122 2956 1747 
Q 2956 2369 2687 2733 
Q 2419 3097 1959 3097 
z
M 1959 3584 
Q 2709 3584 3137 3096 
Q 3566 2609 3566 1747 
Q 3566 888 3137 398 
Q 2709 -91 1959 -91 
Q 1206 -91 779 398 
Q 353 888 353 1747 
Q 353 2609 779 3096 
Q 1206 3584 1959 3584 
z
" transform="scale(0.015625)"/>
       <path id="DejaVuSans-63" d="M 3122 3366 
L 3122 2828 
Q 2878 2963 2633 3030 
Q 2388 3097 2138 3097 
Q 1578 3097 1268 2742 
Q 959 2388 959 1747 
Q 959 1106 1268 751 
Q 1578 397 2138 397 
Q 2388 397 2633 464 
Q 2878 531 3122 666 
L 3122 134 
Q 2881 22 2623 -34 
Q 2366 -91 2075 -91 
Q 1284 -91 818 406 
Q 353 903 353 1747 
Q 353 2603 823 3093 
Q 1294 3584 2113 3584 
Q 2378 3584 2631 3529 
Q 2884 3475 3122 3366 
z
" transform="scale(0.015625)"/>
       <path id="DejaVuSans-74" d="M 1172 4494 
L 1172 3500 
L 2356 3500 
L 2356 3053 
L 1172 3053 
L 1172 1153 
Q 1172 725 1289 603 
Q 1406 481 1766 481 
L 2356 481 
L 2356 0 
L 1766 0 
Q 1100 0 847 248 
Q 594 497 594 1153 
L 594 3053 
L 172 3053 
L 172 3500 
L 594 3500 
L 594 4494 
L 1172 4494 
z
" transform="scale(0.015625)"/>
       <path id="DejaVuSans-6e" d="M 3513 2113 
L 3513 0 
L 2938 0 
L 2938 2094 
Q 2938 2591 2744 2837 
Q 2550 3084 2163 3084 
Q 1697 3084 1428 2787 
Q 1159 2491 1159 1978 
L 1159 0 
L 581 0 
L 581 3500 
L 1159 3500 
L 1159 2956 
Q 1366 3272 1645 3428 
Q 1925 3584 2291 3584 
Q 2894 3584 3203 3211 
Q 3513 2838 3513 2113 
z
" transform="scale(0.015625)"/>
       <path id="DejaVuSans-28" d="M 1984 4856 
Q 1566 4138 1362 3434 
Q 1159 2731 1159 2009 
Q 1159 1288 1364 580 
Q 1569 -128 1984 -844 
L 1484 -844 
Q 1016 -109 783 600 
Q 550 1309 550 2009 
Q 550 2706 781 3412 
Q 1013 4119 1484 4856 
L 1984 4856 
z
" transform="scale(0.015625)"/>
       <path id="DejaVuSans-6d" d="M 3328 2828 
Q 3544 3216 3844 3400 
Q 4144 3584 4550 3584 
Q 5097 3584 5394 3201 
Q 5691 2819 5691 2113 
L 5691 0 
L 5113 0 
L 5113 2094 
Q 5113 2597 4934 2840 
Q 4756 3084 4391 3084 
Q 3944 3084 3684 2787 
Q 3425 2491 3425 1978 
L 3425 0 
L 2847 0 
L 2847 2094 
Q 2847 2600 2669 2842 
Q 2491 3084 2119 3084 
Q 1678 3084 1418 2786 
Q 1159 2488 1159 1978 
L 1159 0 
L 581 0 
L 581 3500 
L 1159 3500 
L 1159 2956 
Q 1356 3278 1631 3431 
Q 1906 3584 2284 3584 
Q 2666 3584 2933 3390 
Q 3200 3197 3328 2828 
z
" transform="scale(0.015625)"/>
       <path id="DejaVuSans-29" d="M 513 4856 
L 1013 4856 
Q 1481 4119 1714 3412 
Q 1947 2706 1947 2009 
Q 1947 1309 1714 600 
Q 1481 -109 1013 -844 
L 513 -844 
Q 928 -128 1133 580 
Q 1338 1288 1338 2009 
Q 1338 2731 1133 3434 
Q 928 4138 513 4856 
z
" transform="scale(0.015625)"/>
      </defs>
      <use xlink:href="#DejaVuSans-41"/>
      <use xlink:href="#DejaVuSans-78" x="68.408203"/>
      <use xlink:href="#DejaVuSans-69" x="127.587891"/>
      <use xlink:href="#DejaVuSans-61" x="155.371094"/>
      <use xlink:href="#DejaVuSans-6c" x="216.650391"/>
      <use xlink:href="#DejaVuSans-20" x="244.433594"/>
      <use xlink:href="#DejaVuSans-4c" x="276.220703"/>
      <use xlink:href="#DejaVuSans-6f" x="330.183594"/>
      <use xlink:href="#DejaVuSans-63" x="391.365234"/>
      <use xlink:href="#DejaVuSans-61" x="446.345703"/>
      <use xlink:href="#DejaVuSans-74" x="507.625"/>
      <use xlink:href="#DejaVuSans-69" x="546.833984"/>
      <use xlink:href="#DejaVuSans-6f" x="574.617188"/>
      <use xlink:href="#DejaVuSans-6e" x="635.798828"/>
      <use xlink:href="#DejaVuSans-20" x="699.177734"/>
      <use xlink:href="#DejaVuSans-28" x="730.964844"/>
      <use xlink:href="#DejaVuSans-6d" x="769.978516"/>
      <use xlink:href="#DejaVuSans-6d" x="867.390625"/>
      <use xlink:href="#DejaVuSans-29" x="964.802734"/>
     </g>
    </g>
   </g>
   <g id="matplotlib.axis_2">
    <g id="ytick_1">
     <g id="line2d_10">
      <defs>
       <path id="m602f6b5503" d="M 0 0 
L -3.5 0 
" style="stroke: #000000; stroke-width: 0.8"/>
      </defs>
      <g>
       <use xlink:href="#m602f6b5503" x="108" y="545.529456" style="stroke: #000000; stroke-width: 0.8"/>
      </g>
     </g>
     <g id="text_11">
      <!-- −40 -->
      <g transform="translate(79.895313 549.328675) scale(0.1 -0.1)">
       <defs>
        <path id="DejaVuSans-2212" d="M 678 2272 
L 4684 2272 
L 4684 1741 
L 678 1741 
L 678 2272 
z
" transform="scale(0.015625)"/>
       </defs>
       <use xlink:href="#DejaVuSans-2212"/>
       <use xlink:href="#DejaVuSans-34" x="83.789062"/>
       <use xlink:href="#DejaVuSans-30" x="147.412109"/>
      </g>
     </g>
    </g>
    <g id="ytick_2">
     <g id="line2d_11">
      <g>
       <use xlink:href="#m602f6b5503" x="108" y="435.495928" style="stroke: #000000; stroke-width: 0.8"/>
      </g>
     </g>
     <g id="text_12">
      <!-- −20 -->
      <g transform="translate(79.895313 439.295147) scale(0.1 -0.1)">
       <use xlink:href="#DejaVuSans-2212"/>
       <use xlink:href="#DejaVuSans-32" x="83.789062"/>
       <use xlink:href="#DejaVuSans-30" x="147.412109"/>
      </g>
     </g>
    </g>
    <g id="ytick_3">
     <g id="line2d_12">
      <g>
       <use xlink:href="#m602f6b5503" x="108" y="325.4624" style="stroke: #000000; stroke-width: 0.8"/>
      </g>
     </g>
     <g id="text_13">
      <!-- 0 -->
      <g transform="translate(94.6375 329.261619) scale(0.1 -0.1)">
       <use xlink:href="#DejaVuSans-30"/>
      </g>
     </g>
    </g>
    <g id="ytick_4">
     <g id="line2d_13">
      <g>
       <use xlink:href="#m602f6b5503" x="108" y="215.428872" style="stroke: #000000; stroke-width: 0.8"/>
      </g>
     </g>
     <g id="text_14">
      <!-- 20 -->
      <g transform="translate(88.275 219.228091) scale(0.1 -0.1)">
       <use xlink:href="#DejaVuSans-32"/>
       <use xlink:href="#DejaVuSans-30" x="63.623047"/>
      </g>
     </g>
    </g>
    <g id="ytick_5">
     <g id="line2d_14">
      <g>
       <use xlink:href="#m602f6b5503" x="108" y="105.395344" style="stroke: #000000; stroke-width: 0.8"/>
      </g>
     </g>
     <g id="text_15">
      <!-- 40 -->
      <g transform="translate(88.275 109.194562) scale(0.1 -0.1)">
       <use xlink:href="#DejaVuSans-34"/>
       <use xlink:href="#DejaVuSans-30" x="63.623047"/>
      </g>
     </g>
    </g>
    <g id="text_16">
     <!-- Beam radius (µm) -->
     <g transform="translate(72.98375 388.502869) rotate(-90) scale(0.14 -0.14)">
      <defs>
       <path id="DejaVuSans-42" d="M 1259 2228 
L 1259 519 
L 2272 519 
Q 2781 519 3026 730 
Q 3272 941 3272 1375 
Q 3272 1813 3026 2020 
Q 2781 2228 2272 2228 
L 1259 2228 
z
M 1259 4147 
L 1259 2741 
L 2194 2741 
Q 2656 2741 2882 2914 
Q 3109 3088 3109 3444 
Q 3109 3797 2882 3972 
Q 2656 4147 2194 4147 
L 1259 4147 
z
M 628 4666 
L 2241 4666 
Q 2963 4666 3353 4366 
Q 3744 4066 3744 3513 
Q 3744 3084 3544 2831 
Q 3344 2578 2956 2516 
Q 3422 2416 3680 2098 
Q 3938 1781 3938 1306 
Q 3938 681 3513 340 
Q 3088 0 2303 0 
L 628 0 
L 628 4666 
z
" transform="scale(0.015625)"/>
       <path id="DejaVuSans-65" d="M 3597 1894 
L 3597 1613 
L 953 1613 
Q 991 1019 1311 708 
Q 1631 397 2203 397 
Q 2534 397 2845 478 
Q 3156 559 3463 722 
L 3463 178 
Q 3153 47 2828 -22 
Q 2503 -91 2169 -91 
Q 1331 -91 842 396 
Q 353 884 353 1716 
Q 353 2575 817 3079 
Q 1281 3584 2069 3584 
Q 2775 3584 3186 3129 
Q 3597 2675 3597 1894 
z
M 3022 2063 
Q 3016 2534 2758 2815 
Q 2500 3097 2075 3097 
Q 1594 3097 1305 2825 
Q 1016 2553 972 2059 
L 3022 2063 
z
" transform="scale(0.015625)"/>
       <path id="DejaVuSans-72" d="M 2631 2963 
Q 2534 3019 2420 3045 
Q 2306 3072 2169 3072 
Q 1681 3072 1420 2755 
Q 1159 2438 1159 1844 
L 1159 0 
L 581 0 
L 581 3500 
L 1159 3500 
L 1159 2956 
Q 1341 3275 1631 3429 
Q 1922 3584 2338 3584 
Q 2397 3584 2469 3576 
Q 2541 3569 2628 3553 
L 2631 2963 
z
" transform="scale(0.015625)"/>
       <path id="DejaVuSans-64" d="M 2906 2969 
L 2906 4863 
L 3481 4863 
L 3481 0 
L 2906 0 
L 2906 525 
Q 2725 213 2448 61 
Q 2172 -91 1784 -91 
Q 1150 -91 751 415 
Q 353 922 353 1747 
Q 353 2572 751 3078 
Q 1150 3584 1784 3584 
Q 2172 3584 2448 3432 
Q 2725 3281 2906 2969 
z
M 947 1747 
Q 947 1113 1208 752 
Q 1469 391 1925 391 
Q 2381 391 2643 752 
Q 2906 1113 2906 1747 
Q 2906 2381 2643 2742 
Q 2381 3103 1925 3103 
Q 1469 3103 1208 2742 
Q 947 2381 947 1747 
z
" transform="scale(0.015625)"/>
       <path id="DejaVuSans-75" d="M 544 1381 
L 544 3500 
L 1119 3500 
L 1119 1403 
Q 1119 906 1312 657 
Q 1506 409 1894 409 
Q 2359 409 2629 706 
Q 2900 1003 2900 1516 
L 2900 3500 
L 3475 3500 
L 3475 0 
L 2900 0 
L 2900 538 
Q 2691 219 2414 64 
Q 2138 -91 1772 -91 
Q 1169 -91 856 284 
Q 544 659 544 1381 
z
M 1991 3584 
L 1991 3584 
z
" transform="scale(0.015625)"/>
       <path id="DejaVuSans-73" d="M 2834 3397 
L 2834 2853 
Q 2591 2978 2328 3040 
Q 2066 3103 1784 3103 
Q 1356 3103 1142 2972 
Q 928 2841 928 2578 
Q 928 2378 1081 2264 
Q 1234 2150 1697 2047 
L 1894 2003 
Q 2506 1872 2764 1633 
Q 3022 1394 3022 966 
Q 3022 478 2636 193 
Q 2250 -91 1575 -91 
Q 1294 -91 989 -36 
Q 684 19 347 128 
L 347 722 
Q 666 556 975 473 
Q 1284 391 1588 391 
Q 1994 391 2212 530 
Q 2431 669 2431 922 
Q 2431 1156 2273 1281 
Q 2116 1406 1581 1522 
L 1381 1569 
Q 847 1681 609 1914 
Q 372 2147 372 2553 
Q 372 3047 722 3315 
Q 1072 3584 1716 3584 
Q 2034 3584 2315 3537 
Q 2597 3491 2834 3397 
z
" transform="scale(0.015625)"/>
       <path id="DejaVuSans-b5" d="M 544 -1331 
L 544 3500 
L 1119 3500 
L 1119 1325 
Q 1119 872 1334 640 
Q 1550 409 1972 409 
Q 2434 409 2667 671 
Q 2900 934 2900 1459 
L 2900 3500 
L 3475 3500 
L 3475 806 
Q 3475 619 3529 530 
Q 3584 441 3700 441 
Q 3728 441 3778 458 
Q 3828 475 3916 513 
L 3916 50 
Q 3788 -22 3673 -56 
Q 3559 -91 3450 -91 
Q 3234 -91 3106 31 
Q 2978 153 2931 403 
Q 2775 156 2548 32 
Q 2322 -91 2016 -91 
Q 1697 -91 1473 31 
Q 1250 153 1119 397 
L 1119 -1331 
L 544 -1331 
z
" transform="scale(0.015625)"/>
      </defs>
      <use xlink:href="#DejaVuSans-42"/>
      <use xlink:href="#DejaVuSans-65" x="68.603516"/>
      <use xlink:href="#DejaVuSans-61" x="130.126953"/>
      <use xlink:href="#DejaVuSans-6d" x="191.40625"/>
      <use xlink:href="#DejaVuSans-20" x="288.818359"/>
      <use xlink:href="#DejaVuSans-72" x="320.605469"/>
      <use xlink:href="#DejaVuSans-61" x="361.71875"/>
      <use xlink:href="#DejaVuSans-64" x="422.998047"/>
      <use xlink:href="#DejaVuSans-69" x="486.474609"/>
      <use xlink:href="#DejaVuSans-75" x="514.257812"/>
      <use xlink:href="#DejaVuSans-73" x="577.636719"/>
      <use xlink:href="#DejaVuSans-20" x="629.736328"/>
      <use xlink:href="#DejaVuSans-28" x="661.523438"/>
      <use xlink:href="#DejaVuSans-b5" x="700.537109"/>
      <use xlink:href="#DejaVuSans-6d" x="764.160156"/>
      <use xlink:href="#DejaVuSans-29" x="861.572266"/>
     </g>
    </g>
   </g>
   <g id="line2d_15">
    <path d="M 108 529.087935 
L 777.6 136.419722 
" clip-path="url(#pe9ca581469)" style="fill: none; stroke-dasharray: 5.55,2.4; stroke-dashoffset: 0; stroke: #0000ff; stroke-width: 1.5"/>
   </g>
   <g id="line2d_16">
    <path d="M 108 121.836865 
L 777.6 514.505078 
" clip-path="url(#pe9ca581469)" style="fill: none; stroke-dasharray: 5.55,2.4; stroke-dashoffset: 0; stroke: #0000ff; stroke-width: 1.5"/>
   </g>
   <g id="line2d_17">
    <defs>
     <path id="m2755e88e60" d="M 0 3 
C 0.795609 3 1.55874 2.683901 2.12132 2.12132 
C 2.683901 1.55874 3 0.795609 3 0 
C 3 -0.795609 2.683901 -1.55874 2.12132 -2.12132 
C 1.55874 -2.683901 0.795609 -3 0 -3 
C -0.795609 -3 -1.55874 -2.683901 -2.12132 -2.12132 
C -2.683901 -1.55874 -3 -0.795609 -3 0 
C -3 0.795609 -2.683901 1.55874 -2.12132 2.12132 
C -1.55874 2.683901 -0.795609 3 0 3 
z
" style="stroke: #000000"/>
    </defs>
    <g clip-path="url(#pe9ca581469)">
     <use xlink:href="#m2755e88e60" x="124.534941" y="139.863936" style="stroke: #000000"/>
     <use xlink:href="#m2755e88e60" x="205.605031" y="177.471098" style="stroke: #000000"/>
     <use xlink:href="#m2755e88e60" x="286.675121" y="199.838303" style="stroke: #000000"/>
     <use xlink:href="#m2755e88e60" x="367.745212" y="255.424185" style="stroke: #000000"/>
     <use xlink:href="#m2755e88e60" x="448.815302" y="275.347381" style="stroke: #000000"/>
     <use xlink:href="#m2755e88e60" x="529.885392" y="276.062082" style="stroke: #000000"/>
     <use xlink:href="#m2755e88e60" x="610.955483" y="239.76975" style="stroke: #000000"/>
     <use xlink:href="#m2755e88e60" x="692.025573" y="154.985381" style="stroke: #000000"/>
    </g>
   </g>
   <g id="line2d_18">
    <g clip-path="url(#pe9ca581469)">
     <use xlink:href="#m2755e88e60" x="124.534941" y="511.060864" style="stroke: #000000"/>
     <use xlink:href="#m2755e88e60" x="205.605031" y="473.453702" style="stroke: #000000"/>
     <use xlink:href="#m2755e88e60" x="286.675121" y="451.086497" style="stroke: #000000"/>
     <use xlink:href="#m2755e88e60" x="367.745212" y="395.500615" style="stroke: #000000"/>
     <use xlink:href="#m2755e88e60" x="448.815302" y="375.577419" style="stroke: #000000"/>
     <use xlink:href="#m2755e88e60" x="529.885392" y="374.862718" style="stroke: #000000"/>
     <use xlink:href="#m2755e88e60" x="610.955483" y="411.15505" style="stroke: #000000"/>
     <use xlink:href="#m2755e88e60" x="692.025573" y="495.939419" style="stroke: #000000"/>
    </g>
   </g>
   <g id="line2d_19"/>
   <g id="line2d_20"/>
   <g id="patch_6">
    <path d="M 108 573.5872 
L 108 77.3376 
" style="fill: none; stroke: #000000; stroke-width: 0.8; stroke-linejoin: miter; stroke-linecap: square"/>
   </g>
   <g id="patch_7">
    <path d="M 777.6 573.5872 
L 777.6 77.3376 
" style="fill: none; stroke: #000000; stroke-width: 0.8; stroke-linejoin: miter; stroke-linecap: square"/>
   </g>
   <g id="patch_8">
    <path d="M 108 573.5872 
L 777.6 573.5872 
" style="fill: none; stroke: #000000; stroke-width: 0.8; stroke-linejoin: miter; stroke-linecap: square"/>
   </g>
   <g id="patch_9">
    <path d="M 108 77.3376 
L 777.6 77.3376 
" style="fill: none; stroke: #000000; stroke-width: 0.8; stroke-linejoin: miter; stroke-linecap: square"/>
   </g>
  </g>
  <g id="axes_2">
   <g id="matplotlib.axis_3">
    <g id="xtick_10">
     <g id="line2d_21">
      <defs>
       <path id="m70e8f28956" d="M 0 0 
L 0 -3.5 
" style="stroke: #000000; stroke-width: 0.8"/>
      </defs>
      <g>
       <use xlink:href="#m70e8f28956" x="148.218283" y="77.3376" style="stroke: #000000; stroke-width: 0.8"/>
      </g>
     </g>
     <g id="text_17">
      <!-- -4$z_R$ -->
      <g transform="translate(133.938283 67.426038) scale(0.14 -0.14)">
       <defs>
        <path id="DejaVuSans-Oblique-7a" d="M 744 3500 
L 3475 3500 
L 3372 2975 
L 738 459 
L 2913 459 
L 2822 0 
L -19 0 
L 84 525 
L 2719 3041 
L 653 3041 
L 744 3500 
z
" transform="scale(0.015625)"/>
        <path id="DejaVuSans-Oblique-52" d="M 1613 4147 
L 1294 2491 
L 2106 2491 
Q 2584 2491 2879 2755 
Q 3175 3019 3175 3444 
Q 3175 3784 2976 3965 
Q 2778 4147 2406 4147 
L 1613 4147 
z
M 2772 2241 
Q 2972 2194 3105 2009 
Q 3238 1825 3413 1275 
L 3809 0 
L 3144 0 
L 2778 1197 
Q 2638 1659 2453 1815 
Q 2269 1972 1888 1972 
L 1191 1972 
L 806 0 
L 172 0 
L 1081 4666 
L 2503 4666 
Q 3150 4666 3495 4373 
Q 3841 4081 3841 3531 
Q 3841 3044 3547 2687 
Q 3253 2331 2772 2241 
z
" transform="scale(0.015625)"/>
       </defs>
       <use xlink:href="#DejaVuSans-2d" transform="translate(0 0.09375)"/>
       <use xlink:href="#DejaVuSans-34" transform="translate(36.083984 0.09375)"/>
       <use xlink:href="#DejaVuSans-Oblique-7a" transform="translate(99.707031 0.09375)"/>
       <use xlink:href="#DejaVuSans-Oblique-52" transform="translate(152.197266 -16.3125) scale(0.7)"/>
      </g>
     </g>
    </g>
    <g id="xtick_11">
     <g id="line2d_22">
      <g>
       <use xlink:href="#m70e8f28956" x="224.972151" y="77.3376" style="stroke: #000000; stroke-width: 0.8"/>
      </g>
     </g>
     <g id="text_18">
      <!-- -3$z_R$ -->
      <g transform="translate(210.692151 67.426038) scale(0.14 -0.14)">
       <use xlink:href="#DejaVuSans-2d" transform="translate(0 0.78125)"/>
       <use xlink:href="#DejaVuSans-33" transform="translate(36.083984 0.78125)"/>
       <use xlink:href="#DejaVuSans-Oblique-7a" transform="translate(99.707031 0.78125)"/>
       <use xlink:href="#DejaVuSans-Oblique-52" transform="translate(152.197266 -15.625) scale(0.7)"/>
      </g>
     </g>
    </g>
    <g id="xtick_12">
     <g id="line2d_23">
      <g>
       <use xlink:href="#m70e8f28956" x="301.726019" y="77.3376" style="stroke: #000000; stroke-width: 0.8"/>
      </g>
     </g>
     <g id="text_19">
      <!-- -2$z_R$ -->
      <g transform="translate(287.446019 67.426038) scale(0.14 -0.14)">
       <use xlink:href="#DejaVuSans-2d" transform="translate(0 0.78125)"/>
       <use xlink:href="#DejaVuSans-32" transform="translate(36.083984 0.78125)"/>
       <use xlink:href="#DejaVuSans-Oblique-7a" transform="translate(99.707031 0.78125)"/>
       <use xlink:href="#DejaVuSans-Oblique-52" transform="translate(152.197266 -15.625) scale(0.7)"/>
      </g>
     </g>
    </g>
    <g id="xtick_13">
     <g id="line2d_24">
      <g>
       <use xlink:href="#m70e8f28956" x="378.479887" y="77.3376" style="stroke: #000000; stroke-width: 0.8"/>
      </g>
     </g>
     <g id="text_20">
      <!-- -$z_R$ -->
      <g transform="translate(368.679887 67.426038) scale(0.14 -0.14)">
       <use xlink:href="#DejaVuSans-2d" transform="translate(0 0.3125)"/>
       <use xlink:href="#DejaVuSans-Oblique-7a" transform="translate(36.083984 0.3125)"/>
       <use xlink:href="#DejaVuSans-Oblique-52" transform="translate(88.574219 -16.09375) scale(0.7)"/>
      </g>
     </g>
    </g>
    <g id="xtick_14">
     <g id="line2d_25">
      <g>
       <use xlink:href="#m70e8f28956" x="455.233755" y="77.3376" style="stroke: #000000; stroke-width: 0.8"/>
      </g>
     </g>
     <g id="text_21">
      <!-- 0 -->
      <g transform="translate(450.780005 67.426038) scale(0.14 -0.14)">
       <use xlink:href="#DejaVuSans-30"/>
      </g>
     </g>
    </g>
    <g id="xtick_15">
     <g id="line2d_26">
      <g>
       <use xlink:href="#m70e8f28956" x="531.987623" y="77.3376" style="stroke: #000000; stroke-width: 0.8"/>
      </g>
     </g>
     <g id="text_22">
      <!-- $z_R$ -->
      <g transform="translate(524.707623 67.426038) scale(0.14 -0.14)">
       <use xlink:href="#DejaVuSans-Oblique-7a" transform="translate(0 0.3125)"/>
       <use xlink:href="#DejaVuSans-Oblique-52" transform="translate(52.490234 -16.09375) scale(0.7)"/>
      </g>
     </g>
    </g>
    <g id="xtick_16">
     <g id="line2d_27">
      <g>
       <use xlink:href="#m70e8f28956" x="608.741491" y="77.3376" style="stroke: #000000; stroke-width: 0.8"/>
      </g>
     </g>
     <g id="text_23">
      <!-- 2$z_R$ -->
      <g transform="translate(596.981491 67.426038) scale(0.14 -0.14)">
       <use xlink:href="#DejaVuSans-32" transform="translate(0 0.78125)"/>
       <use xlink:href="#DejaVuSans-Oblique-7a" transform="translate(63.623047 0.78125)"/>
       <use xlink:href="#DejaVuSans-Oblique-52" transform="translate(116.113281 -15.625) scale(0.7)"/>
      </g>
     </g>
    </g>
    <g id="xtick_17">
     <g id="line2d_28">
      <g>
       <use xlink:href="#m70e8f28956" x="685.495359" y="77.3376" style="stroke: #000000; stroke-width: 0.8"/>
      </g>
     </g>
     <g id="text_24">
      <!-- 3$z_R$ -->
      <g transform="translate(673.735359 67.426038) scale(0.14 -0.14)">
       <use xlink:href="#DejaVuSans-33" transform="translate(0 0.78125)"/>
       <use xlink:href="#DejaVuSans-Oblique-7a" transform="translate(63.623047 0.78125)"/>
       <use xlink:href="#DejaVuSans-Oblique-52" transform="translate(116.113281 -15.625) scale(0.7)"/>
      </g>
     </g>
    </g>
    <g id="xtick_18">
     <g id="line2d_29">
      <g>
       <use xlink:href="#m70e8f28956" x="762.249226" y="77.3376" style="stroke: #000000; stroke-width: 0.8"/>
      </g>
     </g>
     <g id="text_25">
      <!-- 4$z_R$ -->
      <g transform="translate(750.489226 67.426038) scale(0.14 -0.14)">
       <use xlink:href="#DejaVuSans-34" transform="translate(0 0.09375)"/>
       <use xlink:href="#DejaVuSans-Oblique-7a" transform="translate(63.623047 0.09375)"/>
       <use xlink:href="#DejaVuSans-Oblique-52" transform="translate(116.113281 -16.3125) scale(0.7)"/>
      </g>
     </g>
    </g>
   </g>
   <g id="patch_10">
    <path d="M 108 573.5872 
L 108 77.3376 
" style="fill: none; stroke: #000000; stroke-width: 0.8; stroke-linejoin: miter; stroke-linecap: square"/>
   </g>
   <g id="patch_11">
    <path d="M 777.6 573.5872 
L 777.6 77.3376 
" style="fill: none; stroke: #000000; stroke-width: 0.8; stroke-linejoin: miter; stroke-linecap: square"/>
   </g>
   <g id="patch_12">
    <path d="M 108 573.5872 
L 777.6 573.5872 
" style="fill: none; stroke: #000000; stroke-width: 0.8; stroke-linejoin: miter; stroke-linecap: square"/>
   </g>
   <g id="patch_13">
    <path d="M 108 77.3376 
L 777.6 77.3376 
" style="fill: none; stroke: #000000; stroke-width: 0.8; stroke-linejoin: miter; stroke-linecap: square"/>
   </g>
   <g id="text_26">
    <!-- $\Theta$  = 138.04±9.98 mrad -->
    <g transform="translate(608.741491 329.8774) scale(0.16 -0.16)">
     <defs>
      <path id="DejaVuSans-398" d="M 1416 2750 
L 3622 2750 
L 3622 2219 
L 1416 2219 
L 1416 2750 
z
M 2522 4238 
Q 1834 4238 1431 3725 
Q 1025 3213 1025 2328 
Q 1025 1447 1429 934 
Q 1834 422 2522 422 
Q 3209 422 3613 934 
Q 4013 1447 4013 2328 
Q 4013 3213 3613 3725 
Q 3209 4238 2522 4238 
z
M 2522 4750 
Q 3503 4750 4090 4092 
Q 4678 3434 4678 2328 
Q 4678 1225 4091 569 
Q 3503 -91 2522 -91 
Q 1538 -91 950 566 
Q 359 1222 359 2328 
Q 359 3434 950 4094 
Q 1538 4750 2522 4750 
z
" transform="scale(0.015625)"/>
      <path id="DejaVuSans-3d" d="M 678 2906 
L 4684 2906 
L 4684 2381 
L 678 2381 
L 678 2906 
z
M 678 1631 
L 4684 1631 
L 4684 1100 
L 678 1100 
L 678 1631 
z
" transform="scale(0.015625)"/>
      <path id="DejaVuSans-b1" d="M 2944 4013 
L 2944 2803 
L 4684 2803 
L 4684 2272 
L 2944 2272 
L 2944 1063 
L 2419 1063 
L 2419 2272 
L 678 2272 
L 678 2803 
L 2419 2803 
L 2419 4013 
L 2944 4013 
z
M 678 531 
L 4684 531 
L 4684 0 
L 678 0 
L 678 531 
z
" transform="scale(0.015625)"/>
      <path id="DejaVuSans-39" d="M 703 97 
L 703 672 
Q 941 559 1184 500 
Q 1428 441 1663 441 
Q 2288 441 2617 861 
Q 2947 1281 2994 2138 
Q 2813 1869 2534 1725 
Q 2256 1581 1919 1581 
Q 1219 1581 811 2004 
Q 403 2428 403 3163 
Q 403 3881 828 4315 
Q 1253 4750 1959 4750 
Q 2769 4750 3195 4129 
Q 3622 3509 3622 2328 
Q 3622 1225 3098 567 
Q 2575 -91 1691 -91 
Q 1453 -91 1209 -44 
Q 966 3 703 97 
z
M 1959 2075 
Q 2384 2075 2632 2365 
Q 2881 2656 2881 3163 
Q 2881 3666 2632 3958 
Q 2384 4250 1959 4250 
Q 1534 4250 1286 3958 
Q 1038 3666 1038 3163 
Q 1038 2656 1286 2365 
Q 1534 2075 1959 2075 
z
" transform="scale(0.015625)"/>
     </defs>
     <use xlink:href="#DejaVuSans-398" transform="translate(0 0.015625)"/>
     <use xlink:href="#DejaVuSans-20" transform="translate(78.710938 0.015625)"/>
     <use xlink:href="#DejaVuSans-20" transform="translate(110.498047 0.015625)"/>
     <use xlink:href="#DejaVuSans-3d" transform="translate(142.285156 0.015625)"/>
     <use xlink:href="#DejaVuSans-20" transform="translate(226.074219 0.015625)"/>
     <use xlink:href="#DejaVuSans-31" transform="translate(257.861328 0.015625)"/>
     <use xlink:href="#DejaVuSans-33" transform="translate(321.484375 0.015625)"/>
     <use xlink:href="#DejaVuSans-38" transform="translate(385.107422 0.015625)"/>
     <use xlink:href="#DejaVuSans-2e" transform="translate(448.730469 0.015625)"/>
     <use xlink:href="#DejaVuSans-30" transform="translate(480.517578 0.015625)"/>
     <use xlink:href="#DejaVuSans-34" transform="translate(544.140625 0.015625)"/>
     <use xlink:href="#DejaVuSans-b1" transform="translate(607.763672 0.015625)"/>
     <use xlink:href="#DejaVuSans-39" transform="translate(691.552734 0.015625)"/>
     <use xlink:href="#DejaVuSans-2e" transform="translate(755.175781 0.015625)"/>
     <use xlink:href="#DejaVuSans-39" transform="translate(786.962891 0.015625)"/>
     <use xlink:href="#DejaVuSans-38" transform="translate(850.585938 0.015625)"/>
     <use xlink:href="#DejaVuSans-20" transform="translate(914.208984 0.015625)"/>
     <use xlink:href="#DejaVuSans-6d" transform="translate(945.996094 0.015625)"/>
     <use xlink:href="#DejaVuSans-72" transform="translate(1043.408203 0.015625)"/>
     <use xlink:href="#DejaVuSans-61" transform="translate(1084.521484 0.015625)"/>
     <use xlink:href="#DejaVuSans-64" transform="translate(1145.800781 0.015625)"/>
    </g>
   </g>
   <g id="patch_14">
    <path d="M 571.503036 260.847618 
Q 596.637725 325.462997 571.502578 390.078379 
" style="fill: none; stroke: #000000; stroke-linecap: round"/>
    <path d="M 571.0892 265.300565 
L 571.503036 260.847618 
L 574.817092 263.850455 
" style="fill: none; stroke: #000000; stroke-linecap: round"/>
    <path d="M 574.816652 387.075563 
L 571.502578 390.078379 
L 571.088769 385.62543 
" style="fill: none; stroke: #000000; stroke-linecap: round"/>
   </g>
   <g id="text_27">
    <!-- $-z_R&lt;z-z_0&lt;z_R$ -->
    <g transform="translate(390.193755 530.344466) scale(0.16 -0.16)">
     <defs>
      <path id="DejaVuSans-3c" d="M 4684 3150 
L 1459 2003 
L 4684 863 
L 4684 294 
L 678 1747 
L 678 2266 
L 4684 3719 
L 4684 3150 
z
" transform="scale(0.015625)"/>
     </defs>
     <use xlink:href="#DejaVuSans-2212" transform="translate(0 0.890625)"/>
     <use xlink:href="#DejaVuSans-Oblique-7a" transform="translate(83.789062 0.890625)"/>
     <use xlink:href="#DejaVuSans-Oblique-52" transform="translate(136.279297 -15.515625) scale(0.7)"/>
     <use xlink:href="#DejaVuSans-3c" transform="translate(207.133789 0.890625)"/>
     <use xlink:href="#DejaVuSans-Oblique-7a" transform="translate(310.405273 0.890625)"/>
     <use xlink:href="#DejaVuSans-2212" transform="translate(382.37793 0.890625)"/>
     <use xlink:href="#DejaVuSans-Oblique-7a" transform="translate(485.649414 0.890625)"/>
     <use xlink:href="#DejaVuSans-30" transform="translate(538.139648 -15.515625) scale(0.7)"/>
     <use xlink:href="#DejaVuSans-3c" transform="translate(604.892578 0.890625)"/>
     <use xlink:href="#DejaVuSans-Oblique-7a" transform="translate(708.164062 0.890625)"/>
     <use xlink:href="#DejaVuSans-Oblique-52" transform="translate(760.654297 -15.515625) scale(0.7)"/>
    </g>
   </g>
   <g id="text_28">
    <!-- $2z_R &lt; z-z_0$ -->
    <g transform="translate(647.890745 530.344466) scale(0.16 -0.16)">
     <use xlink:href="#DejaVuSans-32" transform="translate(0 0.78125)"/>
     <use xlink:href="#DejaVuSans-Oblique-7a" transform="translate(63.623047 0.78125)"/>
     <use xlink:href="#DejaVuSans-Oblique-52" transform="translate(116.113281 -15.625) scale(0.7)"/>
     <use xlink:href="#DejaVuSans-3c" transform="translate(186.967773 0.78125)"/>
     <use xlink:href="#DejaVuSans-Oblique-7a" transform="translate(290.239258 0.78125)"/>
     <use xlink:href="#DejaVuSans-2212" transform="translate(362.211914 0.78125)"/>
     <use xlink:href="#DejaVuSans-Oblique-7a" transform="translate(465.483398 0.78125)"/>
     <use xlink:href="#DejaVuSans-30" transform="translate(517.973633 -15.625) scale(0.7)"/>
    </g>
   </g>
   <g id="text_29">
    <!-- $z-z_0 &lt; -2z_R$ -->
    <g transform="translate(152.86301 530.344466) scale(0.16 -0.16)">
     <use xlink:href="#DejaVuSans-Oblique-7a" transform="translate(0 0.78125)"/>
     <use xlink:href="#DejaVuSans-2212" transform="translate(71.972656 0.78125)"/>
     <use xlink:href="#DejaVuSans-Oblique-7a" transform="translate(175.244141 0.78125)"/>
     <use xlink:href="#DejaVuSans-30" transform="translate(227.734375 -15.625) scale(0.7)"/>
     <use xlink:href="#DejaVuSans-3c" transform="translate(294.487305 0.78125)"/>
     <use xlink:href="#DejaVuSans-2212" transform="translate(397.758789 0.78125)"/>
     <use xlink:href="#DejaVuSans-32" transform="translate(481.547852 0.78125)"/>
     <use xlink:href="#DejaVuSans-Oblique-7a" transform="translate(545.170898 0.78125)"/>
     <use xlink:href="#DejaVuSans-Oblique-52" transform="translate(597.661133 -15.625) scale(0.7)"/>
    </g>
   </g>
   <g id="text_30">
    <!-- $w_0=d_0/2$=8±2µm,  $M^2$ = 1.66±0.50,  $\lambda$=1064 nm -->
    <g transform="translate(242 50.788225) scale(0.16 -0.16)">
     <defs>
      <path id="DejaVuSans-Oblique-77" d="M 544 3500 
L 1113 3500 
L 1259 684 
L 2566 3500 
L 3231 3500 
L 3425 684 
L 4666 3500 
L 5241 3500 
L 3641 0 
L 2969 0 
L 2797 2900 
L 1459 0 
L 781 0 
L 544 3500 
z
" transform="scale(0.015625)"/>
      <path id="DejaVuSans-Oblique-64" d="M 2675 525 
Q 2444 222 2128 65 
Q 1813 -91 1428 -91 
Q 903 -91 598 267 
Q 294 625 294 1247 
Q 294 1766 478 2236 
Q 663 2706 1013 3078 
Q 1244 3325 1534 3454 
Q 1825 3584 2144 3584 
Q 2481 3584 2739 3421 
Q 2997 3259 3138 2956 
L 3513 4863 
L 4091 4863 
L 3144 0 
L 2566 0 
L 2675 525 
z
M 891 1350 
Q 891 897 1095 644 
Q 1300 391 1663 391 
Q 1931 391 2161 520 
Q 2391 650 2566 903 
Q 2750 1166 2856 1509 
Q 2963 1853 2963 2188 
Q 2963 2622 2758 2865 
Q 2553 3109 2194 3109 
Q 1922 3109 1687 2981 
Q 1453 2853 1288 2613 
Q 1106 2353 998 2009 
Q 891 1666 891 1350 
z
" transform="scale(0.015625)"/>
      <path id="DejaVuSans-2f" d="M 1625 4666 
L 2156 4666 
L 531 -594 
L 0 -594 
L 1625 4666 
z
" transform="scale(0.015625)"/>
      <path id="DejaVuSans-2c" d="M 750 794 
L 1409 794 
L 1409 256 
L 897 -744 
L 494 -744 
L 750 256 
L 750 794 
z
" transform="scale(0.015625)"/>
      <path id="DejaVuSans-Oblique-4d" d="M 1081 4666 
L 2028 4666 
L 2572 1522 
L 4378 4666 
L 5350 4666 
L 4441 0 
L 3828 0 
L 4622 4091 
L 2791 897 
L 2175 897 
L 1581 4103 
L 788 0 
L 172 0 
L 1081 4666 
z
" transform="scale(0.015625)"/>
      <path id="DejaVuSans-Oblique-3bb" d="M 2350 4316 
L 3125 0 
L 2516 0 
L 2038 2588 
L 328 0 
L -281 0 
L 1903 3356 
L 1794 3975 
Q 1725 4369 1391 4369 
L 1091 4369 
L 1184 4863 
L 1550 4856 
Q 2253 4847 2350 4316 
z
" transform="scale(0.015625)"/>
     </defs>
     <use xlink:href="#DejaVuSans-Oblique-77" transform="translate(0 0.765625)"/>
     <use xlink:href="#DejaVuSans-30" transform="translate(81.787109 -15.640625) scale(0.7)"/>
     <use xlink:href="#DejaVuSans-3d" transform="translate(148.540039 0.765625)"/>
     <use xlink:href="#DejaVuSans-Oblique-64" transform="translate(251.811523 0.765625)"/>
     <use xlink:href="#DejaVuSans-30" transform="translate(315.288086 -15.640625) scale(0.7)"/>
     <use xlink:href="#DejaVuSans-2f" transform="translate(362.558594 0.765625)"/>
     <use xlink:href="#DejaVuSans-32" transform="translate(392.625 0.765625)"/>
     <use xlink:href="#DejaVuSans-3d" transform="translate(456.248047 0.765625)"/>
     <use xlink:href="#DejaVuSans-38" transform="translate(540.037109 0.765625)"/>
     <use xlink:href="#DejaVuSans-b1" transform="translate(603.660156 0.765625)"/>
     <use xlink:href="#DejaVuSans-32" transform="translate(687.449219 0.765625)"/>
     <use xlink:href="#DejaVuSans-b5" transform="translate(751.072266 0.765625)"/>
     <use xlink:href="#DejaVuSans-6d" transform="translate(814.695312 0.765625)"/>
     <use xlink:href="#DejaVuSans-2c" transform="translate(912.107422 0.765625)"/>
     <use xlink:href="#DejaVuSans-20" transform="translate(943.894531 0.765625)"/>
     <use xlink:href="#DejaVuSans-20" transform="translate(975.681641 0.765625)"/>
     <use xlink:href="#DejaVuSans-Oblique-4d" transform="translate(1007.46875 0.765625)"/>
     <use xlink:href="#DejaVuSans-32" transform="translate(1100.764818 39.046875) scale(0.7)"/>
     <use xlink:href="#DejaVuSans-20" transform="translate(1148.035326 0.765625)"/>
     <use xlink:href="#DejaVuSans-3d" transform="translate(1179.822435 0.765625)"/>
     <use xlink:href="#DejaVuSans-20" transform="translate(1263.611497 0.765625)"/>
     <use xlink:href="#DejaVuSans-31" transform="translate(1295.398607 0.765625)"/>
     <use xlink:href="#DejaVuSans-2e" transform="translate(1359.021654 0.765625)"/>
     <use xlink:href="#DejaVuSans-36" transform="translate(1390.808763 0.765625)"/>
     <use xlink:href="#DejaVuSans-36" transform="translate(1454.43181 0.765625)"/>
     <use xlink:href="#DejaVuSans-b1" transform="translate(1518.054857 0.765625)"/>
     <use xlink:href="#DejaVuSans-30" transform="translate(1601.843919 0.765625)"/>
     <use xlink:href="#DejaVuSans-2e" transform="translate(1665.466966 0.765625)"/>
     <use xlink:href="#DejaVuSans-35" transform="translate(1697.254076 0.765625)"/>
     <use xlink:href="#DejaVuSans-30" transform="translate(1760.877122 0.765625)"/>
     <use xlink:href="#DejaVuSans-2c" transform="translate(1824.500169 0.765625)"/>
     <use xlink:href="#DejaVuSans-20" transform="translate(1856.287279 0.765625)"/>
     <use xlink:href="#DejaVuSans-20" transform="translate(1888.074388 0.765625)"/>
     <use xlink:href="#DejaVuSans-Oblique-3bb" transform="translate(1919.861497 0.765625)"/>
     <use xlink:href="#DejaVuSans-3d" transform="translate(1979.041185 0.765625)"/>
     <use xlink:href="#DejaVuSans-31" transform="translate(2062.830247 0.765625)"/>
     <use xlink:href="#DejaVuSans-30" transform="translate(2126.453294 0.765625)"/>
     <use xlink:href="#DejaVuSans-36" transform="translate(2190.076341 0.765625)"/>
     <use xlink:href="#DejaVuSans-34" transform="translate(2253.699388 0.765625)"/>
     <use xlink:href="#DejaVuSans-20" transform="translate(2317.322435 0.765625)"/>
     <use xlink:href="#DejaVuSans-6e" transform="translate(2349.109544 0.765625)"/>
     <use xlink:href="#DejaVuSans-6d" transform="translate(2412.488451 0.765625)"/>
    </g>
   </g>
  </g>
  <g id="text_31">
   <!-- Plot of beam radius vs position from focus for the X direction  -->
   <g transform="translate(186.06125 12.1575) scale(0.16 -0.16)">
    <defs>
     <path id="DejaVuSans-50" d="M 1259 4147 
L 1259 2394 
L 2053 2394 
Q 2494 2394 2734 2622 
Q 2975 2850 2975 3272 
Q 2975 3691 2734 3919 
Q 2494 4147 2053 4147 
L 1259 4147 
z
M 628 4666 
L 2053 4666 
Q 2838 4666 3239 4311 
Q 3641 3956 3641 3272 
Q 3641 2581 3239 2228 
Q 2838 1875 2053 1875 
L 1259 1875 
L 1259 0 
L 628 0 
L 628 4666 
z
" transform="scale(0.015625)"/>
     <path id="DejaVuSans-66" d="M 2375 4863 
L 2375 4384 
L 1825 4384 
Q 1516 4384 1395 4259 
Q 1275 4134 1275 3809 
L 1275 3500 
L 2222 3500 
L 2222 3053 
L 1275 3053 
L 1275 0 
L 697 0 
L 697 3053 
L 147 3053 
L 147 3500 
L 697 3500 
L 697 3744 
Q 697 4328 969 4595 
Q 1241 4863 1831 4863 
L 2375 4863 
z
" transform="scale(0.015625)"/>
     <path id="DejaVuSans-62" d="M 3116 1747 
Q 3116 2381 2855 2742 
Q 2594 3103 2138 3103 
Q 1681 3103 1420 2742 
Q 1159 2381 1159 1747 
Q 1159 1113 1420 752 
Q 1681 391 2138 391 
Q 2594 391 2855 752 
Q 3116 1113 3116 1747 
z
M 1159 2969 
Q 1341 3281 1617 3432 
Q 1894 3584 2278 3584 
Q 2916 3584 3314 3078 
Q 3713 2572 3713 1747 
Q 3713 922 3314 415 
Q 2916 -91 2278 -91 
Q 1894 -91 1617 61 
Q 1341 213 1159 525 
L 1159 0 
L 581 0 
L 581 4863 
L 1159 4863 
L 1159 2969 
z
" transform="scale(0.015625)"/>
     <path id="DejaVuSans-76" d="M 191 3500 
L 800 3500 
L 1894 563 
L 2988 3500 
L 3597 3500 
L 2284 0 
L 1503 0 
L 191 3500 
z
" transform="scale(0.015625)"/>
     <path id="DejaVuSans-70" d="M 1159 525 
L 1159 -1331 
L 581 -1331 
L 581 3500 
L 1159 3500 
L 1159 2969 
Q 1341 3281 1617 3432 
Q 1894 3584 2278 3584 
Q 2916 3584 3314 3078 
Q 3713 2572 3713 1747 
Q 3713 922 3314 415 
Q 2916 -91 2278 -91 
Q 1894 -91 1617 61 
Q 1341 213 1159 525 
z
M 3116 1747 
Q 3116 2381 2855 2742 
Q 2594 3103 2138 3103 
Q 1681 3103 1420 2742 
Q 1159 2381 1159 1747 
Q 1159 1113 1420 752 
Q 1681 391 2138 391 
Q 2594 391 2855 752 
Q 3116 1113 3116 1747 
z
" transform="scale(0.015625)"/>
     <path id="DejaVuSans-68" d="M 3513 2113 
L 3513 0 
L 2938 0 
L 2938 2094 
Q 2938 2591 2744 2837 
Q 2550 3084 2163 3084 
Q 1697 3084 1428 2787 
Q 1159 2491 1159 1978 
L 1159 0 
L 581 0 
L 581 4863 
L 1159 4863 
L 1159 2956 
Q 1366 3272 1645 3428 
Q 1925 3584 2291 3584 
Q 2894 3584 3203 3211 
Q 3513 2838 3513 2113 
z
" transform="scale(0.015625)"/>
     <path id="DejaVuSans-58" d="M 403 4666 
L 1081 4666 
L 2241 2931 
L 3406 4666 
L 4084 4666 
L 2584 2425 
L 4184 0 
L 3506 0 
L 2194 1984 
L 872 0 
L 191 0 
L 1856 2491 
L 403 4666 
z
" transform="scale(0.015625)"/>
    </defs>
    <use xlink:href="#DejaVuSans-50"/>
    <use xlink:href="#DejaVuSans-6c" x="60.302734"/>
    <use xlink:href="#DejaVuSans-6f" x="88.085938"/>
    <use xlink:href="#DejaVuSans-74" x="149.267578"/>
    <use xlink:href="#DejaVuSans-20" x="188.476562"/>
    <use xlink:href="#DejaVuSans-6f" x="220.263672"/>
    <use xlink:href="#DejaVuSans-66" x="281.445312"/>
    <use xlink:href="#DejaVuSans-20" x="316.650391"/>
    <use xlink:href="#DejaVuSans-62" x="348.4375"/>
    <use xlink:href="#DejaVuSans-65" x="411.914062"/>
    <use xlink:href="#DejaVuSans-61" x="473.4375"/>
    <use xlink:href="#DejaVuSans-6d" x="534.716797"/>
    <use xlink:href="#DejaVuSans-20" x="632.128906"/>
    <use xlink:href="#DejaVuSans-72" x="663.916016"/>
    <use xlink:href="#DejaVuSans-61" x="705.029297"/>
    <use xlink:href="#DejaVuSans-64" x="766.308594"/>
    <use xlink:href="#DejaVuSans-69" x="829.785156"/>
    <use xlink:href="#DejaVuSans-75" x="857.568359"/>
    <use xlink:href="#DejaVuSans-73" x="920.947266"/>
    <use xlink:href="#DejaVuSans-20" x="973.046875"/>
    <use xlink:href="#DejaVuSans-76" x="1004.833984"/>
    <use xlink:href="#DejaVuSans-73" x="1064.013672"/>
    <use xlink:href="#DejaVuSans-20" x="1116.113281"/>
    <use xlink:href="#DejaVuSans-70" x="1147.900391"/>
    <use xlink:href="#DejaVuSans-6f" x="1211.376953"/>
    <use xlink:href="#DejaVuSans-73" x="1272.558594"/>
    <use xlink:href="#DejaVuSans-69" x="1324.658203"/>
    <use xlink:href="#DejaVuSans-74" x="1352.441406"/>
    <use xlink:href="#DejaVuSans-69" x="1391.650391"/>
    <use xlink:href="#DejaVuSans-6f" x="1419.433594"/>
    <use xlink:href="#DejaVuSans-6e" x="1480.615234"/>
    <use xlink:href="#DejaVuSans-20" x="1543.994141"/>
    <use xlink:href="#DejaVuSans-66" x="1575.78125"/>
    <use xlink:href="#DejaVuSans-72" x="1610.986328"/>
    <use xlink:href="#DejaVuSans-6f" x="1649.849609"/>
    <use xlink:href="#DejaVuSans-6d" x="1711.03125"/>
    <use xlink:href="#DejaVuSans-20" x="1808.443359"/>
    <use xlink:href="#DejaVuSans-66" x="1840.230469"/>
    <use xlink:href="#DejaVuSans-6f" x="1875.435547"/>
    <use xlink:href="#DejaVuSans-63" x="1936.617188"/>
    <use xlink:href="#DejaVuSans-75" x="1991.597656"/>
    <use xlink:href="#DejaVuSans-73" x="2054.976562"/>
    <use xlink:href="#DejaVuSans-20" x="2107.076172"/>
    <use xlink:href="#DejaVuSans-66" x="2138.863281"/>
    <use xlink:href="#DejaVuSans-6f" x="2174.068359"/>
    <use xlink:href="#DejaVuSans-72" x="2235.25"/>
    <use xlink:href="#DejaVuSans-20" x="2276.363281"/>
    <use xlink:href="#DejaVuSans-74" x="2308.150391"/>
    <use xlink:href="#DejaVuSans-68" x="2347.359375"/>
    <use xlink:href="#DejaVuSans-65" x="2410.738281"/>
    <use xlink:href="#DejaVuSans-20" x="2472.261719"/>
    <use xlink:href="#DejaVuSans-58" x="2504.048828"/>
    <use xlink:href="#DejaVuSans-20" x="2572.554688"/>
    <use xlink:href="#DejaVuSans-64" x="2604.341797"/>
    <use xlink:href="#DejaVuSans-69" x="2667.818359"/>
    <use xlink:href="#DejaVuSans-72" x="2695.601562"/>
    <use xlink:href="#DejaVuSans-65" x="2734.464844"/>
    <use xlink:href="#DejaVuSans-63" x="2795.988281"/>
    <use xlink:href="#DejaVuSans-74" x="2850.96875"/>
    <use xlink:href="#DejaVuSans-69" x="2890.177734"/>
    <use xlink:href="#DejaVuSans-6f" x="2917.960938"/>
    <use xlink:href="#DejaVuSans-6e" x="2979.142578"/>
    <use xlink:href="#DejaVuSans-20" x="3042.521484"/>
   </g>
   <!--  with the aperture at 2.5cm closed -->
   <g transform="translate(293.5775 30.074) scale(0.16 -0.16)">
    <defs>
     <path id="DejaVuSans-77" d="M 269 3500 
L 844 3500 
L 1563 769 
L 2278 3500 
L 2956 3500 
L 3675 769 
L 4391 3500 
L 4966 3500 
L 4050 0 
L 3372 0 
L 2619 2869 
L 1863 0 
L 1184 0 
L 269 3500 
z
" transform="scale(0.015625)"/>
    </defs>
    <use xlink:href="#DejaVuSans-20"/>
    <use xlink:href="#DejaVuSans-77" x="31.787109"/>
    <use xlink:href="#DejaVuSans-69" x="113.574219"/>
    <use xlink:href="#DejaVuSans-74" x="141.357422"/>
    <use xlink:href="#DejaVuSans-68" x="180.566406"/>
    <use xlink:href="#DejaVuSans-20" x="243.945312"/>
    <use xlink:href="#DejaVuSans-74" x="275.732422"/>
    <use xlink:href="#DejaVuSans-68" x="314.941406"/>
    <use xlink:href="#DejaVuSans-65" x="378.320312"/>
    <use xlink:href="#DejaVuSans-20" x="439.84375"/>
    <use xlink:href="#DejaVuSans-61" x="471.630859"/>
    <use xlink:href="#DejaVuSans-70" x="532.910156"/>
    <use xlink:href="#DejaVuSans-65" x="596.386719"/>
    <use xlink:href="#DejaVuSans-72" x="657.910156"/>
    <use xlink:href="#DejaVuSans-74" x="699.023438"/>
    <use xlink:href="#DejaVuSans-75" x="738.232422"/>
    <use xlink:href="#DejaVuSans-72" x="801.611328"/>
    <use xlink:href="#DejaVuSans-65" x="840.474609"/>
    <use xlink:href="#DejaVuSans-20" x="901.998047"/>
    <use xlink:href="#DejaVuSans-61" x="933.785156"/>
    <use xlink:href="#DejaVuSans-74" x="995.064453"/>
    <use xlink:href="#DejaVuSans-20" x="1034.273438"/>
    <use xlink:href="#DejaVuSans-32" x="1066.060547"/>
    <use xlink:href="#DejaVuSans-2e" x="1129.683594"/>
    <use xlink:href="#DejaVuSans-35" x="1161.470703"/>
    <use xlink:href="#DejaVuSans-63" x="1225.09375"/>
    <use xlink:href="#DejaVuSans-6d" x="1280.074219"/>
    <use xlink:href="#DejaVuSans-20" x="1377.486328"/>
    <use xlink:href="#DejaVuSans-63" x="1409.273438"/>
    <use xlink:href="#DejaVuSans-6c" x="1464.253906"/>
    <use xlink:href="#DejaVuSans-6f" x="1492.037109"/>
    <use xlink:href="#DejaVuSans-73" x="1553.21875"/>
    <use xlink:href="#DejaVuSans-65" x="1605.318359"/>
    <use xlink:href="#DejaVuSans-64" x="1666.841797"/>
   </g>
  </g>
 </g>
 <defs>
  <clipPath id="pe9ca581469">
   <rect x="108" y="77.3376" width="669.6" height="496.2496"/>
  </clipPath>
 </defs>
</svg>
