<?xml version="1.0" encoding="utf-8" standalone="no"?>
<!DOCTYPE svg PUBLIC "-//W3C//DTD SVG 1.1//EN"
  "http://www.w3.org/Graphics/SVG/1.1/DTD/svg11.dtd">
<svg xmlns:xlink="http://www.w3.org/1999/xlink" width="778.88pt" height="603.52pt" viewBox="0 0 778.88 603.52" xmlns="http://www.w3.org/2000/svg" version="1.1">
 <metadata>
  <rdf:RDF xmlns:dc="http://purl.org/dc/elements/1.1/" xmlns:cc="http://creativecommons.org/ns#" xmlns:rdf="http://www.w3.org/1999/02/22-rdf-syntax-ns#">
   <cc:Work>
    <dc:type rdf:resource="http://purl.org/dc/dcmitype/StillImage"/>
    <dc:date>2024-12-10T13:47:48.479024</dc:date>
    <dc:format>image/svg+xml</dc:format>
    <dc:creator>
     <cc:Agent>
      <dc:title>Matplotlib v3.7.2, https://matplotlib.org/</dc:title>
     </cc:Agent>
    </dc:creator>
   </cc:Work>
  </rdf:RDF>
 </metadata>
 <defs>
  <style type="text/css">*{stroke-linejoin: round; stroke-linecap: butt}</style>
 </defs>
 <g id="figure_1">
  <g id="patch_1">
   <path d="M 0 603.52 
L 778.88 603.52 
L 778.88 0 
L 0 0 
z
" style="fill: #ffffff"/>
  </g>
  <g id="axes_1">
   <g id="patch_2">
    <path d="M 97.36 537.1328 
L 700.992 537.1328 
L 700.992 72.4224 
L 97.36 72.4224 
z
" style="fill: #ffffff"/>
   </g>
   <g id="patch_3">
    <path d="M 357.682643 537.1328 
L 357.682643 72.4224 
L 489.724703 72.4224 
L 489.724703 537.1328 
z
" clip-path="url(#pf66aaee68e)" style="fill: #00ffff; opacity: 0.3; stroke: #00ffff; stroke-linejoin: miter"/>
   </g>
   <g id="patch_4">
    <path d="M 291.661613 537.1328 
L 291.661613 72.4224 
L 97.36 72.4224 
L 97.36 537.1328 
z
" clip-path="url(#pf66aaee68e)" style="fill: #00ffff; opacity: 0.3; stroke: #00ffff; stroke-linejoin: miter"/>
   </g>
   <g id="patch_5">
    <path d="M 555.745734 537.1328 
L 555.745734 72.4224 
L 700.992 72.4224 
L 700.992 537.1328 
z
" clip-path="url(#pf66aaee68e)" style="fill: #00ffff; opacity: 0.3; stroke: #00ffff; stroke-linejoin: miter"/>
   </g>
   <g id="PolyCollection_1">
    <defs>
     <path id="m6f025432c0" d="M 97.36 -477.152114 
L 97.36 -441.319597 
L 109.67902 -436.03807 
L 121.998041 -430.760644 
L 134.317061 -425.487831 
L 146.636082 -420.220231 
L 158.955102 -414.958554 
L 171.274122 -409.703642 
L 183.593143 -404.456504 
L 195.912163 -399.218357 
L 208.231184 -393.990686 
L 220.550204 -388.775315 
L 232.869224 -383.574512 
L 245.188245 -378.391132 
L 257.507265 -373.228811 
L 269.826286 -368.092254 
L 282.145306 -362.987639 
L 294.464327 -357.923233 
L 306.783347 -352.910315 
L 319.102367 -347.964618 
L 331.421388 -343.108629 
L 343.740408 -338.375334 
L 356.059429 -333.814447 
L 368.378449 -329.502752 
L 380.697469 -325.560711 
L 393.01649 -322.175625 
L 405.33551 -319.620189 
L 417.654531 -318.223669 
L 429.973551 -318.236742 
L 442.292571 -319.656764 
L 454.611592 -322.229921 
L 466.930612 -325.627125 
L 479.249633 -329.577201 
L 491.568653 -333.89426 
L 503.887673 -338.45881 
L 516.206694 -343.194678 
L 528.525714 -348.052526 
L 540.844735 -352.999601 
L 553.163755 -358.013564 
L 565.482776 -363.078779 
L 577.801796 -368.184032 
L 590.120816 -373.3211 
L 602.439837 -378.483836 
L 614.758857 -383.667557 
L 627.077878 -388.868644 
L 639.396898 -394.084254 
L 651.715918 -399.312128 
L 664.034939 -404.550448 
L 676.353959 -409.797736 
L 688.67298 -415.052777 
L 700.992 -420.314568 
L 700.992 -452.11828 
L 700.992 -452.11828 
L 688.67298 -445.883237 
L 676.353959 -439.674391 
L 664.034939 -433.495365 
L 651.715918 -427.350456 
L 639.396898 -421.244798 
L 627.077878 -415.184567 
L 614.758857 -409.17724 
L 602.439837 -403.231944 
L 590.120816 -397.359897 
L 577.801796 -391.575 
L 565.482776 -385.894611 
L 553.163755 -380.340556 
L 540.844735 -374.940466 
L 528.525714 -369.729489 
L 516.206694 -364.752424 
L 503.887673 -360.066252 
L 491.568653 -355.742764 
L 479.249633 -351.870578 
L 466.930612 -348.555051 
L 454.611592 -345.913707 
L 442.292571 -344.064572 
L 429.973551 -343.106816 
L 417.654531 -343.098219 
L 405.33551 -344.039321 
L 393.01649 -345.873266 
L 380.697469 -348.50143 
L 368.378449 -351.805935 
L 356.059429 -355.66912 
L 343.740408 -359.985353 
L 331.421388 -364.665706 
L 319.102367 -369.6381 
L 306.783347 -374.845313 
L 294.464327 -380.242348 
L 282.145306 -385.793907 
L 269.826286 -391.47224 
L 257.507265 -397.255429 
L 245.188245 -403.126045 
L 232.869224 -409.070135 
L 220.550204 -415.076436 
L 208.231184 -421.135789 
L 195.912163 -427.240691 
L 183.593143 -433.384945 
L 171.274122 -439.5634 
L 158.955102 -445.771745 
L 146.636082 -452.006348 
L 134.317061 -458.264129 
L 121.998041 -464.542465 
L 109.67902 -470.839106 
L 97.36 -477.152114 
z
" style="stroke: #ff0000; stroke-opacity: 0.5"/>
    </defs>
    <g clip-path="url(#pf66aaee68e)">
     <use xlink:href="#m6f025432c0" x="0" y="603.52" style="fill: #ff0000; fill-opacity: 0.5; stroke: #ff0000; stroke-opacity: 0.5"/>
    </g>
   </g>
   <g id="PolyCollection_2">
    <defs>
     <path id="maf3e4f3b7d" d="M 97.36 -120.332686 
L 97.36 -156.165203 
L 109.67902 -161.44673 
L 121.998041 -166.724156 
L 134.317061 -171.996969 
L 146.636082 -177.264569 
L 158.955102 -182.526246 
L 171.274122 -187.781158 
L 183.593143 -193.028296 
L 195.912163 -198.266443 
L 208.231184 -203.494114 
L 220.550204 -208.709485 
L 232.869224 -213.910288 
L 245.188245 -219.093668 
L 257.507265 -224.255989 
L 269.826286 -229.392546 
L 282.145306 -234.497161 
L 294.464327 -239.561567 
L 306.783347 -244.574485 
L 319.102367 -249.520182 
L 331.421388 -254.376171 
L 343.740408 -259.109466 
L 356.059429 -263.670353 
L 368.378449 -267.982048 
L 380.697469 -271.924089 
L 393.01649 -275.309175 
L 405.33551 -277.864611 
L 417.654531 -279.261131 
L 429.973551 -279.248058 
L 442.292571 -277.828036 
L 454.611592 -275.254879 
L 466.930612 -271.857675 
L 479.249633 -267.907599 
L 491.568653 -263.59054 
L 503.887673 -259.02599 
L 516.206694 -254.290122 
L 528.525714 -249.432274 
L 540.844735 -244.485199 
L 553.163755 -239.471236 
L 565.482776 -234.406021 
L 577.801796 -229.300768 
L 590.120816 -224.1637 
L 602.439837 -219.000964 
L 614.758857 -213.817243 
L 627.077878 -208.616156 
L 639.396898 -203.400546 
L 651.715918 -198.172672 
L 664.034939 -192.934352 
L 676.353959 -187.687064 
L 688.67298 -182.432023 
L 700.992 -177.170232 
L 700.992 -145.36652 
L 700.992 -145.36652 
L 688.67298 -151.601563 
L 676.353959 -157.810409 
L 664.034939 -163.989435 
L 651.715918 -170.134344 
L 639.396898 -176.240002 
L 627.077878 -182.300233 
L 614.758857 -188.30756 
L 602.439837 -194.252856 
L 590.120816 -200.124903 
L 577.801796 -205.9098 
L 565.482776 -211.590189 
L 553.163755 -217.144244 
L 540.844735 -222.544334 
L 528.525714 -227.755311 
L 516.206694 -232.732376 
L 503.887673 -237.418548 
L 491.568653 -241.742036 
L 479.249633 -245.614222 
L 466.930612 -248.929749 
L 454.611592 -251.571093 
L 442.292571 -253.420228 
L 429.973551 -254.377984 
L 417.654531 -254.386581 
L 405.33551 -253.445479 
L 393.01649 -251.611534 
L 380.697469 -248.98337 
L 368.378449 -245.678865 
L 356.059429 -241.81568 
L 343.740408 -237.499447 
L 331.421388 -232.819094 
L 319.102367 -227.8467 
L 306.783347 -222.639487 
L 294.464327 -217.242452 
L 282.145306 -211.690893 
L 269.826286 -206.01256 
L 257.507265 -200.229371 
L 245.188245 -194.358755 
L 232.869224 -188.414665 
L 220.550204 -182.408364 
L 208.231184 -176.349011 
L 195.912163 -170.244109 
L 183.593143 -164.099855 
L 171.274122 -157.9214 
L 158.955102 -151.713055 
L 146.636082 -145.478452 
L 134.317061 -139.220671 
L 121.998041 -132.942335 
L 109.67902 -126.645694 
L 97.36 -120.332686 
z
" style="stroke: #ff0000; stroke-opacity: 0.5"/>
    </defs>
    <g clip-path="url(#pf66aaee68e)">
     <use xlink:href="#maf3e4f3b7d" x="0" y="603.52" style="fill: #ff0000; fill-opacity: 0.5; stroke: #ff0000; stroke-opacity: 0.5"/>
    </g>
   </g>
   <g id="matplotlib.axis_1">
    <g id="xtick_1">
     <g id="line2d_1">
      <defs>
       <path id="m83820f422a" d="M 0 0 
L 0 3.5 
" style="stroke: #000000; stroke-width: 0.8"/>
      </defs>
      <g>
       <use xlink:href="#m83820f422a" x="159.619553" y="537.1328" style="stroke: #000000; stroke-width: 0.8"/>
      </g>
     </g>
     <g id="text_1">
      <!-- -478.2 -->
      <g transform="translate(130.607209 557.809988) scale(0.18 -0.18)">
       <defs>
        <path id="DejaVuSans-2d" d="M 313 2009 
L 1997 2009 
L 1997 1497 
L 313 1497 
L 313 2009 
z
" transform="scale(0.015625)"/>
        <path id="DejaVuSans-34" d="M 2419 4116 
L 825 1625 
L 2419 1625 
L 2419 4116 
z
M 2253 4666 
L 3047 4666 
L 3047 1625 
L 3713 1625 
L 3713 1100 
L 3047 1100 
L 3047 0 
L 2419 0 
L 2419 1100 
L 313 1100 
L 313 1709 
L 2253 4666 
z
" transform="scale(0.015625)"/>
        <path id="DejaVuSans-37" d="M 525 4666 
L 3525 4666 
L 3525 4397 
L 1831 0 
L 1172 0 
L 2766 4134 
L 525 4134 
L 525 4666 
z
" transform="scale(0.015625)"/>
        <path id="DejaVuSans-38" d="M 2034 2216 
Q 1584 2216 1326 1975 
Q 1069 1734 1069 1313 
Q 1069 891 1326 650 
Q 1584 409 2034 409 
Q 2484 409 2743 651 
Q 3003 894 3003 1313 
Q 3003 1734 2745 1975 
Q 2488 2216 2034 2216 
z
M 1403 2484 
Q 997 2584 770 2862 
Q 544 3141 544 3541 
Q 544 4100 942 4425 
Q 1341 4750 2034 4750 
Q 2731 4750 3128 4425 
Q 3525 4100 3525 3541 
Q 3525 3141 3298 2862 
Q 3072 2584 2669 2484 
Q 3125 2378 3379 2068 
Q 3634 1759 3634 1313 
Q 3634 634 3220 271 
Q 2806 -91 2034 -91 
Q 1263 -91 848 271 
Q 434 634 434 1313 
Q 434 1759 690 2068 
Q 947 2378 1403 2484 
z
M 1172 3481 
Q 1172 3119 1398 2916 
Q 1625 2713 2034 2713 
Q 2441 2713 2670 2916 
Q 2900 3119 2900 3481 
Q 2900 3844 2670 4047 
Q 2441 4250 2034 4250 
Q 1625 4250 1398 4047 
Q 1172 3844 1172 3481 
z
" transform="scale(0.015625)"/>
        <path id="DejaVuSans-2e" d="M 684 794 
L 1344 794 
L 1344 0 
L 684 0 
L 684 794 
z
" transform="scale(0.015625)"/>
        <path id="DejaVuSans-32" d="M 1228 531 
L 3431 531 
L 3431 0 
L 469 0 
L 469 531 
Q 828 903 1448 1529 
Q 2069 2156 2228 2338 
Q 2531 2678 2651 2914 
Q 2772 3150 2772 3378 
Q 2772 3750 2511 3984 
Q 2250 4219 1831 4219 
Q 1534 4219 1204 4116 
Q 875 4013 500 3803 
L 500 4441 
Q 881 4594 1212 4672 
Q 1544 4750 1819 4750 
Q 2544 4750 2975 4387 
Q 3406 4025 3406 3419 
Q 3406 3131 3298 2873 
Q 3191 2616 2906 2266 
Q 2828 2175 2409 1742 
Q 1991 1309 1228 531 
z
" transform="scale(0.015625)"/>
       </defs>
       <use xlink:href="#DejaVuSans-2d"/>
       <use xlink:href="#DejaVuSans-34" x="36.083984"/>
       <use xlink:href="#DejaVuSans-37" x="99.707031"/>
       <use xlink:href="#DejaVuSans-38" x="163.330078"/>
       <use xlink:href="#DejaVuSans-2e" x="226.953125"/>
       <use xlink:href="#DejaVuSans-32" x="258.740234"/>
      </g>
     </g>
    </g>
    <g id="xtick_2">
     <g id="line2d_2">
      <g>
       <use xlink:href="#m83820f422a" x="225.640583" y="537.1328" style="stroke: #000000; stroke-width: 0.8"/>
      </g>
     </g>
     <g id="text_2">
      <!-- -358.6 -->
      <g transform="translate(196.628239 557.809988) scale(0.18 -0.18)">
       <defs>
        <path id="DejaVuSans-33" d="M 2597 2516 
Q 3050 2419 3304 2112 
Q 3559 1806 3559 1356 
Q 3559 666 3084 287 
Q 2609 -91 1734 -91 
Q 1441 -91 1130 -33 
Q 819 25 488 141 
L 488 750 
Q 750 597 1062 519 
Q 1375 441 1716 441 
Q 2309 441 2620 675 
Q 2931 909 2931 1356 
Q 2931 1769 2642 2001 
Q 2353 2234 1838 2234 
L 1294 2234 
L 1294 2753 
L 1863 2753 
Q 2328 2753 2575 2939 
Q 2822 3125 2822 3475 
Q 2822 3834 2567 4026 
Q 2313 4219 1838 4219 
Q 1578 4219 1281 4162 
Q 984 4106 628 3988 
L 628 4550 
Q 988 4650 1302 4700 
Q 1616 4750 1894 4750 
Q 2613 4750 3031 4423 
Q 3450 4097 3450 3541 
Q 3450 3153 3228 2886 
Q 3006 2619 2597 2516 
z
" transform="scale(0.015625)"/>
        <path id="DejaVuSans-35" d="M 691 4666 
L 3169 4666 
L 3169 4134 
L 1269 4134 
L 1269 2991 
Q 1406 3038 1543 3061 
Q 1681 3084 1819 3084 
Q 2600 3084 3056 2656 
Q 3513 2228 3513 1497 
Q 3513 744 3044 326 
Q 2575 -91 1722 -91 
Q 1428 -91 1123 -41 
Q 819 9 494 109 
L 494 744 
Q 775 591 1075 516 
Q 1375 441 1709 441 
Q 2250 441 2565 725 
Q 2881 1009 2881 1497 
Q 2881 1984 2565 2268 
Q 2250 2553 1709 2553 
Q 1456 2553 1204 2497 
Q 953 2441 691 2322 
L 691 4666 
z
" transform="scale(0.015625)"/>
        <path id="DejaVuSans-36" d="M 2113 2584 
Q 1688 2584 1439 2293 
Q 1191 2003 1191 1497 
Q 1191 994 1439 701 
Q 1688 409 2113 409 
Q 2538 409 2786 701 
Q 3034 994 3034 1497 
Q 3034 2003 2786 2293 
Q 2538 2584 2113 2584 
z
M 3366 4563 
L 3366 3988 
Q 3128 4100 2886 4159 
Q 2644 4219 2406 4219 
Q 1781 4219 1451 3797 
Q 1122 3375 1075 2522 
Q 1259 2794 1537 2939 
Q 1816 3084 2150 3084 
Q 2853 3084 3261 2657 
Q 3669 2231 3669 1497 
Q 3669 778 3244 343 
Q 2819 -91 2113 -91 
Q 1303 -91 875 529 
Q 447 1150 447 2328 
Q 447 3434 972 4092 
Q 1497 4750 2381 4750 
Q 2619 4750 2861 4703 
Q 3103 4656 3366 4563 
z
" transform="scale(0.015625)"/>
       </defs>
       <use xlink:href="#DejaVuSans-2d"/>
       <use xlink:href="#DejaVuSans-33" x="36.083984"/>
       <use xlink:href="#DejaVuSans-35" x="99.707031"/>
       <use xlink:href="#DejaVuSans-38" x="163.330078"/>
       <use xlink:href="#DejaVuSans-2e" x="226.953125"/>
       <use xlink:href="#DejaVuSans-36" x="258.740234"/>
      </g>
     </g>
    </g>
    <g id="xtick_3">
     <g id="line2d_3">
      <g>
       <use xlink:href="#m83820f422a" x="291.661613" y="537.1328" style="stroke: #000000; stroke-width: 0.8"/>
      </g>
     </g>
     <g id="text_3">
      <!-- -239.1 -->
      <g transform="translate(262.649269 557.809988) scale(0.18 -0.18)">
       <defs>
        <path id="DejaVuSans-39" d="M 703 97 
L 703 672 
Q 941 559 1184 500 
Q 1428 441 1663 441 
Q 2288 441 2617 861 
Q 2947 1281 2994 2138 
Q 2813 1869 2534 1725 
Q 2256 1581 1919 1581 
Q 1219 1581 811 2004 
Q 403 2428 403 3163 
Q 403 3881 828 4315 
Q 1253 4750 1959 4750 
Q 2769 4750 3195 4129 
Q 3622 3509 3622 2328 
Q 3622 1225 3098 567 
Q 2575 -91 1691 -91 
Q 1453 -91 1209 -44 
Q 966 3 703 97 
z
M 1959 2075 
Q 2384 2075 2632 2365 
Q 2881 2656 2881 3163 
Q 2881 3666 2632 3958 
Q 2384 4250 1959 4250 
Q 1534 4250 1286 3958 
Q 1038 3666 1038 3163 
Q 1038 2656 1286 2365 
Q 1534 2075 1959 2075 
z
" transform="scale(0.015625)"/>
        <path id="DejaVuSans-31" d="M 794 531 
L 1825 531 
L 1825 4091 
L 703 3866 
L 703 4441 
L 1819 4666 
L 2450 4666 
L 2450 531 
L 3481 531 
L 3481 0 
L 794 0 
L 794 531 
z
" transform="scale(0.015625)"/>
       </defs>
       <use xlink:href="#DejaVuSans-2d"/>
       <use xlink:href="#DejaVuSans-32" x="36.083984"/>
       <use xlink:href="#DejaVuSans-33" x="99.707031"/>
       <use xlink:href="#DejaVuSans-39" x="163.330078"/>
       <use xlink:href="#DejaVuSans-2e" x="226.953125"/>
       <use xlink:href="#DejaVuSans-31" x="258.740234"/>
      </g>
     </g>
    </g>
    <g id="xtick_4">
     <g id="line2d_4">
      <g>
       <use xlink:href="#m83820f422a" x="357.682643" y="537.1328" style="stroke: #000000; stroke-width: 0.8"/>
      </g>
     </g>
     <g id="text_4">
      <!-- -119.5 -->
      <g transform="translate(328.670299 557.809988) scale(0.18 -0.18)">
       <use xlink:href="#DejaVuSans-2d"/>
       <use xlink:href="#DejaVuSans-31" x="36.083984"/>
       <use xlink:href="#DejaVuSans-31" x="99.707031"/>
       <use xlink:href="#DejaVuSans-39" x="163.330078"/>
       <use xlink:href="#DejaVuSans-2e" x="226.953125"/>
       <use xlink:href="#DejaVuSans-35" x="258.740234"/>
      </g>
     </g>
    </g>
    <g id="xtick_5">
     <g id="line2d_5">
      <g>
       <use xlink:href="#m83820f422a" x="423.703673" y="537.1328" style="stroke: #000000; stroke-width: 0.8"/>
      </g>
     </g>
     <g id="text_5">
      <!-- 0.0 -->
      <g transform="translate(409.390861 557.809988) scale(0.18 -0.18)">
       <defs>
        <path id="DejaVuSans-30" d="M 2034 4250 
Q 1547 4250 1301 3770 
Q 1056 3291 1056 2328 
Q 1056 1369 1301 889 
Q 1547 409 2034 409 
Q 2525 409 2770 889 
Q 3016 1369 3016 2328 
Q 3016 3291 2770 3770 
Q 2525 4250 2034 4250 
z
M 2034 4750 
Q 2819 4750 3233 4129 
Q 3647 3509 3647 2328 
Q 3647 1150 3233 529 
Q 2819 -91 2034 -91 
Q 1250 -91 836 529 
Q 422 1150 422 2328 
Q 422 3509 836 4129 
Q 1250 4750 2034 4750 
z
" transform="scale(0.015625)"/>
       </defs>
       <use xlink:href="#DejaVuSans-30"/>
       <use xlink:href="#DejaVuSans-2e" x="63.623047"/>
       <use xlink:href="#DejaVuSans-30" x="95.410156"/>
      </g>
     </g>
    </g>
    <g id="xtick_6">
     <g id="line2d_6">
      <g>
       <use xlink:href="#m83820f422a" x="489.724703" y="537.1328" style="stroke: #000000; stroke-width: 0.8"/>
      </g>
     </g>
     <g id="text_6">
      <!-- 119.5 -->
      <g transform="translate(463.959391 557.809988) scale(0.18 -0.18)">
       <use xlink:href="#DejaVuSans-31"/>
       <use xlink:href="#DejaVuSans-31" x="63.623047"/>
       <use xlink:href="#DejaVuSans-39" x="127.246094"/>
       <use xlink:href="#DejaVuSans-2e" x="190.869141"/>
       <use xlink:href="#DejaVuSans-35" x="222.65625"/>
      </g>
     </g>
    </g>
    <g id="xtick_7">
     <g id="line2d_7">
      <g>
       <use xlink:href="#m83820f422a" x="555.745734" y="537.1328" style="stroke: #000000; stroke-width: 0.8"/>
      </g>
     </g>
     <g id="text_7">
      <!-- 239.1 -->
      <g transform="translate(529.980421 557.809988) scale(0.18 -0.18)">
       <use xlink:href="#DejaVuSans-32"/>
       <use xlink:href="#DejaVuSans-33" x="63.623047"/>
       <use xlink:href="#DejaVuSans-39" x="127.246094"/>
       <use xlink:href="#DejaVuSans-2e" x="190.869141"/>
       <use xlink:href="#DejaVuSans-31" x="222.65625"/>
      </g>
     </g>
    </g>
    <g id="xtick_8">
     <g id="line2d_8">
      <g>
       <use xlink:href="#m83820f422a" x="621.766764" y="537.1328" style="stroke: #000000; stroke-width: 0.8"/>
      </g>
     </g>
     <g id="text_8">
      <!-- 358.6 -->
      <g transform="translate(596.001451 557.809988) scale(0.18 -0.18)">
       <use xlink:href="#DejaVuSans-33"/>
       <use xlink:href="#DejaVuSans-35" x="63.623047"/>
       <use xlink:href="#DejaVuSans-38" x="127.246094"/>
       <use xlink:href="#DejaVuSans-2e" x="190.869141"/>
       <use xlink:href="#DejaVuSans-36" x="222.65625"/>
      </g>
     </g>
    </g>
    <g id="xtick_9">
     <g id="line2d_9">
      <g>
       <use xlink:href="#m83820f422a" x="687.787794" y="537.1328" style="stroke: #000000; stroke-width: 0.8"/>
      </g>
     </g>
     <g id="text_9">
      <!-- 478.2 -->
      <g transform="translate(662.022481 557.809988) scale(0.18 -0.18)">
       <use xlink:href="#DejaVuSans-34"/>
       <use xlink:href="#DejaVuSans-37" x="63.623047"/>
       <use xlink:href="#DejaVuSans-38" x="127.246094"/>
       <use xlink:href="#DejaVuSans-2e" x="190.869141"/>
       <use xlink:href="#DejaVuSans-32" x="222.65625"/>
      </g>
     </g>
    </g>
    <g id="text_10">
     <!-- Axial Location ($\mu$m) -->
     <g transform="translate(311.696 579.233425) scale(0.18 -0.18)">
      <defs>
       <path id="DejaVuSans-41" d="M 2188 4044 
L 1331 1722 
L 3047 1722 
L 2188 4044 
z
M 1831 4666 
L 2547 4666 
L 4325 0 
L 3669 0 
L 3244 1197 
L 1141 1197 
L 716 0 
L 50 0 
L 1831 4666 
z
" transform="scale(0.015625)"/>
       <path id="DejaVuSans-78" d="M 3513 3500 
L 2247 1797 
L 3578 0 
L 2900 0 
L 1881 1375 
L 863 0 
L 184 0 
L 1544 1831 
L 300 3500 
L 978 3500 
L 1906 2253 
L 2834 3500 
L 3513 3500 
z
" transform="scale(0.015625)"/>
       <path id="DejaVuSans-69" d="M 603 3500 
L 1178 3500 
L 1178 0 
L 603 0 
L 603 3500 
z
M 603 4863 
L 1178 4863 
L 1178 4134 
L 603 4134 
L 603 4863 
z
" transform="scale(0.015625)"/>
       <path id="DejaVuSans-61" d="M 2194 1759 
Q 1497 1759 1228 1600 
Q 959 1441 959 1056 
Q 959 750 1161 570 
Q 1363 391 1709 391 
Q 2188 391 2477 730 
Q 2766 1069 2766 1631 
L 2766 1759 
L 2194 1759 
z
M 3341 1997 
L 3341 0 
L 2766 0 
L 2766 531 
Q 2569 213 2275 61 
Q 1981 -91 1556 -91 
Q 1019 -91 701 211 
Q 384 513 384 1019 
Q 384 1609 779 1909 
Q 1175 2209 1959 2209 
L 2766 2209 
L 2766 2266 
Q 2766 2663 2505 2880 
Q 2244 3097 1772 3097 
Q 1472 3097 1187 3025 
Q 903 2953 641 2809 
L 641 3341 
Q 956 3463 1253 3523 
Q 1550 3584 1831 3584 
Q 2591 3584 2966 3190 
Q 3341 2797 3341 1997 
z
" transform="scale(0.015625)"/>
       <path id="DejaVuSans-6c" d="M 603 4863 
L 1178 4863 
L 1178 0 
L 603 0 
L 603 4863 
z
" transform="scale(0.015625)"/>
       <path id="DejaVuSans-20" transform="scale(0.015625)"/>
       <path id="DejaVuSans-4c" d="M 628 4666 
L 1259 4666 
L 1259 531 
L 3531 531 
L 3531 0 
L 628 0 
L 628 4666 
z
" transform="scale(0.015625)"/>
       <path id="DejaVuSans-6f" d="M 1959 3097 
Q 1497 3097 1228 2736 
Q 959 2375 959 1747 
Q 959 1119 1226 758 
Q 1494 397 1959 397 
Q 2419 397 2687 759 
Q 2956 1122 2956 1747 
Q 2956 2369 2687 2733 
Q 2419 3097 1959 3097 
z
M 1959 3584 
Q 2709 3584 3137 3096 
Q 3566 2609 3566 1747 
Q 3566 888 3137 398 
Q 2709 -91 1959 -91 
Q 1206 -91 779 398 
Q 353 888 353 1747 
Q 353 2609 779 3096 
Q 1206 3584 1959 3584 
z
" transform="scale(0.015625)"/>
       <path id="DejaVuSans-63" d="M 3122 3366 
L 3122 2828 
Q 2878 2963 2633 3030 
Q 2388 3097 2138 3097 
Q 1578 3097 1268 2742 
Q 959 2388 959 1747 
Q 959 1106 1268 751 
Q 1578 397 2138 397 
Q 2388 397 2633 464 
Q 2878 531 3122 666 
L 3122 134 
Q 2881 22 2623 -34 
Q 2366 -91 2075 -91 
Q 1284 -91 818 406 
Q 353 903 353 1747 
Q 353 2603 823 3093 
Q 1294 3584 2113 3584 
Q 2378 3584 2631 3529 
Q 2884 3475 3122 3366 
z
" transform="scale(0.015625)"/>
       <path id="DejaVuSans-74" d="M 1172 4494 
L 1172 3500 
L 2356 3500 
L 2356 3053 
L 1172 3053 
L 1172 1153 
Q 1172 725 1289 603 
Q 1406 481 1766 481 
L 2356 481 
L 2356 0 
L 1766 0 
Q 1100 0 847 248 
Q 594 497 594 1153 
L 594 3053 
L 172 3053 
L 172 3500 
L 594 3500 
L 594 4494 
L 1172 4494 
z
" transform="scale(0.015625)"/>
       <path id="DejaVuSans-6e" d="M 3513 2113 
L 3513 0 
L 2938 0 
L 2938 2094 
Q 2938 2591 2744 2837 
Q 2550 3084 2163 3084 
Q 1697 3084 1428 2787 
Q 1159 2491 1159 1978 
L 1159 0 
L 581 0 
L 581 3500 
L 1159 3500 
L 1159 2956 
Q 1366 3272 1645 3428 
Q 1925 3584 2291 3584 
Q 2894 3584 3203 3211 
Q 3513 2838 3513 2113 
z
" transform="scale(0.015625)"/>
       <path id="DejaVuSans-28" d="M 1984 4856 
Q 1566 4138 1362 3434 
Q 1159 2731 1159 2009 
Q 1159 1288 1364 580 
Q 1569 -128 1984 -844 
L 1484 -844 
Q 1016 -109 783 600 
Q 550 1309 550 2009 
Q 550 2706 781 3412 
Q 1013 4119 1484 4856 
L 1984 4856 
z
" transform="scale(0.015625)"/>
       <path id="DejaVuSans-Oblique-3bc" d="M -84 -1331 
L 856 3500 
L 1434 3500 
L 1009 1322 
Q 997 1256 987 1175 
Q 978 1094 978 1013 
Q 978 722 1161 565 
Q 1344 409 1684 409 
Q 2147 409 2431 671 
Q 2716 934 2816 1459 
L 3213 3500 
L 3788 3500 
L 3266 809 
Q 3253 750 3248 706 
Q 3244 663 3244 628 
Q 3244 531 3283 486 
Q 3322 441 3406 441 
Q 3438 441 3492 456 
Q 3547 472 3647 513 
L 3559 50 
Q 3422 -19 3297 -55 
Q 3172 -91 3053 -91 
Q 2847 -91 2730 40 
Q 2613 172 2613 403 
Q 2438 153 2195 31 
Q 1953 -91 1625 -91 
Q 1334 -91 1117 43 
Q 900 178 831 397 
L 494 -1331 
L -84 -1331 
z
" transform="scale(0.015625)"/>
       <path id="DejaVuSans-6d" d="M 3328 2828 
Q 3544 3216 3844 3400 
Q 4144 3584 4550 3584 
Q 5097 3584 5394 3201 
Q 5691 2819 5691 2113 
L 5691 0 
L 5113 0 
L 5113 2094 
Q 5113 2597 4934 2840 
Q 4756 3084 4391 3084 
Q 3944 3084 3684 2787 
Q 3425 2491 3425 1978 
L 3425 0 
L 2847 0 
L 2847 2094 
Q 2847 2600 2669 2842 
Q 2491 3084 2119 3084 
Q 1678 3084 1418 2786 
Q 1159 2488 1159 1978 
L 1159 0 
L 581 0 
L 581 3500 
L 1159 3500 
L 1159 2956 
Q 1356 3278 1631 3431 
Q 1906 3584 2284 3584 
Q 2666 3584 2933 3390 
Q 3200 3197 3328 2828 
z
" transform="scale(0.015625)"/>
       <path id="DejaVuSans-29" d="M 513 4856 
L 1013 4856 
Q 1481 4119 1714 3412 
Q 1947 2706 1947 2009 
Q 1947 1309 1714 600 
Q 1481 -109 1013 -844 
L 513 -844 
Q 928 -128 1133 580 
Q 1338 1288 1338 2009 
Q 1338 2731 1133 3434 
Q 928 4138 513 4856 
z
" transform="scale(0.015625)"/>
      </defs>
      <use xlink:href="#DejaVuSans-41" transform="translate(0 0.015625)"/>
      <use xlink:href="#DejaVuSans-78" transform="translate(68.408203 0.015625)"/>
      <use xlink:href="#DejaVuSans-69" transform="translate(127.587891 0.015625)"/>
      <use xlink:href="#DejaVuSans-61" transform="translate(155.371094 0.015625)"/>
      <use xlink:href="#DejaVuSans-6c" transform="translate(216.650391 0.015625)"/>
      <use xlink:href="#DejaVuSans-20" transform="translate(244.433594 0.015625)"/>
      <use xlink:href="#DejaVuSans-4c" transform="translate(276.220703 0.015625)"/>
      <use xlink:href="#DejaVuSans-6f" transform="translate(331.933594 0.015625)"/>
      <use xlink:href="#DejaVuSans-63" transform="translate(393.115234 0.015625)"/>
      <use xlink:href="#DejaVuSans-61" transform="translate(448.095703 0.015625)"/>
      <use xlink:href="#DejaVuSans-74" transform="translate(509.375 0.015625)"/>
      <use xlink:href="#DejaVuSans-69" transform="translate(548.583984 0.015625)"/>
      <use xlink:href="#DejaVuSans-6f" transform="translate(576.367188 0.015625)"/>
      <use xlink:href="#DejaVuSans-6e" transform="translate(637.548828 0.015625)"/>
      <use xlink:href="#DejaVuSans-20" transform="translate(700.927734 0.015625)"/>
      <use xlink:href="#DejaVuSans-28" transform="translate(732.714844 0.015625)"/>
      <use xlink:href="#DejaVuSans-Oblique-3bc" transform="translate(771.728516 0.015625)"/>
      <use xlink:href="#DejaVuSans-6d" transform="translate(835.351562 0.015625)"/>
      <use xlink:href="#DejaVuSans-29" transform="translate(932.763672 0.015625)"/>
     </g>
    </g>
   </g>
   <g id="matplotlib.axis_2">
    <g id="ytick_1">
     <g id="line2d_10">
      <defs>
       <path id="m8080ac8dfa" d="M 0 0 
L -3.5 0 
" style="stroke: #000000; stroke-width: 0.8"/>
      </defs>
      <g>
       <use xlink:href="#m8080ac8dfa" x="97.36" y="529.610838" style="stroke: #000000; stroke-width: 0.8"/>
      </g>
     </g>
     <g id="text_11">
      <!-- -50.0 -->
      <g transform="translate(43.787813 536.449432) scale(0.18 -0.18)">
       <use xlink:href="#DejaVuSans-2d"/>
       <use xlink:href="#DejaVuSans-35" x="36.083984"/>
       <use xlink:href="#DejaVuSans-30" x="99.707031"/>
       <use xlink:href="#DejaVuSans-2e" x="163.330078"/>
       <use xlink:href="#DejaVuSans-30" x="195.117188"/>
      </g>
     </g>
    </g>
    <g id="ytick_2">
     <g id="line2d_11">
      <g>
       <use xlink:href="#m8080ac8dfa" x="97.36" y="484.644191" style="stroke: #000000; stroke-width: 0.8"/>
      </g>
     </g>
     <g id="text_12">
      <!-- -40.0 -->
      <g transform="translate(43.787813 491.482784) scale(0.18 -0.18)">
       <use xlink:href="#DejaVuSans-2d"/>
       <use xlink:href="#DejaVuSans-34" x="36.083984"/>
       <use xlink:href="#DejaVuSans-30" x="99.707031"/>
       <use xlink:href="#DejaVuSans-2e" x="163.330078"/>
       <use xlink:href="#DejaVuSans-30" x="195.117188"/>
      </g>
     </g>
    </g>
    <g id="ytick_3">
     <g id="line2d_12">
      <g>
       <use xlink:href="#m8080ac8dfa" x="97.36" y="439.677543" style="stroke: #000000; stroke-width: 0.8"/>
      </g>
     </g>
     <g id="text_13">
      <!-- -30.0 -->
      <g transform="translate(43.787813 446.516137) scale(0.18 -0.18)">
       <use xlink:href="#DejaVuSans-2d"/>
       <use xlink:href="#DejaVuSans-33" x="36.083984"/>
       <use xlink:href="#DejaVuSans-30" x="99.707031"/>
       <use xlink:href="#DejaVuSans-2e" x="163.330078"/>
       <use xlink:href="#DejaVuSans-30" x="195.117188"/>
      </g>
     </g>
    </g>
    <g id="ytick_4">
     <g id="line2d_13">
      <g>
       <use xlink:href="#m8080ac8dfa" x="97.36" y="394.710895" style="stroke: #000000; stroke-width: 0.8"/>
      </g>
     </g>
     <g id="text_14">
      <!-- -20.0 -->
      <g transform="translate(43.787813 401.549489) scale(0.18 -0.18)">
       <use xlink:href="#DejaVuSans-2d"/>
       <use xlink:href="#DejaVuSans-32" x="36.083984"/>
       <use xlink:href="#DejaVuSans-30" x="99.707031"/>
       <use xlink:href="#DejaVuSans-2e" x="163.330078"/>
       <use xlink:href="#DejaVuSans-30" x="195.117188"/>
      </g>
     </g>
    </g>
    <g id="ytick_5">
     <g id="line2d_14">
      <g>
       <use xlink:href="#m8080ac8dfa" x="97.36" y="349.744248" style="stroke: #000000; stroke-width: 0.8"/>
      </g>
     </g>
     <g id="text_15">
      <!-- -10.0 -->
      <g transform="translate(43.787813 356.582841) scale(0.18 -0.18)">
       <use xlink:href="#DejaVuSans-2d"/>
       <use xlink:href="#DejaVuSans-31" x="36.083984"/>
       <use xlink:href="#DejaVuSans-30" x="99.707031"/>
       <use xlink:href="#DejaVuSans-2e" x="163.330078"/>
       <use xlink:href="#DejaVuSans-30" x="195.117188"/>
      </g>
     </g>
    </g>
    <g id="ytick_6">
     <g id="line2d_15">
      <g>
       <use xlink:href="#m8080ac8dfa" x="97.36" y="304.7776" style="stroke: #000000; stroke-width: 0.8"/>
      </g>
     </g>
     <g id="text_16">
      <!-- 0.0 -->
      <g transform="translate(61.734375 311.616194) scale(0.18 -0.18)">
       <use xlink:href="#DejaVuSans-30"/>
       <use xlink:href="#DejaVuSans-2e" x="63.623047"/>
       <use xlink:href="#DejaVuSans-30" x="95.410156"/>
      </g>
     </g>
    </g>
    <g id="ytick_7">
     <g id="line2d_16">
      <g>
       <use xlink:href="#m8080ac8dfa" x="97.36" y="259.810952" style="stroke: #000000; stroke-width: 0.8"/>
      </g>
     </g>
     <g id="text_17">
      <!-- 10.0 -->
      <g transform="translate(50.281875 266.649546) scale(0.18 -0.18)">
       <use xlink:href="#DejaVuSans-31"/>
       <use xlink:href="#DejaVuSans-30" x="63.623047"/>
       <use xlink:href="#DejaVuSans-2e" x="127.246094"/>
       <use xlink:href="#DejaVuSans-30" x="159.033203"/>
      </g>
     </g>
    </g>
    <g id="ytick_8">
     <g id="line2d_17">
      <g>
       <use xlink:href="#m8080ac8dfa" x="97.36" y="214.844305" style="stroke: #000000; stroke-width: 0.8"/>
      </g>
     </g>
     <g id="text_18">
      <!-- 20.0 -->
      <g transform="translate(50.281875 221.682898) scale(0.18 -0.18)">
       <use xlink:href="#DejaVuSans-32"/>
       <use xlink:href="#DejaVuSans-30" x="63.623047"/>
       <use xlink:href="#DejaVuSans-2e" x="127.246094"/>
       <use xlink:href="#DejaVuSans-30" x="159.033203"/>
      </g>
     </g>
    </g>
    <g id="ytick_9">
     <g id="line2d_18">
      <g>
       <use xlink:href="#m8080ac8dfa" x="97.36" y="169.877657" style="stroke: #000000; stroke-width: 0.8"/>
      </g>
     </g>
     <g id="text_19">
      <!-- 30.0 -->
      <g transform="translate(50.281875 176.716251) scale(0.18 -0.18)">
       <use xlink:href="#DejaVuSans-33"/>
       <use xlink:href="#DejaVuSans-30" x="63.623047"/>
       <use xlink:href="#DejaVuSans-2e" x="127.246094"/>
       <use xlink:href="#DejaVuSans-30" x="159.033203"/>
      </g>
     </g>
    </g>
    <g id="ytick_10">
     <g id="line2d_19">
      <g>
       <use xlink:href="#m8080ac8dfa" x="97.36" y="124.911009" style="stroke: #000000; stroke-width: 0.8"/>
      </g>
     </g>
     <g id="text_20">
      <!-- 40.0 -->
      <g transform="translate(50.281875 131.749603) scale(0.18 -0.18)">
       <use xlink:href="#DejaVuSans-34"/>
       <use xlink:href="#DejaVuSans-30" x="63.623047"/>
       <use xlink:href="#DejaVuSans-2e" x="127.246094"/>
       <use xlink:href="#DejaVuSans-30" x="159.033203"/>
      </g>
     </g>
    </g>
    <g id="ytick_11">
     <g id="line2d_20">
      <g>
       <use xlink:href="#m8080ac8dfa" x="97.36" y="79.944362" style="stroke: #000000; stroke-width: 0.8"/>
      </g>
     </g>
     <g id="text_21">
      <!-- 50.0 -->
      <g transform="translate(50.281875 86.782955) scale(0.18 -0.18)">
       <use xlink:href="#DejaVuSans-35"/>
       <use xlink:href="#DejaVuSans-30" x="63.623047"/>
       <use xlink:href="#DejaVuSans-2e" x="127.246094"/>
       <use xlink:href="#DejaVuSans-30" x="159.033203"/>
      </g>
     </g>
    </g>
    <g id="text_22">
     <!-- Beam Radius ($\mu$m) -->
     <g transform="translate(36.007812 388.3876) rotate(-90) scale(0.18 -0.18)">
      <defs>
       <path id="DejaVuSans-42" d="M 1259 2228 
L 1259 519 
L 2272 519 
Q 2781 519 3026 730 
Q 3272 941 3272 1375 
Q 3272 1813 3026 2020 
Q 2781 2228 2272 2228 
L 1259 2228 
z
M 1259 4147 
L 1259 2741 
L 2194 2741 
Q 2656 2741 2882 2914 
Q 3109 3088 3109 3444 
Q 3109 3797 2882 3972 
Q 2656 4147 2194 4147 
L 1259 4147 
z
M 628 4666 
L 2241 4666 
Q 2963 4666 3353 4366 
Q 3744 4066 3744 3513 
Q 3744 3084 3544 2831 
Q 3344 2578 2956 2516 
Q 3422 2416 3680 2098 
Q 3938 1781 3938 1306 
Q 3938 681 3513 340 
Q 3088 0 2303 0 
L 628 0 
L 628 4666 
z
" transform="scale(0.015625)"/>
       <path id="DejaVuSans-65" d="M 3597 1894 
L 3597 1613 
L 953 1613 
Q 991 1019 1311 708 
Q 1631 397 2203 397 
Q 2534 397 2845 478 
Q 3156 559 3463 722 
L 3463 178 
Q 3153 47 2828 -22 
Q 2503 -91 2169 -91 
Q 1331 -91 842 396 
Q 353 884 353 1716 
Q 353 2575 817 3079 
Q 1281 3584 2069 3584 
Q 2775 3584 3186 3129 
Q 3597 2675 3597 1894 
z
M 3022 2063 
Q 3016 2534 2758 2815 
Q 2500 3097 2075 3097 
Q 1594 3097 1305 2825 
Q 1016 2553 972 2059 
L 3022 2063 
z
" transform="scale(0.015625)"/>
       <path id="DejaVuSans-52" d="M 2841 2188 
Q 3044 2119 3236 1894 
Q 3428 1669 3622 1275 
L 4263 0 
L 3584 0 
L 2988 1197 
Q 2756 1666 2539 1819 
Q 2322 1972 1947 1972 
L 1259 1972 
L 1259 0 
L 628 0 
L 628 4666 
L 2053 4666 
Q 2853 4666 3247 4331 
Q 3641 3997 3641 3322 
Q 3641 2881 3436 2590 
Q 3231 2300 2841 2188 
z
M 1259 4147 
L 1259 2491 
L 2053 2491 
Q 2509 2491 2742 2702 
Q 2975 2913 2975 3322 
Q 2975 3731 2742 3939 
Q 2509 4147 2053 4147 
L 1259 4147 
z
" transform="scale(0.015625)"/>
       <path id="DejaVuSans-64" d="M 2906 2969 
L 2906 4863 
L 3481 4863 
L 3481 0 
L 2906 0 
L 2906 525 
Q 2725 213 2448 61 
Q 2172 -91 1784 -91 
Q 1150 -91 751 415 
Q 353 922 353 1747 
Q 353 2572 751 3078 
Q 1150 3584 1784 3584 
Q 2172 3584 2448 3432 
Q 2725 3281 2906 2969 
z
M 947 1747 
Q 947 1113 1208 752 
Q 1469 391 1925 391 
Q 2381 391 2643 752 
Q 2906 1113 2906 1747 
Q 2906 2381 2643 2742 
Q 2381 3103 1925 3103 
Q 1469 3103 1208 2742 
Q 947 2381 947 1747 
z
" transform="scale(0.015625)"/>
       <path id="DejaVuSans-75" d="M 544 1381 
L 544 3500 
L 1119 3500 
L 1119 1403 
Q 1119 906 1312 657 
Q 1506 409 1894 409 
Q 2359 409 2629 706 
Q 2900 1003 2900 1516 
L 2900 3500 
L 3475 3500 
L 3475 0 
L 2900 0 
L 2900 538 
Q 2691 219 2414 64 
Q 2138 -91 1772 -91 
Q 1169 -91 856 284 
Q 544 659 544 1381 
z
M 1991 3584 
L 1991 3584 
z
" transform="scale(0.015625)"/>
       <path id="DejaVuSans-73" d="M 2834 3397 
L 2834 2853 
Q 2591 2978 2328 3040 
Q 2066 3103 1784 3103 
Q 1356 3103 1142 2972 
Q 928 2841 928 2578 
Q 928 2378 1081 2264 
Q 1234 2150 1697 2047 
L 1894 2003 
Q 2506 1872 2764 1633 
Q 3022 1394 3022 966 
Q 3022 478 2636 193 
Q 2250 -91 1575 -91 
Q 1294 -91 989 -36 
Q 684 19 347 128 
L 347 722 
Q 666 556 975 473 
Q 1284 391 1588 391 
Q 1994 391 2212 530 
Q 2431 669 2431 922 
Q 2431 1156 2273 1281 
Q 2116 1406 1581 1522 
L 1381 1569 
Q 847 1681 609 1914 
Q 372 2147 372 2553 
Q 372 3047 722 3315 
Q 1072 3584 1716 3584 
Q 2034 3584 2315 3537 
Q 2597 3491 2834 3397 
z
" transform="scale(0.015625)"/>
      </defs>
      <use xlink:href="#DejaVuSans-42" transform="translate(0 0.015625)"/>
      <use xlink:href="#DejaVuSans-65" transform="translate(68.603516 0.015625)"/>
      <use xlink:href="#DejaVuSans-61" transform="translate(130.126953 0.015625)"/>
      <use xlink:href="#DejaVuSans-6d" transform="translate(191.40625 0.015625)"/>
      <use xlink:href="#DejaVuSans-20" transform="translate(288.818359 0.015625)"/>
      <use xlink:href="#DejaVuSans-52" transform="translate(320.605469 0.015625)"/>
      <use xlink:href="#DejaVuSans-61" transform="translate(390.087891 0.015625)"/>
      <use xlink:href="#DejaVuSans-64" transform="translate(451.367188 0.015625)"/>
      <use xlink:href="#DejaVuSans-69" transform="translate(514.84375 0.015625)"/>
      <use xlink:href="#DejaVuSans-75" transform="translate(542.626953 0.015625)"/>
      <use xlink:href="#DejaVuSans-73" transform="translate(606.005859 0.015625)"/>
      <use xlink:href="#DejaVuSans-20" transform="translate(658.105469 0.015625)"/>
      <use xlink:href="#DejaVuSans-28" transform="translate(689.892578 0.015625)"/>
      <use xlink:href="#DejaVuSans-Oblique-3bc" transform="translate(728.90625 0.015625)"/>
      <use xlink:href="#DejaVuSans-6d" transform="translate(792.529297 0.015625)"/>
      <use xlink:href="#DejaVuSans-29" transform="translate(889.941406 0.015625)"/>
     </g>
    </g>
   </g>
   <g id="line2d_21">
    <path d="M 97.36 462.011697 
L 700.992 171.178627 
" clip-path="url(#pf66aaee68e)" style="fill: none; stroke-dasharray: 5.55,2.4; stroke-dashoffset: 0; stroke: #0000ff; stroke-width: 1.5"/>
   </g>
   <g id="line2d_22">
    <path d="M 97.36 147.543503 
L 700.992 438.376573 
" clip-path="url(#pf66aaee68e)" style="fill: none; stroke-dasharray: 5.55,2.4; stroke-dashoffset: 0; stroke: #0000ff; stroke-width: 1.5"/>
   </g>
   <g id="line2d_23">
    <defs>
     <path id="m6c619c7df0" d="M 0 3 
C 0.795609 3 1.55874 2.683901 2.12132 2.12132 
C 2.683901 1.55874 3 0.795609 3 0 
C 3 -0.795609 2.683901 -1.55874 2.12132 -2.12132 
C 1.55874 -2.683901 0.795609 -3 0 -3 
C -0.795609 -3 -1.55874 -2.683901 -2.12132 -2.12132 
C -2.683901 -1.55874 -3 -0.795609 -3 0 
C -3 0.795609 -2.683901 1.55874 -2.12132 2.12132 
C -1.55874 2.683901 -0.795609 3 0 3 
z
" style="stroke: #000000"/>
    </defs>
    <g clip-path="url(#pf66aaee68e)">
     <use xlink:href="#m6c619c7df0" x="112.900175" y="126.983407" style="stroke: #000000"/>
     <use xlink:href="#m6c619c7df0" x="181.93427" y="204.440816" style="stroke: #000000"/>
     <use xlink:href="#m6c619c7df0" x="250.968365" y="228.250193" style="stroke: #000000"/>
     <use xlink:href="#m6c619c7df0" x="320.00246" y="248.705316" style="stroke: #000000"/>
     <use xlink:href="#m6c619c7df0" x="389.036555" y="261.139792" style="stroke: #000000"/>
     <use xlink:href="#m6c619c7df0" x="458.07065" y="262.877471" style="stroke: #000000"/>
     <use xlink:href="#m6c619c7df0" x="527.104744" y="258.077093" style="stroke: #000000"/>
     <use xlink:href="#m6c619c7df0" x="596.138839" y="214.066864" style="stroke: #000000"/>
    </g>
   </g>
   <g id="line2d_24">
    <g clip-path="url(#pf66aaee68e)">
     <use xlink:href="#m6c619c7df0" x="112.900175" y="482.571793" style="stroke: #000000"/>
     <use xlink:href="#m6c619c7df0" x="181.93427" y="405.114384" style="stroke: #000000"/>
     <use xlink:href="#m6c619c7df0" x="250.968365" y="381.305007" style="stroke: #000000"/>
     <use xlink:href="#m6c619c7df0" x="320.00246" y="360.849884" style="stroke: #000000"/>
     <use xlink:href="#m6c619c7df0" x="389.036555" y="348.415408" style="stroke: #000000"/>
     <use xlink:href="#m6c619c7df0" x="458.07065" y="346.677729" style="stroke: #000000"/>
     <use xlink:href="#m6c619c7df0" x="527.104744" y="351.478107" style="stroke: #000000"/>
     <use xlink:href="#m6c619c7df0" x="596.138839" y="395.488336" style="stroke: #000000"/>
    </g>
   </g>
   <g id="line2d_25"/>
   <g id="line2d_26"/>
   <g id="LineCollection_1">
    <path d="M 112.900175 160.421213 
L 112.900175 93.5456 
" clip-path="url(#pf66aaee68e)" style="fill: none; stroke: #000000; stroke-width: 1.5"/>
    <path d="M 181.93427 224.105749 
L 181.93427 184.775882 
" clip-path="url(#pf66aaee68e)" style="fill: none; stroke: #000000; stroke-width: 1.5"/>
    <path d="M 250.968365 241.098947 
L 250.968365 215.401438 
" clip-path="url(#pf66aaee68e)" style="fill: none; stroke: #000000; stroke-width: 1.5"/>
    <path d="M 320.00246 257.279944 
L 320.00246 240.130688 
" clip-path="url(#pf66aaee68e)" style="fill: none; stroke: #000000; stroke-width: 1.5"/>
    <path d="M 389.036555 267.363708 
L 389.036555 254.915876 
" clip-path="url(#pf66aaee68e)" style="fill: none; stroke: #000000; stroke-width: 1.5"/>
    <path d="M 458.07065 268.936385 
L 458.07065 256.818556 
" clip-path="url(#pf66aaee68e)" style="fill: none; stroke: #000000; stroke-width: 1.5"/>
    <path d="M 527.104744 267.427473 
L 527.104744 248.726712 
" clip-path="url(#pf66aaee68e)" style="fill: none; stroke: #000000; stroke-width: 1.5"/>
    <path d="M 596.138839 230.67736 
L 596.138839 197.456368 
" clip-path="url(#pf66aaee68e)" style="fill: none; stroke: #000000; stroke-width: 1.5"/>
   </g>
   <g id="LineCollection_2">
    <path d="M 112.900175 516.0096 
L 112.900175 449.133987 
" clip-path="url(#pf66aaee68e)" style="fill: none; stroke: #000000; stroke-width: 1.5"/>
    <path d="M 181.93427 424.779318 
L 181.93427 385.449451 
" clip-path="url(#pf66aaee68e)" style="fill: none; stroke: #000000; stroke-width: 1.5"/>
    <path d="M 250.968365 394.153762 
L 250.968365 368.456253 
" clip-path="url(#pf66aaee68e)" style="fill: none; stroke: #000000; stroke-width: 1.5"/>
    <path d="M 320.00246 369.424512 
L 320.00246 352.275256 
" clip-path="url(#pf66aaee68e)" style="fill: none; stroke: #000000; stroke-width: 1.5"/>
    <path d="M 389.036555 354.639324 
L 389.036555 342.191492 
" clip-path="url(#pf66aaee68e)" style="fill: none; stroke: #000000; stroke-width: 1.5"/>
    <path d="M 458.07065 352.736644 
L 458.07065 340.618815 
" clip-path="url(#pf66aaee68e)" style="fill: none; stroke: #000000; stroke-width: 1.5"/>
    <path d="M 527.104744 360.828488 
L 527.104744 342.127727 
" clip-path="url(#pf66aaee68e)" style="fill: none; stroke: #000000; stroke-width: 1.5"/>
    <path d="M 596.138839 412.098832 
L 596.138839 378.87784 
" clip-path="url(#pf66aaee68e)" style="fill: none; stroke: #000000; stroke-width: 1.5"/>
   </g>
   <g id="line2d_27"/>
   <g id="line2d_28"/>
   <g id="patch_6">
    <path d="M 97.36 537.1328 
L 97.36 72.4224 
" style="fill: none; stroke: #000000; stroke-width: 0.8; stroke-linejoin: miter; stroke-linecap: square"/>
   </g>
   <g id="patch_7">
    <path d="M 700.992 537.1328 
L 700.992 72.4224 
" style="fill: none; stroke: #000000; stroke-width: 0.8; stroke-linejoin: miter; stroke-linecap: square"/>
   </g>
   <g id="patch_8">
    <path d="M 97.36 537.1328 
L 700.992 537.1328 
" style="fill: none; stroke: #000000; stroke-width: 0.8; stroke-linejoin: miter; stroke-linecap: square"/>
   </g>
   <g id="patch_9">
    <path d="M 97.36 72.4224 
L 700.992 72.4224 
" style="fill: none; stroke: #000000; stroke-width: 0.8; stroke-linejoin: miter; stroke-linecap: square"/>
   </g>
  </g>
  <g id="axes_2">
   <g id="matplotlib.axis_3">
    <g id="xtick_10">
     <g id="line2d_29">
      <defs>
       <path id="me2ca4d8b8d" d="M 0 0 
L 0 -3.5 
" style="stroke: #000000; stroke-width: 0.8"/>
      </defs>
      <g>
       <use xlink:href="#me2ca4d8b8d" x="159.619553" y="72.4224" style="stroke: #000000; stroke-width: 0.8"/>
      </g>
     </g>
     <g id="text_23">
      <!-- -4$z_R$ -->
      <g transform="translate(145.339553 62.510838) scale(0.14 -0.14)">
       <defs>
        <path id="DejaVuSans-Oblique-7a" d="M 744 3500 
L 3475 3500 
L 3372 2975 
L 738 459 
L 2913 459 
L 2822 0 
L -19 0 
L 84 525 
L 2719 3041 
L 653 3041 
L 744 3500 
z
" transform="scale(0.015625)"/>
        <path id="DejaVuSans-Oblique-52" d="M 1613 4147 
L 1294 2491 
L 2106 2491 
Q 2584 2491 2879 2755 
Q 3175 3019 3175 3444 
Q 3175 3784 2976 3965 
Q 2778 4147 2406 4147 
L 1613 4147 
z
M 2772 2241 
Q 2972 2194 3105 2009 
Q 3238 1825 3413 1275 
L 3809 0 
L 3144 0 
L 2778 1197 
Q 2638 1659 2453 1815 
Q 2269 1972 1888 1972 
L 1191 1972 
L 806 0 
L 172 0 
L 1081 4666 
L 2503 4666 
Q 3150 4666 3495 4373 
Q 3841 4081 3841 3531 
Q 3841 3044 3547 2687 
Q 3253 2331 2772 2241 
z
" transform="scale(0.015625)"/>
       </defs>
       <use xlink:href="#DejaVuSans-2d" transform="translate(0 0.09375)"/>
       <use xlink:href="#DejaVuSans-34" transform="translate(36.083984 0.09375)"/>
       <use xlink:href="#DejaVuSans-Oblique-7a" transform="translate(99.707031 0.09375)"/>
       <use xlink:href="#DejaVuSans-Oblique-52" transform="translate(152.197266 -16.3125) scale(0.7)"/>
      </g>
     </g>
    </g>
    <g id="xtick_11">
     <g id="line2d_30">
      <g>
       <use xlink:href="#me2ca4d8b8d" x="225.640583" y="72.4224" style="stroke: #000000; stroke-width: 0.8"/>
      </g>
     </g>
     <g id="text_24">
      <!-- -3$z_R$ -->
      <g transform="translate(211.360583 62.510838) scale(0.14 -0.14)">
       <use xlink:href="#DejaVuSans-2d" transform="translate(0 0.78125)"/>
       <use xlink:href="#DejaVuSans-33" transform="translate(36.083984 0.78125)"/>
       <use xlink:href="#DejaVuSans-Oblique-7a" transform="translate(99.707031 0.78125)"/>
       <use xlink:href="#DejaVuSans-Oblique-52" transform="translate(152.197266 -15.625) scale(0.7)"/>
      </g>
     </g>
    </g>
    <g id="xtick_12">
     <g id="line2d_31">
      <g>
       <use xlink:href="#me2ca4d8b8d" x="291.661613" y="72.4224" style="stroke: #000000; stroke-width: 0.8"/>
      </g>
     </g>
     <g id="text_25">
      <!-- -2$z_R$ -->
      <g transform="translate(277.381613 62.510838) scale(0.14 -0.14)">
       <use xlink:href="#DejaVuSans-2d" transform="translate(0 0.78125)"/>
       <use xlink:href="#DejaVuSans-32" transform="translate(36.083984 0.78125)"/>
       <use xlink:href="#DejaVuSans-Oblique-7a" transform="translate(99.707031 0.78125)"/>
       <use xlink:href="#DejaVuSans-Oblique-52" transform="translate(152.197266 -15.625) scale(0.7)"/>
      </g>
     </g>
    </g>
    <g id="xtick_13">
     <g id="line2d_32">
      <g>
       <use xlink:href="#me2ca4d8b8d" x="357.682643" y="72.4224" style="stroke: #000000; stroke-width: 0.8"/>
      </g>
     </g>
     <g id="text_26">
      <!-- -$z_R$ -->
      <g transform="translate(347.882643 62.510838) scale(0.14 -0.14)">
       <use xlink:href="#DejaVuSans-2d" transform="translate(0 0.3125)"/>
       <use xlink:href="#DejaVuSans-Oblique-7a" transform="translate(36.083984 0.3125)"/>
       <use xlink:href="#DejaVuSans-Oblique-52" transform="translate(88.574219 -16.09375) scale(0.7)"/>
      </g>
     </g>
    </g>
    <g id="xtick_14">
     <g id="line2d_33">
      <g>
       <use xlink:href="#me2ca4d8b8d" x="423.703673" y="72.4224" style="stroke: #000000; stroke-width: 0.8"/>
      </g>
     </g>
     <g id="text_27">
      <!-- 0 -->
      <g transform="translate(419.249923 62.510838) scale(0.14 -0.14)">
       <use xlink:href="#DejaVuSans-30"/>
      </g>
     </g>
    </g>
    <g id="xtick_15">
     <g id="line2d_34">
      <g>
       <use xlink:href="#me2ca4d8b8d" x="489.724703" y="72.4224" style="stroke: #000000; stroke-width: 0.8"/>
      </g>
     </g>
     <g id="text_28">
      <!-- $z_R$ -->
      <g transform="translate(482.444703 62.510838) scale(0.14 -0.14)">
       <use xlink:href="#DejaVuSans-Oblique-7a" transform="translate(0 0.3125)"/>
       <use xlink:href="#DejaVuSans-Oblique-52" transform="translate(52.490234 -16.09375) scale(0.7)"/>
      </g>
     </g>
    </g>
    <g id="xtick_16">
     <g id="line2d_35">
      <g>
       <use xlink:href="#me2ca4d8b8d" x="555.745734" y="72.4224" style="stroke: #000000; stroke-width: 0.8"/>
      </g>
     </g>
     <g id="text_29">
      <!-- 2$z_R$ -->
      <g transform="translate(543.985734 62.510838) scale(0.14 -0.14)">
       <use xlink:href="#DejaVuSans-32" transform="translate(0 0.78125)"/>
       <use xlink:href="#DejaVuSans-Oblique-7a" transform="translate(63.623047 0.78125)"/>
       <use xlink:href="#DejaVuSans-Oblique-52" transform="translate(116.113281 -15.625) scale(0.7)"/>
      </g>
     </g>
    </g>
    <g id="xtick_17">
     <g id="line2d_36">
      <g>
       <use xlink:href="#me2ca4d8b8d" x="621.766764" y="72.4224" style="stroke: #000000; stroke-width: 0.8"/>
      </g>
     </g>
     <g id="text_30">
      <!-- 3$z_R$ -->
      <g transform="translate(610.006764 62.510838) scale(0.14 -0.14)">
       <use xlink:href="#DejaVuSans-33" transform="translate(0 0.78125)"/>
       <use xlink:href="#DejaVuSans-Oblique-7a" transform="translate(63.623047 0.78125)"/>
       <use xlink:href="#DejaVuSans-Oblique-52" transform="translate(116.113281 -15.625) scale(0.7)"/>
      </g>
     </g>
    </g>
    <g id="xtick_18">
     <g id="line2d_37">
      <g>
       <use xlink:href="#me2ca4d8b8d" x="687.787794" y="72.4224" style="stroke: #000000; stroke-width: 0.8"/>
      </g>
     </g>
     <g id="text_31">
      <!-- 4$z_R$ -->
      <g transform="translate(676.027794 62.510838) scale(0.14 -0.14)">
       <use xlink:href="#DejaVuSans-34" transform="translate(0 0.09375)"/>
       <use xlink:href="#DejaVuSans-Oblique-7a" transform="translate(63.623047 0.09375)"/>
       <use xlink:href="#DejaVuSans-Oblique-52" transform="translate(116.113281 -16.3125) scale(0.7)"/>
      </g>
     </g>
    </g>
   </g>
   <g id="patch_10">
    <path d="M 97.36 537.1328 
L 97.36 72.4224 
" style="fill: none; stroke: #000000; stroke-width: 0.8; stroke-linejoin: miter; stroke-linecap: square"/>
   </g>
   <g id="patch_11">
    <path d="M 700.992 537.1328 
L 700.992 72.4224 
" style="fill: none; stroke: #000000; stroke-width: 0.8; stroke-linejoin: miter; stroke-linecap: square"/>
   </g>
   <g id="patch_12">
    <path d="M 97.36 537.1328 
L 700.992 537.1328 
" style="fill: none; stroke: #000000; stroke-width: 0.8; stroke-linejoin: miter; stroke-linecap: square"/>
   </g>
   <g id="patch_13">
    <path d="M 97.36 72.4224 
L 700.992 72.4224 
" style="fill: none; stroke: #000000; stroke-width: 0.8; stroke-linejoin: miter; stroke-linecap: square"/>
   </g>
   <g id="text_32">
    <!-- $\Theta$  = 118.21±11.88 mrad -->
    <g transform="translate(555.745734 309.1926) scale(0.16 -0.16)">
     <defs>
      <path id="DejaVuSans-398" d="M 1416 2750 
L 3622 2750 
L 3622 2219 
L 1416 2219 
L 1416 2750 
z
M 2522 4238 
Q 1834 4238 1431 3725 
Q 1025 3213 1025 2328 
Q 1025 1447 1429 934 
Q 1834 422 2522 422 
Q 3209 422 3613 934 
Q 4013 1447 4013 2328 
Q 4013 3213 3613 3725 
Q 3209 4238 2522 4238 
z
M 2522 4750 
Q 3503 4750 4090 4092 
Q 4678 3434 4678 2328 
Q 4678 1225 4091 569 
Q 3503 -91 2522 -91 
Q 1538 -91 950 566 
Q 359 1222 359 2328 
Q 359 3434 950 4094 
Q 1538 4750 2522 4750 
z
" transform="scale(0.015625)"/>
      <path id="DejaVuSans-3d" d="M 678 2906 
L 4684 2906 
L 4684 2381 
L 678 2381 
L 678 2906 
z
M 678 1631 
L 4684 1631 
L 4684 1100 
L 678 1100 
L 678 1631 
z
" transform="scale(0.015625)"/>
      <path id="DejaVuSans-b1" d="M 2944 4013 
L 2944 2803 
L 4684 2803 
L 4684 2272 
L 2944 2272 
L 2944 1063 
L 2419 1063 
L 2419 2272 
L 678 2272 
L 678 2803 
L 2419 2803 
L 2419 4013 
L 2944 4013 
z
M 678 531 
L 4684 531 
L 4684 0 
L 678 0 
L 678 531 
z
" transform="scale(0.015625)"/>
      <path id="DejaVuSans-72" d="M 2631 2963 
Q 2534 3019 2420 3045 
Q 2306 3072 2169 3072 
Q 1681 3072 1420 2755 
Q 1159 2438 1159 1844 
L 1159 0 
L 581 0 
L 581 3500 
L 1159 3500 
L 1159 2956 
Q 1341 3275 1631 3429 
Q 1922 3584 2338 3584 
Q 2397 3584 2469 3576 
Q 2541 3569 2628 3553 
L 2631 2963 
z
" transform="scale(0.015625)"/>
     </defs>
     <use xlink:href="#DejaVuSans-398" transform="translate(0 0.015625)"/>
     <use xlink:href="#DejaVuSans-20" transform="translate(78.710938 0.015625)"/>
     <use xlink:href="#DejaVuSans-20" transform="translate(110.498047 0.015625)"/>
     <use xlink:href="#DejaVuSans-3d" transform="translate(142.285156 0.015625)"/>
     <use xlink:href="#DejaVuSans-20" transform="translate(226.074219 0.015625)"/>
     <use xlink:href="#DejaVuSans-31" transform="translate(257.861328 0.015625)"/>
     <use xlink:href="#DejaVuSans-31" transform="translate(321.484375 0.015625)"/>
     <use xlink:href="#DejaVuSans-38" transform="translate(385.107422 0.015625)"/>
     <use xlink:href="#DejaVuSans-2e" transform="translate(448.730469 0.015625)"/>
     <use xlink:href="#DejaVuSans-32" transform="translate(475.017578 0.015625)"/>
     <use xlink:href="#DejaVuSans-31" transform="translate(538.640625 0.015625)"/>
     <use xlink:href="#DejaVuSans-b1" transform="translate(602.263672 0.015625)"/>
     <use xlink:href="#DejaVuSans-31" transform="translate(686.052734 0.015625)"/>
     <use xlink:href="#DejaVuSans-31" transform="translate(749.675781 0.015625)"/>
     <use xlink:href="#DejaVuSans-2e" transform="translate(813.298828 0.015625)"/>
     <use xlink:href="#DejaVuSans-38" transform="translate(842.460938 0.015625)"/>
     <use xlink:href="#DejaVuSans-38" transform="translate(906.083984 0.015625)"/>
     <use xlink:href="#DejaVuSans-20" transform="translate(969.707031 0.015625)"/>
     <use xlink:href="#DejaVuSans-6d" transform="translate(1001.494141 0.015625)"/>
     <use xlink:href="#DejaVuSans-72" transform="translate(1098.90625 0.015625)"/>
     <use xlink:href="#DejaVuSans-61" transform="translate(1140.019531 0.015625)"/>
     <use xlink:href="#DejaVuSans-64" transform="translate(1201.298828 0.015625)"/>
    </g>
   </g>
   <g id="patch_14">
    <path d="M 523.866222 259.968181 
Q 541.090228 304.775757 523.867612 349.583321 
" style="fill: none; stroke: #000000; stroke-linecap: round"/>
    <path d="M 523.43461 264.419441 
L 523.866222 259.968181 
L 527.168263 262.984227 
" style="fill: none; stroke: #000000; stroke-linecap: round"/>
    <path d="M 527.16957 346.567186 
L 523.867612 349.583321 
L 523.435879 345.132073 
" style="fill: none; stroke: #000000; stroke-linecap: round"/>
   </g>
   <g id="text_33">
    <!-- $-z_R&lt;z-z_0&lt;z_R$ -->
    <g transform="translate(358.663673 479.244293) scale(0.16 -0.16)">
     <defs>
      <path id="DejaVuSans-2212" d="M 678 2272 
L 4684 2272 
L 4684 1741 
L 678 1741 
L 678 2272 
z
" transform="scale(0.015625)"/>
      <path id="DejaVuSans-3c" d="M 4684 3150 
L 1459 2003 
L 4684 863 
L 4684 294 
L 678 1747 
L 678 2266 
L 4684 3719 
L 4684 3150 
z
" transform="scale(0.015625)"/>
     </defs>
     <use xlink:href="#DejaVuSans-2212" transform="translate(0 0.890625)"/>
     <use xlink:href="#DejaVuSans-Oblique-7a" transform="translate(83.789062 0.890625)"/>
     <use xlink:href="#DejaVuSans-Oblique-52" transform="translate(136.279297 -15.515625) scale(0.7)"/>
     <use xlink:href="#DejaVuSans-3c" transform="translate(207.133789 0.890625)"/>
     <use xlink:href="#DejaVuSans-Oblique-7a" transform="translate(310.405273 0.890625)"/>
     <use xlink:href="#DejaVuSans-2212" transform="translate(382.37793 0.890625)"/>
     <use xlink:href="#DejaVuSans-Oblique-7a" transform="translate(485.649414 0.890625)"/>
     <use xlink:href="#DejaVuSans-30" transform="translate(538.139648 -15.515625) scale(0.7)"/>
     <use xlink:href="#DejaVuSans-3c" transform="translate(604.892578 0.890625)"/>
     <use xlink:href="#DejaVuSans-Oblique-7a" transform="translate(708.164062 0.890625)"/>
     <use xlink:href="#DejaVuSans-Oblique-52" transform="translate(760.654297 -15.515625) scale(0.7)"/>
    </g>
   </g>
   <g id="text_34">
    <!-- $2z_R &lt; z-z_0$ -->
    <g transform="translate(583.088867 479.244293) scale(0.16 -0.16)">
     <use xlink:href="#DejaVuSans-32" transform="translate(0 0.78125)"/>
     <use xlink:href="#DejaVuSans-Oblique-7a" transform="translate(63.623047 0.78125)"/>
     <use xlink:href="#DejaVuSans-Oblique-52" transform="translate(116.113281 -15.625) scale(0.7)"/>
     <use xlink:href="#DejaVuSans-3c" transform="translate(186.967773 0.78125)"/>
     <use xlink:href="#DejaVuSans-Oblique-7a" transform="translate(290.239258 0.78125)"/>
     <use xlink:href="#DejaVuSans-2212" transform="translate(362.211914 0.78125)"/>
     <use xlink:href="#DejaVuSans-Oblique-7a" transform="translate(465.483398 0.78125)"/>
     <use xlink:href="#DejaVuSans-30" transform="translate(517.973633 -15.625) scale(0.7)"/>
    </g>
   </g>
   <g id="text_35">
    <!-- $z-z_0 &lt; -2z_R$ -->
    <g transform="translate(142.510806 479.244293) scale(0.16 -0.16)">
     <use xlink:href="#DejaVuSans-Oblique-7a" transform="translate(0 0.78125)"/>
     <use xlink:href="#DejaVuSans-2212" transform="translate(71.972656 0.78125)"/>
     <use xlink:href="#DejaVuSans-Oblique-7a" transform="translate(175.244141 0.78125)"/>
     <use xlink:href="#DejaVuSans-30" transform="translate(227.734375 -15.625) scale(0.7)"/>
     <use xlink:href="#DejaVuSans-3c" transform="translate(294.487305 0.78125)"/>
     <use xlink:href="#DejaVuSans-2212" transform="translate(397.758789 0.78125)"/>
     <use xlink:href="#DejaVuSans-32" transform="translate(481.547852 0.78125)"/>
     <use xlink:href="#DejaVuSans-Oblique-7a" transform="translate(545.170898 0.78125)"/>
     <use xlink:href="#DejaVuSans-Oblique-52" transform="translate(597.661133 -15.625) scale(0.7)"/>
    </g>
   </g>
   <g id="text_36">
    <!-- $Z_R$ = 0.1195$\pm$0.1056mm  $M^2$ = 1.233$\pm$0.499 -->
    <g transform="translate(202.79457 102.427685) scale(0.18 -0.18)">
     <defs>
      <path id="DejaVuSans-Oblique-5a" d="M 838 4666 
L 4500 4666 
L 4409 4184 
L 794 531 
L 3769 531 
L 3669 0 
L -141 0 
L -50 481 
L 3566 4134 
L 738 4134 
L 838 4666 
z
" transform="scale(0.015625)"/>
      <path id="DejaVuSans-Oblique-4d" d="M 1081 4666 
L 2028 4666 
L 2572 1522 
L 4378 4666 
L 5350 4666 
L 4441 0 
L 3828 0 
L 4622 4091 
L 2791 897 
L 2175 897 
L 1581 4103 
L 788 0 
L 172 0 
L 1081 4666 
z
" transform="scale(0.015625)"/>
     </defs>
     <use xlink:href="#DejaVuSans-Oblique-5a" transform="translate(0 0.765625)"/>
     <use xlink:href="#DejaVuSans-Oblique-52" transform="translate(68.505859 -15.640625) scale(0.7)"/>
     <use xlink:href="#DejaVuSans-20" transform="translate(119.87793 0.765625)"/>
     <use xlink:href="#DejaVuSans-3d" transform="translate(151.665039 0.765625)"/>
     <use xlink:href="#DejaVuSans-20" transform="translate(235.454102 0.765625)"/>
     <use xlink:href="#DejaVuSans-30" transform="translate(267.241211 0.765625)"/>
     <use xlink:href="#DejaVuSans-2e" transform="translate(330.864258 0.765625)"/>
     <use xlink:href="#DejaVuSans-31" transform="translate(362.651367 0.765625)"/>
     <use xlink:href="#DejaVuSans-31" transform="translate(426.274414 0.765625)"/>
     <use xlink:href="#DejaVuSans-39" transform="translate(489.897461 0.765625)"/>
     <use xlink:href="#DejaVuSans-35" transform="translate(553.520508 0.765625)"/>
     <use xlink:href="#DejaVuSans-b1" transform="translate(617.143555 0.765625)"/>
     <use xlink:href="#DejaVuSans-30" transform="translate(700.932617 0.765625)"/>
     <use xlink:href="#DejaVuSans-2e" transform="translate(764.555664 0.765625)"/>
     <use xlink:href="#DejaVuSans-31" transform="translate(796.342773 0.765625)"/>
     <use xlink:href="#DejaVuSans-30" transform="translate(859.96582 0.765625)"/>
     <use xlink:href="#DejaVuSans-35" transform="translate(923.588867 0.765625)"/>
     <use xlink:href="#DejaVuSans-36" transform="translate(987.211914 0.765625)"/>
     <use xlink:href="#DejaVuSans-6d" transform="translate(1050.834961 0.765625)"/>
     <use xlink:href="#DejaVuSans-6d" transform="translate(1148.24707 0.765625)"/>
     <use xlink:href="#DejaVuSans-20" transform="translate(1245.65918 0.765625)"/>
     <use xlink:href="#DejaVuSans-20" transform="translate(1277.446289 0.765625)"/>
     <use xlink:href="#DejaVuSans-Oblique-4d" transform="translate(1309.233398 0.765625)"/>
     <use xlink:href="#DejaVuSans-32" transform="translate(1402.529466 39.046875) scale(0.7)"/>
     <use xlink:href="#DejaVuSans-20" transform="translate(1449.799974 0.765625)"/>
     <use xlink:href="#DejaVuSans-3d" transform="translate(1481.587083 0.765625)"/>
     <use xlink:href="#DejaVuSans-20" transform="translate(1565.376146 0.765625)"/>
     <use xlink:href="#DejaVuSans-31" transform="translate(1597.163255 0.765625)"/>
     <use xlink:href="#DejaVuSans-2e" transform="translate(1660.786302 0.765625)"/>
     <use xlink:href="#DejaVuSans-32" transform="translate(1687.073411 0.765625)"/>
     <use xlink:href="#DejaVuSans-33" transform="translate(1750.696458 0.765625)"/>
     <use xlink:href="#DejaVuSans-33" transform="translate(1814.319505 0.765625)"/>
     <use xlink:href="#DejaVuSans-b1" transform="translate(1877.942552 0.765625)"/>
     <use xlink:href="#DejaVuSans-30" transform="translate(1961.731615 0.765625)"/>
     <use xlink:href="#DejaVuSans-2e" transform="translate(2025.354661 0.765625)"/>
     <use xlink:href="#DejaVuSans-34" transform="translate(2057.141771 0.765625)"/>
     <use xlink:href="#DejaVuSans-39" transform="translate(2120.764818 0.765625)"/>
     <use xlink:href="#DejaVuSans-39" transform="translate(2184.387865 0.765625)"/>
    </g>
   </g>
   <g id="text_37">
    <!-- $w_0$ = $d_0$/2 = 7.07$\pm$2.77$\mu$m  $\lambda$ = 1064nm -->
    <g transform="translate(230.408208 124.911009) scale(0.18 -0.18)">
     <defs>
      <path id="DejaVuSans-Oblique-77" d="M 544 3500 
L 1113 3500 
L 1259 684 
L 2566 3500 
L 3231 3500 
L 3425 684 
L 4666 3500 
L 5241 3500 
L 3641 0 
L 2969 0 
L 2797 2900 
L 1459 0 
L 781 0 
L 544 3500 
z
" transform="scale(0.015625)"/>
      <path id="DejaVuSans-Oblique-64" d="M 2675 525 
Q 2444 222 2128 65 
Q 1813 -91 1428 -91 
Q 903 -91 598 267 
Q 294 625 294 1247 
Q 294 1766 478 2236 
Q 663 2706 1013 3078 
Q 1244 3325 1534 3454 
Q 1825 3584 2144 3584 
Q 2481 3584 2739 3421 
Q 2997 3259 3138 2956 
L 3513 4863 
L 4091 4863 
L 3144 0 
L 2566 0 
L 2675 525 
z
M 891 1350 
Q 891 897 1095 644 
Q 1300 391 1663 391 
Q 1931 391 2161 520 
Q 2391 650 2566 903 
Q 2750 1166 2856 1509 
Q 2963 1853 2963 2188 
Q 2963 2622 2758 2865 
Q 2553 3109 2194 3109 
Q 1922 3109 1687 2981 
Q 1453 2853 1288 2613 
Q 1106 2353 998 2009 
Q 891 1666 891 1350 
z
" transform="scale(0.015625)"/>
      <path id="DejaVuSans-2f" d="M 1625 4666 
L 2156 4666 
L 531 -594 
L 0 -594 
L 1625 4666 
z
" transform="scale(0.015625)"/>
      <path id="DejaVuSans-Oblique-3bb" d="M 2350 4316 
L 3125 0 
L 2516 0 
L 2038 2588 
L 328 0 
L -281 0 
L 1903 3356 
L 1794 3975 
Q 1725 4369 1391 4369 
L 1091 4369 
L 1184 4863 
L 1550 4856 
Q 2253 4847 2350 4316 
z
" transform="scale(0.015625)"/>
     </defs>
     <use xlink:href="#DejaVuSans-Oblique-77" transform="translate(0 0.015625)"/>
     <use xlink:href="#DejaVuSans-30" transform="translate(81.787109 -16.390625) scale(0.7)"/>
     <use xlink:href="#DejaVuSans-20" transform="translate(129.057617 0.015625)"/>
     <use xlink:href="#DejaVuSans-3d" transform="translate(160.844727 0.015625)"/>
     <use xlink:href="#DejaVuSans-20" transform="translate(244.633789 0.015625)"/>
     <use xlink:href="#DejaVuSans-Oblique-64" transform="translate(276.420898 0.015625)"/>
     <use xlink:href="#DejaVuSans-30" transform="translate(339.897461 -16.390625) scale(0.7)"/>
     <use xlink:href="#DejaVuSans-2f" transform="translate(387.167969 0.015625)"/>
     <use xlink:href="#DejaVuSans-32" transform="translate(417.234375 0.015625)"/>
     <use xlink:href="#DejaVuSans-20" transform="translate(480.857422 0.015625)"/>
     <use xlink:href="#DejaVuSans-3d" transform="translate(512.644531 0.015625)"/>
     <use xlink:href="#DejaVuSans-20" transform="translate(596.433594 0.015625)"/>
     <use xlink:href="#DejaVuSans-37" transform="translate(628.220703 0.015625)"/>
     <use xlink:href="#DejaVuSans-2e" transform="translate(691.84375 0.015625)"/>
     <use xlink:href="#DejaVuSans-30" transform="translate(723.630859 0.015625)"/>
     <use xlink:href="#DejaVuSans-37" transform="translate(787.253906 0.015625)"/>
     <use xlink:href="#DejaVuSans-b1" transform="translate(850.876953 0.015625)"/>
     <use xlink:href="#DejaVuSans-32" transform="translate(934.666016 0.015625)"/>
     <use xlink:href="#DejaVuSans-2e" transform="translate(998.289062 0.015625)"/>
     <use xlink:href="#DejaVuSans-37" transform="translate(1022.326172 0.015625)"/>
     <use xlink:href="#DejaVuSans-37" transform="translate(1084.199219 0.015625)"/>
     <use xlink:href="#DejaVuSans-Oblique-3bc" transform="translate(1147.822266 0.015625)"/>
     <use xlink:href="#DejaVuSans-6d" transform="translate(1211.445312 0.015625)"/>
     <use xlink:href="#DejaVuSans-20" transform="translate(1308.857422 0.015625)"/>
     <use xlink:href="#DejaVuSans-20" transform="translate(1340.644531 0.015625)"/>
     <use xlink:href="#DejaVuSans-Oblique-3bb" transform="translate(1372.431641 0.015625)"/>
     <use xlink:href="#DejaVuSans-20" transform="translate(1431.611328 0.015625)"/>
     <use xlink:href="#DejaVuSans-3d" transform="translate(1463.398438 0.015625)"/>
     <use xlink:href="#DejaVuSans-20" transform="translate(1547.1875 0.015625)"/>
     <use xlink:href="#DejaVuSans-31" transform="translate(1578.974609 0.015625)"/>
     <use xlink:href="#DejaVuSans-30" transform="translate(1642.597656 0.015625)"/>
     <use xlink:href="#DejaVuSans-36" transform="translate(1706.220703 0.015625)"/>
     <use xlink:href="#DejaVuSans-34" transform="translate(1769.84375 0.015625)"/>
     <use xlink:href="#DejaVuSans-6e" transform="translate(1833.466797 0.015625)"/>
     <use xlink:href="#DejaVuSans-6d" transform="translate(1896.845703 0.015625)"/>
    </g>
   </g>
   <g id="text_38">
    <!-- Errors scaled such that $\chi^2$ per dof = 1 -->
    <g transform="translate(258.021845 147.394333) scale(0.16 -0.16)">
     <defs>
      <path id="DejaVuSans-45" d="M 628 4666 
L 3578 4666 
L 3578 4134 
L 1259 4134 
L 1259 2753 
L 3481 2753 
L 3481 2222 
L 1259 2222 
L 1259 531 
L 3634 531 
L 3634 0 
L 628 0 
L 628 4666 
z
" transform="scale(0.015625)"/>
      <path id="DejaVuSans-68" d="M 3513 2113 
L 3513 0 
L 2938 0 
L 2938 2094 
Q 2938 2591 2744 2837 
Q 2550 3084 2163 3084 
Q 1697 3084 1428 2787 
Q 1159 2491 1159 1978 
L 1159 0 
L 581 0 
L 581 4863 
L 1159 4863 
L 1159 2956 
Q 1366 3272 1645 3428 
Q 1925 3584 2291 3584 
Q 2894 3584 3203 3211 
Q 3513 2838 3513 2113 
z
" transform="scale(0.015625)"/>
      <path id="DejaVuSans-Oblique-3c7" d="M 1922 -781 
L 1691 416 
L 394 -1334 
L -284 -1334 
L 1553 1141 
L 1269 2613 
Q 1194 3006 713 3006 
L 559 3006 
L 653 3500 
L 872 3494 
Q 1675 3472 1775 2950 
L 2006 1753 
L 3303 3503 
L 3981 3503 
L 2144 1028 
L 2428 -444 
Q 2503 -838 2984 -838 
L 3138 -838 
L 3044 -1331 
L 2825 -1325 
Q 2022 -1303 1922 -781 
z
" transform="scale(0.015625)"/>
      <path id="DejaVuSans-70" d="M 1159 525 
L 1159 -1331 
L 581 -1331 
L 581 3500 
L 1159 3500 
L 1159 2969 
Q 1341 3281 1617 3432 
Q 1894 3584 2278 3584 
Q 2916 3584 3314 3078 
Q 3713 2572 3713 1747 
Q 3713 922 3314 415 
Q 2916 -91 2278 -91 
Q 1894 -91 1617 61 
Q 1341 213 1159 525 
z
M 3116 1747 
Q 3116 2381 2855 2742 
Q 2594 3103 2138 3103 
Q 1681 3103 1420 2742 
Q 1159 2381 1159 1747 
Q 1159 1113 1420 752 
Q 1681 391 2138 391 
Q 2594 391 2855 752 
Q 3116 1113 3116 1747 
z
" transform="scale(0.015625)"/>
      <path id="DejaVuSans-66" d="M 2375 4863 
L 2375 4384 
L 1825 4384 
Q 1516 4384 1395 4259 
Q 1275 4134 1275 3809 
L 1275 3500 
L 2222 3500 
L 2222 3053 
L 1275 3053 
L 1275 0 
L 697 0 
L 697 3053 
L 147 3053 
L 147 3500 
L 697 3500 
L 697 3744 
Q 697 4328 969 4595 
Q 1241 4863 1831 4863 
L 2375 4863 
z
" transform="scale(0.015625)"/>
     </defs>
     <use xlink:href="#DejaVuSans-45" transform="translate(0 0.765625)"/>
     <use xlink:href="#DejaVuSans-72" transform="translate(63.183594 0.765625)"/>
     <use xlink:href="#DejaVuSans-72" transform="translate(104.296875 0.765625)"/>
     <use xlink:href="#DejaVuSans-6f" transform="translate(145.410156 0.765625)"/>
     <use xlink:href="#DejaVuSans-72" transform="translate(206.591797 0.765625)"/>
     <use xlink:href="#DejaVuSans-73" transform="translate(247.705078 0.765625)"/>
     <use xlink:href="#DejaVuSans-20" transform="translate(299.804688 0.765625)"/>
     <use xlink:href="#DejaVuSans-73" transform="translate(331.591797 0.765625)"/>
     <use xlink:href="#DejaVuSans-63" transform="translate(383.691406 0.765625)"/>
     <use xlink:href="#DejaVuSans-61" transform="translate(438.671875 0.765625)"/>
     <use xlink:href="#DejaVuSans-6c" transform="translate(499.951172 0.765625)"/>
     <use xlink:href="#DejaVuSans-65" transform="translate(527.734375 0.765625)"/>
     <use xlink:href="#DejaVuSans-64" transform="translate(589.257812 0.765625)"/>
     <use xlink:href="#DejaVuSans-20" transform="translate(652.734375 0.765625)"/>
     <use xlink:href="#DejaVuSans-73" transform="translate(684.521484 0.765625)"/>
     <use xlink:href="#DejaVuSans-75" transform="translate(736.621094 0.765625)"/>
     <use xlink:href="#DejaVuSans-63" transform="translate(800 0.765625)"/>
     <use xlink:href="#DejaVuSans-68" transform="translate(854.980469 0.765625)"/>
     <use xlink:href="#DejaVuSans-20" transform="translate(918.359375 0.765625)"/>
     <use xlink:href="#DejaVuSans-74" transform="translate(950.146484 0.765625)"/>
     <use xlink:href="#DejaVuSans-68" transform="translate(989.355469 0.765625)"/>
     <use xlink:href="#DejaVuSans-61" transform="translate(1052.734375 0.765625)"/>
     <use xlink:href="#DejaVuSans-74" transform="translate(1114.013672 0.765625)"/>
     <use xlink:href="#DejaVuSans-20" transform="translate(1153.222656 0.765625)"/>
     <use xlink:href="#DejaVuSans-Oblique-3c7" transform="translate(1185.009766 0.765625)"/>
     <use xlink:href="#DejaVuSans-32" transform="translate(1248.662161 39.046875) scale(0.7)"/>
     <use xlink:href="#DejaVuSans-20" transform="translate(1295.932669 0.765625)"/>
     <use xlink:href="#DejaVuSans-70" transform="translate(1327.719779 0.765625)"/>
     <use xlink:href="#DejaVuSans-65" transform="translate(1391.196341 0.765625)"/>
     <use xlink:href="#DejaVuSans-72" transform="translate(1452.719779 0.765625)"/>
     <use xlink:href="#DejaVuSans-20" transform="translate(1493.83306 0.765625)"/>
     <use xlink:href="#DejaVuSans-64" transform="translate(1525.620169 0.765625)"/>
     <use xlink:href="#DejaVuSans-6f" transform="translate(1589.096732 0.765625)"/>
     <use xlink:href="#DejaVuSans-66" transform="translate(1650.278372 0.765625)"/>
     <use xlink:href="#DejaVuSans-20" transform="translate(1685.483451 0.765625)"/>
     <use xlink:href="#DejaVuSans-3d" transform="translate(1717.27056 0.765625)"/>
     <use xlink:href="#DejaVuSans-20" transform="translate(1801.059622 0.765625)"/>
     <use xlink:href="#DejaVuSans-31" transform="translate(1832.846732 0.765625)"/>
    </g>
   </g>
   <g id="text_39">
    <!-- $\theta$ = 118.2$\pm$11.9 mrad -->
    <g transform="translate(534.158225 327.260924) scale(0.15 -0.15)">
     <defs>
      <path id="DejaVuSans-Oblique-3b8" d="M 2913 2219 
L 925 2219 
Q 791 1284 928 888 
Q 1100 400 1566 400 
Q 2034 400 2391 891 
Q 2703 1322 2913 2219 
z
M 3009 2750 
Q 3094 3638 2984 3950 
Q 2813 4444 2353 4444 
Q 1875 4444 1525 3956 
Q 1250 3563 1034 2750 
L 3009 2750 
z
M 2444 4913 
Q 3194 4913 3494 4250 
Q 3794 3591 3566 2422 
Q 3341 1256 2781 594 
Q 2225 -72 1475 -72 
Q 722 -72 425 594 
Q 128 1256 353 2422 
Q 581 3591 1134 4250 
Q 1691 4913 2444 4913 
z
" transform="scale(0.015625)"/>
     </defs>
     <use xlink:href="#DejaVuSans-Oblique-3b8" transform="translate(0 0.234375)"/>
     <use xlink:href="#DejaVuSans-20" transform="translate(61.181641 0.234375)"/>
     <use xlink:href="#DejaVuSans-3d" transform="translate(92.96875 0.234375)"/>
     <use xlink:href="#DejaVuSans-20" transform="translate(176.757812 0.234375)"/>
     <use xlink:href="#DejaVuSans-31" transform="translate(208.544922 0.234375)"/>
     <use xlink:href="#DejaVuSans-31" transform="translate(272.167969 0.234375)"/>
     <use xlink:href="#DejaVuSans-38" transform="translate(335.791016 0.234375)"/>
     <use xlink:href="#DejaVuSans-2e" transform="translate(399.414062 0.234375)"/>
     <use xlink:href="#DejaVuSans-32" transform="translate(425.701172 0.234375)"/>
     <use xlink:href="#DejaVuSans-b1" transform="translate(489.324219 0.234375)"/>
     <use xlink:href="#DejaVuSans-31" transform="translate(573.113281 0.234375)"/>
     <use xlink:href="#DejaVuSans-31" transform="translate(636.736328 0.234375)"/>
     <use xlink:href="#DejaVuSans-2e" transform="translate(700.359375 0.234375)"/>
     <use xlink:href="#DejaVuSans-39" transform="translate(732.146484 0.234375)"/>
     <use xlink:href="#DejaVuSans-20" transform="translate(795.769531 0.234375)"/>
     <use xlink:href="#DejaVuSans-6d" transform="translate(827.556641 0.234375)"/>
     <use xlink:href="#DejaVuSans-72" transform="translate(924.96875 0.234375)"/>
     <use xlink:href="#DejaVuSans-61" transform="translate(966.082031 0.234375)"/>
     <use xlink:href="#DejaVuSans-64" transform="translate(1027.361328 0.234375)"/>
    </g>
   </g>
   <g id="text_40">
    <!-- $w_0=d_0/2$=7±3µm,  $M^2$ = 1.23±0.50,  $\lambda$=1064 nm -->
    <g transform="translate(199.096 45.873025) scale(0.16 -0.16)">
     <defs>
      <path id="DejaVuSans-b5" d="M 544 -1331 
L 544 3500 
L 1119 3500 
L 1119 1325 
Q 1119 872 1334 640 
Q 1550 409 1972 409 
Q 2434 409 2667 671 
Q 2900 934 2900 1459 
L 2900 3500 
L 3475 3500 
L 3475 806 
Q 3475 619 3529 530 
Q 3584 441 3700 441 
Q 3728 441 3778 458 
Q 3828 475 3916 513 
L 3916 50 
Q 3788 -22 3673 -56 
Q 3559 -91 3450 -91 
Q 3234 -91 3106 31 
Q 2978 153 2931 403 
Q 2775 156 2548 32 
Q 2322 -91 2016 -91 
Q 1697 -91 1473 31 
Q 1250 153 1119 397 
L 1119 -1331 
L 544 -1331 
z
" transform="scale(0.015625)"/>
      <path id="DejaVuSans-2c" d="M 750 794 
L 1409 794 
L 1409 256 
L 897 -744 
L 494 -744 
L 750 256 
L 750 794 
z
" transform="scale(0.015625)"/>
     </defs>
     <use xlink:href="#DejaVuSans-Oblique-77" transform="translate(0 0.765625)"/>
     <use xlink:href="#DejaVuSans-30" transform="translate(81.787109 -15.640625) scale(0.7)"/>
     <use xlink:href="#DejaVuSans-3d" transform="translate(148.540039 0.765625)"/>
     <use xlink:href="#DejaVuSans-Oblique-64" transform="translate(251.811523 0.765625)"/>
     <use xlink:href="#DejaVuSans-30" transform="translate(315.288086 -15.640625) scale(0.7)"/>
     <use xlink:href="#DejaVuSans-2f" transform="translate(362.558594 0.765625)"/>
     <use xlink:href="#DejaVuSans-32" transform="translate(392.625 0.765625)"/>
     <use xlink:href="#DejaVuSans-3d" transform="translate(456.248047 0.765625)"/>
     <use xlink:href="#DejaVuSans-37" transform="translate(540.037109 0.765625)"/>
     <use xlink:href="#DejaVuSans-b1" transform="translate(603.660156 0.765625)"/>
     <use xlink:href="#DejaVuSans-33" transform="translate(687.449219 0.765625)"/>
     <use xlink:href="#DejaVuSans-b5" transform="translate(747.447266 0.765625)"/>
     <use xlink:href="#DejaVuSans-6d" transform="translate(811.070312 0.765625)"/>
     <use xlink:href="#DejaVuSans-2c" transform="translate(908.482422 0.765625)"/>
     <use xlink:href="#DejaVuSans-20" transform="translate(940.269531 0.765625)"/>
     <use xlink:href="#DejaVuSans-20" transform="translate(972.056641 0.765625)"/>
     <use xlink:href="#DejaVuSans-Oblique-4d" transform="translate(1003.84375 0.765625)"/>
     <use xlink:href="#DejaVuSans-32" transform="translate(1097.139818 39.046875) scale(0.7)"/>
     <use xlink:href="#DejaVuSans-20" transform="translate(1144.410326 0.765625)"/>
     <use xlink:href="#DejaVuSans-3d" transform="translate(1176.197435 0.765625)"/>
     <use xlink:href="#DejaVuSans-20" transform="translate(1259.986497 0.765625)"/>
     <use xlink:href="#DejaVuSans-31" transform="translate(1291.773607 0.765625)"/>
     <use xlink:href="#DejaVuSans-2e" transform="translate(1355.396654 0.765625)"/>
     <use xlink:href="#DejaVuSans-32" transform="translate(1381.683763 0.765625)"/>
     <use xlink:href="#DejaVuSans-33" transform="translate(1445.30681 0.765625)"/>
     <use xlink:href="#DejaVuSans-b1" transform="translate(1508.929857 0.765625)"/>
     <use xlink:href="#DejaVuSans-30" transform="translate(1592.718919 0.765625)"/>
     <use xlink:href="#DejaVuSans-2e" transform="translate(1656.341966 0.765625)"/>
     <use xlink:href="#DejaVuSans-35" transform="translate(1688.129076 0.765625)"/>
     <use xlink:href="#DejaVuSans-30" transform="translate(1751.752122 0.765625)"/>
     <use xlink:href="#DejaVuSans-2c" transform="translate(1815.375169 0.765625)"/>
     <use xlink:href="#DejaVuSans-20" transform="translate(1847.162279 0.765625)"/>
     <use xlink:href="#DejaVuSans-20" transform="translate(1878.949388 0.765625)"/>
     <use xlink:href="#DejaVuSans-Oblique-3bb" transform="translate(1910.736497 0.765625)"/>
     <use xlink:href="#DejaVuSans-3d" transform="translate(1969.916185 0.765625)"/>
     <use xlink:href="#DejaVuSans-31" transform="translate(2053.705247 0.765625)"/>
     <use xlink:href="#DejaVuSans-30" transform="translate(2117.328294 0.765625)"/>
     <use xlink:href="#DejaVuSans-36" transform="translate(2180.951341 0.765625)"/>
     <use xlink:href="#DejaVuSans-34" transform="translate(2244.574388 0.765625)"/>
     <use xlink:href="#DejaVuSans-20" transform="translate(2308.197435 0.765625)"/>
     <use xlink:href="#DejaVuSans-6e" transform="translate(2339.984544 0.765625)"/>
     <use xlink:href="#DejaVuSans-6d" transform="translate(2403.363451 0.765625)"/>
    </g>
   </g>
  </g>
 </g>
 <defs>
  <clipPath id="pf66aaee68e">
   <rect x="97.36" y="72.4224" width="603.632" height="464.7104"/>
  </clipPath>
 </defs>
</svg>
