<?xml version="1.0" encoding="utf-8" standalone="no"?>
<!DOCTYPE svg PUBLIC "-//W3C//DTD SVG 1.1//EN"
  "http://www.w3.org/Graphics/SVG/1.1/DTD/svg11.dtd">
<svg xmlns:xlink="http://www.w3.org/1999/xlink" width="1536pt" height="780pt" viewBox="0 0 1536 780" xmlns="http://www.w3.org/2000/svg" version="1.1">
 <metadata>
  <rdf:RDF xmlns:dc="http://purl.org/dc/elements/1.1/" xmlns:cc="http://creativecommons.org/ns#" xmlns:rdf="http://www.w3.org/1999/02/22-rdf-syntax-ns#">
   <cc:Work>
    <dc:type rdf:resource="http://purl.org/dc/dcmitype/StillImage"/>
    <dc:date>2024-12-08T21:20:22.089347</dc:date>
    <dc:format>image/svg+xml</dc:format>
    <dc:creator>
     <cc:Agent>
      <dc:title>Matplotlib v3.7.2, https://matplotlib.org/</dc:title>
     </cc:Agent>
    </dc:creator>
   </cc:Work>
  </rdf:RDF>
 </metadata>
 <defs>
  <style type="text/css">*{stroke-linejoin: round; stroke-linecap: butt}</style>
 </defs>
 <g id="figure_1">
  <g id="patch_1">
   <path d="M 0 780 
L 1536 780 
L 1536 0 
L 0 0 
z
" style="fill: #ffffff"/>
  </g>
  <g id="axes_1">
   <g id="patch_2">
    <path d="M 192 694.2 
L 1382.4 694.2 
L 1382.4 93.6 
L 192 93.6 
z
" style="fill: #ffffff"/>
   </g>
   <g id="patch_3">
    <path d="M 722.176734 694.2 
L 722.176734 93.6 
L 976.108759 93.6 
L 976.108759 694.2 
z
" clip-path="url(#ped803257d1)" style="fill: #00ffff; opacity: 0.3; stroke: #00ffff; stroke-linejoin: miter"/>
   </g>
   <g id="patch_4">
    <path d="M 595.210721 694.2 
L 595.210721 93.6 
L 192 93.6 
L 192 694.2 
z
" clip-path="url(#ped803257d1)" style="fill: #00ffff; opacity: 0.3; stroke: #00ffff; stroke-linejoin: miter"/>
   </g>
   <g id="patch_5">
    <path d="M 1103.074772 694.2 
L 1103.074772 93.6 
L 1382.4 93.6 
L 1382.4 694.2 
z
" clip-path="url(#ped803257d1)" style="fill: #00ffff; opacity: 0.3; stroke: #00ffff; stroke-linejoin: miter"/>
   </g>
   <g id="PolyCollection_1">
    <defs>
     <path id="mdb7c3043f6" d="M 192 -658.628994 
L 192 -601.746953 
L 216.293878 -593.890125 
L 240.587755 -586.037918 
L 264.881633 -578.190898 
L 289.17551 -570.349729 
L 313.469388 -562.51519 
L 337.763265 -554.688206 
L 362.057143 -546.86988 
L 386.35102 -539.061539 
L 410.644898 -531.264796 
L 434.938776 -523.481624 
L 459.232653 -515.714469 
L 483.526531 -507.966393 
L 507.820408 -500.241281 
L 532.114286 -492.544133 
L 556.408163 -484.881488 
L 580.702041 -477.262044 
L 604.995918 -469.697616 
L 629.289796 -462.204611 
L 653.583673 -454.8064 
L 677.877551 -447.537238 
L 702.171429 -440.44893 
L 726.465306 -433.622473 
L 750.759184 -427.188586 
L 775.053061 -421.362807 
L 799.346939 -416.496816 
L 823.640816 -413.114339 
L 847.934694 -411.807777 
L 872.228571 -412.882686 
L 896.522449 -416.084029 
L 920.816327 -420.828647 
L 945.110204 -426.577439 
L 969.404082 -432.962292 
L 993.697959 -439.756621 
L 1017.991837 -446.823132 
L 1042.285714 -454.076994 
L 1066.579592 -461.464129 
L 1090.873469 -468.948894 
L 1115.167347 -476.507046 
L 1139.461224 -484.121608 
L 1163.755102 -491.78039 
L 1188.04898 -499.474428 
L 1212.342857 -507.197004 
L 1236.636735 -514.942986 
L 1260.930612 -522.708393 
L 1285.22449 -530.49009 
L 1309.518367 -538.285579 
L 1333.812245 -546.092843 
L 1358.106122 -553.91024 
L 1382.4 -561.736416 
L 1382.4 -610.661794 
L 1382.4 -610.661794 
L 1358.106122 -601.353876 
L 1333.812245 -592.088622 
L 1309.518367 -582.872059 
L 1285.22449 -573.711361 
L 1260.930612 -564.615131 
L 1236.636735 -555.593746 
L 1212.342857 -546.659825 
L 1188.04898 -537.828817 
L 1163.755102 -529.119788 
L 1139.461224 -520.556443 
L 1115.167347 -512.16847 
L 1090.873469 -503.993311 
L 1066.579592 -496.078432 
L 1042.285714 -488.484215 
L 1017.991837 -481.287439 
L 993.697959 -474.585134 
L 969.404082 -468.498049 
L 945.110204 -463.172092 
L 920.816327 -458.774792 
L 896.522449 -455.482942 
L 872.228571 -453.458808 
L 847.934694 -452.817874 
L 823.640816 -453.599553 
L 799.346939 -455.755967 
L 775.053061 -459.165499 
L 750.759184 -463.663069 
L 726.465306 -469.071931 
L 702.171429 -475.226328 
L 677.877551 -481.982807 
L 653.583673 -489.223092 
L 629.289796 -496.852339 
L 604.995918 -504.795571 
L 580.702041 -512.993836 
L 556.408163 -521.400783 
L 532.114286 -529.979837 
L 507.820408 -538.701973 
L 483.526531 -547.544003 
L 459.232653 -556.487263 
L 434.938776 -565.516615 
L 410.644898 -574.619689 
L 386.35102 -583.786302 
L 362.057143 -593.008009 
L 337.763265 -602.277759 
L 313.469388 -611.589627 
L 289.17551 -620.938603 
L 264.881633 -630.320426 
L 240.587755 -639.731451 
L 216.293878 -649.168543 
L 192 -658.628994 
z
" style="stroke: #ff0000; stroke-opacity: 0.5"/>
    </defs>
    <g clip-path="url(#ped803257d1)">
     <use xlink:href="#mdb7c3043f6" x="0" y="780" style="fill: #ff0000; fill-opacity: 0.5; stroke: #ff0000; stroke-opacity: 0.5"/>
    </g>
   </g>
   <g id="PolyCollection_2">
    <defs>
     <path id="m6ae7c8333e" d="M 192 -113.571006 
L 192 -170.453047 
L 216.293878 -178.309875 
L 240.587755 -186.162082 
L 264.881633 -194.009102 
L 289.17551 -201.850271 
L 313.469388 -209.68481 
L 337.763265 -217.511794 
L 362.057143 -225.33012 
L 386.35102 -233.138461 
L 410.644898 -240.935204 
L 434.938776 -248.718376 
L 459.232653 -256.485531 
L 483.526531 -264.233607 
L 507.820408 -271.958719 
L 532.114286 -279.655867 
L 556.408163 -287.318512 
L 580.702041 -294.937956 
L 604.995918 -302.502384 
L 629.289796 -309.995389 
L 653.583673 -317.3936 
L 677.877551 -324.662762 
L 702.171429 -331.75107 
L 726.465306 -338.577527 
L 750.759184 -345.011414 
L 775.053061 -350.837193 
L 799.346939 -355.703184 
L 823.640816 -359.085661 
L 847.934694 -360.392223 
L 872.228571 -359.317314 
L 896.522449 -356.115971 
L 920.816327 -351.371353 
L 945.110204 -345.622561 
L 969.404082 -339.237708 
L 993.697959 -332.443379 
L 1017.991837 -325.376868 
L 1042.285714 -318.123006 
L 1066.579592 -310.735871 
L 1090.873469 -303.251106 
L 1115.167347 -295.692954 
L 1139.461224 -288.078392 
L 1163.755102 -280.41961 
L 1188.04898 -272.725572 
L 1212.342857 -265.002996 
L 1236.636735 -257.257014 
L 1260.930612 -249.491607 
L 1285.22449 -241.70991 
L 1309.518367 -233.914421 
L 1333.812245 -226.107157 
L 1358.106122 -218.28976 
L 1382.4 -210.463584 
L 1382.4 -161.538206 
L 1382.4 -161.538206 
L 1358.106122 -170.846124 
L 1333.812245 -180.111378 
L 1309.518367 -189.327941 
L 1285.22449 -198.488639 
L 1260.930612 -207.584869 
L 1236.636735 -216.606254 
L 1212.342857 -225.540175 
L 1188.04898 -234.371183 
L 1163.755102 -243.080212 
L 1139.461224 -251.643557 
L 1115.167347 -260.03153 
L 1090.873469 -268.206689 
L 1066.579592 -276.121568 
L 1042.285714 -283.715785 
L 1017.991837 -290.912561 
L 993.697959 -297.614866 
L 969.404082 -303.701951 
L 945.110204 -309.027908 
L 920.816327 -313.425208 
L 896.522449 -316.717058 
L 872.228571 -318.741192 
L 847.934694 -319.382126 
L 823.640816 -318.600447 
L 799.346939 -316.444033 
L 775.053061 -313.034501 
L 750.759184 -308.536931 
L 726.465306 -303.128069 
L 702.171429 -296.973672 
L 677.877551 -290.217193 
L 653.583673 -282.976908 
L 629.289796 -275.347661 
L 604.995918 -267.404429 
L 580.702041 -259.206164 
L 556.408163 -250.799217 
L 532.114286 -242.220163 
L 507.820408 -233.498027 
L 483.526531 -224.655997 
L 459.232653 -215.712737 
L 434.938776 -206.683385 
L 410.644898 -197.580311 
L 386.35102 -188.413698 
L 362.057143 -179.191991 
L 337.763265 -169.922241 
L 313.469388 -160.610373 
L 289.17551 -151.261397 
L 264.881633 -141.879574 
L 240.587755 -132.468549 
L 216.293878 -123.031457 
L 192 -113.571006 
z
" style="stroke: #ff0000; stroke-opacity: 0.5"/>
    </defs>
    <g clip-path="url(#ped803257d1)">
     <use xlink:href="#m6ae7c8333e" x="0" y="780" style="fill: #ff0000; fill-opacity: 0.5; stroke: #ff0000; stroke-opacity: 0.5"/>
    </g>
   </g>
   <g id="matplotlib.axis_1">
    <g id="xtick_1">
     <g id="line2d_1">
      <defs>
       <path id="ma593e55a61" d="M 0 0 
L 0 3.5 
" style="stroke: #000000; stroke-width: 0.8"/>
      </defs>
      <g>
       <use xlink:href="#ma593e55a61" x="214.312683" y="694.2" style="stroke: #000000; stroke-width: 0.8"/>
      </g>
     </g>
     <g id="text_1">
      <!-- -0.5678 -->
      <g transform="translate(187.293777 711.837813) scale(0.14 -0.14)">
       <defs>
        <path id="DejaVuSans-2d" d="M 313 2009 
L 1997 2009 
L 1997 1497 
L 313 1497 
L 313 2009 
z
" transform="scale(0.015625)"/>
        <path id="DejaVuSans-30" d="M 2034 4250 
Q 1547 4250 1301 3770 
Q 1056 3291 1056 2328 
Q 1056 1369 1301 889 
Q 1547 409 2034 409 
Q 2525 409 2770 889 
Q 3016 1369 3016 2328 
Q 3016 3291 2770 3770 
Q 2525 4250 2034 4250 
z
M 2034 4750 
Q 2819 4750 3233 4129 
Q 3647 3509 3647 2328 
Q 3647 1150 3233 529 
Q 2819 -91 2034 -91 
Q 1250 -91 836 529 
Q 422 1150 422 2328 
Q 422 3509 836 4129 
Q 1250 4750 2034 4750 
z
" transform="scale(0.015625)"/>
        <path id="DejaVuSans-2e" d="M 684 794 
L 1344 794 
L 1344 0 
L 684 0 
L 684 794 
z
" transform="scale(0.015625)"/>
        <path id="DejaVuSans-35" d="M 691 4666 
L 3169 4666 
L 3169 4134 
L 1269 4134 
L 1269 2991 
Q 1406 3038 1543 3061 
Q 1681 3084 1819 3084 
Q 2600 3084 3056 2656 
Q 3513 2228 3513 1497 
Q 3513 744 3044 326 
Q 2575 -91 1722 -91 
Q 1428 -91 1123 -41 
Q 819 9 494 109 
L 494 744 
Q 775 591 1075 516 
Q 1375 441 1709 441 
Q 2250 441 2565 725 
Q 2881 1009 2881 1497 
Q 2881 1984 2565 2268 
Q 2250 2553 1709 2553 
Q 1456 2553 1204 2497 
Q 953 2441 691 2322 
L 691 4666 
z
" transform="scale(0.015625)"/>
        <path id="DejaVuSans-36" d="M 2113 2584 
Q 1688 2584 1439 2293 
Q 1191 2003 1191 1497 
Q 1191 994 1439 701 
Q 1688 409 2113 409 
Q 2538 409 2786 701 
Q 3034 994 3034 1497 
Q 3034 2003 2786 2293 
Q 2538 2584 2113 2584 
z
M 3366 4563 
L 3366 3988 
Q 3128 4100 2886 4159 
Q 2644 4219 2406 4219 
Q 1781 4219 1451 3797 
Q 1122 3375 1075 2522 
Q 1259 2794 1537 2939 
Q 1816 3084 2150 3084 
Q 2853 3084 3261 2657 
Q 3669 2231 3669 1497 
Q 3669 778 3244 343 
Q 2819 -91 2113 -91 
Q 1303 -91 875 529 
Q 447 1150 447 2328 
Q 447 3434 972 4092 
Q 1497 4750 2381 4750 
Q 2619 4750 2861 4703 
Q 3103 4656 3366 4563 
z
" transform="scale(0.015625)"/>
        <path id="DejaVuSans-37" d="M 525 4666 
L 3525 4666 
L 3525 4397 
L 1831 0 
L 1172 0 
L 2766 4134 
L 525 4134 
L 525 4666 
z
" transform="scale(0.015625)"/>
        <path id="DejaVuSans-38" d="M 2034 2216 
Q 1584 2216 1326 1975 
Q 1069 1734 1069 1313 
Q 1069 891 1326 650 
Q 1584 409 2034 409 
Q 2484 409 2743 651 
Q 3003 894 3003 1313 
Q 3003 1734 2745 1975 
Q 2488 2216 2034 2216 
z
M 1403 2484 
Q 997 2584 770 2862 
Q 544 3141 544 3541 
Q 544 4100 942 4425 
Q 1341 4750 2034 4750 
Q 2731 4750 3128 4425 
Q 3525 4100 3525 3541 
Q 3525 3141 3298 2862 
Q 3072 2584 2669 2484 
Q 3125 2378 3379 2068 
Q 3634 1759 3634 1313 
Q 3634 634 3220 271 
Q 2806 -91 2034 -91 
Q 1263 -91 848 271 
Q 434 634 434 1313 
Q 434 1759 690 2068 
Q 947 2378 1403 2484 
z
M 1172 3481 
Q 1172 3119 1398 2916 
Q 1625 2713 2034 2713 
Q 2441 2713 2670 2916 
Q 2900 3119 2900 3481 
Q 2900 3844 2670 4047 
Q 2441 4250 2034 4250 
Q 1625 4250 1398 4047 
Q 1172 3844 1172 3481 
z
" transform="scale(0.015625)"/>
       </defs>
       <use xlink:href="#DejaVuSans-2d"/>
       <use xlink:href="#DejaVuSans-30" x="36.083984"/>
       <use xlink:href="#DejaVuSans-2e" x="99.707031"/>
       <use xlink:href="#DejaVuSans-35" x="131.494141"/>
       <use xlink:href="#DejaVuSans-36" x="195.117188"/>
       <use xlink:href="#DejaVuSans-37" x="258.740234"/>
       <use xlink:href="#DejaVuSans-38" x="322.363281"/>
      </g>
     </g>
    </g>
    <g id="xtick_2">
     <g id="line2d_2">
      <g>
       <use xlink:href="#ma593e55a61" x="341.278696" y="694.2" style="stroke: #000000; stroke-width: 0.8"/>
      </g>
     </g>
     <g id="text_2">
      <!-- -0.4542 -->
      <g transform="translate(314.25979 711.837813) scale(0.14 -0.14)">
       <defs>
        <path id="DejaVuSans-34" d="M 2419 4116 
L 825 1625 
L 2419 1625 
L 2419 4116 
z
M 2253 4666 
L 3047 4666 
L 3047 1625 
L 3713 1625 
L 3713 1100 
L 3047 1100 
L 3047 0 
L 2419 0 
L 2419 1100 
L 313 1100 
L 313 1709 
L 2253 4666 
z
" transform="scale(0.015625)"/>
        <path id="DejaVuSans-32" d="M 1228 531 
L 3431 531 
L 3431 0 
L 469 0 
L 469 531 
Q 828 903 1448 1529 
Q 2069 2156 2228 2338 
Q 2531 2678 2651 2914 
Q 2772 3150 2772 3378 
Q 2772 3750 2511 3984 
Q 2250 4219 1831 4219 
Q 1534 4219 1204 4116 
Q 875 4013 500 3803 
L 500 4441 
Q 881 4594 1212 4672 
Q 1544 4750 1819 4750 
Q 2544 4750 2975 4387 
Q 3406 4025 3406 3419 
Q 3406 3131 3298 2873 
Q 3191 2616 2906 2266 
Q 2828 2175 2409 1742 
Q 1991 1309 1228 531 
z
" transform="scale(0.015625)"/>
       </defs>
       <use xlink:href="#DejaVuSans-2d"/>
       <use xlink:href="#DejaVuSans-30" x="36.083984"/>
       <use xlink:href="#DejaVuSans-2e" x="99.707031"/>
       <use xlink:href="#DejaVuSans-34" x="131.494141"/>
       <use xlink:href="#DejaVuSans-35" x="195.117188"/>
       <use xlink:href="#DejaVuSans-34" x="258.740234"/>
       <use xlink:href="#DejaVuSans-32" x="322.363281"/>
      </g>
     </g>
    </g>
    <g id="xtick_3">
     <g id="line2d_3">
      <g>
       <use xlink:href="#ma593e55a61" x="468.244709" y="694.2" style="stroke: #000000; stroke-width: 0.8"/>
      </g>
     </g>
     <g id="text_3">
      <!-- -0.3407 -->
      <g transform="translate(441.225803 711.837813) scale(0.14 -0.14)">
       <defs>
        <path id="DejaVuSans-33" d="M 2597 2516 
Q 3050 2419 3304 2112 
Q 3559 1806 3559 1356 
Q 3559 666 3084 287 
Q 2609 -91 1734 -91 
Q 1441 -91 1130 -33 
Q 819 25 488 141 
L 488 750 
Q 750 597 1062 519 
Q 1375 441 1716 441 
Q 2309 441 2620 675 
Q 2931 909 2931 1356 
Q 2931 1769 2642 2001 
Q 2353 2234 1838 2234 
L 1294 2234 
L 1294 2753 
L 1863 2753 
Q 2328 2753 2575 2939 
Q 2822 3125 2822 3475 
Q 2822 3834 2567 4026 
Q 2313 4219 1838 4219 
Q 1578 4219 1281 4162 
Q 984 4106 628 3988 
L 628 4550 
Q 988 4650 1302 4700 
Q 1616 4750 1894 4750 
Q 2613 4750 3031 4423 
Q 3450 4097 3450 3541 
Q 3450 3153 3228 2886 
Q 3006 2619 2597 2516 
z
" transform="scale(0.015625)"/>
       </defs>
       <use xlink:href="#DejaVuSans-2d"/>
       <use xlink:href="#DejaVuSans-30" x="36.083984"/>
       <use xlink:href="#DejaVuSans-2e" x="99.707031"/>
       <use xlink:href="#DejaVuSans-33" x="131.494141"/>
       <use xlink:href="#DejaVuSans-34" x="195.117188"/>
       <use xlink:href="#DejaVuSans-30" x="258.740234"/>
       <use xlink:href="#DejaVuSans-37" x="322.363281"/>
      </g>
     </g>
    </g>
    <g id="xtick_4">
     <g id="line2d_4">
      <g>
       <use xlink:href="#ma593e55a61" x="595.210721" y="694.2" style="stroke: #000000; stroke-width: 0.8"/>
      </g>
     </g>
     <g id="text_4">
      <!-- -0.2271 -->
      <g transform="translate(568.191815 711.837813) scale(0.14 -0.14)">
       <defs>
        <path id="DejaVuSans-31" d="M 794 531 
L 1825 531 
L 1825 4091 
L 703 3866 
L 703 4441 
L 1819 4666 
L 2450 4666 
L 2450 531 
L 3481 531 
L 3481 0 
L 794 0 
L 794 531 
z
" transform="scale(0.015625)"/>
       </defs>
       <use xlink:href="#DejaVuSans-2d"/>
       <use xlink:href="#DejaVuSans-30" x="36.083984"/>
       <use xlink:href="#DejaVuSans-2e" x="99.707031"/>
       <use xlink:href="#DejaVuSans-32" x="131.494141"/>
       <use xlink:href="#DejaVuSans-32" x="195.117188"/>
       <use xlink:href="#DejaVuSans-37" x="258.740234"/>
       <use xlink:href="#DejaVuSans-31" x="322.363281"/>
      </g>
     </g>
    </g>
    <g id="xtick_5">
     <g id="line2d_5">
      <g>
       <use xlink:href="#ma593e55a61" x="722.176734" y="694.2" style="stroke: #000000; stroke-width: 0.8"/>
      </g>
     </g>
     <g id="text_5">
      <!-- -0.1136 -->
      <g transform="translate(695.157828 711.837813) scale(0.14 -0.14)">
       <use xlink:href="#DejaVuSans-2d"/>
       <use xlink:href="#DejaVuSans-30" x="36.083984"/>
       <use xlink:href="#DejaVuSans-2e" x="99.707031"/>
       <use xlink:href="#DejaVuSans-31" x="131.494141"/>
       <use xlink:href="#DejaVuSans-31" x="195.117188"/>
       <use xlink:href="#DejaVuSans-33" x="258.740234"/>
       <use xlink:href="#DejaVuSans-36" x="322.363281"/>
      </g>
     </g>
    </g>
    <g id="xtick_6">
     <g id="line2d_6">
      <g>
       <use xlink:href="#ma593e55a61" x="849.142747" y="694.2" style="stroke: #000000; stroke-width: 0.8"/>
      </g>
     </g>
     <g id="text_6">
      <!-- 0.0 -->
      <g transform="translate(838.010559 711.837813) scale(0.14 -0.14)">
       <use xlink:href="#DejaVuSans-30"/>
       <use xlink:href="#DejaVuSans-2e" x="63.623047"/>
       <use xlink:href="#DejaVuSans-30" x="95.410156"/>
      </g>
     </g>
    </g>
    <g id="xtick_7">
     <g id="line2d_7">
      <g>
       <use xlink:href="#ma593e55a61" x="976.108759" y="694.2" style="stroke: #000000; stroke-width: 0.8"/>
      </g>
     </g>
     <g id="text_7">
      <!-- 0.1136 -->
      <g transform="translate(951.615322 711.837813) scale(0.14 -0.14)">
       <use xlink:href="#DejaVuSans-30"/>
       <use xlink:href="#DejaVuSans-2e" x="63.623047"/>
       <use xlink:href="#DejaVuSans-31" x="95.410156"/>
       <use xlink:href="#DejaVuSans-31" x="159.033203"/>
       <use xlink:href="#DejaVuSans-33" x="222.65625"/>
       <use xlink:href="#DejaVuSans-36" x="286.279297"/>
      </g>
     </g>
    </g>
    <g id="xtick_8">
     <g id="line2d_8">
      <g>
       <use xlink:href="#ma593e55a61" x="1103.074772" y="694.2" style="stroke: #000000; stroke-width: 0.8"/>
      </g>
     </g>
     <g id="text_8">
      <!-- 0.2271 -->
      <g transform="translate(1078.581335 711.837813) scale(0.14 -0.14)">
       <use xlink:href="#DejaVuSans-30"/>
       <use xlink:href="#DejaVuSans-2e" x="63.623047"/>
       <use xlink:href="#DejaVuSans-32" x="95.410156"/>
       <use xlink:href="#DejaVuSans-32" x="159.033203"/>
       <use xlink:href="#DejaVuSans-37" x="222.65625"/>
       <use xlink:href="#DejaVuSans-31" x="286.279297"/>
      </g>
     </g>
    </g>
    <g id="xtick_9">
     <g id="line2d_9">
      <g>
       <use xlink:href="#ma593e55a61" x="1230.040785" y="694.2" style="stroke: #000000; stroke-width: 0.8"/>
      </g>
     </g>
     <g id="text_9">
      <!-- 0.3407 -->
      <g transform="translate(1205.547347 711.837813) scale(0.14 -0.14)">
       <use xlink:href="#DejaVuSans-30"/>
       <use xlink:href="#DejaVuSans-2e" x="63.623047"/>
       <use xlink:href="#DejaVuSans-33" x="95.410156"/>
       <use xlink:href="#DejaVuSans-34" x="159.033203"/>
       <use xlink:href="#DejaVuSans-30" x="222.65625"/>
       <use xlink:href="#DejaVuSans-37" x="286.279297"/>
      </g>
     </g>
    </g>
    <g id="xtick_10">
     <g id="line2d_10">
      <g>
       <use xlink:href="#ma593e55a61" x="1357.006797" y="694.2" style="stroke: #000000; stroke-width: 0.8"/>
      </g>
     </g>
     <g id="text_10">
      <!-- 0.4542 -->
      <g transform="translate(1332.51336 711.837813) scale(0.14 -0.14)">
       <use xlink:href="#DejaVuSans-30"/>
       <use xlink:href="#DejaVuSans-2e" x="63.623047"/>
       <use xlink:href="#DejaVuSans-34" x="95.410156"/>
       <use xlink:href="#DejaVuSans-35" x="159.033203"/>
       <use xlink:href="#DejaVuSans-34" x="222.65625"/>
       <use xlink:href="#DejaVuSans-32" x="286.279297"/>
      </g>
     </g>
    </g>
    <g id="text_11">
     <!-- Axial Location (mm) -->
     <g transform="translate(716.933125 729.387187) scale(0.14 -0.14)">
      <defs>
       <path id="DejaVuSans-41" d="M 2188 4044 
L 1331 1722 
L 3047 1722 
L 2188 4044 
z
M 1831 4666 
L 2547 4666 
L 4325 0 
L 3669 0 
L 3244 1197 
L 1141 1197 
L 716 0 
L 50 0 
L 1831 4666 
z
" transform="scale(0.015625)"/>
       <path id="DejaVuSans-78" d="M 3513 3500 
L 2247 1797 
L 3578 0 
L 2900 0 
L 1881 1375 
L 863 0 
L 184 0 
L 1544 1831 
L 300 3500 
L 978 3500 
L 1906 2253 
L 2834 3500 
L 3513 3500 
z
" transform="scale(0.015625)"/>
       <path id="DejaVuSans-69" d="M 603 3500 
L 1178 3500 
L 1178 0 
L 603 0 
L 603 3500 
z
M 603 4863 
L 1178 4863 
L 1178 4134 
L 603 4134 
L 603 4863 
z
" transform="scale(0.015625)"/>
       <path id="DejaVuSans-61" d="M 2194 1759 
Q 1497 1759 1228 1600 
Q 959 1441 959 1056 
Q 959 750 1161 570 
Q 1363 391 1709 391 
Q 2188 391 2477 730 
Q 2766 1069 2766 1631 
L 2766 1759 
L 2194 1759 
z
M 3341 1997 
L 3341 0 
L 2766 0 
L 2766 531 
Q 2569 213 2275 61 
Q 1981 -91 1556 -91 
Q 1019 -91 701 211 
Q 384 513 384 1019 
Q 384 1609 779 1909 
Q 1175 2209 1959 2209 
L 2766 2209 
L 2766 2266 
Q 2766 2663 2505 2880 
Q 2244 3097 1772 3097 
Q 1472 3097 1187 3025 
Q 903 2953 641 2809 
L 641 3341 
Q 956 3463 1253 3523 
Q 1550 3584 1831 3584 
Q 2591 3584 2966 3190 
Q 3341 2797 3341 1997 
z
" transform="scale(0.015625)"/>
       <path id="DejaVuSans-6c" d="M 603 4863 
L 1178 4863 
L 1178 0 
L 603 0 
L 603 4863 
z
" transform="scale(0.015625)"/>
       <path id="DejaVuSans-20" transform="scale(0.015625)"/>
       <path id="DejaVuSans-4c" d="M 628 4666 
L 1259 4666 
L 1259 531 
L 3531 531 
L 3531 0 
L 628 0 
L 628 4666 
z
" transform="scale(0.015625)"/>
       <path id="DejaVuSans-6f" d="M 1959 3097 
Q 1497 3097 1228 2736 
Q 959 2375 959 1747 
Q 959 1119 1226 758 
Q 1494 397 1959 397 
Q 2419 397 2687 759 
Q 2956 1122 2956 1747 
Q 2956 2369 2687 2733 
Q 2419 3097 1959 3097 
z
M 1959 3584 
Q 2709 3584 3137 3096 
Q 3566 2609 3566 1747 
Q 3566 888 3137 398 
Q 2709 -91 1959 -91 
Q 1206 -91 779 398 
Q 353 888 353 1747 
Q 353 2609 779 3096 
Q 1206 3584 1959 3584 
z
" transform="scale(0.015625)"/>
       <path id="DejaVuSans-63" d="M 3122 3366 
L 3122 2828 
Q 2878 2963 2633 3030 
Q 2388 3097 2138 3097 
Q 1578 3097 1268 2742 
Q 959 2388 959 1747 
Q 959 1106 1268 751 
Q 1578 397 2138 397 
Q 2388 397 2633 464 
Q 2878 531 3122 666 
L 3122 134 
Q 2881 22 2623 -34 
Q 2366 -91 2075 -91 
Q 1284 -91 818 406 
Q 353 903 353 1747 
Q 353 2603 823 3093 
Q 1294 3584 2113 3584 
Q 2378 3584 2631 3529 
Q 2884 3475 3122 3366 
z
" transform="scale(0.015625)"/>
       <path id="DejaVuSans-74" d="M 1172 4494 
L 1172 3500 
L 2356 3500 
L 2356 3053 
L 1172 3053 
L 1172 1153 
Q 1172 725 1289 603 
Q 1406 481 1766 481 
L 2356 481 
L 2356 0 
L 1766 0 
Q 1100 0 847 248 
Q 594 497 594 1153 
L 594 3053 
L 172 3053 
L 172 3500 
L 594 3500 
L 594 4494 
L 1172 4494 
z
" transform="scale(0.015625)"/>
       <path id="DejaVuSans-6e" d="M 3513 2113 
L 3513 0 
L 2938 0 
L 2938 2094 
Q 2938 2591 2744 2837 
Q 2550 3084 2163 3084 
Q 1697 3084 1428 2787 
Q 1159 2491 1159 1978 
L 1159 0 
L 581 0 
L 581 3500 
L 1159 3500 
L 1159 2956 
Q 1366 3272 1645 3428 
Q 1925 3584 2291 3584 
Q 2894 3584 3203 3211 
Q 3513 2838 3513 2113 
z
" transform="scale(0.015625)"/>
       <path id="DejaVuSans-28" d="M 1984 4856 
Q 1566 4138 1362 3434 
Q 1159 2731 1159 2009 
Q 1159 1288 1364 580 
Q 1569 -128 1984 -844 
L 1484 -844 
Q 1016 -109 783 600 
Q 550 1309 550 2009 
Q 550 2706 781 3412 
Q 1013 4119 1484 4856 
L 1984 4856 
z
" transform="scale(0.015625)"/>
       <path id="DejaVuSans-6d" d="M 3328 2828 
Q 3544 3216 3844 3400 
Q 4144 3584 4550 3584 
Q 5097 3584 5394 3201 
Q 5691 2819 5691 2113 
L 5691 0 
L 5113 0 
L 5113 2094 
Q 5113 2597 4934 2840 
Q 4756 3084 4391 3084 
Q 3944 3084 3684 2787 
Q 3425 2491 3425 1978 
L 3425 0 
L 2847 0 
L 2847 2094 
Q 2847 2600 2669 2842 
Q 2491 3084 2119 3084 
Q 1678 3084 1418 2786 
Q 1159 2488 1159 1978 
L 1159 0 
L 581 0 
L 581 3500 
L 1159 3500 
L 1159 2956 
Q 1356 3278 1631 3431 
Q 1906 3584 2284 3584 
Q 2666 3584 2933 3390 
Q 3200 3197 3328 2828 
z
" transform="scale(0.015625)"/>
       <path id="DejaVuSans-29" d="M 513 4856 
L 1013 4856 
Q 1481 4119 1714 3412 
Q 1947 2706 1947 2009 
Q 1947 1309 1714 600 
Q 1481 -109 1013 -844 
L 513 -844 
Q 928 -128 1133 580 
Q 1338 1288 1338 2009 
Q 1338 2731 1133 3434 
Q 928 4138 513 4856 
z
" transform="scale(0.015625)"/>
      </defs>
      <use xlink:href="#DejaVuSans-41"/>
      <use xlink:href="#DejaVuSans-78" x="68.408203"/>
      <use xlink:href="#DejaVuSans-69" x="127.587891"/>
      <use xlink:href="#DejaVuSans-61" x="155.371094"/>
      <use xlink:href="#DejaVuSans-6c" x="216.650391"/>
      <use xlink:href="#DejaVuSans-20" x="244.433594"/>
      <use xlink:href="#DejaVuSans-4c" x="276.220703"/>
      <use xlink:href="#DejaVuSans-6f" x="330.183594"/>
      <use xlink:href="#DejaVuSans-63" x="391.365234"/>
      <use xlink:href="#DejaVuSans-61" x="446.345703"/>
      <use xlink:href="#DejaVuSans-74" x="507.625"/>
      <use xlink:href="#DejaVuSans-69" x="546.833984"/>
      <use xlink:href="#DejaVuSans-6f" x="574.617188"/>
      <use xlink:href="#DejaVuSans-6e" x="635.798828"/>
      <use xlink:href="#DejaVuSans-20" x="699.177734"/>
      <use xlink:href="#DejaVuSans-28" x="730.964844"/>
      <use xlink:href="#DejaVuSans-6d" x="769.978516"/>
      <use xlink:href="#DejaVuSans-6d" x="867.390625"/>
      <use xlink:href="#DejaVuSans-29" x="964.802734"/>
     </g>
    </g>
   </g>
   <g id="matplotlib.axis_2">
    <g id="ytick_1">
     <g id="line2d_11">
      <defs>
       <path id="m5a42d86099" d="M 0 0 
L -3.5 0 
" style="stroke: #000000; stroke-width: 0.8"/>
      </defs>
      <g>
       <use xlink:href="#m5a42d86099" x="192" y="679.044268" style="stroke: #000000; stroke-width: 0.8"/>
      </g>
     </g>
     <g id="text_12">
      <!-- −40 -->
      <g transform="translate(163.895312 682.843486) scale(0.1 -0.1)">
       <defs>
        <path id="DejaVuSans-2212" d="M 678 2272 
L 4684 2272 
L 4684 1741 
L 678 1741 
L 678 2272 
z
" transform="scale(0.015625)"/>
       </defs>
       <use xlink:href="#DejaVuSans-2212"/>
       <use xlink:href="#DejaVuSans-34" x="83.789062"/>
       <use xlink:href="#DejaVuSans-30" x="147.412109"/>
      </g>
     </g>
    </g>
    <g id="ytick_2">
     <g id="line2d_12">
      <g>
       <use xlink:href="#m5a42d86099" x="192" y="607.758201" style="stroke: #000000; stroke-width: 0.8"/>
      </g>
     </g>
     <g id="text_13">
      <!-- −30 -->
      <g transform="translate(163.895312 611.557419) scale(0.1 -0.1)">
       <use xlink:href="#DejaVuSans-2212"/>
       <use xlink:href="#DejaVuSans-33" x="83.789062"/>
       <use xlink:href="#DejaVuSans-30" x="147.412109"/>
      </g>
     </g>
    </g>
    <g id="ytick_3">
     <g id="line2d_13">
      <g>
       <use xlink:href="#m5a42d86099" x="192" y="536.472134" style="stroke: #000000; stroke-width: 0.8"/>
      </g>
     </g>
     <g id="text_14">
      <!-- −20 -->
      <g transform="translate(163.895312 540.271353) scale(0.1 -0.1)">
       <use xlink:href="#DejaVuSans-2212"/>
       <use xlink:href="#DejaVuSans-32" x="83.789062"/>
       <use xlink:href="#DejaVuSans-30" x="147.412109"/>
      </g>
     </g>
    </g>
    <g id="ytick_4">
     <g id="line2d_14">
      <g>
       <use xlink:href="#m5a42d86099" x="192" y="465.186067" style="stroke: #000000; stroke-width: 0.8"/>
      </g>
     </g>
     <g id="text_15">
      <!-- −10 -->
      <g transform="translate(163.895312 468.985286) scale(0.1 -0.1)">
       <use xlink:href="#DejaVuSans-2212"/>
       <use xlink:href="#DejaVuSans-31" x="83.789062"/>
       <use xlink:href="#DejaVuSans-30" x="147.412109"/>
      </g>
     </g>
    </g>
    <g id="ytick_5">
     <g id="line2d_15">
      <g>
       <use xlink:href="#m5a42d86099" x="192" y="393.9" style="stroke: #000000; stroke-width: 0.8"/>
      </g>
     </g>
     <g id="text_16">
      <!-- 0 -->
      <g transform="translate(178.6375 397.699219) scale(0.1 -0.1)">
       <use xlink:href="#DejaVuSans-30"/>
      </g>
     </g>
    </g>
    <g id="ytick_6">
     <g id="line2d_16">
      <g>
       <use xlink:href="#m5a42d86099" x="192" y="322.613933" style="stroke: #000000; stroke-width: 0.8"/>
      </g>
     </g>
     <g id="text_17">
      <!-- 10 -->
      <g transform="translate(172.275 326.413152) scale(0.1 -0.1)">
       <use xlink:href="#DejaVuSans-31"/>
       <use xlink:href="#DejaVuSans-30" x="63.623047"/>
      </g>
     </g>
    </g>
    <g id="ytick_7">
     <g id="line2d_17">
      <g>
       <use xlink:href="#m5a42d86099" x="192" y="251.327866" style="stroke: #000000; stroke-width: 0.8"/>
      </g>
     </g>
     <g id="text_18">
      <!-- 20 -->
      <g transform="translate(172.275 255.127085) scale(0.1 -0.1)">
       <use xlink:href="#DejaVuSans-32"/>
       <use xlink:href="#DejaVuSans-30" x="63.623047"/>
      </g>
     </g>
    </g>
    <g id="ytick_8">
     <g id="line2d_18">
      <g>
       <use xlink:href="#m5a42d86099" x="192" y="180.041799" style="stroke: #000000; stroke-width: 0.8"/>
      </g>
     </g>
     <g id="text_19">
      <!-- 30 -->
      <g transform="translate(172.275 183.841018) scale(0.1 -0.1)">
       <use xlink:href="#DejaVuSans-33"/>
       <use xlink:href="#DejaVuSans-30" x="63.623047"/>
      </g>
     </g>
    </g>
    <g id="ytick_9">
     <g id="line2d_19">
      <g>
       <use xlink:href="#m5a42d86099" x="192" y="108.755732" style="stroke: #000000; stroke-width: 0.8"/>
      </g>
     </g>
     <g id="text_20">
      <!-- 40 -->
      <g transform="translate(172.275 112.554951) scale(0.1 -0.1)">
       <use xlink:href="#DejaVuSans-34"/>
       <use xlink:href="#DejaVuSans-30" x="63.623047"/>
      </g>
     </g>
    </g>
    <g id="text_21">
     <!-- Beam radius (µm) -->
     <g transform="translate(156.98375 456.940469) rotate(-90) scale(0.14 -0.14)">
      <defs>
       <path id="DejaVuSans-42" d="M 1259 2228 
L 1259 519 
L 2272 519 
Q 2781 519 3026 730 
Q 3272 941 3272 1375 
Q 3272 1813 3026 2020 
Q 2781 2228 2272 2228 
L 1259 2228 
z
M 1259 4147 
L 1259 2741 
L 2194 2741 
Q 2656 2741 2882 2914 
Q 3109 3088 3109 3444 
Q 3109 3797 2882 3972 
Q 2656 4147 2194 4147 
L 1259 4147 
z
M 628 4666 
L 2241 4666 
Q 2963 4666 3353 4366 
Q 3744 4066 3744 3513 
Q 3744 3084 3544 2831 
Q 3344 2578 2956 2516 
Q 3422 2416 3680 2098 
Q 3938 1781 3938 1306 
Q 3938 681 3513 340 
Q 3088 0 2303 0 
L 628 0 
L 628 4666 
z
" transform="scale(0.015625)"/>
       <path id="DejaVuSans-65" d="M 3597 1894 
L 3597 1613 
L 953 1613 
Q 991 1019 1311 708 
Q 1631 397 2203 397 
Q 2534 397 2845 478 
Q 3156 559 3463 722 
L 3463 178 
Q 3153 47 2828 -22 
Q 2503 -91 2169 -91 
Q 1331 -91 842 396 
Q 353 884 353 1716 
Q 353 2575 817 3079 
Q 1281 3584 2069 3584 
Q 2775 3584 3186 3129 
Q 3597 2675 3597 1894 
z
M 3022 2063 
Q 3016 2534 2758 2815 
Q 2500 3097 2075 3097 
Q 1594 3097 1305 2825 
Q 1016 2553 972 2059 
L 3022 2063 
z
" transform="scale(0.015625)"/>
       <path id="DejaVuSans-72" d="M 2631 2963 
Q 2534 3019 2420 3045 
Q 2306 3072 2169 3072 
Q 1681 3072 1420 2755 
Q 1159 2438 1159 1844 
L 1159 0 
L 581 0 
L 581 3500 
L 1159 3500 
L 1159 2956 
Q 1341 3275 1631 3429 
Q 1922 3584 2338 3584 
Q 2397 3584 2469 3576 
Q 2541 3569 2628 3553 
L 2631 2963 
z
" transform="scale(0.015625)"/>
       <path id="DejaVuSans-64" d="M 2906 2969 
L 2906 4863 
L 3481 4863 
L 3481 0 
L 2906 0 
L 2906 525 
Q 2725 213 2448 61 
Q 2172 -91 1784 -91 
Q 1150 -91 751 415 
Q 353 922 353 1747 
Q 353 2572 751 3078 
Q 1150 3584 1784 3584 
Q 2172 3584 2448 3432 
Q 2725 3281 2906 2969 
z
M 947 1747 
Q 947 1113 1208 752 
Q 1469 391 1925 391 
Q 2381 391 2643 752 
Q 2906 1113 2906 1747 
Q 2906 2381 2643 2742 
Q 2381 3103 1925 3103 
Q 1469 3103 1208 2742 
Q 947 2381 947 1747 
z
" transform="scale(0.015625)"/>
       <path id="DejaVuSans-75" d="M 544 1381 
L 544 3500 
L 1119 3500 
L 1119 1403 
Q 1119 906 1312 657 
Q 1506 409 1894 409 
Q 2359 409 2629 706 
Q 2900 1003 2900 1516 
L 2900 3500 
L 3475 3500 
L 3475 0 
L 2900 0 
L 2900 538 
Q 2691 219 2414 64 
Q 2138 -91 1772 -91 
Q 1169 -91 856 284 
Q 544 659 544 1381 
z
M 1991 3584 
L 1991 3584 
z
" transform="scale(0.015625)"/>
       <path id="DejaVuSans-73" d="M 2834 3397 
L 2834 2853 
Q 2591 2978 2328 3040 
Q 2066 3103 1784 3103 
Q 1356 3103 1142 2972 
Q 928 2841 928 2578 
Q 928 2378 1081 2264 
Q 1234 2150 1697 2047 
L 1894 2003 
Q 2506 1872 2764 1633 
Q 3022 1394 3022 966 
Q 3022 478 2636 193 
Q 2250 -91 1575 -91 
Q 1294 -91 989 -36 
Q 684 19 347 128 
L 347 722 
Q 666 556 975 473 
Q 1284 391 1588 391 
Q 1994 391 2212 530 
Q 2431 669 2431 922 
Q 2431 1156 2273 1281 
Q 2116 1406 1581 1522 
L 1381 1569 
Q 847 1681 609 1914 
Q 372 2147 372 2553 
Q 372 3047 722 3315 
Q 1072 3584 1716 3584 
Q 2034 3584 2315 3537 
Q 2597 3491 2834 3397 
z
" transform="scale(0.015625)"/>
       <path id="DejaVuSans-b5" d="M 544 -1331 
L 544 3500 
L 1119 3500 
L 1119 1325 
Q 1119 872 1334 640 
Q 1550 409 1972 409 
Q 2434 409 2667 671 
Q 2900 934 2900 1459 
L 2900 3500 
L 3475 3500 
L 3475 806 
Q 3475 619 3529 530 
Q 3584 441 3700 441 
Q 3728 441 3778 458 
Q 3828 475 3916 513 
L 3916 50 
Q 3788 -22 3673 -56 
Q 3559 -91 3450 -91 
Q 3234 -91 3106 31 
Q 2978 153 2931 403 
Q 2775 156 2548 32 
Q 2322 -91 2016 -91 
Q 1697 -91 1473 31 
Q 1250 153 1119 397 
L 1119 -1331 
L 544 -1331 
z
" transform="scale(0.015625)"/>
      </defs>
      <use xlink:href="#DejaVuSans-42"/>
      <use xlink:href="#DejaVuSans-65" x="68.603516"/>
      <use xlink:href="#DejaVuSans-61" x="130.126953"/>
      <use xlink:href="#DejaVuSans-6d" x="191.40625"/>
      <use xlink:href="#DejaVuSans-20" x="288.818359"/>
      <use xlink:href="#DejaVuSans-72" x="320.605469"/>
      <use xlink:href="#DejaVuSans-61" x="361.71875"/>
      <use xlink:href="#DejaVuSans-64" x="422.998047"/>
      <use xlink:href="#DejaVuSans-69" x="486.474609"/>
      <use xlink:href="#DejaVuSans-75" x="514.257812"/>
      <use xlink:href="#DejaVuSans-73" x="577.636719"/>
      <use xlink:href="#DejaVuSans-20" x="629.736328"/>
      <use xlink:href="#DejaVuSans-28" x="661.523438"/>
      <use xlink:href="#DejaVuSans-b5" x="700.537109"/>
      <use xlink:href="#DejaVuSans-6d" x="764.160156"/>
      <use xlink:href="#DejaVuSans-29" x="861.572266"/>
     </g>
    </g>
   </g>
   <g id="line2d_20">
    <path d="M 192 633.333217 
L 1382.4 199.605076 
" clip-path="url(#ped803257d1)" style="fill: none; stroke-dasharray: 5.55,2.4; stroke-dashoffset: 0; stroke: #0000ff; stroke-width: 1.5"/>
   </g>
   <g id="line2d_21">
    <path d="M 192 154.466783 
L 1382.4 588.194924 
" clip-path="url(#ped803257d1)" style="fill: none; stroke-dasharray: 5.55,2.4; stroke-dashoffset: 0; stroke: #0000ff; stroke-width: 1.5"/>
   </g>
   <g id="line2d_22">
    <defs>
     <path id="meb0e8b9b2c" d="M 0 3 
C 0.795609 3 1.55874 2.683901 2.12132 2.12132 
C 2.683901 1.55874 3 0.795609 3 0 
C 3 -0.795609 2.683901 -1.55874 2.12132 -2.12132 
C 1.55874 -2.683901 0.795609 -3 0 -3 
C -0.795609 -3 -1.55874 -2.683901 -2.12132 -2.12132 
C -2.683901 -1.55874 -3 -0.795609 -3 0 
C -3 0.795609 -2.683901 1.55874 -2.12132 2.12132 
C -1.55874 2.683901 -0.795609 3 0 3 
z
" style="stroke: #000000"/>
    </defs>
    <g clip-path="url(#ped803257d1)">
     <use xlink:href="#meb0e8b9b2c" x="223.292512" y="120.9" style="stroke: #000000"/>
     <use xlink:href="#meb0e8b9b2c" x="363.054156" y="242.535468" style="stroke: #000000"/>
     <use xlink:href="#meb0e8b9b2c" x="502.815801" y="280.973945" style="stroke: #000000"/>
     <use xlink:href="#meb0e8b9b2c" x="642.577445" y="311.949708" style="stroke: #000000"/>
     <use xlink:href="#meb0e8b9b2c" x="782.33909" y="328.456639" style="stroke: #000000"/>
     <use xlink:href="#meb0e8b9b2c" x="922.100734" y="331.347832" style="stroke: #000000"/>
     <use xlink:href="#meb0e8b9b2c" x="1061.862379" y="323.244397" style="stroke: #000000"/>
     <use xlink:href="#meb0e8b9b2c" x="1201.624023" y="255.192266" style="stroke: #000000"/>
    </g>
   </g>
   <g id="line2d_23">
    <g clip-path="url(#ped803257d1)">
     <use xlink:href="#meb0e8b9b2c" x="223.292512" y="666.9" style="stroke: #000000"/>
     <use xlink:href="#meb0e8b9b2c" x="363.054156" y="545.264532" style="stroke: #000000"/>
     <use xlink:href="#meb0e8b9b2c" x="502.815801" y="506.826055" style="stroke: #000000"/>
     <use xlink:href="#meb0e8b9b2c" x="642.577445" y="475.850292" style="stroke: #000000"/>
     <use xlink:href="#meb0e8b9b2c" x="782.33909" y="459.343361" style="stroke: #000000"/>
     <use xlink:href="#meb0e8b9b2c" x="922.100734" y="456.452168" style="stroke: #000000"/>
     <use xlink:href="#meb0e8b9b2c" x="1061.862379" y="464.555603" style="stroke: #000000"/>
     <use xlink:href="#meb0e8b9b2c" x="1201.624023" y="532.607734" style="stroke: #000000"/>
    </g>
   </g>
   <g id="line2d_24"/>
   <g id="line2d_25"/>
   <g id="patch_6">
    <path d="M 192 694.2 
L 192 93.6 
" style="fill: none; stroke: #000000; stroke-width: 0.8; stroke-linejoin: miter; stroke-linecap: square"/>
   </g>
   <g id="patch_7">
    <path d="M 1382.4 694.2 
L 1382.4 93.6 
" style="fill: none; stroke: #000000; stroke-width: 0.8; stroke-linejoin: miter; stroke-linecap: square"/>
   </g>
   <g id="patch_8">
    <path d="M 192 694.2 
L 1382.4 694.2 
" style="fill: none; stroke: #000000; stroke-width: 0.8; stroke-linejoin: miter; stroke-linecap: square"/>
   </g>
   <g id="patch_9">
    <path d="M 192 93.6 
L 1382.4 93.6 
" style="fill: none; stroke: #000000; stroke-width: 0.8; stroke-linejoin: miter; stroke-linecap: square"/>
   </g>
  </g>
  <g id="axes_2">
   <g id="matplotlib.axis_3">
    <g id="xtick_11">
     <g id="line2d_26">
      <defs>
       <path id="m7aaf003567" d="M 0 0 
L 0 -3.5 
" style="stroke: #000000; stroke-width: 0.8"/>
      </defs>
      <g>
       <use xlink:href="#m7aaf003567" x="214.312683" y="93.6" style="stroke: #000000; stroke-width: 0.8"/>
      </g>
     </g>
     <g id="text_22">
      <!-- -5$z_R$ -->
      <g transform="translate(200.032683 83.688438) scale(0.14 -0.14)">
       <defs>
        <path id="DejaVuSans-Oblique-7a" d="M 744 3500 
L 3475 3500 
L 3372 2975 
L 738 459 
L 2913 459 
L 2822 0 
L -19 0 
L 84 525 
L 2719 3041 
L 653 3041 
L 744 3500 
z
" transform="scale(0.015625)"/>
        <path id="DejaVuSans-Oblique-52" d="M 1613 4147 
L 1294 2491 
L 2106 2491 
Q 2584 2491 2879 2755 
Q 3175 3019 3175 3444 
Q 3175 3784 2976 3965 
Q 2778 4147 2406 4147 
L 1613 4147 
z
M 2772 2241 
Q 2972 2194 3105 2009 
Q 3238 1825 3413 1275 
L 3809 0 
L 3144 0 
L 2778 1197 
Q 2638 1659 2453 1815 
Q 2269 1972 1888 1972 
L 1191 1972 
L 806 0 
L 172 0 
L 1081 4666 
L 2503 4666 
Q 3150 4666 3495 4373 
Q 3841 4081 3841 3531 
Q 3841 3044 3547 2687 
Q 3253 2331 2772 2241 
z
" transform="scale(0.015625)"/>
       </defs>
       <use xlink:href="#DejaVuSans-2d" transform="translate(0 0.09375)"/>
       <use xlink:href="#DejaVuSans-35" transform="translate(36.083984 0.09375)"/>
       <use xlink:href="#DejaVuSans-Oblique-7a" transform="translate(99.707031 0.09375)"/>
       <use xlink:href="#DejaVuSans-Oblique-52" transform="translate(152.197266 -16.3125) scale(0.7)"/>
      </g>
     </g>
    </g>
    <g id="xtick_12">
     <g id="line2d_27">
      <g>
       <use xlink:href="#m7aaf003567" x="341.278696" y="93.6" style="stroke: #000000; stroke-width: 0.8"/>
      </g>
     </g>
     <g id="text_23">
      <!-- -4$z_R$ -->
      <g transform="translate(326.998696 83.688438) scale(0.14 -0.14)">
       <use xlink:href="#DejaVuSans-2d" transform="translate(0 0.09375)"/>
       <use xlink:href="#DejaVuSans-34" transform="translate(36.083984 0.09375)"/>
       <use xlink:href="#DejaVuSans-Oblique-7a" transform="translate(99.707031 0.09375)"/>
       <use xlink:href="#DejaVuSans-Oblique-52" transform="translate(152.197266 -16.3125) scale(0.7)"/>
      </g>
     </g>
    </g>
    <g id="xtick_13">
     <g id="line2d_28">
      <g>
       <use xlink:href="#m7aaf003567" x="468.244709" y="93.6" style="stroke: #000000; stroke-width: 0.8"/>
      </g>
     </g>
     <g id="text_24">
      <!-- -3$z_R$ -->
      <g transform="translate(453.964709 83.688438) scale(0.14 -0.14)">
       <use xlink:href="#DejaVuSans-2d" transform="translate(0 0.78125)"/>
       <use xlink:href="#DejaVuSans-33" transform="translate(36.083984 0.78125)"/>
       <use xlink:href="#DejaVuSans-Oblique-7a" transform="translate(99.707031 0.78125)"/>
       <use xlink:href="#DejaVuSans-Oblique-52" transform="translate(152.197266 -15.625) scale(0.7)"/>
      </g>
     </g>
    </g>
    <g id="xtick_14">
     <g id="line2d_29">
      <g>
       <use xlink:href="#m7aaf003567" x="595.210721" y="93.6" style="stroke: #000000; stroke-width: 0.8"/>
      </g>
     </g>
     <g id="text_25">
      <!-- -2$z_R$ -->
      <g transform="translate(580.930721 83.688438) scale(0.14 -0.14)">
       <use xlink:href="#DejaVuSans-2d" transform="translate(0 0.78125)"/>
       <use xlink:href="#DejaVuSans-32" transform="translate(36.083984 0.78125)"/>
       <use xlink:href="#DejaVuSans-Oblique-7a" transform="translate(99.707031 0.78125)"/>
       <use xlink:href="#DejaVuSans-Oblique-52" transform="translate(152.197266 -15.625) scale(0.7)"/>
      </g>
     </g>
    </g>
    <g id="xtick_15">
     <g id="line2d_30">
      <g>
       <use xlink:href="#m7aaf003567" x="722.176734" y="93.6" style="stroke: #000000; stroke-width: 0.8"/>
      </g>
     </g>
     <g id="text_26">
      <!-- -$z_R$ -->
      <g transform="translate(712.376734 83.688438) scale(0.14 -0.14)">
       <use xlink:href="#DejaVuSans-2d" transform="translate(0 0.3125)"/>
       <use xlink:href="#DejaVuSans-Oblique-7a" transform="translate(36.083984 0.3125)"/>
       <use xlink:href="#DejaVuSans-Oblique-52" transform="translate(88.574219 -16.09375) scale(0.7)"/>
      </g>
     </g>
    </g>
    <g id="xtick_16">
     <g id="line2d_31">
      <g>
       <use xlink:href="#m7aaf003567" x="849.142747" y="93.6" style="stroke: #000000; stroke-width: 0.8"/>
      </g>
     </g>
     <g id="text_27">
      <!-- 0 -->
      <g transform="translate(844.688997 83.688438) scale(0.14 -0.14)">
       <use xlink:href="#DejaVuSans-30"/>
      </g>
     </g>
    </g>
    <g id="xtick_17">
     <g id="line2d_32">
      <g>
       <use xlink:href="#m7aaf003567" x="976.108759" y="93.6" style="stroke: #000000; stroke-width: 0.8"/>
      </g>
     </g>
     <g id="text_28">
      <!-- $z_R$ -->
      <g transform="translate(968.828759 83.688438) scale(0.14 -0.14)">
       <use xlink:href="#DejaVuSans-Oblique-7a" transform="translate(0 0.3125)"/>
       <use xlink:href="#DejaVuSans-Oblique-52" transform="translate(52.490234 -16.09375) scale(0.7)"/>
      </g>
     </g>
    </g>
    <g id="xtick_18">
     <g id="line2d_33">
      <g>
       <use xlink:href="#m7aaf003567" x="1103.074772" y="93.6" style="stroke: #000000; stroke-width: 0.8"/>
      </g>
     </g>
     <g id="text_29">
      <!-- 2$z_R$ -->
      <g transform="translate(1091.314772 83.688438) scale(0.14 -0.14)">
       <use xlink:href="#DejaVuSans-32" transform="translate(0 0.78125)"/>
       <use xlink:href="#DejaVuSans-Oblique-7a" transform="translate(63.623047 0.78125)"/>
       <use xlink:href="#DejaVuSans-Oblique-52" transform="translate(116.113281 -15.625) scale(0.7)"/>
      </g>
     </g>
    </g>
    <g id="xtick_19">
     <g id="line2d_34">
      <g>
       <use xlink:href="#m7aaf003567" x="1230.040785" y="93.6" style="stroke: #000000; stroke-width: 0.8"/>
      </g>
     </g>
     <g id="text_30">
      <!-- 3$z_R$ -->
      <g transform="translate(1218.280785 83.688438) scale(0.14 -0.14)">
       <use xlink:href="#DejaVuSans-33" transform="translate(0 0.78125)"/>
       <use xlink:href="#DejaVuSans-Oblique-7a" transform="translate(63.623047 0.78125)"/>
       <use xlink:href="#DejaVuSans-Oblique-52" transform="translate(116.113281 -15.625) scale(0.7)"/>
      </g>
     </g>
    </g>
    <g id="xtick_20">
     <g id="line2d_35">
      <g>
       <use xlink:href="#m7aaf003567" x="1357.006797" y="93.6" style="stroke: #000000; stroke-width: 0.8"/>
      </g>
     </g>
     <g id="text_31">
      <!-- 4$z_R$ -->
      <g transform="translate(1345.246797 83.688438) scale(0.14 -0.14)">
       <use xlink:href="#DejaVuSans-34" transform="translate(0 0.09375)"/>
       <use xlink:href="#DejaVuSans-Oblique-7a" transform="translate(63.623047 0.09375)"/>
       <use xlink:href="#DejaVuSans-Oblique-52" transform="translate(116.113281 -16.3125) scale(0.7)"/>
      </g>
     </g>
    </g>
   </g>
   <g id="patch_10">
    <path d="M 192 694.2 
L 192 93.6 
" style="fill: none; stroke: #000000; stroke-width: 0.8; stroke-linejoin: miter; stroke-linecap: square"/>
   </g>
   <g id="patch_11">
    <path d="M 1382.4 694.2 
L 1382.4 93.6 
" style="fill: none; stroke: #000000; stroke-width: 0.8; stroke-linejoin: miter; stroke-linecap: square"/>
   </g>
   <g id="patch_12">
    <path d="M 192 694.2 
L 1382.4 694.2 
" style="fill: none; stroke: #000000; stroke-width: 0.8; stroke-linejoin: miter; stroke-linecap: square"/>
   </g>
   <g id="patch_13">
    <path d="M 192 93.6 
L 1382.4 93.6 
" style="fill: none; stroke: #000000; stroke-width: 0.8; stroke-linejoin: miter; stroke-linecap: square"/>
   </g>
   <g id="text_32">
    <!-- $\Theta$  = 114.17±11.96 mrad -->
    <g transform="translate(1103.074772 398.315) scale(0.16 -0.16)">
     <defs>
      <path id="DejaVuSans-398" d="M 1416 2750 
L 3622 2750 
L 3622 2219 
L 1416 2219 
L 1416 2750 
z
M 2522 4238 
Q 1834 4238 1431 3725 
Q 1025 3213 1025 2328 
Q 1025 1447 1429 934 
Q 1834 422 2522 422 
Q 3209 422 3613 934 
Q 4013 1447 4013 2328 
Q 4013 3213 3613 3725 
Q 3209 4238 2522 4238 
z
M 2522 4750 
Q 3503 4750 4090 4092 
Q 4678 3434 4678 2328 
Q 4678 1225 4091 569 
Q 3503 -91 2522 -91 
Q 1538 -91 950 566 
Q 359 1222 359 2328 
Q 359 3434 950 4094 
Q 1538 4750 2522 4750 
z
" transform="scale(0.015625)"/>
      <path id="DejaVuSans-3d" d="M 678 2906 
L 4684 2906 
L 4684 2381 
L 678 2381 
L 678 2906 
z
M 678 1631 
L 4684 1631 
L 4684 1100 
L 678 1100 
L 678 1631 
z
" transform="scale(0.015625)"/>
      <path id="DejaVuSans-b1" d="M 2944 4013 
L 2944 2803 
L 4684 2803 
L 4684 2272 
L 2944 2272 
L 2944 1063 
L 2419 1063 
L 2419 2272 
L 678 2272 
L 678 2803 
L 2419 2803 
L 2419 4013 
L 2944 4013 
z
M 678 531 
L 4684 531 
L 4684 0 
L 678 0 
L 678 531 
z
" transform="scale(0.015625)"/>
      <path id="DejaVuSans-39" d="M 703 97 
L 703 672 
Q 941 559 1184 500 
Q 1428 441 1663 441 
Q 2288 441 2617 861 
Q 2947 1281 2994 2138 
Q 2813 1869 2534 1725 
Q 2256 1581 1919 1581 
Q 1219 1581 811 2004 
Q 403 2428 403 3163 
Q 403 3881 828 4315 
Q 1253 4750 1959 4750 
Q 2769 4750 3195 4129 
Q 3622 3509 3622 2328 
Q 3622 1225 3098 567 
Q 2575 -91 1691 -91 
Q 1453 -91 1209 -44 
Q 966 3 703 97 
z
M 1959 2075 
Q 2384 2075 2632 2365 
Q 2881 2656 2881 3163 
Q 2881 3666 2632 3958 
Q 2384 4250 1959 4250 
Q 1534 4250 1286 3958 
Q 1038 3666 1038 3163 
Q 1038 2656 1286 2365 
Q 1534 2075 1959 2075 
z
" transform="scale(0.015625)"/>
     </defs>
     <use xlink:href="#DejaVuSans-398" transform="translate(0 0.015625)"/>
     <use xlink:href="#DejaVuSans-20" transform="translate(78.710938 0.015625)"/>
     <use xlink:href="#DejaVuSans-20" transform="translate(110.498047 0.015625)"/>
     <use xlink:href="#DejaVuSans-3d" transform="translate(142.285156 0.015625)"/>
     <use xlink:href="#DejaVuSans-20" transform="translate(226.074219 0.015625)"/>
     <use xlink:href="#DejaVuSans-31" transform="translate(257.861328 0.015625)"/>
     <use xlink:href="#DejaVuSans-31" transform="translate(321.484375 0.015625)"/>
     <use xlink:href="#DejaVuSans-34" transform="translate(385.107422 0.015625)"/>
     <use xlink:href="#DejaVuSans-2e" transform="translate(448.730469 0.015625)"/>
     <use xlink:href="#DejaVuSans-31" transform="translate(480.517578 0.015625)"/>
     <use xlink:href="#DejaVuSans-37" transform="translate(544.140625 0.015625)"/>
     <use xlink:href="#DejaVuSans-b1" transform="translate(607.763672 0.015625)"/>
     <use xlink:href="#DejaVuSans-31" transform="translate(691.552734 0.015625)"/>
     <use xlink:href="#DejaVuSans-31" transform="translate(755.175781 0.015625)"/>
     <use xlink:href="#DejaVuSans-2e" transform="translate(818.798828 0.015625)"/>
     <use xlink:href="#DejaVuSans-39" transform="translate(850.585938 0.015625)"/>
     <use xlink:href="#DejaVuSans-36" transform="translate(914.208984 0.015625)"/>
     <use xlink:href="#DejaVuSans-20" transform="translate(977.832031 0.015625)"/>
     <use xlink:href="#DejaVuSans-6d" transform="translate(1009.619141 0.015625)"/>
     <use xlink:href="#DejaVuSans-72" transform="translate(1107.03125 0.015625)"/>
     <use xlink:href="#DejaVuSans-61" transform="translate(1148.144531 0.015625)"/>
     <use xlink:href="#DejaVuSans-64" transform="translate(1209.423828 0.015625)"/>
    </g>
   </g>
   <g id="patch_14">
    <path d="M 1040.731103 327.410124 
Q 1066.614398 393.899919 1040.731165 460.389714 
" style="fill: none; stroke: #000000; stroke-linecap: round"/>
    <path d="M 1040.3184 331.863176 
L 1040.731103 327.410124 
L 1044.045923 330.412118 
" style="fill: none; stroke: #000000; stroke-linecap: round"/>
    <path d="M 1044.045983 457.387717 
L 1040.731165 460.389714 
L 1040.318458 455.936662 
" style="fill: none; stroke: #000000; stroke-linecap: round"/>
   </g>
   <g id="text_33">
    <!-- $-z_R&lt;z-z_0&lt;z_R$ -->
    <g transform="translate(784.102747 663.5725) scale(0.16 -0.16)">
     <defs>
      <path id="DejaVuSans-3c" d="M 4684 3150 
L 1459 2003 
L 4684 863 
L 4684 294 
L 678 1747 
L 678 2266 
L 4684 3719 
L 4684 3150 
z
" transform="scale(0.015625)"/>
     </defs>
     <use xlink:href="#DejaVuSans-2212" transform="translate(0 0.890625)"/>
     <use xlink:href="#DejaVuSans-Oblique-7a" transform="translate(83.789062 0.890625)"/>
     <use xlink:href="#DejaVuSans-Oblique-52" transform="translate(136.279297 -15.515625) scale(0.7)"/>
     <use xlink:href="#DejaVuSans-3c" transform="translate(207.133789 0.890625)"/>
     <use xlink:href="#DejaVuSans-Oblique-7a" transform="translate(310.405273 0.890625)"/>
     <use xlink:href="#DejaVuSans-2212" transform="translate(382.37793 0.890625)"/>
     <use xlink:href="#DejaVuSans-Oblique-7a" transform="translate(485.649414 0.890625)"/>
     <use xlink:href="#DejaVuSans-30" transform="translate(538.139648 -15.515625) scale(0.7)"/>
     <use xlink:href="#DejaVuSans-3c" transform="translate(604.892578 0.890625)"/>
     <use xlink:href="#DejaVuSans-Oblique-7a" transform="translate(708.164062 0.890625)"/>
     <use xlink:href="#DejaVuSans-Oblique-52" transform="translate(760.654297 -15.515625) scale(0.7)"/>
    </g>
   </g>
   <g id="text_34">
    <!-- $2z_R &lt; z-z_0$ -->
    <g transform="translate(1197.457386 663.5725) scale(0.16 -0.16)">
     <use xlink:href="#DejaVuSans-32" transform="translate(0 0.78125)"/>
     <use xlink:href="#DejaVuSans-Oblique-7a" transform="translate(63.623047 0.78125)"/>
     <use xlink:href="#DejaVuSans-Oblique-52" transform="translate(116.113281 -15.625) scale(0.7)"/>
     <use xlink:href="#DejaVuSans-3c" transform="translate(186.967773 0.78125)"/>
     <use xlink:href="#DejaVuSans-Oblique-7a" transform="translate(290.239258 0.78125)"/>
     <use xlink:href="#DejaVuSans-2212" transform="translate(362.211914 0.78125)"/>
     <use xlink:href="#DejaVuSans-Oblique-7a" transform="translate(465.483398 0.78125)"/>
     <use xlink:href="#DejaVuSans-30" transform="translate(517.973633 -15.625) scale(0.7)"/>
    </g>
   </g>
   <g id="text_35">
    <!-- $z-z_0 &lt; -2z_R$ -->
    <g transform="translate(341.605361 663.5725) scale(0.16 -0.16)">
     <use xlink:href="#DejaVuSans-Oblique-7a" transform="translate(0 0.78125)"/>
     <use xlink:href="#DejaVuSans-2212" transform="translate(71.972656 0.78125)"/>
     <use xlink:href="#DejaVuSans-Oblique-7a" transform="translate(175.244141 0.78125)"/>
     <use xlink:href="#DejaVuSans-30" transform="translate(227.734375 -15.625) scale(0.7)"/>
     <use xlink:href="#DejaVuSans-3c" transform="translate(294.487305 0.78125)"/>
     <use xlink:href="#DejaVuSans-2212" transform="translate(397.758789 0.78125)"/>
     <use xlink:href="#DejaVuSans-32" transform="translate(481.547852 0.78125)"/>
     <use xlink:href="#DejaVuSans-Oblique-7a" transform="translate(545.170898 0.78125)"/>
     <use xlink:href="#DejaVuSans-Oblique-52" transform="translate(597.661133 -15.625) scale(0.7)"/>
    </g>
   </g>
   <g id="text_36">
    <!-- $Z_R$ = 0.114 $\pm$ 0.113 mm -->
    <g transform="translate(759.695294 108.755732) scale(0.16 -0.16)">
     <defs>
      <path id="DejaVuSans-Oblique-5a" d="M 838 4666 
L 4500 4666 
L 4409 4184 
L 794 531 
L 3769 531 
L 3669 0 
L -141 0 
L -50 481 
L 3566 4134 
L 738 4134 
L 838 4666 
z
" transform="scale(0.015625)"/>
     </defs>
     <use xlink:href="#DejaVuSans-Oblique-5a" transform="translate(0 0.78125)"/>
     <use xlink:href="#DejaVuSans-Oblique-52" transform="translate(68.505859 -15.625) scale(0.7)"/>
     <use xlink:href="#DejaVuSans-20" transform="translate(119.87793 0.78125)"/>
     <use xlink:href="#DejaVuSans-3d" transform="translate(151.665039 0.78125)"/>
     <use xlink:href="#DejaVuSans-20" transform="translate(235.454102 0.78125)"/>
     <use xlink:href="#DejaVuSans-30" transform="translate(267.241211 0.78125)"/>
     <use xlink:href="#DejaVuSans-2e" transform="translate(330.864258 0.78125)"/>
     <use xlink:href="#DejaVuSans-31" transform="translate(362.651367 0.78125)"/>
     <use xlink:href="#DejaVuSans-31" transform="translate(426.274414 0.78125)"/>
     <use xlink:href="#DejaVuSans-34" transform="translate(489.897461 0.78125)"/>
     <use xlink:href="#DejaVuSans-20" transform="translate(553.520508 0.78125)"/>
     <use xlink:href="#DejaVuSans-b1" transform="translate(585.307617 0.78125)"/>
     <use xlink:href="#DejaVuSans-20" transform="translate(669.09668 0.78125)"/>
     <use xlink:href="#DejaVuSans-30" transform="translate(700.883789 0.78125)"/>
     <use xlink:href="#DejaVuSans-2e" transform="translate(764.506836 0.78125)"/>
     <use xlink:href="#DejaVuSans-31" transform="translate(796.293945 0.78125)"/>
     <use xlink:href="#DejaVuSans-31" transform="translate(859.916992 0.78125)"/>
     <use xlink:href="#DejaVuSans-33" transform="translate(923.540039 0.78125)"/>
     <use xlink:href="#DejaVuSans-20" transform="translate(987.163086 0.78125)"/>
     <use xlink:href="#DejaVuSans-6d" transform="translate(1018.950195 0.78125)"/>
     <use xlink:href="#DejaVuSans-6d" transform="translate(1116.362305 0.78125)"/>
    </g>
   </g>
   <g id="text_37">
    <!-- $w_0=d_0/2$=6±3µm,  $M^2$ = 1.09±0.50,  $\lambda$=1064 nm -->
    <g transform="translate(586.64 67.050625) scale(0.16 -0.16)">
     <defs>
      <path id="DejaVuSans-Oblique-77" d="M 544 3500 
L 1113 3500 
L 1259 684 
L 2566 3500 
L 3231 3500 
L 3425 684 
L 4666 3500 
L 5241 3500 
L 3641 0 
L 2969 0 
L 2797 2900 
L 1459 0 
L 781 0 
L 544 3500 
z
" transform="scale(0.015625)"/>
      <path id="DejaVuSans-Oblique-64" d="M 2675 525 
Q 2444 222 2128 65 
Q 1813 -91 1428 -91 
Q 903 -91 598 267 
Q 294 625 294 1247 
Q 294 1766 478 2236 
Q 663 2706 1013 3078 
Q 1244 3325 1534 3454 
Q 1825 3584 2144 3584 
Q 2481 3584 2739 3421 
Q 2997 3259 3138 2956 
L 3513 4863 
L 4091 4863 
L 3144 0 
L 2566 0 
L 2675 525 
z
M 891 1350 
Q 891 897 1095 644 
Q 1300 391 1663 391 
Q 1931 391 2161 520 
Q 2391 650 2566 903 
Q 2750 1166 2856 1509 
Q 2963 1853 2963 2188 
Q 2963 2622 2758 2865 
Q 2553 3109 2194 3109 
Q 1922 3109 1687 2981 
Q 1453 2853 1288 2613 
Q 1106 2353 998 2009 
Q 891 1666 891 1350 
z
" transform="scale(0.015625)"/>
      <path id="DejaVuSans-2f" d="M 1625 4666 
L 2156 4666 
L 531 -594 
L 0 -594 
L 1625 4666 
z
" transform="scale(0.015625)"/>
      <path id="DejaVuSans-2c" d="M 750 794 
L 1409 794 
L 1409 256 
L 897 -744 
L 494 -744 
L 750 256 
L 750 794 
z
" transform="scale(0.015625)"/>
      <path id="DejaVuSans-Oblique-4d" d="M 1081 4666 
L 2028 4666 
L 2572 1522 
L 4378 4666 
L 5350 4666 
L 4441 0 
L 3828 0 
L 4622 4091 
L 2791 897 
L 2175 897 
L 1581 4103 
L 788 0 
L 172 0 
L 1081 4666 
z
" transform="scale(0.015625)"/>
      <path id="DejaVuSans-Oblique-3bb" d="M 2350 4316 
L 3125 0 
L 2516 0 
L 2038 2588 
L 328 0 
L -281 0 
L 1903 3356 
L 1794 3975 
Q 1725 4369 1391 4369 
L 1091 4369 
L 1184 4863 
L 1550 4856 
Q 2253 4847 2350 4316 
z
" transform="scale(0.015625)"/>
     </defs>
     <use xlink:href="#DejaVuSans-Oblique-77" transform="translate(0 0.765625)"/>
     <use xlink:href="#DejaVuSans-30" transform="translate(81.787109 -15.640625) scale(0.7)"/>
     <use xlink:href="#DejaVuSans-3d" transform="translate(148.540039 0.765625)"/>
     <use xlink:href="#DejaVuSans-Oblique-64" transform="translate(251.811523 0.765625)"/>
     <use xlink:href="#DejaVuSans-30" transform="translate(315.288086 -15.640625) scale(0.7)"/>
     <use xlink:href="#DejaVuSans-2f" transform="translate(362.558594 0.765625)"/>
     <use xlink:href="#DejaVuSans-32" transform="translate(392.625 0.765625)"/>
     <use xlink:href="#DejaVuSans-3d" transform="translate(456.248047 0.765625)"/>
     <use xlink:href="#DejaVuSans-36" transform="translate(540.037109 0.765625)"/>
     <use xlink:href="#DejaVuSans-b1" transform="translate(603.660156 0.765625)"/>
     <use xlink:href="#DejaVuSans-33" transform="translate(687.449219 0.765625)"/>
     <use xlink:href="#DejaVuSans-b5" transform="translate(747.447266 0.765625)"/>
     <use xlink:href="#DejaVuSans-6d" transform="translate(811.070312 0.765625)"/>
     <use xlink:href="#DejaVuSans-2c" transform="translate(908.482422 0.765625)"/>
     <use xlink:href="#DejaVuSans-20" transform="translate(940.269531 0.765625)"/>
     <use xlink:href="#DejaVuSans-20" transform="translate(972.056641 0.765625)"/>
     <use xlink:href="#DejaVuSans-Oblique-4d" transform="translate(1003.84375 0.765625)"/>
     <use xlink:href="#DejaVuSans-32" transform="translate(1097.139818 39.046875) scale(0.7)"/>
     <use xlink:href="#DejaVuSans-20" transform="translate(1144.410326 0.765625)"/>
     <use xlink:href="#DejaVuSans-3d" transform="translate(1176.197435 0.765625)"/>
     <use xlink:href="#DejaVuSans-20" transform="translate(1259.986497 0.765625)"/>
     <use xlink:href="#DejaVuSans-31" transform="translate(1291.773607 0.765625)"/>
     <use xlink:href="#DejaVuSans-2e" transform="translate(1355.396654 0.765625)"/>
     <use xlink:href="#DejaVuSans-30" transform="translate(1387.183763 0.765625)"/>
     <use xlink:href="#DejaVuSans-39" transform="translate(1450.80681 0.765625)"/>
     <use xlink:href="#DejaVuSans-b1" transform="translate(1514.429857 0.765625)"/>
     <use xlink:href="#DejaVuSans-30" transform="translate(1598.218919 0.765625)"/>
     <use xlink:href="#DejaVuSans-2e" transform="translate(1661.841966 0.765625)"/>
     <use xlink:href="#DejaVuSans-35" transform="translate(1693.629076 0.765625)"/>
     <use xlink:href="#DejaVuSans-30" transform="translate(1757.252122 0.765625)"/>
     <use xlink:href="#DejaVuSans-2c" transform="translate(1820.875169 0.765625)"/>
     <use xlink:href="#DejaVuSans-20" transform="translate(1852.662279 0.765625)"/>
     <use xlink:href="#DejaVuSans-20" transform="translate(1884.449388 0.765625)"/>
     <use xlink:href="#DejaVuSans-Oblique-3bb" transform="translate(1916.236497 0.765625)"/>
     <use xlink:href="#DejaVuSans-3d" transform="translate(1975.416185 0.765625)"/>
     <use xlink:href="#DejaVuSans-31" transform="translate(2059.205247 0.765625)"/>
     <use xlink:href="#DejaVuSans-30" transform="translate(2122.828294 0.765625)"/>
     <use xlink:href="#DejaVuSans-36" transform="translate(2186.451341 0.765625)"/>
     <use xlink:href="#DejaVuSans-34" transform="translate(2250.074388 0.765625)"/>
     <use xlink:href="#DejaVuSans-20" transform="translate(2313.697435 0.765625)"/>
     <use xlink:href="#DejaVuSans-6e" transform="translate(2345.484544 0.765625)"/>
     <use xlink:href="#DejaVuSans-6d" transform="translate(2408.863451 0.765625)"/>
    </g>
   </g>
  </g>
  <g id="text_38">
   <!-- Plot of average beam radius vs position from focus for the Y direction  -->
   <g transform="translate(469.82 12.917344) scale(0.17 -0.17)">
    <defs>
     <path id="DejaVuSans-50" d="M 1259 4147 
L 1259 2394 
L 2053 2394 
Q 2494 2394 2734 2622 
Q 2975 2850 2975 3272 
Q 2975 3691 2734 3919 
Q 2494 4147 2053 4147 
L 1259 4147 
z
M 628 4666 
L 2053 4666 
Q 2838 4666 3239 4311 
Q 3641 3956 3641 3272 
Q 3641 2581 3239 2228 
Q 2838 1875 2053 1875 
L 1259 1875 
L 1259 0 
L 628 0 
L 628 4666 
z
" transform="scale(0.015625)"/>
     <path id="DejaVuSans-66" d="M 2375 4863 
L 2375 4384 
L 1825 4384 
Q 1516 4384 1395 4259 
Q 1275 4134 1275 3809 
L 1275 3500 
L 2222 3500 
L 2222 3053 
L 1275 3053 
L 1275 0 
L 697 0 
L 697 3053 
L 147 3053 
L 147 3500 
L 697 3500 
L 697 3744 
Q 697 4328 969 4595 
Q 1241 4863 1831 4863 
L 2375 4863 
z
" transform="scale(0.015625)"/>
     <path id="DejaVuSans-76" d="M 191 3500 
L 800 3500 
L 1894 563 
L 2988 3500 
L 3597 3500 
L 2284 0 
L 1503 0 
L 191 3500 
z
" transform="scale(0.015625)"/>
     <path id="DejaVuSans-67" d="M 2906 1791 
Q 2906 2416 2648 2759 
Q 2391 3103 1925 3103 
Q 1463 3103 1205 2759 
Q 947 2416 947 1791 
Q 947 1169 1205 825 
Q 1463 481 1925 481 
Q 2391 481 2648 825 
Q 2906 1169 2906 1791 
z
M 3481 434 
Q 3481 -459 3084 -895 
Q 2688 -1331 1869 -1331 
Q 1566 -1331 1297 -1286 
Q 1028 -1241 775 -1147 
L 775 -588 
Q 1028 -725 1275 -790 
Q 1522 -856 1778 -856 
Q 2344 -856 2625 -561 
Q 2906 -266 2906 331 
L 2906 616 
Q 2728 306 2450 153 
Q 2172 0 1784 0 
Q 1141 0 747 490 
Q 353 981 353 1791 
Q 353 2603 747 3093 
Q 1141 3584 1784 3584 
Q 2172 3584 2450 3431 
Q 2728 3278 2906 2969 
L 2906 3500 
L 3481 3500 
L 3481 434 
z
" transform="scale(0.015625)"/>
     <path id="DejaVuSans-62" d="M 3116 1747 
Q 3116 2381 2855 2742 
Q 2594 3103 2138 3103 
Q 1681 3103 1420 2742 
Q 1159 2381 1159 1747 
Q 1159 1113 1420 752 
Q 1681 391 2138 391 
Q 2594 391 2855 752 
Q 3116 1113 3116 1747 
z
M 1159 2969 
Q 1341 3281 1617 3432 
Q 1894 3584 2278 3584 
Q 2916 3584 3314 3078 
Q 3713 2572 3713 1747 
Q 3713 922 3314 415 
Q 2916 -91 2278 -91 
Q 1894 -91 1617 61 
Q 1341 213 1159 525 
L 1159 0 
L 581 0 
L 581 4863 
L 1159 4863 
L 1159 2969 
z
" transform="scale(0.015625)"/>
     <path id="DejaVuSans-70" d="M 1159 525 
L 1159 -1331 
L 581 -1331 
L 581 3500 
L 1159 3500 
L 1159 2969 
Q 1341 3281 1617 3432 
Q 1894 3584 2278 3584 
Q 2916 3584 3314 3078 
Q 3713 2572 3713 1747 
Q 3713 922 3314 415 
Q 2916 -91 2278 -91 
Q 1894 -91 1617 61 
Q 1341 213 1159 525 
z
M 3116 1747 
Q 3116 2381 2855 2742 
Q 2594 3103 2138 3103 
Q 1681 3103 1420 2742 
Q 1159 2381 1159 1747 
Q 1159 1113 1420 752 
Q 1681 391 2138 391 
Q 2594 391 2855 752 
Q 3116 1113 3116 1747 
z
" transform="scale(0.015625)"/>
     <path id="DejaVuSans-68" d="M 3513 2113 
L 3513 0 
L 2938 0 
L 2938 2094 
Q 2938 2591 2744 2837 
Q 2550 3084 2163 3084 
Q 1697 3084 1428 2787 
Q 1159 2491 1159 1978 
L 1159 0 
L 581 0 
L 581 4863 
L 1159 4863 
L 1159 2956 
Q 1366 3272 1645 3428 
Q 1925 3584 2291 3584 
Q 2894 3584 3203 3211 
Q 3513 2838 3513 2113 
z
" transform="scale(0.015625)"/>
     <path id="DejaVuSans-59" d="M -13 4666 
L 666 4666 
L 1959 2747 
L 3244 4666 
L 3922 4666 
L 2272 2222 
L 2272 0 
L 1638 0 
L 1638 2222 
L -13 4666 
z
" transform="scale(0.015625)"/>
    </defs>
    <use xlink:href="#DejaVuSans-50"/>
    <use xlink:href="#DejaVuSans-6c" x="60.302734"/>
    <use xlink:href="#DejaVuSans-6f" x="88.085938"/>
    <use xlink:href="#DejaVuSans-74" x="149.267578"/>
    <use xlink:href="#DejaVuSans-20" x="188.476562"/>
    <use xlink:href="#DejaVuSans-6f" x="220.263672"/>
    <use xlink:href="#DejaVuSans-66" x="281.445312"/>
    <use xlink:href="#DejaVuSans-20" x="316.650391"/>
    <use xlink:href="#DejaVuSans-61" x="348.4375"/>
    <use xlink:href="#DejaVuSans-76" x="409.716797"/>
    <use xlink:href="#DejaVuSans-65" x="468.896484"/>
    <use xlink:href="#DejaVuSans-72" x="530.419922"/>
    <use xlink:href="#DejaVuSans-61" x="571.533203"/>
    <use xlink:href="#DejaVuSans-67" x="632.8125"/>
    <use xlink:href="#DejaVuSans-65" x="696.289062"/>
    <use xlink:href="#DejaVuSans-20" x="757.8125"/>
    <use xlink:href="#DejaVuSans-62" x="789.599609"/>
    <use xlink:href="#DejaVuSans-65" x="853.076172"/>
    <use xlink:href="#DejaVuSans-61" x="914.599609"/>
    <use xlink:href="#DejaVuSans-6d" x="975.878906"/>
    <use xlink:href="#DejaVuSans-20" x="1073.291016"/>
    <use xlink:href="#DejaVuSans-72" x="1105.078125"/>
    <use xlink:href="#DejaVuSans-61" x="1146.191406"/>
    <use xlink:href="#DejaVuSans-64" x="1207.470703"/>
    <use xlink:href="#DejaVuSans-69" x="1270.947266"/>
    <use xlink:href="#DejaVuSans-75" x="1298.730469"/>
    <use xlink:href="#DejaVuSans-73" x="1362.109375"/>
    <use xlink:href="#DejaVuSans-20" x="1414.208984"/>
    <use xlink:href="#DejaVuSans-76" x="1445.996094"/>
    <use xlink:href="#DejaVuSans-73" x="1505.175781"/>
    <use xlink:href="#DejaVuSans-20" x="1557.275391"/>
    <use xlink:href="#DejaVuSans-70" x="1589.0625"/>
    <use xlink:href="#DejaVuSans-6f" x="1652.539062"/>
    <use xlink:href="#DejaVuSans-73" x="1713.720703"/>
    <use xlink:href="#DejaVuSans-69" x="1765.820312"/>
    <use xlink:href="#DejaVuSans-74" x="1793.603516"/>
    <use xlink:href="#DejaVuSans-69" x="1832.8125"/>
    <use xlink:href="#DejaVuSans-6f" x="1860.595703"/>
    <use xlink:href="#DejaVuSans-6e" x="1921.777344"/>
    <use xlink:href="#DejaVuSans-20" x="1985.15625"/>
    <use xlink:href="#DejaVuSans-66" x="2016.943359"/>
    <use xlink:href="#DejaVuSans-72" x="2052.148438"/>
    <use xlink:href="#DejaVuSans-6f" x="2091.011719"/>
    <use xlink:href="#DejaVuSans-6d" x="2152.193359"/>
    <use xlink:href="#DejaVuSans-20" x="2249.605469"/>
    <use xlink:href="#DejaVuSans-66" x="2281.392578"/>
    <use xlink:href="#DejaVuSans-6f" x="2316.597656"/>
    <use xlink:href="#DejaVuSans-63" x="2377.779297"/>
    <use xlink:href="#DejaVuSans-75" x="2432.759766"/>
    <use xlink:href="#DejaVuSans-73" x="2496.138672"/>
    <use xlink:href="#DejaVuSans-20" x="2548.238281"/>
    <use xlink:href="#DejaVuSans-66" x="2580.025391"/>
    <use xlink:href="#DejaVuSans-6f" x="2615.230469"/>
    <use xlink:href="#DejaVuSans-72" x="2676.412109"/>
    <use xlink:href="#DejaVuSans-20" x="2717.525391"/>
    <use xlink:href="#DejaVuSans-74" x="2749.3125"/>
    <use xlink:href="#DejaVuSans-68" x="2788.521484"/>
    <use xlink:href="#DejaVuSans-65" x="2851.900391"/>
    <use xlink:href="#DejaVuSans-20" x="2913.423828"/>
    <use xlink:href="#DejaVuSans-59" x="2945.210938"/>
    <use xlink:href="#DejaVuSans-20" x="3006.294922"/>
    <use xlink:href="#DejaVuSans-64" x="3038.082031"/>
    <use xlink:href="#DejaVuSans-69" x="3101.558594"/>
    <use xlink:href="#DejaVuSans-72" x="3129.341797"/>
    <use xlink:href="#DejaVuSans-65" x="3168.205078"/>
    <use xlink:href="#DejaVuSans-63" x="3229.728516"/>
    <use xlink:href="#DejaVuSans-74" x="3284.708984"/>
    <use xlink:href="#DejaVuSans-69" x="3323.917969"/>
    <use xlink:href="#DejaVuSans-6f" x="3351.701172"/>
    <use xlink:href="#DejaVuSans-6e" x="3412.882812"/>
    <use xlink:href="#DejaVuSans-20" x="3476.261719"/>
   </g>
   <!--  with the aperture at 1.5cm closed -->
   <g transform="translate(620.926094 31.953625) scale(0.17 -0.17)">
    <defs>
     <path id="DejaVuSans-77" d="M 269 3500 
L 844 3500 
L 1563 769 
L 2278 3500 
L 2956 3500 
L 3675 769 
L 4391 3500 
L 4966 3500 
L 4050 0 
L 3372 0 
L 2619 2869 
L 1863 0 
L 1184 0 
L 269 3500 
z
" transform="scale(0.015625)"/>
    </defs>
    <use xlink:href="#DejaVuSans-20"/>
    <use xlink:href="#DejaVuSans-77" x="31.787109"/>
    <use xlink:href="#DejaVuSans-69" x="113.574219"/>
    <use xlink:href="#DejaVuSans-74" x="141.357422"/>
    <use xlink:href="#DejaVuSans-68" x="180.566406"/>
    <use xlink:href="#DejaVuSans-20" x="243.945312"/>
    <use xlink:href="#DejaVuSans-74" x="275.732422"/>
    <use xlink:href="#DejaVuSans-68" x="314.941406"/>
    <use xlink:href="#DejaVuSans-65" x="378.320312"/>
    <use xlink:href="#DejaVuSans-20" x="439.84375"/>
    <use xlink:href="#DejaVuSans-61" x="471.630859"/>
    <use xlink:href="#DejaVuSans-70" x="532.910156"/>
    <use xlink:href="#DejaVuSans-65" x="596.386719"/>
    <use xlink:href="#DejaVuSans-72" x="657.910156"/>
    <use xlink:href="#DejaVuSans-74" x="699.023438"/>
    <use xlink:href="#DejaVuSans-75" x="738.232422"/>
    <use xlink:href="#DejaVuSans-72" x="801.611328"/>
    <use xlink:href="#DejaVuSans-65" x="840.474609"/>
    <use xlink:href="#DejaVuSans-20" x="901.998047"/>
    <use xlink:href="#DejaVuSans-61" x="933.785156"/>
    <use xlink:href="#DejaVuSans-74" x="995.064453"/>
    <use xlink:href="#DejaVuSans-20" x="1034.273438"/>
    <use xlink:href="#DejaVuSans-31" x="1066.060547"/>
    <use xlink:href="#DejaVuSans-2e" x="1129.683594"/>
    <use xlink:href="#DejaVuSans-35" x="1161.470703"/>
    <use xlink:href="#DejaVuSans-63" x="1225.09375"/>
    <use xlink:href="#DejaVuSans-6d" x="1280.074219"/>
    <use xlink:href="#DejaVuSans-20" x="1377.486328"/>
    <use xlink:href="#DejaVuSans-63" x="1409.273438"/>
    <use xlink:href="#DejaVuSans-6c" x="1464.253906"/>
    <use xlink:href="#DejaVuSans-6f" x="1492.037109"/>
    <use xlink:href="#DejaVuSans-73" x="1553.21875"/>
    <use xlink:href="#DejaVuSans-65" x="1605.318359"/>
    <use xlink:href="#DejaVuSans-64" x="1666.841797"/>
   </g>
  </g>
 </g>
 <defs>
  <clipPath id="ped803257d1">
   <rect x="192" y="93.6" width="1190.4" height="600.6"/>
  </clipPath>
 </defs>
</svg>
