<?xml version="1.0" encoding="utf-8" standalone="no"?>
<!DOCTYPE svg PUBLIC "-//W3C//DTD SVG 1.1//EN"
  "http://www.w3.org/Graphics/SVG/1.1/DTD/svg11.dtd">
<svg xmlns:xlink="http://www.w3.org/1999/xlink" width="552.96pt" height="274.464pt" viewBox="0 0 552.96 274.464" xmlns="http://www.w3.org/2000/svg" version="1.1">
 <metadata>
  <rdf:RDF xmlns:dc="http://purl.org/dc/elements/1.1/" xmlns:cc="http://creativecommons.org/ns#" xmlns:rdf="http://www.w3.org/1999/02/22-rdf-syntax-ns#">
   <cc:Work>
    <dc:type rdf:resource="http://purl.org/dc/dcmitype/StillImage"/>
    <dc:date>2024-11-25T19:24:09.197212</dc:date>
    <dc:format>image/svg+xml</dc:format>
    <dc:creator>
     <cc:Agent>
      <dc:title>Matplotlib v3.7.2, https://matplotlib.org/</dc:title>
     </cc:Agent>
    </dc:creator>
   </cc:Work>
  </rdf:RDF>
 </metadata>
 <defs>
  <style type="text/css">*{stroke-linejoin: round; stroke-linecap: butt}</style>
 </defs>
 <g id="figure_1">
  <g id="patch_1">
   <path d="M 0 274.464 
L 552.96 274.464 
L 552.96 0 
L 0 0 
z
" style="fill: #ffffff"/>
  </g>
  <g id="axes_1">
   <g id="patch_2">
    <path d="M 69.12 244.27296 
L 497.664 244.27296 
L 497.664 32.93568 
L 69.12 32.93568 
z
" style="fill: #ffffff"/>
   </g>
   <g id="matplotlib.axis_1">
    <g id="xtick_1">
     <g id="line2d_1">
      <defs>
       <path id="mda15cf20c5" d="M 0 0 
L 0 3.5 
" style="stroke: #000000; stroke-width: 0.8"/>
      </defs>
      <g>
       <use xlink:href="#mda15cf20c5" x="94.457701" y="244.27296" style="stroke: #000000; stroke-width: 0.8"/>
      </g>
     </g>
     <g id="text_1">
      <!-- 1700 -->
      <g transform="translate(81.732701 258.871398) scale(0.1 -0.1)">
       <defs>
        <path id="DejaVuSans-31" d="M 794 531 
L 1825 531 
L 1825 4091 
L 703 3866 
L 703 4441 
L 1819 4666 
L 2450 4666 
L 2450 531 
L 3481 531 
L 3481 0 
L 794 0 
L 794 531 
z
" transform="scale(0.015625)"/>
        <path id="DejaVuSans-37" d="M 525 4666 
L 3525 4666 
L 3525 4397 
L 1831 0 
L 1172 0 
L 2766 4134 
L 525 4134 
L 525 4666 
z
" transform="scale(0.015625)"/>
        <path id="DejaVuSans-30" d="M 2034 4250 
Q 1547 4250 1301 3770 
Q 1056 3291 1056 2328 
Q 1056 1369 1301 889 
Q 1547 409 2034 409 
Q 2525 409 2770 889 
Q 3016 1369 3016 2328 
Q 3016 3291 2770 3770 
Q 2525 4250 2034 4250 
z
M 2034 4750 
Q 2819 4750 3233 4129 
Q 3647 3509 3647 2328 
Q 3647 1150 3233 529 
Q 2819 -91 2034 -91 
Q 1250 -91 836 529 
Q 422 1150 422 2328 
Q 422 3509 836 4129 
Q 1250 4750 2034 4750 
z
" transform="scale(0.015625)"/>
       </defs>
       <use xlink:href="#DejaVuSans-31"/>
       <use xlink:href="#DejaVuSans-37" x="63.623047"/>
       <use xlink:href="#DejaVuSans-30" x="127.246094"/>
       <use xlink:href="#DejaVuSans-30" x="190.869141"/>
      </g>
     </g>
    </g>
    <g id="xtick_2">
     <g id="line2d_2">
      <g>
       <use xlink:href="#mda15cf20c5" x="143.277933" y="244.27296" style="stroke: #000000; stroke-width: 0.8"/>
      </g>
     </g>
     <g id="text_2">
      <!-- 1750 -->
      <g transform="translate(130.552933 258.871398) scale(0.1 -0.1)">
       <defs>
        <path id="DejaVuSans-35" d="M 691 4666 
L 3169 4666 
L 3169 4134 
L 1269 4134 
L 1269 2991 
Q 1406 3038 1543 3061 
Q 1681 3084 1819 3084 
Q 2600 3084 3056 2656 
Q 3513 2228 3513 1497 
Q 3513 744 3044 326 
Q 2575 -91 1722 -91 
Q 1428 -91 1123 -41 
Q 819 9 494 109 
L 494 744 
Q 775 591 1075 516 
Q 1375 441 1709 441 
Q 2250 441 2565 725 
Q 2881 1009 2881 1497 
Q 2881 1984 2565 2268 
Q 2250 2553 1709 2553 
Q 1456 2553 1204 2497 
Q 953 2441 691 2322 
L 691 4666 
z
" transform="scale(0.015625)"/>
       </defs>
       <use xlink:href="#DejaVuSans-31"/>
       <use xlink:href="#DejaVuSans-37" x="63.623047"/>
       <use xlink:href="#DejaVuSans-35" x="127.246094"/>
       <use xlink:href="#DejaVuSans-30" x="190.869141"/>
      </g>
     </g>
    </g>
    <g id="xtick_3">
     <g id="line2d_3">
      <g>
       <use xlink:href="#mda15cf20c5" x="192.098165" y="244.27296" style="stroke: #000000; stroke-width: 0.8"/>
      </g>
     </g>
     <g id="text_3">
      <!-- 1800 -->
      <g transform="translate(179.373165 258.871398) scale(0.1 -0.1)">
       <defs>
        <path id="DejaVuSans-38" d="M 2034 2216 
Q 1584 2216 1326 1975 
Q 1069 1734 1069 1313 
Q 1069 891 1326 650 
Q 1584 409 2034 409 
Q 2484 409 2743 651 
Q 3003 894 3003 1313 
Q 3003 1734 2745 1975 
Q 2488 2216 2034 2216 
z
M 1403 2484 
Q 997 2584 770 2862 
Q 544 3141 544 3541 
Q 544 4100 942 4425 
Q 1341 4750 2034 4750 
Q 2731 4750 3128 4425 
Q 3525 4100 3525 3541 
Q 3525 3141 3298 2862 
Q 3072 2584 2669 2484 
Q 3125 2378 3379 2068 
Q 3634 1759 3634 1313 
Q 3634 634 3220 271 
Q 2806 -91 2034 -91 
Q 1263 -91 848 271 
Q 434 634 434 1313 
Q 434 1759 690 2068 
Q 947 2378 1403 2484 
z
M 1172 3481 
Q 1172 3119 1398 2916 
Q 1625 2713 2034 2713 
Q 2441 2713 2670 2916 
Q 2900 3119 2900 3481 
Q 2900 3844 2670 4047 
Q 2441 4250 2034 4250 
Q 1625 4250 1398 4047 
Q 1172 3844 1172 3481 
z
" transform="scale(0.015625)"/>
       </defs>
       <use xlink:href="#DejaVuSans-31"/>
       <use xlink:href="#DejaVuSans-38" x="63.623047"/>
       <use xlink:href="#DejaVuSans-30" x="127.246094"/>
       <use xlink:href="#DejaVuSans-30" x="190.869141"/>
      </g>
     </g>
    </g>
    <g id="xtick_4">
     <g id="line2d_4">
      <g>
       <use xlink:href="#mda15cf20c5" x="240.918398" y="244.27296" style="stroke: #000000; stroke-width: 0.8"/>
      </g>
     </g>
     <g id="text_4">
      <!-- 1850 -->
      <g transform="translate(228.193398 258.871398) scale(0.1 -0.1)">
       <use xlink:href="#DejaVuSans-31"/>
       <use xlink:href="#DejaVuSans-38" x="63.623047"/>
       <use xlink:href="#DejaVuSans-35" x="127.246094"/>
       <use xlink:href="#DejaVuSans-30" x="190.869141"/>
      </g>
     </g>
    </g>
    <g id="xtick_5">
     <g id="line2d_5">
      <g>
       <use xlink:href="#mda15cf20c5" x="289.73863" y="244.27296" style="stroke: #000000; stroke-width: 0.8"/>
      </g>
     </g>
     <g id="text_5">
      <!-- 1900 -->
      <g transform="translate(277.01363 258.871398) scale(0.1 -0.1)">
       <defs>
        <path id="DejaVuSans-39" d="M 703 97 
L 703 672 
Q 941 559 1184 500 
Q 1428 441 1663 441 
Q 2288 441 2617 861 
Q 2947 1281 2994 2138 
Q 2813 1869 2534 1725 
Q 2256 1581 1919 1581 
Q 1219 1581 811 2004 
Q 403 2428 403 3163 
Q 403 3881 828 4315 
Q 1253 4750 1959 4750 
Q 2769 4750 3195 4129 
Q 3622 3509 3622 2328 
Q 3622 1225 3098 567 
Q 2575 -91 1691 -91 
Q 1453 -91 1209 -44 
Q 966 3 703 97 
z
M 1959 2075 
Q 2384 2075 2632 2365 
Q 2881 2656 2881 3163 
Q 2881 3666 2632 3958 
Q 2384 4250 1959 4250 
Q 1534 4250 1286 3958 
Q 1038 3666 1038 3163 
Q 1038 2656 1286 2365 
Q 1534 2075 1959 2075 
z
" transform="scale(0.015625)"/>
       </defs>
       <use xlink:href="#DejaVuSans-31"/>
       <use xlink:href="#DejaVuSans-39" x="63.623047"/>
       <use xlink:href="#DejaVuSans-30" x="127.246094"/>
       <use xlink:href="#DejaVuSans-30" x="190.869141"/>
      </g>
     </g>
    </g>
    <g id="xtick_6">
     <g id="line2d_6">
      <g>
       <use xlink:href="#mda15cf20c5" x="338.558863" y="244.27296" style="stroke: #000000; stroke-width: 0.8"/>
      </g>
     </g>
     <g id="text_6">
      <!-- 1950 -->
      <g transform="translate(325.833863 258.871398) scale(0.1 -0.1)">
       <use xlink:href="#DejaVuSans-31"/>
       <use xlink:href="#DejaVuSans-39" x="63.623047"/>
       <use xlink:href="#DejaVuSans-35" x="127.246094"/>
       <use xlink:href="#DejaVuSans-30" x="190.869141"/>
      </g>
     </g>
    </g>
    <g id="xtick_7">
     <g id="line2d_7">
      <g>
       <use xlink:href="#mda15cf20c5" x="387.379095" y="244.27296" style="stroke: #000000; stroke-width: 0.8"/>
      </g>
     </g>
     <g id="text_7">
      <!-- 2000 -->
      <g transform="translate(374.654095 258.871398) scale(0.1 -0.1)">
       <defs>
        <path id="DejaVuSans-32" d="M 1228 531 
L 3431 531 
L 3431 0 
L 469 0 
L 469 531 
Q 828 903 1448 1529 
Q 2069 2156 2228 2338 
Q 2531 2678 2651 2914 
Q 2772 3150 2772 3378 
Q 2772 3750 2511 3984 
Q 2250 4219 1831 4219 
Q 1534 4219 1204 4116 
Q 875 4013 500 3803 
L 500 4441 
Q 881 4594 1212 4672 
Q 1544 4750 1819 4750 
Q 2544 4750 2975 4387 
Q 3406 4025 3406 3419 
Q 3406 3131 3298 2873 
Q 3191 2616 2906 2266 
Q 2828 2175 2409 1742 
Q 1991 1309 1228 531 
z
" transform="scale(0.015625)"/>
       </defs>
       <use xlink:href="#DejaVuSans-32"/>
       <use xlink:href="#DejaVuSans-30" x="63.623047"/>
       <use xlink:href="#DejaVuSans-30" x="127.246094"/>
       <use xlink:href="#DejaVuSans-30" x="190.869141"/>
      </g>
     </g>
    </g>
    <g id="xtick_8">
     <g id="line2d_8">
      <g>
       <use xlink:href="#mda15cf20c5" x="436.199327" y="244.27296" style="stroke: #000000; stroke-width: 0.8"/>
      </g>
     </g>
     <g id="text_8">
      <!-- 2050 -->
      <g transform="translate(423.474327 258.871398) scale(0.1 -0.1)">
       <use xlink:href="#DejaVuSans-32"/>
       <use xlink:href="#DejaVuSans-30" x="63.623047"/>
       <use xlink:href="#DejaVuSans-35" x="127.246094"/>
       <use xlink:href="#DejaVuSans-30" x="190.869141"/>
      </g>
     </g>
    </g>
    <g id="xtick_9">
     <g id="line2d_9">
      <g>
       <use xlink:href="#mda15cf20c5" x="485.01956" y="244.27296" style="stroke: #000000; stroke-width: 0.8"/>
      </g>
     </g>
     <g id="text_9">
      <!-- 2100 -->
      <g transform="translate(472.29456 258.871398) scale(0.1 -0.1)">
       <use xlink:href="#DejaVuSans-32"/>
       <use xlink:href="#DejaVuSans-31" x="63.623047"/>
       <use xlink:href="#DejaVuSans-30" x="127.246094"/>
       <use xlink:href="#DejaVuSans-30" x="190.869141"/>
      </g>
     </g>
    </g>
    <g id="text_10">
     <!-- Pixel bin -->
     <g transform="translate(262.51075 272.549523) scale(0.1 -0.1)">
      <defs>
       <path id="DejaVuSans-50" d="M 1259 4147 
L 1259 2394 
L 2053 2394 
Q 2494 2394 2734 2622 
Q 2975 2850 2975 3272 
Q 2975 3691 2734 3919 
Q 2494 4147 2053 4147 
L 1259 4147 
z
M 628 4666 
L 2053 4666 
Q 2838 4666 3239 4311 
Q 3641 3956 3641 3272 
Q 3641 2581 3239 2228 
Q 2838 1875 2053 1875 
L 1259 1875 
L 1259 0 
L 628 0 
L 628 4666 
z
" transform="scale(0.015625)"/>
       <path id="DejaVuSans-69" d="M 603 3500 
L 1178 3500 
L 1178 0 
L 603 0 
L 603 3500 
z
M 603 4863 
L 1178 4863 
L 1178 4134 
L 603 4134 
L 603 4863 
z
" transform="scale(0.015625)"/>
       <path id="DejaVuSans-78" d="M 3513 3500 
L 2247 1797 
L 3578 0 
L 2900 0 
L 1881 1375 
L 863 0 
L 184 0 
L 1544 1831 
L 300 3500 
L 978 3500 
L 1906 2253 
L 2834 3500 
L 3513 3500 
z
" transform="scale(0.015625)"/>
       <path id="DejaVuSans-65" d="M 3597 1894 
L 3597 1613 
L 953 1613 
Q 991 1019 1311 708 
Q 1631 397 2203 397 
Q 2534 397 2845 478 
Q 3156 559 3463 722 
L 3463 178 
Q 3153 47 2828 -22 
Q 2503 -91 2169 -91 
Q 1331 -91 842 396 
Q 353 884 353 1716 
Q 353 2575 817 3079 
Q 1281 3584 2069 3584 
Q 2775 3584 3186 3129 
Q 3597 2675 3597 1894 
z
M 3022 2063 
Q 3016 2534 2758 2815 
Q 2500 3097 2075 3097 
Q 1594 3097 1305 2825 
Q 1016 2553 972 2059 
L 3022 2063 
z
" transform="scale(0.015625)"/>
       <path id="DejaVuSans-6c" d="M 603 4863 
L 1178 4863 
L 1178 0 
L 603 0 
L 603 4863 
z
" transform="scale(0.015625)"/>
       <path id="DejaVuSans-20" transform="scale(0.015625)"/>
       <path id="DejaVuSans-62" d="M 3116 1747 
Q 3116 2381 2855 2742 
Q 2594 3103 2138 3103 
Q 1681 3103 1420 2742 
Q 1159 2381 1159 1747 
Q 1159 1113 1420 752 
Q 1681 391 2138 391 
Q 2594 391 2855 752 
Q 3116 1113 3116 1747 
z
M 1159 2969 
Q 1341 3281 1617 3432 
Q 1894 3584 2278 3584 
Q 2916 3584 3314 3078 
Q 3713 2572 3713 1747 
Q 3713 922 3314 415 
Q 2916 -91 2278 -91 
Q 1894 -91 1617 61 
Q 1341 213 1159 525 
L 1159 0 
L 581 0 
L 581 4863 
L 1159 4863 
L 1159 2969 
z
" transform="scale(0.015625)"/>
       <path id="DejaVuSans-6e" d="M 3513 2113 
L 3513 0 
L 2938 0 
L 2938 2094 
Q 2938 2591 2744 2837 
Q 2550 3084 2163 3084 
Q 1697 3084 1428 2787 
Q 1159 2491 1159 1978 
L 1159 0 
L 581 0 
L 581 3500 
L 1159 3500 
L 1159 2956 
Q 1366 3272 1645 3428 
Q 1925 3584 2291 3584 
Q 2894 3584 3203 3211 
Q 3513 2838 3513 2113 
z
" transform="scale(0.015625)"/>
      </defs>
      <use xlink:href="#DejaVuSans-50"/>
      <use xlink:href="#DejaVuSans-69" x="58.052734"/>
      <use xlink:href="#DejaVuSans-78" x="85.835938"/>
      <use xlink:href="#DejaVuSans-65" x="141.890625"/>
      <use xlink:href="#DejaVuSans-6c" x="203.414062"/>
      <use xlink:href="#DejaVuSans-20" x="231.197266"/>
      <use xlink:href="#DejaVuSans-62" x="262.984375"/>
      <use xlink:href="#DejaVuSans-69" x="326.460938"/>
      <use xlink:href="#DejaVuSans-6e" x="354.244141"/>
     </g>
    </g>
   </g>
   <g id="matplotlib.axis_2">
    <g id="ytick_1">
     <g id="line2d_10">
      <defs>
       <path id="mfa00da23c9" d="M 0 0 
L -3.5 0 
" style="stroke: #000000; stroke-width: 0.8"/>
      </defs>
      <g>
       <use xlink:href="#mfa00da23c9" x="69.12" y="234.66672" style="stroke: #000000; stroke-width: 0.8"/>
      </g>
     </g>
     <g id="text_11">
      <!-- 0 -->
      <g transform="translate(55.7575 238.465939) scale(0.1 -0.1)">
       <use xlink:href="#DejaVuSans-30"/>
      </g>
     </g>
    </g>
    <g id="ytick_2">
     <g id="line2d_11">
      <g>
       <use xlink:href="#mfa00da23c9" x="69.12" y="209.692094" style="stroke: #000000; stroke-width: 0.8"/>
      </g>
     </g>
     <g id="text_12">
      <!-- 2500 -->
      <g transform="translate(36.67 213.491313) scale(0.1 -0.1)">
       <use xlink:href="#DejaVuSans-32"/>
       <use xlink:href="#DejaVuSans-35" x="63.623047"/>
       <use xlink:href="#DejaVuSans-30" x="127.246094"/>
       <use xlink:href="#DejaVuSans-30" x="190.869141"/>
      </g>
     </g>
    </g>
    <g id="ytick_3">
     <g id="line2d_12">
      <g>
       <use xlink:href="#mfa00da23c9" x="69.12" y="184.717469" style="stroke: #000000; stroke-width: 0.8"/>
      </g>
     </g>
     <g id="text_13">
      <!-- 5000 -->
      <g transform="translate(36.67 188.516688) scale(0.1 -0.1)">
       <use xlink:href="#DejaVuSans-35"/>
       <use xlink:href="#DejaVuSans-30" x="63.623047"/>
       <use xlink:href="#DejaVuSans-30" x="127.246094"/>
       <use xlink:href="#DejaVuSans-30" x="190.869141"/>
      </g>
     </g>
    </g>
    <g id="ytick_4">
     <g id="line2d_13">
      <g>
       <use xlink:href="#mfa00da23c9" x="69.12" y="159.742843" style="stroke: #000000; stroke-width: 0.8"/>
      </g>
     </g>
     <g id="text_14">
      <!-- 7500 -->
      <g transform="translate(36.67 163.542062) scale(0.1 -0.1)">
       <use xlink:href="#DejaVuSans-37"/>
       <use xlink:href="#DejaVuSans-35" x="63.623047"/>
       <use xlink:href="#DejaVuSans-30" x="127.246094"/>
       <use xlink:href="#DejaVuSans-30" x="190.869141"/>
      </g>
     </g>
    </g>
    <g id="ytick_5">
     <g id="line2d_14">
      <g>
       <use xlink:href="#mfa00da23c9" x="69.12" y="134.768218" style="stroke: #000000; stroke-width: 0.8"/>
      </g>
     </g>
     <g id="text_15">
      <!-- 10000 -->
      <g transform="translate(30.3075 138.567436) scale(0.1 -0.1)">
       <use xlink:href="#DejaVuSans-31"/>
       <use xlink:href="#DejaVuSans-30" x="63.623047"/>
       <use xlink:href="#DejaVuSans-30" x="127.246094"/>
       <use xlink:href="#DejaVuSans-30" x="190.869141"/>
       <use xlink:href="#DejaVuSans-30" x="254.492188"/>
      </g>
     </g>
    </g>
    <g id="ytick_6">
     <g id="line2d_15">
      <g>
       <use xlink:href="#mfa00da23c9" x="69.12" y="109.793592" style="stroke: #000000; stroke-width: 0.8"/>
      </g>
     </g>
     <g id="text_16">
      <!-- 12500 -->
      <g transform="translate(30.3075 113.592811) scale(0.1 -0.1)">
       <use xlink:href="#DejaVuSans-31"/>
       <use xlink:href="#DejaVuSans-32" x="63.623047"/>
       <use xlink:href="#DejaVuSans-35" x="127.246094"/>
       <use xlink:href="#DejaVuSans-30" x="190.869141"/>
       <use xlink:href="#DejaVuSans-30" x="254.492188"/>
      </g>
     </g>
    </g>
    <g id="ytick_7">
     <g id="line2d_16">
      <g>
       <use xlink:href="#mfa00da23c9" x="69.12" y="84.818966" style="stroke: #000000; stroke-width: 0.8"/>
      </g>
     </g>
     <g id="text_17">
      <!-- 15000 -->
      <g transform="translate(30.3075 88.618185) scale(0.1 -0.1)">
       <use xlink:href="#DejaVuSans-31"/>
       <use xlink:href="#DejaVuSans-35" x="63.623047"/>
       <use xlink:href="#DejaVuSans-30" x="127.246094"/>
       <use xlink:href="#DejaVuSans-30" x="190.869141"/>
       <use xlink:href="#DejaVuSans-30" x="254.492188"/>
      </g>
     </g>
    </g>
    <g id="ytick_8">
     <g id="line2d_17">
      <g>
       <use xlink:href="#mfa00da23c9" x="69.12" y="59.844341" style="stroke: #000000; stroke-width: 0.8"/>
      </g>
     </g>
     <g id="text_18">
      <!-- 17500 -->
      <g transform="translate(30.3075 63.643559) scale(0.1 -0.1)">
       <use xlink:href="#DejaVuSans-31"/>
       <use xlink:href="#DejaVuSans-37" x="63.623047"/>
       <use xlink:href="#DejaVuSans-35" x="127.246094"/>
       <use xlink:href="#DejaVuSans-30" x="190.869141"/>
       <use xlink:href="#DejaVuSans-30" x="254.492188"/>
      </g>
     </g>
    </g>
    <g id="ytick_9">
     <g id="line2d_18">
      <g>
       <use xlink:href="#mfa00da23c9" x="69.12" y="34.869715" style="stroke: #000000; stroke-width: 0.8"/>
      </g>
     </g>
     <g id="text_19">
      <!-- 20000 -->
      <g transform="translate(30.3075 38.668934) scale(0.1 -0.1)">
       <use xlink:href="#DejaVuSans-32"/>
       <use xlink:href="#DejaVuSans-30" x="63.623047"/>
       <use xlink:href="#DejaVuSans-30" x="127.246094"/>
       <use xlink:href="#DejaVuSans-30" x="190.869141"/>
       <use xlink:href="#DejaVuSans-30" x="254.492188"/>
      </g>
     </g>
    </g>
    <g id="text_20">
     <!-- Intensity -->
     <g transform="translate(24.227813 160.36682) rotate(-90) scale(0.1 -0.1)">
      <defs>
       <path id="DejaVuSans-49" d="M 628 4666 
L 1259 4666 
L 1259 0 
L 628 0 
L 628 4666 
z
" transform="scale(0.015625)"/>
       <path id="DejaVuSans-74" d="M 1172 4494 
L 1172 3500 
L 2356 3500 
L 2356 3053 
L 1172 3053 
L 1172 1153 
Q 1172 725 1289 603 
Q 1406 481 1766 481 
L 2356 481 
L 2356 0 
L 1766 0 
Q 1100 0 847 248 
Q 594 497 594 1153 
L 594 3053 
L 172 3053 
L 172 3500 
L 594 3500 
L 594 4494 
L 1172 4494 
z
" transform="scale(0.015625)"/>
       <path id="DejaVuSans-73" d="M 2834 3397 
L 2834 2853 
Q 2591 2978 2328 3040 
Q 2066 3103 1784 3103 
Q 1356 3103 1142 2972 
Q 928 2841 928 2578 
Q 928 2378 1081 2264 
Q 1234 2150 1697 2047 
L 1894 2003 
Q 2506 1872 2764 1633 
Q 3022 1394 3022 966 
Q 3022 478 2636 193 
Q 2250 -91 1575 -91 
Q 1294 -91 989 -36 
Q 684 19 347 128 
L 347 722 
Q 666 556 975 473 
Q 1284 391 1588 391 
Q 1994 391 2212 530 
Q 2431 669 2431 922 
Q 2431 1156 2273 1281 
Q 2116 1406 1581 1522 
L 1381 1569 
Q 847 1681 609 1914 
Q 372 2147 372 2553 
Q 372 3047 722 3315 
Q 1072 3584 1716 3584 
Q 2034 3584 2315 3537 
Q 2597 3491 2834 3397 
z
" transform="scale(0.015625)"/>
       <path id="DejaVuSans-79" d="M 2059 -325 
Q 1816 -950 1584 -1140 
Q 1353 -1331 966 -1331 
L 506 -1331 
L 506 -850 
L 844 -850 
Q 1081 -850 1212 -737 
Q 1344 -625 1503 -206 
L 1606 56 
L 191 3500 
L 800 3500 
L 1894 763 
L 2988 3500 
L 3597 3500 
L 2059 -325 
z
" transform="scale(0.015625)"/>
      </defs>
      <use xlink:href="#DejaVuSans-49"/>
      <use xlink:href="#DejaVuSans-6e" x="29.492188"/>
      <use xlink:href="#DejaVuSans-74" x="92.871094"/>
      <use xlink:href="#DejaVuSans-65" x="132.080078"/>
      <use xlink:href="#DejaVuSans-6e" x="193.603516"/>
      <use xlink:href="#DejaVuSans-73" x="256.982422"/>
      <use xlink:href="#DejaVuSans-69" x="309.082031"/>
      <use xlink:href="#DejaVuSans-74" x="336.865234"/>
      <use xlink:href="#DejaVuSans-79" x="376.074219"/>
     </g>
    </g>
   </g>
   <g id="line2d_19">
    <path d="M 88.599273 232.908506 
L 89.575677 232.588831 
L 90.552082 232.908506 
L 91.528487 232.588831 
L 92.504891 233.228182 
L 93.481296 232.428994 
L 94.457701 232.588831 
L 95.434105 232.908506 
L 96.41051 232.588831 
L 97.386915 232.908506 
L 98.363319 232.748669 
L 99.339724 232.748669 
L 100.316129 232.908506 
L 101.292533 232.588831 
L 102.268938 232.908506 
L 103.245342 232.748669 
L 104.221747 232.908506 
L 105.198152 232.908506 
L 106.174556 232.269156 
L 107.150961 232.908506 
L 108.127366 232.428994 
L 109.10377 233.228182 
L 110.080175 232.588831 
L 111.05658 232.908506 
L 112.032984 232.428994 
L 113.009389 232.908506 
L 113.985794 232.428994 
L 114.962198 232.428994 
L 115.938603 232.748669 
L 117.891412 232.428994 
L 118.867817 232.748669 
L 119.844221 232.269156 
L 120.820626 232.588831 
L 121.797031 232.428994 
L 122.773435 232.748669 
L 123.74984 232.588831 
L 124.726245 232.748669 
L 125.702649 233.068344 
L 126.679054 232.269156 
L 127.655459 232.269156 
L 128.631863 233.068344 
L 130.584673 233.068344 
L 131.561077 233.228182 
L 132.537482 232.748669 
L 133.513887 232.588831 
L 134.490291 232.588831 
L 135.466696 232.748669 
L 136.4431 232.428994 
L 137.419505 233.068344 
L 138.39591 232.588831 
L 139.372314 232.748669 
L 140.348719 232.748669 
L 141.325124 233.068344 
L 142.301528 232.428994 
L 143.277933 232.748669 
L 145.230742 232.748669 
L 146.207147 232.428994 
L 147.183552 232.269156 
L 148.159956 232.748669 
L 151.08917 232.748669 
L 152.065575 232.908506 
L 153.041979 232.588831 
L 154.018384 232.588831 
L 154.994789 232.748669 
L 155.971193 232.748669 
L 156.947598 232.269156 
L 157.924003 232.269156 
L 158.900407 232.428994 
L 159.876812 232.428994 
L 161.829621 232.748669 
L 162.806026 232.428994 
L 163.782431 232.588831 
L 164.758835 232.269156 
L 165.73524 232.428994 
L 166.711645 232.428994 
L 167.688049 232.908506 
L 168.664454 231.949481 
L 169.640859 232.588831 
L 171.593668 232.269156 
L 172.570072 232.588831 
L 173.546477 233.068344 
L 174.522882 232.908506 
L 175.499286 232.428994 
L 176.475691 232.269156 
L 177.452096 232.748669 
L 178.4285 232.908506 
L 179.404905 232.109318 
L 180.38131 232.269156 
L 181.357714 231.949481 
L 184.286928 232.428994 
L 185.263333 232.109318 
L 186.239738 232.588831 
L 187.216142 232.588831 
L 188.192547 232.269156 
L 189.168951 232.269156 
L 190.145356 232.109318 
L 191.121761 232.748669 
L 192.098165 232.428994 
L 194.050975 232.109318 
L 195.027379 232.109318 
L 196.003784 232.269156 
L 196.980189 232.748669 
L 197.956593 232.428994 
L 198.932998 232.428994 
L 199.909403 232.109318 
L 200.885807 232.908506 
L 201.862212 231.469968 
L 202.838617 231.949481 
L 203.815021 232.109318 
L 204.791426 232.109318 
L 206.744235 232.428994 
L 207.72064 231.949481 
L 208.697044 231.949481 
L 209.673449 232.588831 
L 212.602663 232.109318 
L 213.579068 232.269156 
L 214.555472 231.789643 
L 215.531877 231.949481 
L 216.508282 231.629806 
L 217.484686 231.949481 
L 218.461091 231.469968 
L 219.437496 231.949481 
L 220.4139 231.629806 
L 222.36671 231.629806 
L 223.343114 232.109318 
L 224.319519 231.949481 
L 225.295923 232.269156 
L 226.272328 231.629806 
L 227.248733 231.789643 
L 228.225137 231.469968 
L 229.201542 231.469968 
L 230.177947 231.629806 
L 231.154351 231.629806 
L 232.130756 230.351105 
L 233.107161 230.990455 
L 234.083565 230.830618 
L 235.05997 230.830618 
L 236.036375 231.150293 
L 237.989184 231.469968 
L 238.965589 231.469968 
L 239.941993 230.830618 
L 240.918398 230.990455 
L 242.871207 230.67078 
L 243.847612 230.67078 
L 244.824016 230.351105 
L 245.800421 229.551917 
L 246.776826 230.510942 
L 248.729635 229.551917 
L 249.70604 230.351105 
L 250.682444 229.072404 
L 251.658849 227.154353 
L 252.635254 227.633865 
L 253.611658 228.273216 
L 254.588063 228.752729 
L 255.564468 228.433053 
L 256.540872 226.195327 
L 257.517277 224.756789 
L 259.470086 225.715814 
L 260.446491 224.117438 
L 261.422895 223.478088 
L 262.3993 224.117438 
L 263.375705 219.801823 
L 265.328514 216.285396 
L 266.304919 209.732054 
L 267.281323 209.092703 
L 268.257728 204.936926 
L 270.210537 192.789268 
L 271.186942 183.199012 
L 272.163347 175.686644 
L 273.139751 171.850542 
L 274.116156 159.862721 
L 276.068965 129.333739 
L 278.021774 114.468842 
L 278.998179 104.55891 
L 279.974584 89.853851 
L 280.950988 72.271714 
L 281.927393 57.406817 
L 282.903798 45.738672 
L 283.880202 42.54192 
L 284.856607 47.496886 
L 285.833012 63.001133 
L 287.785821 126.776337 
L 288.762226 136.526431 
L 289.73863 140.522371 
L 290.715035 148.993764 
L 291.69144 161.780773 
L 292.667844 182.399823 
L 293.644249 192.62943 
L 295.597058 206.055789 
L 296.573463 211.170592 
L 297.549867 211.170592 
L 299.502677 215.486208 
L 301.455486 221.240361 
L 302.431891 222.039549 
L 303.408295 223.31825 
L 304.3847 223.158413 
L 305.361105 223.797763 
L 307.313914 226.195327 
L 308.290319 227.633865 
L 309.266723 225.236301 
L 310.243128 227.474028 
L 311.219532 226.834677 
L 312.195937 227.154353 
L 313.172342 226.834677 
L 314.148746 227.474028 
L 315.125151 229.551917 
L 316.101556 227.633865 
L 317.07796 226.994515 
L 318.054365 227.31419 
L 319.03077 228.273216 
L 320.007174 228.433053 
L 320.983579 229.072404 
L 321.959984 229.392079 
L 322.936388 229.551917 
L 323.912793 230.351105 
L 324.889198 230.67078 
L 325.865602 230.351105 
L 326.842007 229.392079 
L 327.818411 230.67078 
L 328.794816 230.830618 
L 329.771221 231.150293 
L 330.747625 231.150293 
L 331.72403 231.629806 
L 332.700435 231.150293 
L 333.676839 231.949481 
L 334.653244 231.789643 
L 335.629649 230.990455 
L 336.606053 231.789643 
L 337.582458 231.789643 
L 338.558863 231.31013 
L 339.535267 231.629806 
L 340.511672 231.469968 
L 341.488077 231.789643 
L 342.464481 231.789643 
L 343.440886 231.469968 
L 344.41729 231.789643 
L 345.393695 232.588831 
L 347.346504 231.949481 
L 350.275718 231.949481 
L 351.252123 232.109318 
L 352.228528 232.109318 
L 353.204932 232.428994 
L 354.181337 232.428994 
L 355.157742 232.109318 
L 356.134146 232.908506 
L 357.110551 232.908506 
L 358.086956 232.109318 
L 359.06336 232.588831 
L 360.039765 232.269156 
L 361.01617 232.428994 
L 361.992574 232.748669 
L 362.968979 232.588831 
L 363.945383 232.269156 
L 364.921788 232.908506 
L 366.874597 232.269156 
L 367.851002 232.588831 
L 368.827407 232.428994 
L 369.803811 231.949481 
L 370.780216 232.588831 
L 371.756621 231.469968 
L 372.733025 232.588831 
L 373.70943 232.269156 
L 374.685835 232.748669 
L 375.662239 232.428994 
L 376.638644 233.068344 
L 377.615049 232.109318 
L 378.591453 232.269156 
L 379.567858 232.908506 
L 380.544262 232.748669 
L 381.520667 232.269156 
L 382.497072 232.748669 
L 383.473476 232.428994 
L 384.449881 232.908506 
L 386.40269 232.588831 
L 387.379095 232.269156 
L 388.3555 232.428994 
L 389.331904 231.789643 
L 390.308309 232.588831 
L 391.284714 232.748669 
L 392.261118 232.428994 
L 393.237523 232.588831 
L 394.213928 232.428994 
L 395.190332 232.908506 
L 396.166737 232.588831 
L 398.119546 233.228182 
L 399.095951 232.588831 
L 400.072355 233.228182 
L 401.04876 232.908506 
L 402.025165 232.908506 
L 403.001569 231.949481 
L 403.977974 232.588831 
L 404.954379 232.748669 
L 405.930783 232.588831 
L 406.907188 232.748669 
L 407.883593 232.588831 
L 408.859997 233.228182 
L 409.836402 232.428994 
L 410.812807 232.908506 
L 412.765616 232.588831 
L 413.742021 232.748669 
L 414.718425 232.748669 
L 415.69483 232.588831 
L 416.671234 232.269156 
L 417.647639 232.588831 
L 418.624044 232.748669 
L 419.600448 233.068344 
L 420.576853 232.588831 
L 421.553258 232.428994 
L 422.529662 233.068344 
L 423.506067 233.068344 
L 424.482472 231.949481 
L 425.458876 232.588831 
L 426.435281 232.748669 
L 427.411686 232.109318 
L 428.38809 232.748669 
L 429.364495 232.428994 
L 430.3409 232.908506 
L 431.317304 232.748669 
L 432.293709 232.748669 
L 433.270113 232.428994 
L 434.246518 232.588831 
L 435.222923 232.588831 
L 436.199327 232.428994 
L 438.152137 233.068344 
L 439.128541 232.428994 
L 440.104946 232.748669 
L 441.081351 232.269156 
L 442.057755 232.748669 
L 443.03416 232.428994 
L 444.986969 232.748669 
L 445.963374 232.588831 
L 446.939779 232.588831 
L 447.916183 232.428994 
L 448.892588 232.588831 
L 449.868992 233.068344 
L 450.845397 232.428994 
L 451.821802 232.428994 
L 452.798206 233.068344 
L 453.774611 232.269156 
L 454.751016 232.428994 
L 455.72742 232.269156 
L 456.703825 232.748669 
L 457.68023 232.748669 
L 458.656634 232.908506 
L 459.633039 232.908506 
L 460.609444 233.228182 
L 461.585848 232.588831 
L 462.562253 232.908506 
L 463.538658 232.588831 
L 464.515062 232.908506 
L 466.467871 232.588831 
L 467.444276 232.588831 
L 468.420681 233.068344 
L 469.397085 232.588831 
L 470.37349 233.228182 
L 471.349895 232.908506 
L 473.302704 232.908506 
L 474.279109 232.588831 
L 475.255513 232.908506 
L 476.231918 232.748669 
L 478.184727 232.748669 
L 478.184727 232.748669 
" clip-path="url(#p4ae9f11936)" style="fill: none; stroke: #1f77b4; stroke-width: 1.5; stroke-linecap: square"/>
   </g>
   <g id="line2d_20">
    <path d="M 88.599273 234.66672 
L 251.658849 234.582403 
L 254.588063 234.32722 
L 256.540872 233.870984 
L 257.517277 233.476227 
L 258.493681 232.912783 
L 259.470086 232.122059 
L 260.446491 231.031129 
L 261.422895 229.55168 
L 262.3993 227.579889 
L 263.375705 224.997665 
L 264.352109 221.675648 
L 265.328514 217.478342 
L 266.304919 212.27158 
L 267.281323 205.932352 
L 268.257728 198.360712 
L 269.234133 189.49316 
L 270.210537 179.31653 
L 272.163347 155.311477 
L 274.116156 127.675524 
L 277.04537 85.396223 
L 278.021774 72.918104 
L 278.998179 62.068567 
L 279.974584 53.298709 
L 280.950988 46.988355 
L 281.927393 43.418805 
L 282.903798 42.752047 
L 283.880202 45.018563 
L 284.856607 50.115021 
L 285.833012 57.812086 
L 286.809416 67.771531 
L 287.785821 79.570875 
L 289.73863 106.758109 
L 292.667844 149.294509 
L 294.620653 174.284942 
L 295.597058 185.042459 
L 296.573463 194.505105 
L 297.549867 202.658813 
L 298.526272 209.545985 
L 299.502677 215.251765 
L 300.479081 219.890293 
L 301.455486 223.592034 
L 302.431891 226.49295 
L 303.408295 228.725955 
L 304.3847 230.414739 
L 305.361105 231.669841 
L 306.337509 232.586659 
L 307.313914 233.245007 
L 308.290319 233.709798 
L 310.243128 234.252727 
L 312.195937 234.498288 
L 316.101556 234.643533 
L 328.794816 234.666713 
L 478.184727 234.66672 
L 478.184727 234.66672 
" clip-path="url(#p4ae9f11936)" style="fill: none; stroke: #ff7f0e; stroke-width: 1.5; stroke-linecap: square"/>
   </g>
   <g id="patch_3">
    <path d="M 69.12 244.27296 
L 69.12 32.93568 
" style="fill: none; stroke: #000000; stroke-width: 0.8; stroke-linejoin: miter; stroke-linecap: square"/>
   </g>
   <g id="patch_4">
    <path d="M 497.664 244.27296 
L 497.664 32.93568 
" style="fill: none; stroke: #000000; stroke-width: 0.8; stroke-linejoin: miter; stroke-linecap: square"/>
   </g>
   <g id="patch_5">
    <path d="M 69.12 244.27296 
L 497.664 244.27296 
" style="fill: none; stroke: #000000; stroke-width: 0.8; stroke-linejoin: miter; stroke-linecap: square"/>
   </g>
   <g id="patch_6">
    <path d="M 69.12 32.93568 
L 497.664 32.93568 
" style="fill: none; stroke: #000000; stroke-width: 0.8; stroke-linejoin: miter; stroke-linecap: square"/>
   </g>
   <g id="text_21">
    <!-- Data and Fit using a gaussian approximation for the X direction.  -->
    <g transform="translate(89.450438 13.498305) scale(0.12 -0.12)">
     <defs>
      <path id="DejaVuSans-44" d="M 1259 4147 
L 1259 519 
L 2022 519 
Q 2988 519 3436 956 
Q 3884 1394 3884 2338 
Q 3884 3275 3436 3711 
Q 2988 4147 2022 4147 
L 1259 4147 
z
M 628 4666 
L 1925 4666 
Q 3281 4666 3915 4102 
Q 4550 3538 4550 2338 
Q 4550 1131 3912 565 
Q 3275 0 1925 0 
L 628 0 
L 628 4666 
z
" transform="scale(0.015625)"/>
      <path id="DejaVuSans-61" d="M 2194 1759 
Q 1497 1759 1228 1600 
Q 959 1441 959 1056 
Q 959 750 1161 570 
Q 1363 391 1709 391 
Q 2188 391 2477 730 
Q 2766 1069 2766 1631 
L 2766 1759 
L 2194 1759 
z
M 3341 1997 
L 3341 0 
L 2766 0 
L 2766 531 
Q 2569 213 2275 61 
Q 1981 -91 1556 -91 
Q 1019 -91 701 211 
Q 384 513 384 1019 
Q 384 1609 779 1909 
Q 1175 2209 1959 2209 
L 2766 2209 
L 2766 2266 
Q 2766 2663 2505 2880 
Q 2244 3097 1772 3097 
Q 1472 3097 1187 3025 
Q 903 2953 641 2809 
L 641 3341 
Q 956 3463 1253 3523 
Q 1550 3584 1831 3584 
Q 2591 3584 2966 3190 
Q 3341 2797 3341 1997 
z
" transform="scale(0.015625)"/>
      <path id="DejaVuSans-64" d="M 2906 2969 
L 2906 4863 
L 3481 4863 
L 3481 0 
L 2906 0 
L 2906 525 
Q 2725 213 2448 61 
Q 2172 -91 1784 -91 
Q 1150 -91 751 415 
Q 353 922 353 1747 
Q 353 2572 751 3078 
Q 1150 3584 1784 3584 
Q 2172 3584 2448 3432 
Q 2725 3281 2906 2969 
z
M 947 1747 
Q 947 1113 1208 752 
Q 1469 391 1925 391 
Q 2381 391 2643 752 
Q 2906 1113 2906 1747 
Q 2906 2381 2643 2742 
Q 2381 3103 1925 3103 
Q 1469 3103 1208 2742 
Q 947 2381 947 1747 
z
" transform="scale(0.015625)"/>
      <path id="DejaVuSans-46" d="M 628 4666 
L 3309 4666 
L 3309 4134 
L 1259 4134 
L 1259 2759 
L 3109 2759 
L 3109 2228 
L 1259 2228 
L 1259 0 
L 628 0 
L 628 4666 
z
" transform="scale(0.015625)"/>
      <path id="DejaVuSans-75" d="M 544 1381 
L 544 3500 
L 1119 3500 
L 1119 1403 
Q 1119 906 1312 657 
Q 1506 409 1894 409 
Q 2359 409 2629 706 
Q 2900 1003 2900 1516 
L 2900 3500 
L 3475 3500 
L 3475 0 
L 2900 0 
L 2900 538 
Q 2691 219 2414 64 
Q 2138 -91 1772 -91 
Q 1169 -91 856 284 
Q 544 659 544 1381 
z
M 1991 3584 
L 1991 3584 
z
" transform="scale(0.015625)"/>
      <path id="DejaVuSans-67" d="M 2906 1791 
Q 2906 2416 2648 2759 
Q 2391 3103 1925 3103 
Q 1463 3103 1205 2759 
Q 947 2416 947 1791 
Q 947 1169 1205 825 
Q 1463 481 1925 481 
Q 2391 481 2648 825 
Q 2906 1169 2906 1791 
z
M 3481 434 
Q 3481 -459 3084 -895 
Q 2688 -1331 1869 -1331 
Q 1566 -1331 1297 -1286 
Q 1028 -1241 775 -1147 
L 775 -588 
Q 1028 -725 1275 -790 
Q 1522 -856 1778 -856 
Q 2344 -856 2625 -561 
Q 2906 -266 2906 331 
L 2906 616 
Q 2728 306 2450 153 
Q 2172 0 1784 0 
Q 1141 0 747 490 
Q 353 981 353 1791 
Q 353 2603 747 3093 
Q 1141 3584 1784 3584 
Q 2172 3584 2450 3431 
Q 2728 3278 2906 2969 
L 2906 3500 
L 3481 3500 
L 3481 434 
z
" transform="scale(0.015625)"/>
      <path id="DejaVuSans-70" d="M 1159 525 
L 1159 -1331 
L 581 -1331 
L 581 3500 
L 1159 3500 
L 1159 2969 
Q 1341 3281 1617 3432 
Q 1894 3584 2278 3584 
Q 2916 3584 3314 3078 
Q 3713 2572 3713 1747 
Q 3713 922 3314 415 
Q 2916 -91 2278 -91 
Q 1894 -91 1617 61 
Q 1341 213 1159 525 
z
M 3116 1747 
Q 3116 2381 2855 2742 
Q 2594 3103 2138 3103 
Q 1681 3103 1420 2742 
Q 1159 2381 1159 1747 
Q 1159 1113 1420 752 
Q 1681 391 2138 391 
Q 2594 391 2855 752 
Q 3116 1113 3116 1747 
z
" transform="scale(0.015625)"/>
      <path id="DejaVuSans-72" d="M 2631 2963 
Q 2534 3019 2420 3045 
Q 2306 3072 2169 3072 
Q 1681 3072 1420 2755 
Q 1159 2438 1159 1844 
L 1159 0 
L 581 0 
L 581 3500 
L 1159 3500 
L 1159 2956 
Q 1341 3275 1631 3429 
Q 1922 3584 2338 3584 
Q 2397 3584 2469 3576 
Q 2541 3569 2628 3553 
L 2631 2963 
z
" transform="scale(0.015625)"/>
      <path id="DejaVuSans-6f" d="M 1959 3097 
Q 1497 3097 1228 2736 
Q 959 2375 959 1747 
Q 959 1119 1226 758 
Q 1494 397 1959 397 
Q 2419 397 2687 759 
Q 2956 1122 2956 1747 
Q 2956 2369 2687 2733 
Q 2419 3097 1959 3097 
z
M 1959 3584 
Q 2709 3584 3137 3096 
Q 3566 2609 3566 1747 
Q 3566 888 3137 398 
Q 2709 -91 1959 -91 
Q 1206 -91 779 398 
Q 353 888 353 1747 
Q 353 2609 779 3096 
Q 1206 3584 1959 3584 
z
" transform="scale(0.015625)"/>
      <path id="DejaVuSans-6d" d="M 3328 2828 
Q 3544 3216 3844 3400 
Q 4144 3584 4550 3584 
Q 5097 3584 5394 3201 
Q 5691 2819 5691 2113 
L 5691 0 
L 5113 0 
L 5113 2094 
Q 5113 2597 4934 2840 
Q 4756 3084 4391 3084 
Q 3944 3084 3684 2787 
Q 3425 2491 3425 1978 
L 3425 0 
L 2847 0 
L 2847 2094 
Q 2847 2600 2669 2842 
Q 2491 3084 2119 3084 
Q 1678 3084 1418 2786 
Q 1159 2488 1159 1978 
L 1159 0 
L 581 0 
L 581 3500 
L 1159 3500 
L 1159 2956 
Q 1356 3278 1631 3431 
Q 1906 3584 2284 3584 
Q 2666 3584 2933 3390 
Q 3200 3197 3328 2828 
z
" transform="scale(0.015625)"/>
      <path id="DejaVuSans-66" d="M 2375 4863 
L 2375 4384 
L 1825 4384 
Q 1516 4384 1395 4259 
Q 1275 4134 1275 3809 
L 1275 3500 
L 2222 3500 
L 2222 3053 
L 1275 3053 
L 1275 0 
L 697 0 
L 697 3053 
L 147 3053 
L 147 3500 
L 697 3500 
L 697 3744 
Q 697 4328 969 4595 
Q 1241 4863 1831 4863 
L 2375 4863 
z
" transform="scale(0.015625)"/>
      <path id="DejaVuSans-68" d="M 3513 2113 
L 3513 0 
L 2938 0 
L 2938 2094 
Q 2938 2591 2744 2837 
Q 2550 3084 2163 3084 
Q 1697 3084 1428 2787 
Q 1159 2491 1159 1978 
L 1159 0 
L 581 0 
L 581 4863 
L 1159 4863 
L 1159 2956 
Q 1366 3272 1645 3428 
Q 1925 3584 2291 3584 
Q 2894 3584 3203 3211 
Q 3513 2838 3513 2113 
z
" transform="scale(0.015625)"/>
      <path id="DejaVuSans-58" d="M 403 4666 
L 1081 4666 
L 2241 2931 
L 3406 4666 
L 4084 4666 
L 2584 2425 
L 4184 0 
L 3506 0 
L 2194 1984 
L 872 0 
L 191 0 
L 1856 2491 
L 403 4666 
z
" transform="scale(0.015625)"/>
      <path id="DejaVuSans-63" d="M 3122 3366 
L 3122 2828 
Q 2878 2963 2633 3030 
Q 2388 3097 2138 3097 
Q 1578 3097 1268 2742 
Q 959 2388 959 1747 
Q 959 1106 1268 751 
Q 1578 397 2138 397 
Q 2388 397 2633 464 
Q 2878 531 3122 666 
L 3122 134 
Q 2881 22 2623 -34 
Q 2366 -91 2075 -91 
Q 1284 -91 818 406 
Q 353 903 353 1747 
Q 353 2603 823 3093 
Q 1294 3584 2113 3584 
Q 2378 3584 2631 3529 
Q 2884 3475 3122 3366 
z
" transform="scale(0.015625)"/>
      <path id="DejaVuSans-2e" d="M 684 794 
L 1344 794 
L 1344 0 
L 684 0 
L 684 794 
z
" transform="scale(0.015625)"/>
     </defs>
     <use xlink:href="#DejaVuSans-44"/>
     <use xlink:href="#DejaVuSans-61" x="77.001953"/>
     <use xlink:href="#DejaVuSans-74" x="138.28125"/>
     <use xlink:href="#DejaVuSans-61" x="177.490234"/>
     <use xlink:href="#DejaVuSans-20" x="238.769531"/>
     <use xlink:href="#DejaVuSans-61" x="270.556641"/>
     <use xlink:href="#DejaVuSans-6e" x="331.835938"/>
     <use xlink:href="#DejaVuSans-64" x="395.214844"/>
     <use xlink:href="#DejaVuSans-20" x="458.691406"/>
     <use xlink:href="#DejaVuSans-46" x="490.478516"/>
     <use xlink:href="#DejaVuSans-69" x="540.748047"/>
     <use xlink:href="#DejaVuSans-74" x="568.53125"/>
     <use xlink:href="#DejaVuSans-20" x="607.740234"/>
     <use xlink:href="#DejaVuSans-75" x="639.527344"/>
     <use xlink:href="#DejaVuSans-73" x="702.90625"/>
     <use xlink:href="#DejaVuSans-69" x="755.005859"/>
     <use xlink:href="#DejaVuSans-6e" x="782.789062"/>
     <use xlink:href="#DejaVuSans-67" x="846.167969"/>
     <use xlink:href="#DejaVuSans-20" x="909.644531"/>
     <use xlink:href="#DejaVuSans-61" x="941.431641"/>
     <use xlink:href="#DejaVuSans-20" x="1002.710938"/>
     <use xlink:href="#DejaVuSans-67" x="1034.498047"/>
     <use xlink:href="#DejaVuSans-61" x="1097.974609"/>
     <use xlink:href="#DejaVuSans-75" x="1159.253906"/>
     <use xlink:href="#DejaVuSans-73" x="1222.632812"/>
     <use xlink:href="#DejaVuSans-73" x="1274.732422"/>
     <use xlink:href="#DejaVuSans-69" x="1326.832031"/>
     <use xlink:href="#DejaVuSans-61" x="1354.615234"/>
     <use xlink:href="#DejaVuSans-6e" x="1415.894531"/>
     <use xlink:href="#DejaVuSans-20" x="1479.273438"/>
     <use xlink:href="#DejaVuSans-61" x="1511.060547"/>
     <use xlink:href="#DejaVuSans-70" x="1572.339844"/>
     <use xlink:href="#DejaVuSans-70" x="1635.816406"/>
     <use xlink:href="#DejaVuSans-72" x="1699.292969"/>
     <use xlink:href="#DejaVuSans-6f" x="1738.15625"/>
     <use xlink:href="#DejaVuSans-78" x="1796.212891"/>
     <use xlink:href="#DejaVuSans-69" x="1855.392578"/>
     <use xlink:href="#DejaVuSans-6d" x="1883.175781"/>
     <use xlink:href="#DejaVuSans-61" x="1980.587891"/>
     <use xlink:href="#DejaVuSans-74" x="2041.867188"/>
     <use xlink:href="#DejaVuSans-69" x="2081.076172"/>
     <use xlink:href="#DejaVuSans-6f" x="2108.859375"/>
     <use xlink:href="#DejaVuSans-6e" x="2170.041016"/>
     <use xlink:href="#DejaVuSans-20" x="2233.419922"/>
     <use xlink:href="#DejaVuSans-66" x="2265.207031"/>
     <use xlink:href="#DejaVuSans-6f" x="2300.412109"/>
     <use xlink:href="#DejaVuSans-72" x="2361.59375"/>
     <use xlink:href="#DejaVuSans-20" x="2402.707031"/>
     <use xlink:href="#DejaVuSans-74" x="2434.494141"/>
     <use xlink:href="#DejaVuSans-68" x="2473.703125"/>
     <use xlink:href="#DejaVuSans-65" x="2537.082031"/>
     <use xlink:href="#DejaVuSans-20" x="2598.605469"/>
     <use xlink:href="#DejaVuSans-58" x="2630.392578"/>
     <use xlink:href="#DejaVuSans-20" x="2698.898438"/>
     <use xlink:href="#DejaVuSans-64" x="2730.685547"/>
     <use xlink:href="#DejaVuSans-69" x="2794.162109"/>
     <use xlink:href="#DejaVuSans-72" x="2821.945312"/>
     <use xlink:href="#DejaVuSans-65" x="2860.808594"/>
     <use xlink:href="#DejaVuSans-63" x="2922.332031"/>
     <use xlink:href="#DejaVuSans-74" x="2977.3125"/>
     <use xlink:href="#DejaVuSans-69" x="3016.521484"/>
     <use xlink:href="#DejaVuSans-6f" x="3044.304688"/>
     <use xlink:href="#DejaVuSans-6e" x="3105.486328"/>
     <use xlink:href="#DejaVuSans-2e" x="3168.865234"/>
     <use xlink:href="#DejaVuSans-20" x="3200.652344"/>
    </g>
    <!-- Aperture turned 2.5cm, collimator fully right -->
    <g transform="translate(150.316688 26.93568) scale(0.12 -0.12)">
     <defs>
      <path id="DejaVuSans-41" d="M 2188 4044 
L 1331 1722 
L 3047 1722 
L 2188 4044 
z
M 1831 4666 
L 2547 4666 
L 4325 0 
L 3669 0 
L 3244 1197 
L 1141 1197 
L 716 0 
L 50 0 
L 1831 4666 
z
" transform="scale(0.015625)"/>
      <path id="DejaVuSans-2c" d="M 750 794 
L 1409 794 
L 1409 256 
L 897 -744 
L 494 -744 
L 750 256 
L 750 794 
z
" transform="scale(0.015625)"/>
     </defs>
     <use xlink:href="#DejaVuSans-41"/>
     <use xlink:href="#DejaVuSans-70" x="68.408203"/>
     <use xlink:href="#DejaVuSans-65" x="131.884766"/>
     <use xlink:href="#DejaVuSans-72" x="193.408203"/>
     <use xlink:href="#DejaVuSans-74" x="234.521484"/>
     <use xlink:href="#DejaVuSans-75" x="273.730469"/>
     <use xlink:href="#DejaVuSans-72" x="337.109375"/>
     <use xlink:href="#DejaVuSans-65" x="375.972656"/>
     <use xlink:href="#DejaVuSans-20" x="437.496094"/>
     <use xlink:href="#DejaVuSans-74" x="469.283203"/>
     <use xlink:href="#DejaVuSans-75" x="508.492188"/>
     <use xlink:href="#DejaVuSans-72" x="571.871094"/>
     <use xlink:href="#DejaVuSans-6e" x="611.234375"/>
     <use xlink:href="#DejaVuSans-65" x="674.613281"/>
     <use xlink:href="#DejaVuSans-64" x="736.136719"/>
     <use xlink:href="#DejaVuSans-20" x="799.613281"/>
     <use xlink:href="#DejaVuSans-32" x="831.400391"/>
     <use xlink:href="#DejaVuSans-2e" x="895.023438"/>
     <use xlink:href="#DejaVuSans-35" x="926.810547"/>
     <use xlink:href="#DejaVuSans-63" x="990.433594"/>
     <use xlink:href="#DejaVuSans-6d" x="1045.414062"/>
     <use xlink:href="#DejaVuSans-2c" x="1142.826172"/>
     <use xlink:href="#DejaVuSans-20" x="1174.613281"/>
     <use xlink:href="#DejaVuSans-63" x="1206.400391"/>
     <use xlink:href="#DejaVuSans-6f" x="1261.380859"/>
     <use xlink:href="#DejaVuSans-6c" x="1322.5625"/>
     <use xlink:href="#DejaVuSans-6c" x="1350.345703"/>
     <use xlink:href="#DejaVuSans-69" x="1378.128906"/>
     <use xlink:href="#DejaVuSans-6d" x="1405.912109"/>
     <use xlink:href="#DejaVuSans-61" x="1503.324219"/>
     <use xlink:href="#DejaVuSans-74" x="1564.603516"/>
     <use xlink:href="#DejaVuSans-6f" x="1603.8125"/>
     <use xlink:href="#DejaVuSans-72" x="1664.994141"/>
     <use xlink:href="#DejaVuSans-20" x="1706.107422"/>
     <use xlink:href="#DejaVuSans-66" x="1737.894531"/>
     <use xlink:href="#DejaVuSans-75" x="1773.099609"/>
     <use xlink:href="#DejaVuSans-6c" x="1836.478516"/>
     <use xlink:href="#DejaVuSans-6c" x="1864.261719"/>
     <use xlink:href="#DejaVuSans-79" x="1892.044922"/>
     <use xlink:href="#DejaVuSans-20" x="1951.224609"/>
     <use xlink:href="#DejaVuSans-72" x="1983.011719"/>
     <use xlink:href="#DejaVuSans-69" x="2024.125"/>
     <use xlink:href="#DejaVuSans-67" x="2051.908203"/>
     <use xlink:href="#DejaVuSans-68" x="2115.384766"/>
     <use xlink:href="#DejaVuSans-74" x="2178.763672"/>
    </g>
   </g>
   <g id="legend_1">
    <g id="patch_7">
     <path d="M 347.525719 73.593461 
L 491.364 73.593461 
Q 493.164 73.593461 493.164 71.793461 
L 493.164 39.23568 
Q 493.164 37.43568 491.364 37.43568 
L 347.525719 37.43568 
Q 345.725719 37.43568 345.725719 39.23568 
L 345.725719 71.793461 
Q 345.725719 73.593461 347.525719 73.593461 
z
" style="fill: #ffffff; opacity: 0.8; stroke: #cccccc; stroke-linejoin: miter"/>
    </g>
    <g id="line2d_21">
     <path d="M 349.325719 55.783867 
L 358.325719 55.783867 
L 367.325719 55.783867 
" style="fill: none; stroke: #ff7f0e; stroke-width: 1.5; stroke-linecap: square"/>
    </g>
    <g id="text_22">
     <!-- Parameters: I_0 = 19222  -->
     <g transform="translate(374.525719 47.715367) scale(0.09 -0.09)">
      <defs>
       <path id="DejaVuSans-3a" d="M 750 794 
L 1409 794 
L 1409 0 
L 750 0 
L 750 794 
z
M 750 3309 
L 1409 3309 
L 1409 2516 
L 750 2516 
L 750 3309 
z
" transform="scale(0.015625)"/>
       <path id="DejaVuSans-5f" d="M 3263 -1063 
L 3263 -1509 
L -63 -1509 
L -63 -1063 
L 3263 -1063 
z
" transform="scale(0.015625)"/>
       <path id="DejaVuSans-3d" d="M 678 2906 
L 4684 2906 
L 4684 2381 
L 678 2381 
L 678 2906 
z
M 678 1631 
L 4684 1631 
L 4684 1100 
L 678 1100 
L 678 1631 
z
" transform="scale(0.015625)"/>
      </defs>
      <use xlink:href="#DejaVuSans-50"/>
      <use xlink:href="#DejaVuSans-61" x="55.802734"/>
      <use xlink:href="#DejaVuSans-72" x="117.082031"/>
      <use xlink:href="#DejaVuSans-61" x="158.195312"/>
      <use xlink:href="#DejaVuSans-6d" x="219.474609"/>
      <use xlink:href="#DejaVuSans-65" x="316.886719"/>
      <use xlink:href="#DejaVuSans-74" x="378.410156"/>
      <use xlink:href="#DejaVuSans-65" x="417.619141"/>
      <use xlink:href="#DejaVuSans-72" x="479.142578"/>
      <use xlink:href="#DejaVuSans-73" x="520.255859"/>
      <use xlink:href="#DejaVuSans-3a" x="572.355469"/>
      <use xlink:href="#DejaVuSans-20" x="606.046875"/>
      <use xlink:href="#DejaVuSans-49" x="637.833984"/>
      <use xlink:href="#DejaVuSans-5f" x="667.326172"/>
      <use xlink:href="#DejaVuSans-30" x="717.326172"/>
      <use xlink:href="#DejaVuSans-20" x="780.949219"/>
      <use xlink:href="#DejaVuSans-3d" x="812.736328"/>
      <use xlink:href="#DejaVuSans-20" x="896.525391"/>
      <use xlink:href="#DejaVuSans-31" x="928.3125"/>
      <use xlink:href="#DejaVuSans-39" x="991.935547"/>
      <use xlink:href="#DejaVuSans-32" x="1055.558594"/>
      <use xlink:href="#DejaVuSans-32" x="1119.181641"/>
      <use xlink:href="#DejaVuSans-32" x="1182.804688"/>
      <use xlink:href="#DejaVuSans-20" x="1246.427734"/>
     </g>
     <!--  mean = 1892.7  -->
     <g transform="translate(374.525719 58.043711) scale(0.09 -0.09)">
      <use xlink:href="#DejaVuSans-20"/>
      <use xlink:href="#DejaVuSans-6d" x="31.787109"/>
      <use xlink:href="#DejaVuSans-65" x="129.199219"/>
      <use xlink:href="#DejaVuSans-61" x="190.722656"/>
      <use xlink:href="#DejaVuSans-6e" x="252.001953"/>
      <use xlink:href="#DejaVuSans-20" x="315.380859"/>
      <use xlink:href="#DejaVuSans-3d" x="347.167969"/>
      <use xlink:href="#DejaVuSans-20" x="430.957031"/>
      <use xlink:href="#DejaVuSans-31" x="462.744141"/>
      <use xlink:href="#DejaVuSans-38" x="526.367188"/>
      <use xlink:href="#DejaVuSans-39" x="589.990234"/>
      <use xlink:href="#DejaVuSans-32" x="653.613281"/>
      <use xlink:href="#DejaVuSans-2e" x="717.236328"/>
      <use xlink:href="#DejaVuSans-37" x="749.023438"/>
      <use xlink:href="#DejaVuSans-20" x="812.646484"/>
     </g>
     <!--  std = 8.07 -->
     <g transform="translate(374.525719 68.121742) scale(0.09 -0.09)">
      <use xlink:href="#DejaVuSans-20"/>
      <use xlink:href="#DejaVuSans-73" x="31.787109"/>
      <use xlink:href="#DejaVuSans-74" x="83.886719"/>
      <use xlink:href="#DejaVuSans-64" x="123.095703"/>
      <use xlink:href="#DejaVuSans-20" x="186.572266"/>
      <use xlink:href="#DejaVuSans-3d" x="218.359375"/>
      <use xlink:href="#DejaVuSans-20" x="302.148438"/>
      <use xlink:href="#DejaVuSans-38" x="333.935547"/>
      <use xlink:href="#DejaVuSans-2e" x="397.558594"/>
      <use xlink:href="#DejaVuSans-30" x="429.345703"/>
      <use xlink:href="#DejaVuSans-37" x="492.96875"/>
     </g>
    </g>
   </g>
  </g>
 </g>
 <defs>
  <clipPath id="p4ae9f11936">
   <rect x="69.12" y="32.93568" width="428.544" height="211.33728"/>
  </clipPath>
 </defs>
</svg>
