<?xml version="1.0" encoding="utf-8" standalone="no"?>
<!DOCTYPE svg PUBLIC "-//W3C//DTD SVG 1.1//EN"
  "http://www.w3.org/Graphics/SVG/1.1/DTD/svg11.dtd">
<svg xmlns:xlink="http://www.w3.org/1999/xlink" width="552.96pt" height="274.464pt" viewBox="0 0 552.96 274.464" xmlns="http://www.w3.org/2000/svg" version="1.1">
 <metadata>
  <rdf:RDF xmlns:dc="http://purl.org/dc/elements/1.1/" xmlns:cc="http://creativecommons.org/ns#" xmlns:rdf="http://www.w3.org/1999/02/22-rdf-syntax-ns#">
   <cc:Work>
    <dc:type rdf:resource="http://purl.org/dc/dcmitype/StillImage"/>
    <dc:date>2024-11-25T15:33:13.247331</dc:date>
    <dc:format>image/svg+xml</dc:format>
    <dc:creator>
     <cc:Agent>
      <dc:title>Matplotlib v3.7.2, https://matplotlib.org/</dc:title>
     </cc:Agent>
    </dc:creator>
   </cc:Work>
  </rdf:RDF>
 </metadata>
 <defs>
  <style type="text/css">*{stroke-linejoin: round; stroke-linecap: butt}</style>
 </defs>
 <g id="figure_1">
  <g id="patch_1">
   <path d="M 0 274.464 
L 552.96 274.464 
L 552.96 0 
L 0 0 
z
" style="fill: #ffffff"/>
  </g>
  <g id="axes_1">
   <g id="patch_2">
    <path d="M 69.12 244.27296 
L 497.664 244.27296 
L 497.664 32.93568 
L 69.12 32.93568 
z
" style="fill: #ffffff"/>
   </g>
   <g id="matplotlib.axis_1">
    <g id="xtick_1">
     <g id="line2d_1">
      <defs>
       <path id="mcdef4e83ee" d="M 0 0 
L 0 3.5 
" style="stroke: #000000; stroke-width: 0.8"/>
      </defs>
      <g>
       <use xlink:href="#mcdef4e83ee" x="116.915008" y="244.27296" style="stroke: #000000; stroke-width: 0.8"/>
      </g>
     </g>
     <g id="text_1">
      <!-- 1300 -->
      <g transform="translate(104.190008 258.871398) scale(0.1 -0.1)">
       <defs>
        <path id="DejaVuSans-31" d="M 794 531 
L 1825 531 
L 1825 4091 
L 703 3866 
L 703 4441 
L 1819 4666 
L 2450 4666 
L 2450 531 
L 3481 531 
L 3481 0 
L 794 0 
L 794 531 
z
" transform="scale(0.015625)"/>
        <path id="DejaVuSans-33" d="M 2597 2516 
Q 3050 2419 3304 2112 
Q 3559 1806 3559 1356 
Q 3559 666 3084 287 
Q 2609 -91 1734 -91 
Q 1441 -91 1130 -33 
Q 819 25 488 141 
L 488 750 
Q 750 597 1062 519 
Q 1375 441 1716 441 
Q 2309 441 2620 675 
Q 2931 909 2931 1356 
Q 2931 1769 2642 2001 
Q 2353 2234 1838 2234 
L 1294 2234 
L 1294 2753 
L 1863 2753 
Q 2328 2753 2575 2939 
Q 2822 3125 2822 3475 
Q 2822 3834 2567 4026 
Q 2313 4219 1838 4219 
Q 1578 4219 1281 4162 
Q 984 4106 628 3988 
L 628 4550 
Q 988 4650 1302 4700 
Q 1616 4750 1894 4750 
Q 2613 4750 3031 4423 
Q 3450 4097 3450 3541 
Q 3450 3153 3228 2886 
Q 3006 2619 2597 2516 
z
" transform="scale(0.015625)"/>
        <path id="DejaVuSans-30" d="M 2034 4250 
Q 1547 4250 1301 3770 
Q 1056 3291 1056 2328 
Q 1056 1369 1301 889 
Q 1547 409 2034 409 
Q 2525 409 2770 889 
Q 3016 1369 3016 2328 
Q 3016 3291 2770 3770 
Q 2525 4250 2034 4250 
z
M 2034 4750 
Q 2819 4750 3233 4129 
Q 3647 3509 3647 2328 
Q 3647 1150 3233 529 
Q 2819 -91 2034 -91 
Q 1250 -91 836 529 
Q 422 1150 422 2328 
Q 422 3509 836 4129 
Q 1250 4750 2034 4750 
z
" transform="scale(0.015625)"/>
       </defs>
       <use xlink:href="#DejaVuSans-31"/>
       <use xlink:href="#DejaVuSans-33" x="63.623047"/>
       <use xlink:href="#DejaVuSans-30" x="127.246094"/>
       <use xlink:href="#DejaVuSans-30" x="190.869141"/>
      </g>
     </g>
    </g>
    <g id="xtick_2">
     <g id="line2d_2">
      <g>
       <use xlink:href="#mcdef4e83ee" x="165.73524" y="244.27296" style="stroke: #000000; stroke-width: 0.8"/>
      </g>
     </g>
     <g id="text_2">
      <!-- 1350 -->
      <g transform="translate(153.01024 258.871398) scale(0.1 -0.1)">
       <defs>
        <path id="DejaVuSans-35" d="M 691 4666 
L 3169 4666 
L 3169 4134 
L 1269 4134 
L 1269 2991 
Q 1406 3038 1543 3061 
Q 1681 3084 1819 3084 
Q 2600 3084 3056 2656 
Q 3513 2228 3513 1497 
Q 3513 744 3044 326 
Q 2575 -91 1722 -91 
Q 1428 -91 1123 -41 
Q 819 9 494 109 
L 494 744 
Q 775 591 1075 516 
Q 1375 441 1709 441 
Q 2250 441 2565 725 
Q 2881 1009 2881 1497 
Q 2881 1984 2565 2268 
Q 2250 2553 1709 2553 
Q 1456 2553 1204 2497 
Q 953 2441 691 2322 
L 691 4666 
z
" transform="scale(0.015625)"/>
       </defs>
       <use xlink:href="#DejaVuSans-31"/>
       <use xlink:href="#DejaVuSans-33" x="63.623047"/>
       <use xlink:href="#DejaVuSans-35" x="127.246094"/>
       <use xlink:href="#DejaVuSans-30" x="190.869141"/>
      </g>
     </g>
    </g>
    <g id="xtick_3">
     <g id="line2d_3">
      <g>
       <use xlink:href="#mcdef4e83ee" x="214.555472" y="244.27296" style="stroke: #000000; stroke-width: 0.8"/>
      </g>
     </g>
     <g id="text_3">
      <!-- 1400 -->
      <g transform="translate(201.830472 258.871398) scale(0.1 -0.1)">
       <defs>
        <path id="DejaVuSans-34" d="M 2419 4116 
L 825 1625 
L 2419 1625 
L 2419 4116 
z
M 2253 4666 
L 3047 4666 
L 3047 1625 
L 3713 1625 
L 3713 1100 
L 3047 1100 
L 3047 0 
L 2419 0 
L 2419 1100 
L 313 1100 
L 313 1709 
L 2253 4666 
z
" transform="scale(0.015625)"/>
       </defs>
       <use xlink:href="#DejaVuSans-31"/>
       <use xlink:href="#DejaVuSans-34" x="63.623047"/>
       <use xlink:href="#DejaVuSans-30" x="127.246094"/>
       <use xlink:href="#DejaVuSans-30" x="190.869141"/>
      </g>
     </g>
    </g>
    <g id="xtick_4">
     <g id="line2d_4">
      <g>
       <use xlink:href="#mcdef4e83ee" x="263.375705" y="244.27296" style="stroke: #000000; stroke-width: 0.8"/>
      </g>
     </g>
     <g id="text_4">
      <!-- 1450 -->
      <g transform="translate(250.650705 258.871398) scale(0.1 -0.1)">
       <use xlink:href="#DejaVuSans-31"/>
       <use xlink:href="#DejaVuSans-34" x="63.623047"/>
       <use xlink:href="#DejaVuSans-35" x="127.246094"/>
       <use xlink:href="#DejaVuSans-30" x="190.869141"/>
      </g>
     </g>
    </g>
    <g id="xtick_5">
     <g id="line2d_5">
      <g>
       <use xlink:href="#mcdef4e83ee" x="312.195937" y="244.27296" style="stroke: #000000; stroke-width: 0.8"/>
      </g>
     </g>
     <g id="text_5">
      <!-- 1500 -->
      <g transform="translate(299.470937 258.871398) scale(0.1 -0.1)">
       <use xlink:href="#DejaVuSans-31"/>
       <use xlink:href="#DejaVuSans-35" x="63.623047"/>
       <use xlink:href="#DejaVuSans-30" x="127.246094"/>
       <use xlink:href="#DejaVuSans-30" x="190.869141"/>
      </g>
     </g>
    </g>
    <g id="xtick_6">
     <g id="line2d_6">
      <g>
       <use xlink:href="#mcdef4e83ee" x="361.01617" y="244.27296" style="stroke: #000000; stroke-width: 0.8"/>
      </g>
     </g>
     <g id="text_6">
      <!-- 1550 -->
      <g transform="translate(348.29117 258.871398) scale(0.1 -0.1)">
       <use xlink:href="#DejaVuSans-31"/>
       <use xlink:href="#DejaVuSans-35" x="63.623047"/>
       <use xlink:href="#DejaVuSans-35" x="127.246094"/>
       <use xlink:href="#DejaVuSans-30" x="190.869141"/>
      </g>
     </g>
    </g>
    <g id="xtick_7">
     <g id="line2d_7">
      <g>
       <use xlink:href="#mcdef4e83ee" x="409.836402" y="244.27296" style="stroke: #000000; stroke-width: 0.8"/>
      </g>
     </g>
     <g id="text_7">
      <!-- 1600 -->
      <g transform="translate(397.111402 258.871398) scale(0.1 -0.1)">
       <defs>
        <path id="DejaVuSans-36" d="M 2113 2584 
Q 1688 2584 1439 2293 
Q 1191 2003 1191 1497 
Q 1191 994 1439 701 
Q 1688 409 2113 409 
Q 2538 409 2786 701 
Q 3034 994 3034 1497 
Q 3034 2003 2786 2293 
Q 2538 2584 2113 2584 
z
M 3366 4563 
L 3366 3988 
Q 3128 4100 2886 4159 
Q 2644 4219 2406 4219 
Q 1781 4219 1451 3797 
Q 1122 3375 1075 2522 
Q 1259 2794 1537 2939 
Q 1816 3084 2150 3084 
Q 2853 3084 3261 2657 
Q 3669 2231 3669 1497 
Q 3669 778 3244 343 
Q 2819 -91 2113 -91 
Q 1303 -91 875 529 
Q 447 1150 447 2328 
Q 447 3434 972 4092 
Q 1497 4750 2381 4750 
Q 2619 4750 2861 4703 
Q 3103 4656 3366 4563 
z
" transform="scale(0.015625)"/>
       </defs>
       <use xlink:href="#DejaVuSans-31"/>
       <use xlink:href="#DejaVuSans-36" x="63.623047"/>
       <use xlink:href="#DejaVuSans-30" x="127.246094"/>
       <use xlink:href="#DejaVuSans-30" x="190.869141"/>
      </g>
     </g>
    </g>
    <g id="xtick_8">
     <g id="line2d_8">
      <g>
       <use xlink:href="#mcdef4e83ee" x="458.656634" y="244.27296" style="stroke: #000000; stroke-width: 0.8"/>
      </g>
     </g>
     <g id="text_8">
      <!-- 1650 -->
      <g transform="translate(445.931634 258.871398) scale(0.1 -0.1)">
       <use xlink:href="#DejaVuSans-31"/>
       <use xlink:href="#DejaVuSans-36" x="63.623047"/>
       <use xlink:href="#DejaVuSans-35" x="127.246094"/>
       <use xlink:href="#DejaVuSans-30" x="190.869141"/>
      </g>
     </g>
    </g>
    <g id="text_9">
     <!-- Pixel bin -->
     <g transform="translate(262.51075 272.549523) scale(0.1 -0.1)">
      <defs>
       <path id="DejaVuSans-50" d="M 1259 4147 
L 1259 2394 
L 2053 2394 
Q 2494 2394 2734 2622 
Q 2975 2850 2975 3272 
Q 2975 3691 2734 3919 
Q 2494 4147 2053 4147 
L 1259 4147 
z
M 628 4666 
L 2053 4666 
Q 2838 4666 3239 4311 
Q 3641 3956 3641 3272 
Q 3641 2581 3239 2228 
Q 2838 1875 2053 1875 
L 1259 1875 
L 1259 0 
L 628 0 
L 628 4666 
z
" transform="scale(0.015625)"/>
       <path id="DejaVuSans-69" d="M 603 3500 
L 1178 3500 
L 1178 0 
L 603 0 
L 603 3500 
z
M 603 4863 
L 1178 4863 
L 1178 4134 
L 603 4134 
L 603 4863 
z
" transform="scale(0.015625)"/>
       <path id="DejaVuSans-78" d="M 3513 3500 
L 2247 1797 
L 3578 0 
L 2900 0 
L 1881 1375 
L 863 0 
L 184 0 
L 1544 1831 
L 300 3500 
L 978 3500 
L 1906 2253 
L 2834 3500 
L 3513 3500 
z
" transform="scale(0.015625)"/>
       <path id="DejaVuSans-65" d="M 3597 1894 
L 3597 1613 
L 953 1613 
Q 991 1019 1311 708 
Q 1631 397 2203 397 
Q 2534 397 2845 478 
Q 3156 559 3463 722 
L 3463 178 
Q 3153 47 2828 -22 
Q 2503 -91 2169 -91 
Q 1331 -91 842 396 
Q 353 884 353 1716 
Q 353 2575 817 3079 
Q 1281 3584 2069 3584 
Q 2775 3584 3186 3129 
Q 3597 2675 3597 1894 
z
M 3022 2063 
Q 3016 2534 2758 2815 
Q 2500 3097 2075 3097 
Q 1594 3097 1305 2825 
Q 1016 2553 972 2059 
L 3022 2063 
z
" transform="scale(0.015625)"/>
       <path id="DejaVuSans-6c" d="M 603 4863 
L 1178 4863 
L 1178 0 
L 603 0 
L 603 4863 
z
" transform="scale(0.015625)"/>
       <path id="DejaVuSans-20" transform="scale(0.015625)"/>
       <path id="DejaVuSans-62" d="M 3116 1747 
Q 3116 2381 2855 2742 
Q 2594 3103 2138 3103 
Q 1681 3103 1420 2742 
Q 1159 2381 1159 1747 
Q 1159 1113 1420 752 
Q 1681 391 2138 391 
Q 2594 391 2855 752 
Q 3116 1113 3116 1747 
z
M 1159 2969 
Q 1341 3281 1617 3432 
Q 1894 3584 2278 3584 
Q 2916 3584 3314 3078 
Q 3713 2572 3713 1747 
Q 3713 922 3314 415 
Q 2916 -91 2278 -91 
Q 1894 -91 1617 61 
Q 1341 213 1159 525 
L 1159 0 
L 581 0 
L 581 4863 
L 1159 4863 
L 1159 2969 
z
" transform="scale(0.015625)"/>
       <path id="DejaVuSans-6e" d="M 3513 2113 
L 3513 0 
L 2938 0 
L 2938 2094 
Q 2938 2591 2744 2837 
Q 2550 3084 2163 3084 
Q 1697 3084 1428 2787 
Q 1159 2491 1159 1978 
L 1159 0 
L 581 0 
L 581 3500 
L 1159 3500 
L 1159 2956 
Q 1366 3272 1645 3428 
Q 1925 3584 2291 3584 
Q 2894 3584 3203 3211 
Q 3513 2838 3513 2113 
z
" transform="scale(0.015625)"/>
      </defs>
      <use xlink:href="#DejaVuSans-50"/>
      <use xlink:href="#DejaVuSans-69" x="58.052734"/>
      <use xlink:href="#DejaVuSans-78" x="85.835938"/>
      <use xlink:href="#DejaVuSans-65" x="141.890625"/>
      <use xlink:href="#DejaVuSans-6c" x="203.414062"/>
      <use xlink:href="#DejaVuSans-20" x="231.197266"/>
      <use xlink:href="#DejaVuSans-62" x="262.984375"/>
      <use xlink:href="#DejaVuSans-69" x="326.460938"/>
      <use xlink:href="#DejaVuSans-6e" x="354.244141"/>
     </g>
    </g>
   </g>
   <g id="matplotlib.axis_2">
    <g id="ytick_1">
     <g id="line2d_9">
      <defs>
       <path id="m0c541e7c9e" d="M 0 0 
L -3.5 0 
" style="stroke: #000000; stroke-width: 0.8"/>
      </defs>
      <g>
       <use xlink:href="#m0c541e7c9e" x="69.12" y="234.66672" style="stroke: #000000; stroke-width: 0.8"/>
      </g>
     </g>
     <g id="text_10">
      <!-- 0 -->
      <g transform="translate(55.7575 238.465939) scale(0.1 -0.1)">
       <use xlink:href="#DejaVuSans-30"/>
      </g>
     </g>
    </g>
    <g id="ytick_2">
     <g id="line2d_10">
      <g>
       <use xlink:href="#m0c541e7c9e" x="69.12" y="203.598673" style="stroke: #000000; stroke-width: 0.8"/>
      </g>
     </g>
     <g id="text_11">
      <!-- 2000 -->
      <g transform="translate(36.67 207.397892) scale(0.1 -0.1)">
       <defs>
        <path id="DejaVuSans-32" d="M 1228 531 
L 3431 531 
L 3431 0 
L 469 0 
L 469 531 
Q 828 903 1448 1529 
Q 2069 2156 2228 2338 
Q 2531 2678 2651 2914 
Q 2772 3150 2772 3378 
Q 2772 3750 2511 3984 
Q 2250 4219 1831 4219 
Q 1534 4219 1204 4116 
Q 875 4013 500 3803 
L 500 4441 
Q 881 4594 1212 4672 
Q 1544 4750 1819 4750 
Q 2544 4750 2975 4387 
Q 3406 4025 3406 3419 
Q 3406 3131 3298 2873 
Q 3191 2616 2906 2266 
Q 2828 2175 2409 1742 
Q 1991 1309 1228 531 
z
" transform="scale(0.015625)"/>
       </defs>
       <use xlink:href="#DejaVuSans-32"/>
       <use xlink:href="#DejaVuSans-30" x="63.623047"/>
       <use xlink:href="#DejaVuSans-30" x="127.246094"/>
       <use xlink:href="#DejaVuSans-30" x="190.869141"/>
      </g>
     </g>
    </g>
    <g id="ytick_3">
     <g id="line2d_11">
      <g>
       <use xlink:href="#m0c541e7c9e" x="69.12" y="172.530627" style="stroke: #000000; stroke-width: 0.8"/>
      </g>
     </g>
     <g id="text_12">
      <!-- 4000 -->
      <g transform="translate(36.67 176.329846) scale(0.1 -0.1)">
       <use xlink:href="#DejaVuSans-34"/>
       <use xlink:href="#DejaVuSans-30" x="63.623047"/>
       <use xlink:href="#DejaVuSans-30" x="127.246094"/>
       <use xlink:href="#DejaVuSans-30" x="190.869141"/>
      </g>
     </g>
    </g>
    <g id="ytick_4">
     <g id="line2d_12">
      <g>
       <use xlink:href="#m0c541e7c9e" x="69.12" y="141.46258" style="stroke: #000000; stroke-width: 0.8"/>
      </g>
     </g>
     <g id="text_13">
      <!-- 6000 -->
      <g transform="translate(36.67 145.261799) scale(0.1 -0.1)">
       <use xlink:href="#DejaVuSans-36"/>
       <use xlink:href="#DejaVuSans-30" x="63.623047"/>
       <use xlink:href="#DejaVuSans-30" x="127.246094"/>
       <use xlink:href="#DejaVuSans-30" x="190.869141"/>
      </g>
     </g>
    </g>
    <g id="ytick_5">
     <g id="line2d_13">
      <g>
       <use xlink:href="#m0c541e7c9e" x="69.12" y="110.394534" style="stroke: #000000; stroke-width: 0.8"/>
      </g>
     </g>
     <g id="text_14">
      <!-- 8000 -->
      <g transform="translate(36.67 114.193752) scale(0.1 -0.1)">
       <defs>
        <path id="DejaVuSans-38" d="M 2034 2216 
Q 1584 2216 1326 1975 
Q 1069 1734 1069 1313 
Q 1069 891 1326 650 
Q 1584 409 2034 409 
Q 2484 409 2743 651 
Q 3003 894 3003 1313 
Q 3003 1734 2745 1975 
Q 2488 2216 2034 2216 
z
M 1403 2484 
Q 997 2584 770 2862 
Q 544 3141 544 3541 
Q 544 4100 942 4425 
Q 1341 4750 2034 4750 
Q 2731 4750 3128 4425 
Q 3525 4100 3525 3541 
Q 3525 3141 3298 2862 
Q 3072 2584 2669 2484 
Q 3125 2378 3379 2068 
Q 3634 1759 3634 1313 
Q 3634 634 3220 271 
Q 2806 -91 2034 -91 
Q 1263 -91 848 271 
Q 434 634 434 1313 
Q 434 1759 690 2068 
Q 947 2378 1403 2484 
z
M 1172 3481 
Q 1172 3119 1398 2916 
Q 1625 2713 2034 2713 
Q 2441 2713 2670 2916 
Q 2900 3119 2900 3481 
Q 2900 3844 2670 4047 
Q 2441 4250 2034 4250 
Q 1625 4250 1398 4047 
Q 1172 3844 1172 3481 
z
" transform="scale(0.015625)"/>
       </defs>
       <use xlink:href="#DejaVuSans-38"/>
       <use xlink:href="#DejaVuSans-30" x="63.623047"/>
       <use xlink:href="#DejaVuSans-30" x="127.246094"/>
       <use xlink:href="#DejaVuSans-30" x="190.869141"/>
      </g>
     </g>
    </g>
    <g id="ytick_6">
     <g id="line2d_14">
      <g>
       <use xlink:href="#m0c541e7c9e" x="69.12" y="79.326487" style="stroke: #000000; stroke-width: 0.8"/>
      </g>
     </g>
     <g id="text_15">
      <!-- 10000 -->
      <g transform="translate(30.3075 83.125706) scale(0.1 -0.1)">
       <use xlink:href="#DejaVuSans-31"/>
       <use xlink:href="#DejaVuSans-30" x="63.623047"/>
       <use xlink:href="#DejaVuSans-30" x="127.246094"/>
       <use xlink:href="#DejaVuSans-30" x="190.869141"/>
       <use xlink:href="#DejaVuSans-30" x="254.492188"/>
      </g>
     </g>
    </g>
    <g id="ytick_7">
     <g id="line2d_15">
      <g>
       <use xlink:href="#m0c541e7c9e" x="69.12" y="48.258441" style="stroke: #000000; stroke-width: 0.8"/>
      </g>
     </g>
     <g id="text_16">
      <!-- 12000 -->
      <g transform="translate(30.3075 52.057659) scale(0.1 -0.1)">
       <use xlink:href="#DejaVuSans-31"/>
       <use xlink:href="#DejaVuSans-32" x="63.623047"/>
       <use xlink:href="#DejaVuSans-30" x="127.246094"/>
       <use xlink:href="#DejaVuSans-30" x="190.869141"/>
       <use xlink:href="#DejaVuSans-30" x="254.492188"/>
      </g>
     </g>
    </g>
    <g id="text_17">
     <!-- Intensity -->
     <g transform="translate(24.227813 160.36682) rotate(-90) scale(0.1 -0.1)">
      <defs>
       <path id="DejaVuSans-49" d="M 628 4666 
L 1259 4666 
L 1259 0 
L 628 0 
L 628 4666 
z
" transform="scale(0.015625)"/>
       <path id="DejaVuSans-74" d="M 1172 4494 
L 1172 3500 
L 2356 3500 
L 2356 3053 
L 1172 3053 
L 1172 1153 
Q 1172 725 1289 603 
Q 1406 481 1766 481 
L 2356 481 
L 2356 0 
L 1766 0 
Q 1100 0 847 248 
Q 594 497 594 1153 
L 594 3053 
L 172 3053 
L 172 3500 
L 594 3500 
L 594 4494 
L 1172 4494 
z
" transform="scale(0.015625)"/>
       <path id="DejaVuSans-73" d="M 2834 3397 
L 2834 2853 
Q 2591 2978 2328 3040 
Q 2066 3103 1784 3103 
Q 1356 3103 1142 2972 
Q 928 2841 928 2578 
Q 928 2378 1081 2264 
Q 1234 2150 1697 2047 
L 1894 2003 
Q 2506 1872 2764 1633 
Q 3022 1394 3022 966 
Q 3022 478 2636 193 
Q 2250 -91 1575 -91 
Q 1294 -91 989 -36 
Q 684 19 347 128 
L 347 722 
Q 666 556 975 473 
Q 1284 391 1588 391 
Q 1994 391 2212 530 
Q 2431 669 2431 922 
Q 2431 1156 2273 1281 
Q 2116 1406 1581 1522 
L 1381 1569 
Q 847 1681 609 1914 
Q 372 2147 372 2553 
Q 372 3047 722 3315 
Q 1072 3584 1716 3584 
Q 2034 3584 2315 3537 
Q 2597 3491 2834 3397 
z
" transform="scale(0.015625)"/>
       <path id="DejaVuSans-79" d="M 2059 -325 
Q 1816 -950 1584 -1140 
Q 1353 -1331 966 -1331 
L 506 -1331 
L 506 -850 
L 844 -850 
Q 1081 -850 1212 -737 
Q 1344 -625 1503 -206 
L 1606 56 
L 191 3500 
L 800 3500 
L 1894 763 
L 2988 3500 
L 3597 3500 
L 2059 -325 
z
" transform="scale(0.015625)"/>
      </defs>
      <use xlink:href="#DejaVuSans-49"/>
      <use xlink:href="#DejaVuSans-6e" x="29.492188"/>
      <use xlink:href="#DejaVuSans-74" x="92.871094"/>
      <use xlink:href="#DejaVuSans-65" x="132.080078"/>
      <use xlink:href="#DejaVuSans-6e" x="193.603516"/>
      <use xlink:href="#DejaVuSans-73" x="256.982422"/>
      <use xlink:href="#DejaVuSans-69" x="309.082031"/>
      <use xlink:href="#DejaVuSans-74" x="336.865234"/>
      <use xlink:href="#DejaVuSans-79" x="376.074219"/>
     </g>
    </g>
   </g>
   <g id="line2d_16">
    <path d="M 88.599273 231.187099 
L 90.552082 230.69001 
L 91.528487 231.932732 
L 92.504891 231.435643 
L 93.481296 231.932732 
L 94.457701 230.441466 
L 95.434105 231.435643 
L 97.386915 231.932732 
L 98.363319 231.187099 
L 99.339724 231.684188 
L 100.316129 230.938554 
L 101.292533 230.69001 
L 102.268938 232.181276 
L 103.245342 231.187099 
L 104.221747 231.684188 
L 105.198152 231.932732 
L 106.174556 231.187099 
L 107.150961 230.938554 
L 108.127366 232.429821 
L 109.10377 230.938554 
L 110.080175 231.684188 
L 111.05658 231.187099 
L 112.032984 231.684188 
L 113.009389 231.932732 
L 113.985794 230.69001 
L 114.962198 231.684188 
L 115.938603 231.684188 
L 116.915008 231.435643 
L 119.844221 231.435643 
L 120.820626 230.938554 
L 121.797031 231.435643 
L 122.773435 229.944377 
L 123.74984 231.187099 
L 124.726245 231.435643 
L 125.702649 231.187099 
L 126.679054 231.684188 
L 127.655459 230.938554 
L 128.631863 231.932732 
L 129.608268 231.932732 
L 130.584673 231.187099 
L 131.561077 231.684188 
L 132.537482 231.684188 
L 133.513887 231.187099 
L 134.490291 230.938554 
L 135.466696 230.938554 
L 136.4431 231.684188 
L 137.419505 230.938554 
L 138.39591 230.938554 
L 139.372314 230.69001 
L 140.348719 230.938554 
L 141.325124 230.938554 
L 142.301528 231.187099 
L 143.277933 231.187099 
L 145.230742 230.69001 
L 146.207147 231.187099 
L 147.183552 230.938554 
L 148.159956 230.192921 
L 149.136361 230.441466 
L 150.112766 231.435643 
L 151.08917 231.684188 
L 152.065575 231.187099 
L 154.018384 231.187099 
L 154.994789 230.441466 
L 155.971193 230.938554 
L 156.947598 230.441466 
L 157.924003 230.938554 
L 158.900407 231.187099 
L 160.853217 230.192921 
L 161.829621 229.944377 
L 162.806026 230.441466 
L 163.782431 231.187099 
L 164.758835 229.695833 
L 165.73524 230.192921 
L 166.711645 231.187099 
L 167.688049 230.192921 
L 168.664454 230.938554 
L 169.640859 230.441466 
L 170.617263 229.695833 
L 171.593668 230.938554 
L 172.570072 230.938554 
L 173.546477 229.447288 
L 174.522882 230.441466 
L 175.499286 229.447288 
L 176.475691 229.447288 
L 177.452096 229.944377 
L 178.4285 229.447288 
L 180.38131 230.441466 
L 182.334119 228.950199 
L 184.286928 229.447288 
L 185.263333 229.198744 
L 186.239738 230.441466 
L 187.216142 229.198744 
L 188.192547 229.198744 
L 189.168951 229.944377 
L 190.145356 229.198744 
L 191.121761 229.198744 
L 192.098165 228.453111 
L 193.07457 228.950199 
L 194.050975 228.950199 
L 195.027379 228.701655 
L 196.003784 227.956022 
L 196.980189 228.204566 
L 197.956593 229.447288 
L 198.932998 227.956022 
L 199.909403 227.707478 
L 200.885807 227.956022 
L 201.862212 227.210389 
L 203.815021 226.7133 
L 204.791426 225.719123 
L 205.76783 225.470578 
L 206.744235 225.470578 
L 207.72064 225.719123 
L 208.697044 224.227856 
L 209.673449 223.730768 
L 211.626258 221.245324 
L 212.602663 217.268614 
L 213.579068 219.754058 
L 214.555472 219.008425 
L 215.531877 214.78317 
L 216.508282 212.297726 
L 217.484686 213.04336 
L 218.461091 210.557916 
L 219.437496 209.06665 
L 220.4139 202.107407 
L 221.390305 193.905443 
L 222.36671 192.165632 
L 223.343114 187.443289 
L 224.319519 187.194745 
L 225.295923 189.928733 
L 226.272328 196.390887 
L 227.248733 200.367597 
L 229.201542 209.812283 
L 231.154351 213.291904 
L 232.130756 211.303549 
L 233.107161 205.835573 
L 234.083565 206.084117 
L 235.05997 208.818105 
L 236.036375 208.818105 
L 237.012779 214.037537 
L 237.989184 214.286081 
L 238.965589 210.060827 
L 239.941993 206.82975 
L 240.918398 200.616141 
L 241.894802 202.85304 
L 242.871207 203.598673 
L 244.824016 211.055005 
L 245.800421 202.85304 
L 246.776826 197.385064 
L 247.75323 201.610318 
L 248.729635 202.85304 
L 249.70604 209.06665 
L 250.682444 206.82975 
L 252.635254 193.656899 
L 253.611658 202.355952 
L 254.588063 204.095762 
L 255.564468 204.344307 
L 256.540872 201.11323 
L 257.517277 194.651076 
L 258.493681 198.627786 
L 259.470086 207.575383 
L 260.446491 206.82975 
L 261.422895 198.130697 
L 262.3993 198.379242 
L 263.375705 204.592851 
L 264.352109 202.604496 
L 265.328514 197.882153 
L 266.304919 199.621963 
L 267.281323 201.610318 
L 268.257728 197.13652 
L 269.234133 195.645254 
L 270.210537 197.882153 
L 271.186942 195.396709 
L 272.163347 191.668544 
L 273.139751 194.153987 
L 274.116156 177.998603 
L 275.09256 187.443289 
L 276.068965 188.934555 
L 277.04537 183.715124 
L 278.021774 173.27626 
L 278.998179 170.542272 
L 279.974584 171.287905 
L 280.950988 145.190746 
L 282.903798 114.868332 
L 283.880202 42.54192 
L 284.856607 145.43929 
L 285.833012 134.503338 
L 286.809416 164.080118 
L 287.785821 172.530627 
L 288.762226 169.29955 
L 289.73863 167.062651 
L 290.715035 173.773349 
L 291.69144 182.223857 
L 292.667844 181.22968 
L 293.644249 183.218035 
L 294.620653 186.697656 
L 295.597058 191.668544 
L 296.573463 185.454934 
L 297.549867 188.188922 
L 298.526272 192.414177 
L 299.502677 194.651076 
L 300.479081 192.911265 
L 301.455486 188.188922 
L 302.431891 195.396709 
L 303.408295 193.905443 
L 304.3847 196.639431 
L 305.361105 183.466579 
L 306.337509 190.674366 
L 307.313914 196.887975 
L 308.290319 199.870508 
L 309.266723 190.674366 
L 310.243128 197.882153 
L 311.219532 198.627786 
L 312.195937 203.847218 
L 313.172342 201.610318 
L 314.148746 201.361774 
L 315.125151 197.633608 
L 316.101556 201.858863 
L 317.07796 203.101585 
L 318.054365 208.321017 
L 319.03077 203.101585 
L 320.007174 202.107407 
L 320.983579 204.095762 
L 321.959984 207.575383 
L 322.936388 204.592851 
L 323.912793 205.338484 
L 324.889198 204.344307 
L 325.865602 196.887975 
L 326.842007 191.419999 
L 327.818411 198.130697 
L 328.794816 201.610318 
L 329.771221 207.575383 
L 330.747625 201.610318 
L 331.72403 196.887975 
L 332.700435 195.893798 
L 333.676839 196.390887 
L 334.653244 193.15981 
L 335.629649 197.633608 
L 336.606053 205.835573 
L 337.582458 207.326839 
L 338.558863 202.355952 
L 339.535267 193.905443 
L 340.511672 191.419999 
L 341.488077 184.212212 
L 342.464481 169.796639 
L 343.440886 170.045183 
L 344.41729 172.282082 
L 345.393695 181.975313 
L 346.3701 184.460757 
L 347.346504 199.373419 
L 348.322909 202.604496 
L 349.299314 204.592851 
L 350.275718 210.557916 
L 351.252123 215.777348 
L 352.228528 219.256969 
L 353.204932 220.251146 
L 354.181337 220.99678 
L 355.157742 219.505513 
L 356.134146 221.493868 
L 357.110551 221.742413 
L 358.086956 223.730768 
L 359.06336 224.476401 
L 360.039765 224.724945 
L 361.01617 226.7133 
L 361.992574 224.476401 
L 362.968979 226.464756 
L 363.945383 227.458933 
L 364.921788 227.956022 
L 365.898193 227.707478 
L 366.874597 228.701655 
L 367.851002 227.707478 
L 369.803811 229.198744 
L 370.780216 228.204566 
L 371.756621 228.204566 
L 372.733025 228.701655 
L 373.70943 228.453111 
L 374.685835 227.956022 
L 375.662239 229.447288 
L 376.638644 227.707478 
L 377.615049 228.204566 
L 378.591453 229.944377 
L 379.567858 229.447288 
L 380.544262 230.938554 
L 381.520667 229.447288 
L 383.473476 230.441466 
L 384.449881 229.695833 
L 385.426286 230.938554 
L 386.40269 229.944377 
L 387.379095 229.198744 
L 388.3555 229.695833 
L 389.331904 230.69001 
L 390.308309 229.198744 
L 391.284714 230.192921 
L 392.261118 231.932732 
L 393.237523 231.435643 
L 394.213928 229.944377 
L 395.190332 230.441466 
L 396.166737 231.932732 
L 397.143141 230.69001 
L 398.119546 231.435643 
L 399.095951 230.69001 
L 400.072355 230.938554 
L 402.025165 230.938554 
L 403.001569 231.435643 
L 403.977974 230.69001 
L 404.954379 231.435643 
L 405.930783 230.192921 
L 406.907188 230.69001 
L 407.883593 231.435643 
L 408.859997 230.938554 
L 409.836402 230.938554 
L 410.812807 229.944377 
L 411.789211 231.435643 
L 412.765616 230.441466 
L 413.742021 231.187099 
L 414.718425 230.69001 
L 415.69483 230.938554 
L 416.671234 230.192921 
L 417.647639 230.441466 
L 418.624044 230.192921 
L 419.600448 230.441466 
L 420.576853 231.435643 
L 421.553258 230.938554 
L 423.506067 231.435643 
L 424.482472 230.441466 
L 425.458876 231.187099 
L 426.435281 230.938554 
L 428.38809 231.435643 
L 429.364495 231.187099 
L 430.3409 231.435643 
L 431.317304 231.187099 
L 432.293709 231.684188 
L 434.246518 230.69001 
L 435.222923 231.187099 
L 436.199327 231.435643 
L 438.152137 230.938554 
L 439.128541 231.932732 
L 440.104946 230.938554 
L 441.081351 231.435643 
L 442.057755 230.69001 
L 443.03416 231.932732 
L 444.010565 230.938554 
L 444.986969 230.938554 
L 445.963374 231.684188 
L 446.939779 231.435643 
L 447.916183 230.938554 
L 448.892588 231.932732 
L 449.868992 231.435643 
L 450.845397 231.684188 
L 451.821802 230.441466 
L 452.798206 230.69001 
L 453.774611 231.435643 
L 454.751016 230.938554 
L 455.72742 231.187099 
L 456.703825 232.429821 
L 458.656634 231.435643 
L 459.633039 231.435643 
L 460.609444 231.684188 
L 461.585848 231.435643 
L 462.562253 232.181276 
L 463.538658 231.684188 
L 464.515062 231.684188 
L 465.491467 231.932732 
L 466.467871 231.932732 
L 467.444276 231.435643 
L 468.420681 231.187099 
L 469.397085 231.187099 
L 470.37349 230.938554 
L 471.349895 232.181276 
L 472.326299 231.187099 
L 473.302704 231.684188 
L 474.279109 231.187099 
L 475.255513 230.938554 
L 476.231918 231.932732 
L 477.208323 231.187099 
L 478.184727 232.429821 
L 478.184727 232.429821 
" clip-path="url(#pf07694acbf)" style="fill: none; stroke: #1f77b4; stroke-width: 1.5; stroke-linecap: square"/>
   </g>
   <g id="line2d_17">
    <path d="M 88.599273 234.66672 
L 264.352109 234.579438 
L 266.304919 234.289857 
L 267.281323 233.927577 
L 268.257728 233.2718 
L 269.234133 232.133657 
L 270.210537 230.240643 
L 271.186942 227.225091 
L 272.163347 222.627644 
L 273.139751 215.925649 
L 274.116156 206.594821 
L 275.09256 194.206776 
L 276.068965 178.554833 
L 277.04537 159.787625 
L 278.998179 115.871123 
L 280.950988 73.102738 
L 281.927393 56.82616 
L 282.903798 46.304762 
L 283.880202 42.697462 
L 284.856607 46.41182 
L 285.833012 57.028258 
L 286.809416 73.378062 
L 288.762226 116.208334 
L 290.715035 160.085026 
L 291.69144 178.80946 
L 292.667844 194.413269 
L 293.644249 206.753964 
L 294.620653 216.042485 
L 295.597058 222.709499 
L 296.573463 227.279888 
L 297.549867 230.275732 
L 298.526272 232.155167 
L 299.502677 233.284432 
L 300.479081 233.934686 
L 301.455486 234.293694 
L 303.408295 234.580425 
L 307.313914 234.663811 
L 369.803811 234.66672 
L 478.184727 234.66672 
L 478.184727 234.66672 
" clip-path="url(#pf07694acbf)" style="fill: none; stroke: #ff7f0e; stroke-width: 1.5; stroke-linecap: square"/>
   </g>
   <g id="patch_3">
    <path d="M 69.12 244.27296 
L 69.12 32.93568 
" style="fill: none; stroke: #000000; stroke-width: 0.8; stroke-linejoin: miter; stroke-linecap: square"/>
   </g>
   <g id="patch_4">
    <path d="M 497.664 244.27296 
L 497.664 32.93568 
" style="fill: none; stroke: #000000; stroke-width: 0.8; stroke-linejoin: miter; stroke-linecap: square"/>
   </g>
   <g id="patch_5">
    <path d="M 69.12 244.27296 
L 497.664 244.27296 
" style="fill: none; stroke: #000000; stroke-width: 0.8; stroke-linejoin: miter; stroke-linecap: square"/>
   </g>
   <g id="patch_6">
    <path d="M 69.12 32.93568 
L 497.664 32.93568 
" style="fill: none; stroke: #000000; stroke-width: 0.8; stroke-linejoin: miter; stroke-linecap: square"/>
   </g>
   <g id="text_18">
    <!-- Data and Fit using gaussian approximation for the Y direction.  -->
    <g transform="translate(95.4795 13.498305) scale(0.12 -0.12)">
     <defs>
      <path id="DejaVuSans-44" d="M 1259 4147 
L 1259 519 
L 2022 519 
Q 2988 519 3436 956 
Q 3884 1394 3884 2338 
Q 3884 3275 3436 3711 
Q 2988 4147 2022 4147 
L 1259 4147 
z
M 628 4666 
L 1925 4666 
Q 3281 4666 3915 4102 
Q 4550 3538 4550 2338 
Q 4550 1131 3912 565 
Q 3275 0 1925 0 
L 628 0 
L 628 4666 
z
" transform="scale(0.015625)"/>
      <path id="DejaVuSans-61" d="M 2194 1759 
Q 1497 1759 1228 1600 
Q 959 1441 959 1056 
Q 959 750 1161 570 
Q 1363 391 1709 391 
Q 2188 391 2477 730 
Q 2766 1069 2766 1631 
L 2766 1759 
L 2194 1759 
z
M 3341 1997 
L 3341 0 
L 2766 0 
L 2766 531 
Q 2569 213 2275 61 
Q 1981 -91 1556 -91 
Q 1019 -91 701 211 
Q 384 513 384 1019 
Q 384 1609 779 1909 
Q 1175 2209 1959 2209 
L 2766 2209 
L 2766 2266 
Q 2766 2663 2505 2880 
Q 2244 3097 1772 3097 
Q 1472 3097 1187 3025 
Q 903 2953 641 2809 
L 641 3341 
Q 956 3463 1253 3523 
Q 1550 3584 1831 3584 
Q 2591 3584 2966 3190 
Q 3341 2797 3341 1997 
z
" transform="scale(0.015625)"/>
      <path id="DejaVuSans-64" d="M 2906 2969 
L 2906 4863 
L 3481 4863 
L 3481 0 
L 2906 0 
L 2906 525 
Q 2725 213 2448 61 
Q 2172 -91 1784 -91 
Q 1150 -91 751 415 
Q 353 922 353 1747 
Q 353 2572 751 3078 
Q 1150 3584 1784 3584 
Q 2172 3584 2448 3432 
Q 2725 3281 2906 2969 
z
M 947 1747 
Q 947 1113 1208 752 
Q 1469 391 1925 391 
Q 2381 391 2643 752 
Q 2906 1113 2906 1747 
Q 2906 2381 2643 2742 
Q 2381 3103 1925 3103 
Q 1469 3103 1208 2742 
Q 947 2381 947 1747 
z
" transform="scale(0.015625)"/>
      <path id="DejaVuSans-46" d="M 628 4666 
L 3309 4666 
L 3309 4134 
L 1259 4134 
L 1259 2759 
L 3109 2759 
L 3109 2228 
L 1259 2228 
L 1259 0 
L 628 0 
L 628 4666 
z
" transform="scale(0.015625)"/>
      <path id="DejaVuSans-75" d="M 544 1381 
L 544 3500 
L 1119 3500 
L 1119 1403 
Q 1119 906 1312 657 
Q 1506 409 1894 409 
Q 2359 409 2629 706 
Q 2900 1003 2900 1516 
L 2900 3500 
L 3475 3500 
L 3475 0 
L 2900 0 
L 2900 538 
Q 2691 219 2414 64 
Q 2138 -91 1772 -91 
Q 1169 -91 856 284 
Q 544 659 544 1381 
z
M 1991 3584 
L 1991 3584 
z
" transform="scale(0.015625)"/>
      <path id="DejaVuSans-67" d="M 2906 1791 
Q 2906 2416 2648 2759 
Q 2391 3103 1925 3103 
Q 1463 3103 1205 2759 
Q 947 2416 947 1791 
Q 947 1169 1205 825 
Q 1463 481 1925 481 
Q 2391 481 2648 825 
Q 2906 1169 2906 1791 
z
M 3481 434 
Q 3481 -459 3084 -895 
Q 2688 -1331 1869 -1331 
Q 1566 -1331 1297 -1286 
Q 1028 -1241 775 -1147 
L 775 -588 
Q 1028 -725 1275 -790 
Q 1522 -856 1778 -856 
Q 2344 -856 2625 -561 
Q 2906 -266 2906 331 
L 2906 616 
Q 2728 306 2450 153 
Q 2172 0 1784 0 
Q 1141 0 747 490 
Q 353 981 353 1791 
Q 353 2603 747 3093 
Q 1141 3584 1784 3584 
Q 2172 3584 2450 3431 
Q 2728 3278 2906 2969 
L 2906 3500 
L 3481 3500 
L 3481 434 
z
" transform="scale(0.015625)"/>
      <path id="DejaVuSans-70" d="M 1159 525 
L 1159 -1331 
L 581 -1331 
L 581 3500 
L 1159 3500 
L 1159 2969 
Q 1341 3281 1617 3432 
Q 1894 3584 2278 3584 
Q 2916 3584 3314 3078 
Q 3713 2572 3713 1747 
Q 3713 922 3314 415 
Q 2916 -91 2278 -91 
Q 1894 -91 1617 61 
Q 1341 213 1159 525 
z
M 3116 1747 
Q 3116 2381 2855 2742 
Q 2594 3103 2138 3103 
Q 1681 3103 1420 2742 
Q 1159 2381 1159 1747 
Q 1159 1113 1420 752 
Q 1681 391 2138 391 
Q 2594 391 2855 752 
Q 3116 1113 3116 1747 
z
" transform="scale(0.015625)"/>
      <path id="DejaVuSans-72" d="M 2631 2963 
Q 2534 3019 2420 3045 
Q 2306 3072 2169 3072 
Q 1681 3072 1420 2755 
Q 1159 2438 1159 1844 
L 1159 0 
L 581 0 
L 581 3500 
L 1159 3500 
L 1159 2956 
Q 1341 3275 1631 3429 
Q 1922 3584 2338 3584 
Q 2397 3584 2469 3576 
Q 2541 3569 2628 3553 
L 2631 2963 
z
" transform="scale(0.015625)"/>
      <path id="DejaVuSans-6f" d="M 1959 3097 
Q 1497 3097 1228 2736 
Q 959 2375 959 1747 
Q 959 1119 1226 758 
Q 1494 397 1959 397 
Q 2419 397 2687 759 
Q 2956 1122 2956 1747 
Q 2956 2369 2687 2733 
Q 2419 3097 1959 3097 
z
M 1959 3584 
Q 2709 3584 3137 3096 
Q 3566 2609 3566 1747 
Q 3566 888 3137 398 
Q 2709 -91 1959 -91 
Q 1206 -91 779 398 
Q 353 888 353 1747 
Q 353 2609 779 3096 
Q 1206 3584 1959 3584 
z
" transform="scale(0.015625)"/>
      <path id="DejaVuSans-6d" d="M 3328 2828 
Q 3544 3216 3844 3400 
Q 4144 3584 4550 3584 
Q 5097 3584 5394 3201 
Q 5691 2819 5691 2113 
L 5691 0 
L 5113 0 
L 5113 2094 
Q 5113 2597 4934 2840 
Q 4756 3084 4391 3084 
Q 3944 3084 3684 2787 
Q 3425 2491 3425 1978 
L 3425 0 
L 2847 0 
L 2847 2094 
Q 2847 2600 2669 2842 
Q 2491 3084 2119 3084 
Q 1678 3084 1418 2786 
Q 1159 2488 1159 1978 
L 1159 0 
L 581 0 
L 581 3500 
L 1159 3500 
L 1159 2956 
Q 1356 3278 1631 3431 
Q 1906 3584 2284 3584 
Q 2666 3584 2933 3390 
Q 3200 3197 3328 2828 
z
" transform="scale(0.015625)"/>
      <path id="DejaVuSans-66" d="M 2375 4863 
L 2375 4384 
L 1825 4384 
Q 1516 4384 1395 4259 
Q 1275 4134 1275 3809 
L 1275 3500 
L 2222 3500 
L 2222 3053 
L 1275 3053 
L 1275 0 
L 697 0 
L 697 3053 
L 147 3053 
L 147 3500 
L 697 3500 
L 697 3744 
Q 697 4328 969 4595 
Q 1241 4863 1831 4863 
L 2375 4863 
z
" transform="scale(0.015625)"/>
      <path id="DejaVuSans-68" d="M 3513 2113 
L 3513 0 
L 2938 0 
L 2938 2094 
Q 2938 2591 2744 2837 
Q 2550 3084 2163 3084 
Q 1697 3084 1428 2787 
Q 1159 2491 1159 1978 
L 1159 0 
L 581 0 
L 581 4863 
L 1159 4863 
L 1159 2956 
Q 1366 3272 1645 3428 
Q 1925 3584 2291 3584 
Q 2894 3584 3203 3211 
Q 3513 2838 3513 2113 
z
" transform="scale(0.015625)"/>
      <path id="DejaVuSans-59" d="M -13 4666 
L 666 4666 
L 1959 2747 
L 3244 4666 
L 3922 4666 
L 2272 2222 
L 2272 0 
L 1638 0 
L 1638 2222 
L -13 4666 
z
" transform="scale(0.015625)"/>
      <path id="DejaVuSans-63" d="M 3122 3366 
L 3122 2828 
Q 2878 2963 2633 3030 
Q 2388 3097 2138 3097 
Q 1578 3097 1268 2742 
Q 959 2388 959 1747 
Q 959 1106 1268 751 
Q 1578 397 2138 397 
Q 2388 397 2633 464 
Q 2878 531 3122 666 
L 3122 134 
Q 2881 22 2623 -34 
Q 2366 -91 2075 -91 
Q 1284 -91 818 406 
Q 353 903 353 1747 
Q 353 2603 823 3093 
Q 1294 3584 2113 3584 
Q 2378 3584 2631 3529 
Q 2884 3475 3122 3366 
z
" transform="scale(0.015625)"/>
      <path id="DejaVuSans-2e" d="M 684 794 
L 1344 794 
L 1344 0 
L 684 0 
L 684 794 
z
" transform="scale(0.015625)"/>
     </defs>
     <use xlink:href="#DejaVuSans-44"/>
     <use xlink:href="#DejaVuSans-61" x="77.001953"/>
     <use xlink:href="#DejaVuSans-74" x="138.28125"/>
     <use xlink:href="#DejaVuSans-61" x="177.490234"/>
     <use xlink:href="#DejaVuSans-20" x="238.769531"/>
     <use xlink:href="#DejaVuSans-61" x="270.556641"/>
     <use xlink:href="#DejaVuSans-6e" x="331.835938"/>
     <use xlink:href="#DejaVuSans-64" x="395.214844"/>
     <use xlink:href="#DejaVuSans-20" x="458.691406"/>
     <use xlink:href="#DejaVuSans-46" x="490.478516"/>
     <use xlink:href="#DejaVuSans-69" x="540.748047"/>
     <use xlink:href="#DejaVuSans-74" x="568.53125"/>
     <use xlink:href="#DejaVuSans-20" x="607.740234"/>
     <use xlink:href="#DejaVuSans-75" x="639.527344"/>
     <use xlink:href="#DejaVuSans-73" x="702.90625"/>
     <use xlink:href="#DejaVuSans-69" x="755.005859"/>
     <use xlink:href="#DejaVuSans-6e" x="782.789062"/>
     <use xlink:href="#DejaVuSans-67" x="846.167969"/>
     <use xlink:href="#DejaVuSans-20" x="909.644531"/>
     <use xlink:href="#DejaVuSans-67" x="941.431641"/>
     <use xlink:href="#DejaVuSans-61" x="1004.908203"/>
     <use xlink:href="#DejaVuSans-75" x="1066.1875"/>
     <use xlink:href="#DejaVuSans-73" x="1129.566406"/>
     <use xlink:href="#DejaVuSans-73" x="1181.666016"/>
     <use xlink:href="#DejaVuSans-69" x="1233.765625"/>
     <use xlink:href="#DejaVuSans-61" x="1261.548828"/>
     <use xlink:href="#DejaVuSans-6e" x="1322.828125"/>
     <use xlink:href="#DejaVuSans-20" x="1386.207031"/>
     <use xlink:href="#DejaVuSans-61" x="1417.994141"/>
     <use xlink:href="#DejaVuSans-70" x="1479.273438"/>
     <use xlink:href="#DejaVuSans-70" x="1542.75"/>
     <use xlink:href="#DejaVuSans-72" x="1606.226562"/>
     <use xlink:href="#DejaVuSans-6f" x="1645.089844"/>
     <use xlink:href="#DejaVuSans-78" x="1703.146484"/>
     <use xlink:href="#DejaVuSans-69" x="1762.326172"/>
     <use xlink:href="#DejaVuSans-6d" x="1790.109375"/>
     <use xlink:href="#DejaVuSans-61" x="1887.521484"/>
     <use xlink:href="#DejaVuSans-74" x="1948.800781"/>
     <use xlink:href="#DejaVuSans-69" x="1988.009766"/>
     <use xlink:href="#DejaVuSans-6f" x="2015.792969"/>
     <use xlink:href="#DejaVuSans-6e" x="2076.974609"/>
     <use xlink:href="#DejaVuSans-20" x="2140.353516"/>
     <use xlink:href="#DejaVuSans-66" x="2172.140625"/>
     <use xlink:href="#DejaVuSans-6f" x="2207.345703"/>
     <use xlink:href="#DejaVuSans-72" x="2268.527344"/>
     <use xlink:href="#DejaVuSans-20" x="2309.640625"/>
     <use xlink:href="#DejaVuSans-74" x="2341.427734"/>
     <use xlink:href="#DejaVuSans-68" x="2380.636719"/>
     <use xlink:href="#DejaVuSans-65" x="2444.015625"/>
     <use xlink:href="#DejaVuSans-20" x="2505.539062"/>
     <use xlink:href="#DejaVuSans-59" x="2537.326172"/>
     <use xlink:href="#DejaVuSans-20" x="2598.410156"/>
     <use xlink:href="#DejaVuSans-64" x="2630.197266"/>
     <use xlink:href="#DejaVuSans-69" x="2693.673828"/>
     <use xlink:href="#DejaVuSans-72" x="2721.457031"/>
     <use xlink:href="#DejaVuSans-65" x="2760.320312"/>
     <use xlink:href="#DejaVuSans-63" x="2821.84375"/>
     <use xlink:href="#DejaVuSans-74" x="2876.824219"/>
     <use xlink:href="#DejaVuSans-69" x="2916.033203"/>
     <use xlink:href="#DejaVuSans-6f" x="2943.816406"/>
     <use xlink:href="#DejaVuSans-6e" x="3004.998047"/>
     <use xlink:href="#DejaVuSans-2e" x="3068.376953"/>
     <use xlink:href="#DejaVuSans-20" x="3100.164062"/>
    </g>
    <!-- Aperture wide open, collimator two turns left -->
    <g transform="translate(148.6695 26.93568) scale(0.12 -0.12)">
     <defs>
      <path id="DejaVuSans-41" d="M 2188 4044 
L 1331 1722 
L 3047 1722 
L 2188 4044 
z
M 1831 4666 
L 2547 4666 
L 4325 0 
L 3669 0 
L 3244 1197 
L 1141 1197 
L 716 0 
L 50 0 
L 1831 4666 
z
" transform="scale(0.015625)"/>
      <path id="DejaVuSans-77" d="M 269 3500 
L 844 3500 
L 1563 769 
L 2278 3500 
L 2956 3500 
L 3675 769 
L 4391 3500 
L 4966 3500 
L 4050 0 
L 3372 0 
L 2619 2869 
L 1863 0 
L 1184 0 
L 269 3500 
z
" transform="scale(0.015625)"/>
      <path id="DejaVuSans-2c" d="M 750 794 
L 1409 794 
L 1409 256 
L 897 -744 
L 494 -744 
L 750 256 
L 750 794 
z
" transform="scale(0.015625)"/>
     </defs>
     <use xlink:href="#DejaVuSans-41"/>
     <use xlink:href="#DejaVuSans-70" x="68.408203"/>
     <use xlink:href="#DejaVuSans-65" x="131.884766"/>
     <use xlink:href="#DejaVuSans-72" x="193.408203"/>
     <use xlink:href="#DejaVuSans-74" x="234.521484"/>
     <use xlink:href="#DejaVuSans-75" x="273.730469"/>
     <use xlink:href="#DejaVuSans-72" x="337.109375"/>
     <use xlink:href="#DejaVuSans-65" x="375.972656"/>
     <use xlink:href="#DejaVuSans-20" x="437.496094"/>
     <use xlink:href="#DejaVuSans-77" x="469.283203"/>
     <use xlink:href="#DejaVuSans-69" x="551.070312"/>
     <use xlink:href="#DejaVuSans-64" x="578.853516"/>
     <use xlink:href="#DejaVuSans-65" x="642.330078"/>
     <use xlink:href="#DejaVuSans-20" x="703.853516"/>
     <use xlink:href="#DejaVuSans-6f" x="735.640625"/>
     <use xlink:href="#DejaVuSans-70" x="796.822266"/>
     <use xlink:href="#DejaVuSans-65" x="860.298828"/>
     <use xlink:href="#DejaVuSans-6e" x="921.822266"/>
     <use xlink:href="#DejaVuSans-2c" x="985.201172"/>
     <use xlink:href="#DejaVuSans-20" x="1016.988281"/>
     <use xlink:href="#DejaVuSans-63" x="1048.775391"/>
     <use xlink:href="#DejaVuSans-6f" x="1103.755859"/>
     <use xlink:href="#DejaVuSans-6c" x="1164.9375"/>
     <use xlink:href="#DejaVuSans-6c" x="1192.720703"/>
     <use xlink:href="#DejaVuSans-69" x="1220.503906"/>
     <use xlink:href="#DejaVuSans-6d" x="1248.287109"/>
     <use xlink:href="#DejaVuSans-61" x="1345.699219"/>
     <use xlink:href="#DejaVuSans-74" x="1406.978516"/>
     <use xlink:href="#DejaVuSans-6f" x="1446.1875"/>
     <use xlink:href="#DejaVuSans-72" x="1507.369141"/>
     <use xlink:href="#DejaVuSans-20" x="1548.482422"/>
     <use xlink:href="#DejaVuSans-74" x="1580.269531"/>
     <use xlink:href="#DejaVuSans-77" x="1619.478516"/>
     <use xlink:href="#DejaVuSans-6f" x="1701.265625"/>
     <use xlink:href="#DejaVuSans-20" x="1762.447266"/>
     <use xlink:href="#DejaVuSans-74" x="1794.234375"/>
     <use xlink:href="#DejaVuSans-75" x="1833.443359"/>
     <use xlink:href="#DejaVuSans-72" x="1896.822266"/>
     <use xlink:href="#DejaVuSans-6e" x="1936.185547"/>
     <use xlink:href="#DejaVuSans-73" x="1999.564453"/>
     <use xlink:href="#DejaVuSans-20" x="2051.664062"/>
     <use xlink:href="#DejaVuSans-6c" x="2083.451172"/>
     <use xlink:href="#DejaVuSans-65" x="2111.234375"/>
     <use xlink:href="#DejaVuSans-66" x="2172.757812"/>
     <use xlink:href="#DejaVuSans-74" x="2206.212891"/>
    </g>
   </g>
   <g id="legend_1">
    <g id="patch_7">
     <path d="M 347.525719 73.593461 
L 491.364 73.593461 
Q 493.164 73.593461 493.164 71.793461 
L 493.164 39.23568 
Q 493.164 37.43568 491.364 37.43568 
L 347.525719 37.43568 
Q 345.725719 37.43568 345.725719 39.23568 
L 345.725719 71.793461 
Q 345.725719 73.593461 347.525719 73.593461 
z
" style="fill: #ffffff; opacity: 0.8; stroke: #cccccc; stroke-linejoin: miter"/>
    </g>
    <g id="line2d_18">
     <path d="M 349.325719 55.783867 
L 358.325719 55.783867 
L 367.325719 55.783867 
" style="fill: none; stroke: #ff7f0e; stroke-width: 1.5; stroke-linecap: square"/>
    </g>
    <g id="text_19">
     <!-- Parameters: I_0 = 12358  -->
     <g transform="translate(374.525719 47.715367) scale(0.09 -0.09)">
      <defs>
       <path id="DejaVuSans-3a" d="M 750 794 
L 1409 794 
L 1409 0 
L 750 0 
L 750 794 
z
M 750 3309 
L 1409 3309 
L 1409 2516 
L 750 2516 
L 750 3309 
z
" transform="scale(0.015625)"/>
       <path id="DejaVuSans-5f" d="M 3263 -1063 
L 3263 -1509 
L -63 -1509 
L -63 -1063 
L 3263 -1063 
z
" transform="scale(0.015625)"/>
       <path id="DejaVuSans-3d" d="M 678 2906 
L 4684 2906 
L 4684 2381 
L 678 2381 
L 678 2906 
z
M 678 1631 
L 4684 1631 
L 4684 1100 
L 678 1100 
L 678 1631 
z
" transform="scale(0.015625)"/>
      </defs>
      <use xlink:href="#DejaVuSans-50"/>
      <use xlink:href="#DejaVuSans-61" x="55.802734"/>
      <use xlink:href="#DejaVuSans-72" x="117.082031"/>
      <use xlink:href="#DejaVuSans-61" x="158.195312"/>
      <use xlink:href="#DejaVuSans-6d" x="219.474609"/>
      <use xlink:href="#DejaVuSans-65" x="316.886719"/>
      <use xlink:href="#DejaVuSans-74" x="378.410156"/>
      <use xlink:href="#DejaVuSans-65" x="417.619141"/>
      <use xlink:href="#DejaVuSans-72" x="479.142578"/>
      <use xlink:href="#DejaVuSans-73" x="520.255859"/>
      <use xlink:href="#DejaVuSans-3a" x="572.355469"/>
      <use xlink:href="#DejaVuSans-20" x="606.046875"/>
      <use xlink:href="#DejaVuSans-49" x="637.833984"/>
      <use xlink:href="#DejaVuSans-5f" x="667.326172"/>
      <use xlink:href="#DejaVuSans-30" x="717.326172"/>
      <use xlink:href="#DejaVuSans-20" x="780.949219"/>
      <use xlink:href="#DejaVuSans-3d" x="812.736328"/>
      <use xlink:href="#DejaVuSans-20" x="896.525391"/>
      <use xlink:href="#DejaVuSans-31" x="928.3125"/>
      <use xlink:href="#DejaVuSans-32" x="991.935547"/>
      <use xlink:href="#DejaVuSans-33" x="1055.558594"/>
      <use xlink:href="#DejaVuSans-35" x="1119.181641"/>
      <use xlink:href="#DejaVuSans-38" x="1182.804688"/>
      <use xlink:href="#DejaVuSans-20" x="1246.427734"/>
     </g>
     <!--  mean = 1471.0  -->
     <g transform="translate(374.525719 58.043711) scale(0.09 -0.09)">
      <defs>
       <path id="DejaVuSans-37" d="M 525 4666 
L 3525 4666 
L 3525 4397 
L 1831 0 
L 1172 0 
L 2766 4134 
L 525 4134 
L 525 4666 
z
" transform="scale(0.015625)"/>
      </defs>
      <use xlink:href="#DejaVuSans-20"/>
      <use xlink:href="#DejaVuSans-6d" x="31.787109"/>
      <use xlink:href="#DejaVuSans-65" x="129.199219"/>
      <use xlink:href="#DejaVuSans-61" x="190.722656"/>
      <use xlink:href="#DejaVuSans-6e" x="252.001953"/>
      <use xlink:href="#DejaVuSans-20" x="315.380859"/>
      <use xlink:href="#DejaVuSans-3d" x="347.167969"/>
      <use xlink:href="#DejaVuSans-20" x="430.957031"/>
      <use xlink:href="#DejaVuSans-31" x="462.744141"/>
      <use xlink:href="#DejaVuSans-34" x="526.367188"/>
      <use xlink:href="#DejaVuSans-37" x="589.990234"/>
      <use xlink:href="#DejaVuSans-31" x="653.613281"/>
      <use xlink:href="#DejaVuSans-2e" x="717.236328"/>
      <use xlink:href="#DejaVuSans-30" x="749.023438"/>
      <use xlink:href="#DejaVuSans-20" x="812.646484"/>
     </g>
     <!--  std = 5.1 -->
     <g transform="translate(374.525719 68.121742) scale(0.09 -0.09)">
      <use xlink:href="#DejaVuSans-20"/>
      <use xlink:href="#DejaVuSans-73" x="31.787109"/>
      <use xlink:href="#DejaVuSans-74" x="83.886719"/>
      <use xlink:href="#DejaVuSans-64" x="123.095703"/>
      <use xlink:href="#DejaVuSans-20" x="186.572266"/>
      <use xlink:href="#DejaVuSans-3d" x="218.359375"/>
      <use xlink:href="#DejaVuSans-20" x="302.148438"/>
      <use xlink:href="#DejaVuSans-35" x="333.935547"/>
      <use xlink:href="#DejaVuSans-2e" x="397.558594"/>
      <use xlink:href="#DejaVuSans-31" x="429.345703"/>
     </g>
    </g>
   </g>
  </g>
 </g>
 <defs>
  <clipPath id="pf07694acbf">
   <rect x="69.12" y="32.93568" width="428.544" height="211.33728"/>
  </clipPath>
 </defs>
</svg>
