<?xml version="1.0" encoding="utf-8" standalone="no"?>
<!DOCTYPE svg PUBLIC "-//W3C//DTD SVG 1.1//EN"
  "http://www.w3.org/Graphics/SVG/1.1/DTD/svg11.dtd">
<svg xmlns:xlink="http://www.w3.org/1999/xlink" width="437.316923pt" height="359.778462pt" viewBox="0 0 437.316923 359.778462" xmlns="http://www.w3.org/2000/svg" version="1.1">
 <metadata>
  <rdf:RDF xmlns:dc="http://purl.org/dc/elements/1.1/" xmlns:cc="http://creativecommons.org/ns#" xmlns:rdf="http://www.w3.org/1999/02/22-rdf-syntax-ns#">
   <cc:Work>
    <dc:type rdf:resource="http://purl.org/dc/dcmitype/StillImage"/>
    <dc:date>2024-12-07T12:23:41.822043</dc:date>
    <dc:format>image/svg+xml</dc:format>
    <dc:creator>
     <cc:Agent>
      <dc:title>Matplotlib v3.7.2, https://matplotlib.org/</dc:title>
     </cc:Agent>
    </dc:creator>
   </cc:Work>
  </rdf:RDF>
 </metadata>
 <defs>
  <style type="text/css">*{stroke-linejoin: round; stroke-linecap: butt}</style>
 </defs>
 <g id="figure_1">
  <g id="patch_1">
   <path d="M 0 359.778462 
L 437.316923 359.778462 
L 437.316923 0 
L 0 0 
z
" style="fill: #ffffff"/>
  </g>
  <g id="axes_1">
   <g id="patch_2">
    <path d="M 54.664615 320.202831 
L 393.585231 320.202831 
L 393.585231 43.173415 
L 54.664615 43.173415 
z
" style="fill: #ffffff"/>
   </g>
   <g id="matplotlib.axis_1">
    <g id="xtick_1">
     <g id="line2d_1">
      <defs>
       <path id="m963e4f0d78" d="M 0 0 
L 0 3.5 
" style="stroke: #000000; stroke-width: 0.8"/>
      </defs>
      <g>
       <use xlink:href="#m963e4f0d78" x="88.556677" y="320.202831" style="stroke: #000000; stroke-width: 0.8"/>
      </g>
     </g>
     <g id="text_1">
      <!-- −20 -->
      <g transform="translate(78.004333 334.801268) scale(0.1 -0.1)">
       <defs>
        <path id="DejaVuSans-2212" d="M 678 2272 
L 4684 2272 
L 4684 1741 
L 678 1741 
L 678 2272 
z
" transform="scale(0.015625)"/>
        <path id="DejaVuSans-32" d="M 1228 531 
L 3431 531 
L 3431 0 
L 469 0 
L 469 531 
Q 828 903 1448 1529 
Q 2069 2156 2228 2338 
Q 2531 2678 2651 2914 
Q 2772 3150 2772 3378 
Q 2772 3750 2511 3984 
Q 2250 4219 1831 4219 
Q 1534 4219 1204 4116 
Q 875 4013 500 3803 
L 500 4441 
Q 881 4594 1212 4672 
Q 1544 4750 1819 4750 
Q 2544 4750 2975 4387 
Q 3406 4025 3406 3419 
Q 3406 3131 3298 2873 
Q 3191 2616 2906 2266 
Q 2828 2175 2409 1742 
Q 1991 1309 1228 531 
z
" transform="scale(0.015625)"/>
        <path id="DejaVuSans-30" d="M 2034 4250 
Q 1547 4250 1301 3770 
Q 1056 3291 1056 2328 
Q 1056 1369 1301 889 
Q 1547 409 2034 409 
Q 2525 409 2770 889 
Q 3016 1369 3016 2328 
Q 3016 3291 2770 3770 
Q 2525 4250 2034 4250 
z
M 2034 4750 
Q 2819 4750 3233 4129 
Q 3647 3509 3647 2328 
Q 3647 1150 3233 529 
Q 2819 -91 2034 -91 
Q 1250 -91 836 529 
Q 422 1150 422 2328 
Q 422 3509 836 4129 
Q 1250 4750 2034 4750 
z
" transform="scale(0.015625)"/>
       </defs>
       <use xlink:href="#DejaVuSans-2212"/>
       <use xlink:href="#DejaVuSans-32" x="83.789062"/>
       <use xlink:href="#DejaVuSans-30" x="147.412109"/>
      </g>
     </g>
    </g>
    <g id="xtick_2">
     <g id="line2d_2">
      <g>
       <use xlink:href="#m963e4f0d78" x="156.3408" y="320.202831" style="stroke: #000000; stroke-width: 0.8"/>
      </g>
     </g>
     <g id="text_2">
      <!-- 0 -->
      <g transform="translate(153.15955 334.801268) scale(0.1 -0.1)">
       <use xlink:href="#DejaVuSans-30"/>
      </g>
     </g>
    </g>
    <g id="xtick_3">
     <g id="line2d_3">
      <g>
       <use xlink:href="#m963e4f0d78" x="224.124923" y="320.202831" style="stroke: #000000; stroke-width: 0.8"/>
      </g>
     </g>
     <g id="text_3">
      <!-- 20 -->
      <g transform="translate(217.762423 334.801268) scale(0.1 -0.1)">
       <use xlink:href="#DejaVuSans-32"/>
       <use xlink:href="#DejaVuSans-30" x="63.623047"/>
      </g>
     </g>
    </g>
    <g id="xtick_4">
     <g id="line2d_4">
      <g>
       <use xlink:href="#m963e4f0d78" x="291.909046" y="320.202831" style="stroke: #000000; stroke-width: 0.8"/>
      </g>
     </g>
     <g id="text_4">
      <!-- 40 -->
      <g transform="translate(285.546546 334.801268) scale(0.1 -0.1)">
       <defs>
        <path id="DejaVuSans-34" d="M 2419 4116 
L 825 1625 
L 2419 1625 
L 2419 4116 
z
M 2253 4666 
L 3047 4666 
L 3047 1625 
L 3713 1625 
L 3713 1100 
L 3047 1100 
L 3047 0 
L 2419 0 
L 2419 1100 
L 313 1100 
L 313 1709 
L 2253 4666 
z
" transform="scale(0.015625)"/>
       </defs>
       <use xlink:href="#DejaVuSans-34"/>
       <use xlink:href="#DejaVuSans-30" x="63.623047"/>
      </g>
     </g>
    </g>
    <g id="xtick_5">
     <g id="line2d_5">
      <g>
       <use xlink:href="#m963e4f0d78" x="359.693169" y="320.202831" style="stroke: #000000; stroke-width: 0.8"/>
      </g>
     </g>
     <g id="text_5">
      <!-- 60 -->
      <g transform="translate(353.330669 334.801268) scale(0.1 -0.1)">
       <defs>
        <path id="DejaVuSans-36" d="M 2113 2584 
Q 1688 2584 1439 2293 
Q 1191 2003 1191 1497 
Q 1191 994 1439 701 
Q 1688 409 2113 409 
Q 2538 409 2786 701 
Q 3034 994 3034 1497 
Q 3034 2003 2786 2293 
Q 2538 2584 2113 2584 
z
M 3366 4563 
L 3366 3988 
Q 3128 4100 2886 4159 
Q 2644 4219 2406 4219 
Q 1781 4219 1451 3797 
Q 1122 3375 1075 2522 
Q 1259 2794 1537 2939 
Q 1816 3084 2150 3084 
Q 2853 3084 3261 2657 
Q 3669 2231 3669 1497 
Q 3669 778 3244 343 
Q 2819 -91 2113 -91 
Q 1303 -91 875 529 
Q 447 1150 447 2328 
Q 447 3434 972 4092 
Q 1497 4750 2381 4750 
Q 2619 4750 2861 4703 
Q 3103 4656 3366 4563 
z
" transform="scale(0.015625)"/>
       </defs>
       <use xlink:href="#DejaVuSans-36"/>
       <use xlink:href="#DejaVuSans-30" x="63.623047"/>
      </g>
     </g>
    </g>
    <g id="text_6">
     <!-- time (ns) -->
     <g transform="translate(201.564767 348.479393) scale(0.1 -0.1)">
      <defs>
       <path id="DejaVuSans-74" d="M 1172 4494 
L 1172 3500 
L 2356 3500 
L 2356 3053 
L 1172 3053 
L 1172 1153 
Q 1172 725 1289 603 
Q 1406 481 1766 481 
L 2356 481 
L 2356 0 
L 1766 0 
Q 1100 0 847 248 
Q 594 497 594 1153 
L 594 3053 
L 172 3053 
L 172 3500 
L 594 3500 
L 594 4494 
L 1172 4494 
z
" transform="scale(0.015625)"/>
       <path id="DejaVuSans-69" d="M 603 3500 
L 1178 3500 
L 1178 0 
L 603 0 
L 603 3500 
z
M 603 4863 
L 1178 4863 
L 1178 4134 
L 603 4134 
L 603 4863 
z
" transform="scale(0.015625)"/>
       <path id="DejaVuSans-6d" d="M 3328 2828 
Q 3544 3216 3844 3400 
Q 4144 3584 4550 3584 
Q 5097 3584 5394 3201 
Q 5691 2819 5691 2113 
L 5691 0 
L 5113 0 
L 5113 2094 
Q 5113 2597 4934 2840 
Q 4756 3084 4391 3084 
Q 3944 3084 3684 2787 
Q 3425 2491 3425 1978 
L 3425 0 
L 2847 0 
L 2847 2094 
Q 2847 2600 2669 2842 
Q 2491 3084 2119 3084 
Q 1678 3084 1418 2786 
Q 1159 2488 1159 1978 
L 1159 0 
L 581 0 
L 581 3500 
L 1159 3500 
L 1159 2956 
Q 1356 3278 1631 3431 
Q 1906 3584 2284 3584 
Q 2666 3584 2933 3390 
Q 3200 3197 3328 2828 
z
" transform="scale(0.015625)"/>
       <path id="DejaVuSans-65" d="M 3597 1894 
L 3597 1613 
L 953 1613 
Q 991 1019 1311 708 
Q 1631 397 2203 397 
Q 2534 397 2845 478 
Q 3156 559 3463 722 
L 3463 178 
Q 3153 47 2828 -22 
Q 2503 -91 2169 -91 
Q 1331 -91 842 396 
Q 353 884 353 1716 
Q 353 2575 817 3079 
Q 1281 3584 2069 3584 
Q 2775 3584 3186 3129 
Q 3597 2675 3597 1894 
z
M 3022 2063 
Q 3016 2534 2758 2815 
Q 2500 3097 2075 3097 
Q 1594 3097 1305 2825 
Q 1016 2553 972 2059 
L 3022 2063 
z
" transform="scale(0.015625)"/>
       <path id="DejaVuSans-20" transform="scale(0.015625)"/>
       <path id="DejaVuSans-28" d="M 1984 4856 
Q 1566 4138 1362 3434 
Q 1159 2731 1159 2009 
Q 1159 1288 1364 580 
Q 1569 -128 1984 -844 
L 1484 -844 
Q 1016 -109 783 600 
Q 550 1309 550 2009 
Q 550 2706 781 3412 
Q 1013 4119 1484 4856 
L 1984 4856 
z
" transform="scale(0.015625)"/>
       <path id="DejaVuSans-6e" d="M 3513 2113 
L 3513 0 
L 2938 0 
L 2938 2094 
Q 2938 2591 2744 2837 
Q 2550 3084 2163 3084 
Q 1697 3084 1428 2787 
Q 1159 2491 1159 1978 
L 1159 0 
L 581 0 
L 581 3500 
L 1159 3500 
L 1159 2956 
Q 1366 3272 1645 3428 
Q 1925 3584 2291 3584 
Q 2894 3584 3203 3211 
Q 3513 2838 3513 2113 
z
" transform="scale(0.015625)"/>
       <path id="DejaVuSans-73" d="M 2834 3397 
L 2834 2853 
Q 2591 2978 2328 3040 
Q 2066 3103 1784 3103 
Q 1356 3103 1142 2972 
Q 928 2841 928 2578 
Q 928 2378 1081 2264 
Q 1234 2150 1697 2047 
L 1894 2003 
Q 2506 1872 2764 1633 
Q 3022 1394 3022 966 
Q 3022 478 2636 193 
Q 2250 -91 1575 -91 
Q 1294 -91 989 -36 
Q 684 19 347 128 
L 347 722 
Q 666 556 975 473 
Q 1284 391 1588 391 
Q 1994 391 2212 530 
Q 2431 669 2431 922 
Q 2431 1156 2273 1281 
Q 2116 1406 1581 1522 
L 1381 1569 
Q 847 1681 609 1914 
Q 372 2147 372 2553 
Q 372 3047 722 3315 
Q 1072 3584 1716 3584 
Q 2034 3584 2315 3537 
Q 2597 3491 2834 3397 
z
" transform="scale(0.015625)"/>
       <path id="DejaVuSans-29" d="M 513 4856 
L 1013 4856 
Q 1481 4119 1714 3412 
Q 1947 2706 1947 2009 
Q 1947 1309 1714 600 
Q 1481 -109 1013 -844 
L 513 -844 
Q 928 -128 1133 580 
Q 1338 1288 1338 2009 
Q 1338 2731 1133 3434 
Q 928 4138 513 4856 
z
" transform="scale(0.015625)"/>
      </defs>
      <use xlink:href="#DejaVuSans-74"/>
      <use xlink:href="#DejaVuSans-69" x="39.208984"/>
      <use xlink:href="#DejaVuSans-6d" x="66.992188"/>
      <use xlink:href="#DejaVuSans-65" x="164.404297"/>
      <use xlink:href="#DejaVuSans-20" x="225.927734"/>
      <use xlink:href="#DejaVuSans-28" x="257.714844"/>
      <use xlink:href="#DejaVuSans-6e" x="296.728516"/>
      <use xlink:href="#DejaVuSans-73" x="360.107422"/>
      <use xlink:href="#DejaVuSans-29" x="412.207031"/>
     </g>
    </g>
   </g>
   <g id="matplotlib.axis_2">
    <g id="ytick_1">
     <g id="line2d_6">
      <defs>
       <path id="mc218bd4c51" d="M 0 0 
L -3.5 0 
" style="stroke: #000000; stroke-width: 0.8"/>
      </defs>
      <g>
       <use xlink:href="#mc218bd4c51" x="54.664615" y="296.033748" style="stroke: #000000; stroke-width: 0.8"/>
      </g>
     </g>
     <g id="text_7">
      <!-- −1.4 -->
      <g transform="translate(23.381803 299.832967) scale(0.1 -0.1)">
       <defs>
        <path id="DejaVuSans-31" d="M 794 531 
L 1825 531 
L 1825 4091 
L 703 3866 
L 703 4441 
L 1819 4666 
L 2450 4666 
L 2450 531 
L 3481 531 
L 3481 0 
L 794 0 
L 794 531 
z
" transform="scale(0.015625)"/>
        <path id="DejaVuSans-2e" d="M 684 794 
L 1344 794 
L 1344 0 
L 684 0 
L 684 794 
z
" transform="scale(0.015625)"/>
       </defs>
       <use xlink:href="#DejaVuSans-2212"/>
       <use xlink:href="#DejaVuSans-31" x="83.789062"/>
       <use xlink:href="#DejaVuSans-2e" x="147.412109"/>
       <use xlink:href="#DejaVuSans-34" x="179.199219"/>
      </g>
     </g>
    </g>
    <g id="ytick_2">
     <g id="line2d_7">
      <g>
       <use xlink:href="#mc218bd4c51" x="54.664615" y="263.227824" style="stroke: #000000; stroke-width: 0.8"/>
      </g>
     </g>
     <g id="text_8">
      <!-- −1.2 -->
      <g transform="translate(23.381803 267.027043) scale(0.1 -0.1)">
       <use xlink:href="#DejaVuSans-2212"/>
       <use xlink:href="#DejaVuSans-31" x="83.789062"/>
       <use xlink:href="#DejaVuSans-2e" x="147.412109"/>
       <use xlink:href="#DejaVuSans-32" x="179.199219"/>
      </g>
     </g>
    </g>
    <g id="ytick_3">
     <g id="line2d_8">
      <g>
       <use xlink:href="#mc218bd4c51" x="54.664615" y="230.4219" style="stroke: #000000; stroke-width: 0.8"/>
      </g>
     </g>
     <g id="text_9">
      <!-- −1.0 -->
      <g transform="translate(23.381803 234.221119) scale(0.1 -0.1)">
       <use xlink:href="#DejaVuSans-2212"/>
       <use xlink:href="#DejaVuSans-31" x="83.789062"/>
       <use xlink:href="#DejaVuSans-2e" x="147.412109"/>
       <use xlink:href="#DejaVuSans-30" x="179.199219"/>
      </g>
     </g>
    </g>
    <g id="ytick_4">
     <g id="line2d_9">
      <g>
       <use xlink:href="#mc218bd4c51" x="54.664615" y="197.615976" style="stroke: #000000; stroke-width: 0.8"/>
      </g>
     </g>
     <g id="text_10">
      <!-- −0.8 -->
      <g transform="translate(23.381803 201.415195) scale(0.1 -0.1)">
       <defs>
        <path id="DejaVuSans-38" d="M 2034 2216 
Q 1584 2216 1326 1975 
Q 1069 1734 1069 1313 
Q 1069 891 1326 650 
Q 1584 409 2034 409 
Q 2484 409 2743 651 
Q 3003 894 3003 1313 
Q 3003 1734 2745 1975 
Q 2488 2216 2034 2216 
z
M 1403 2484 
Q 997 2584 770 2862 
Q 544 3141 544 3541 
Q 544 4100 942 4425 
Q 1341 4750 2034 4750 
Q 2731 4750 3128 4425 
Q 3525 4100 3525 3541 
Q 3525 3141 3298 2862 
Q 3072 2584 2669 2484 
Q 3125 2378 3379 2068 
Q 3634 1759 3634 1313 
Q 3634 634 3220 271 
Q 2806 -91 2034 -91 
Q 1263 -91 848 271 
Q 434 634 434 1313 
Q 434 1759 690 2068 
Q 947 2378 1403 2484 
z
M 1172 3481 
Q 1172 3119 1398 2916 
Q 1625 2713 2034 2713 
Q 2441 2713 2670 2916 
Q 2900 3119 2900 3481 
Q 2900 3844 2670 4047 
Q 2441 4250 2034 4250 
Q 1625 4250 1398 4047 
Q 1172 3844 1172 3481 
z
" transform="scale(0.015625)"/>
       </defs>
       <use xlink:href="#DejaVuSans-2212"/>
       <use xlink:href="#DejaVuSans-30" x="83.789062"/>
       <use xlink:href="#DejaVuSans-2e" x="147.412109"/>
       <use xlink:href="#DejaVuSans-38" x="179.199219"/>
      </g>
     </g>
    </g>
    <g id="ytick_5">
     <g id="line2d_10">
      <g>
       <use xlink:href="#mc218bd4c51" x="54.664615" y="164.810053" style="stroke: #000000; stroke-width: 0.8"/>
      </g>
     </g>
     <g id="text_11">
      <!-- −0.6 -->
      <g transform="translate(23.381803 168.609271) scale(0.1 -0.1)">
       <use xlink:href="#DejaVuSans-2212"/>
       <use xlink:href="#DejaVuSans-30" x="83.789062"/>
       <use xlink:href="#DejaVuSans-2e" x="147.412109"/>
       <use xlink:href="#DejaVuSans-36" x="179.199219"/>
      </g>
     </g>
    </g>
    <g id="ytick_6">
     <g id="line2d_11">
      <g>
       <use xlink:href="#mc218bd4c51" x="54.664615" y="132.004129" style="stroke: #000000; stroke-width: 0.8"/>
      </g>
     </g>
     <g id="text_12">
      <!-- −0.4 -->
      <g transform="translate(23.381803 135.803348) scale(0.1 -0.1)">
       <use xlink:href="#DejaVuSans-2212"/>
       <use xlink:href="#DejaVuSans-30" x="83.789062"/>
       <use xlink:href="#DejaVuSans-2e" x="147.412109"/>
       <use xlink:href="#DejaVuSans-34" x="179.199219"/>
      </g>
     </g>
    </g>
    <g id="ytick_7">
     <g id="line2d_12">
      <g>
       <use xlink:href="#mc218bd4c51" x="54.664615" y="99.198205" style="stroke: #000000; stroke-width: 0.8"/>
      </g>
     </g>
     <g id="text_13">
      <!-- −0.2 -->
      <g transform="translate(23.381803 102.997424) scale(0.1 -0.1)">
       <use xlink:href="#DejaVuSans-2212"/>
       <use xlink:href="#DejaVuSans-30" x="83.789062"/>
       <use xlink:href="#DejaVuSans-2e" x="147.412109"/>
       <use xlink:href="#DejaVuSans-32" x="179.199219"/>
      </g>
     </g>
    </g>
    <g id="ytick_8">
     <g id="line2d_13">
      <g>
       <use xlink:href="#mc218bd4c51" x="54.664615" y="66.392281" style="stroke: #000000; stroke-width: 0.8"/>
      </g>
     </g>
     <g id="text_14">
      <!-- 0.0 -->
      <g transform="translate(31.76149 70.1915) scale(0.1 -0.1)">
       <use xlink:href="#DejaVuSans-30"/>
       <use xlink:href="#DejaVuSans-2e" x="63.623047"/>
       <use xlink:href="#DejaVuSans-30" x="95.410156"/>
      </g>
     </g>
    </g>
    <g id="text_15">
     <!-- Voltage (V) -->
     <g transform="translate(17.302115 209.355311) rotate(-90) scale(0.1 -0.1)">
      <defs>
       <path id="DejaVuSans-56" d="M 1831 0 
L 50 4666 
L 709 4666 
L 2188 738 
L 3669 4666 
L 4325 4666 
L 2547 0 
L 1831 0 
z
" transform="scale(0.015625)"/>
       <path id="DejaVuSans-6f" d="M 1959 3097 
Q 1497 3097 1228 2736 
Q 959 2375 959 1747 
Q 959 1119 1226 758 
Q 1494 397 1959 397 
Q 2419 397 2687 759 
Q 2956 1122 2956 1747 
Q 2956 2369 2687 2733 
Q 2419 3097 1959 3097 
z
M 1959 3584 
Q 2709 3584 3137 3096 
Q 3566 2609 3566 1747 
Q 3566 888 3137 398 
Q 2709 -91 1959 -91 
Q 1206 -91 779 398 
Q 353 888 353 1747 
Q 353 2609 779 3096 
Q 1206 3584 1959 3584 
z
" transform="scale(0.015625)"/>
       <path id="DejaVuSans-6c" d="M 603 4863 
L 1178 4863 
L 1178 0 
L 603 0 
L 603 4863 
z
" transform="scale(0.015625)"/>
       <path id="DejaVuSans-61" d="M 2194 1759 
Q 1497 1759 1228 1600 
Q 959 1441 959 1056 
Q 959 750 1161 570 
Q 1363 391 1709 391 
Q 2188 391 2477 730 
Q 2766 1069 2766 1631 
L 2766 1759 
L 2194 1759 
z
M 3341 1997 
L 3341 0 
L 2766 0 
L 2766 531 
Q 2569 213 2275 61 
Q 1981 -91 1556 -91 
Q 1019 -91 701 211 
Q 384 513 384 1019 
Q 384 1609 779 1909 
Q 1175 2209 1959 2209 
L 2766 2209 
L 2766 2266 
Q 2766 2663 2505 2880 
Q 2244 3097 1772 3097 
Q 1472 3097 1187 3025 
Q 903 2953 641 2809 
L 641 3341 
Q 956 3463 1253 3523 
Q 1550 3584 1831 3584 
Q 2591 3584 2966 3190 
Q 3341 2797 3341 1997 
z
" transform="scale(0.015625)"/>
       <path id="DejaVuSans-67" d="M 2906 1791 
Q 2906 2416 2648 2759 
Q 2391 3103 1925 3103 
Q 1463 3103 1205 2759 
Q 947 2416 947 1791 
Q 947 1169 1205 825 
Q 1463 481 1925 481 
Q 2391 481 2648 825 
Q 2906 1169 2906 1791 
z
M 3481 434 
Q 3481 -459 3084 -895 
Q 2688 -1331 1869 -1331 
Q 1566 -1331 1297 -1286 
Q 1028 -1241 775 -1147 
L 775 -588 
Q 1028 -725 1275 -790 
Q 1522 -856 1778 -856 
Q 2344 -856 2625 -561 
Q 2906 -266 2906 331 
L 2906 616 
Q 2728 306 2450 153 
Q 2172 0 1784 0 
Q 1141 0 747 490 
Q 353 981 353 1791 
Q 353 2603 747 3093 
Q 1141 3584 1784 3584 
Q 2172 3584 2450 3431 
Q 2728 3278 2906 2969 
L 2906 3500 
L 3481 3500 
L 3481 434 
z
" transform="scale(0.015625)"/>
      </defs>
      <use xlink:href="#DejaVuSans-56"/>
      <use xlink:href="#DejaVuSans-6f" x="60.658203"/>
      <use xlink:href="#DejaVuSans-6c" x="121.839844"/>
      <use xlink:href="#DejaVuSans-74" x="149.623047"/>
      <use xlink:href="#DejaVuSans-61" x="188.832031"/>
      <use xlink:href="#DejaVuSans-67" x="250.111328"/>
      <use xlink:href="#DejaVuSans-65" x="313.587891"/>
      <use xlink:href="#DejaVuSans-20" x="375.111328"/>
      <use xlink:href="#DejaVuSans-28" x="406.898438"/>
      <use xlink:href="#DejaVuSans-56" x="445.912109"/>
      <use xlink:href="#DejaVuSans-29" x="514.320312"/>
     </g>
    </g>
   </g>
   <g id="line2d_14">
    <path d="M 54.660548 69.214447 
L 54.787644 69.698464 
L 54.808996 69.646606 
L 54.914739 69.093442 
L 55.42312 64.426127 
L 55.529202 64.737281 
L 55.910488 66.58692 
L 56.228056 66.949934 
L 56.609342 65.342303 
L 56.927249 63.959395 
L 57.032993 64.063113 
L 57.647456 67.53767 
L 57.710834 67.364806 
L 58.028741 66.189334 
L 58.113472 66.344911 
L 58.325297 67.624102 
L 58.537122 68.436561 
L 58.621852 68.280984 
L 59.024151 66.604207 
L 59.045503 66.63878 
L 59.405437 67.451238 
L 59.426789 67.382093 
L 59.553884 66.82893 
L 59.85044 65.255871 
L 59.892805 65.290443 
L 59.977535 65.567025 
L 60.401186 68.246411 
L 60.464564 68.194552 
L 60.84585 66.63878 
L 61.10004 67.226516 
L 61.248487 67.433953 
L 61.481326 66.846217 
L 61.650786 66.621493 
L 61.672138 66.63878 
L 62.116802 68.142692 
L 62.201532 68.021689 
L 62.328627 67.606815 
L 62.985455 66.223908 
L 63.133564 66.604207 
L 63.514849 68.211839 
L 63.663297 67.77968 
L 64.044582 66.310338 
L 64.277421 66.63878 
L 64.722424 66.707925 
L 64.955262 67.122797 
L 64.976614 67.105511 
L 65.082357 66.77707 
L 65.506008 64.011253 
L 65.569725 64.114973 
L 65.823916 65.912752 
L 66.078106 66.898075 
L 66.247566 66.656065 
L 66.480405 66.137476 
L 66.77696 65.809034 
L 66.798312 65.826321 
L 66.946421 66.25848 
L 67.327706 68.159979 
L 67.370071 68.108119 
L 67.476154 67.745107 
L 67.815074 66.396771 
L 67.920817 66.77707 
L 68.344468 69.093442 
L 68.408185 69.00701 
L 68.598659 68.073547 
L 68.874201 66.500488 
L 69.001296 66.362198 
L 69.022309 66.414058 
L 69.10704 66.725212 
L 69.552042 69.249019 
L 69.61542 69.145302 
L 69.911976 67.485811 
L 70.102788 67.001794 
L 70.377992 67.261089 
L 70.420357 67.191943 
L 70.632182 66.172048 
L 70.886373 64.996576 
L 70.928738 64.996576 
L 70.95009 65.048436 
L 71.098198 65.670744 
L 71.606579 68.004402 
L 71.670296 67.900684 
L 71.86077 67.157371 
L 72.178677 65.705317 
L 72.432868 66.310338 
L 72.835166 68.263697 
L 72.941248 68.350129 
L 73.491994 69.231732 
L 73.53436 69.128015 
L 73.597738 68.937865 
L 74.296931 66.068331 
L 74.529769 65.895467 
L 74.656865 66.275766 
L 74.932407 68.436561 
L 75.12288 69.249019 
L 75.165246 69.214447 
L 75.398423 67.53767 
L 75.652613 66.25848 
L 75.715992 66.310338 
L 76.033899 66.794357 
L 76.097277 66.742497 
L 76.330455 66.82893 
L 76.45755 67.382093 
L 76.754105 68.661283 
L 76.902214 68.229124 
L 77.262486 66.656065 
L 77.283499 66.673352 
L 77.347216 66.811642 
L 78.067423 69.318164 
L 78.173166 69.370024 
L 78.384991 68.332843 
L 78.787629 65.826321 
L 78.851007 65.964612 
L 78.935737 66.293053 
L 79.359388 67.848825 
L 79.5502 67.72782 
L 79.677296 67.831538 
L 79.846756 68.298269 
L 80.228042 69.249019 
L 80.355137 69.041582 
L 80.948248 67.191943 
L 81.011626 67.243801 
L 81.329534 67.866112 
L 81.371899 67.831538 
L 81.435277 67.72782 
L 81.562372 67.157371 
L 81.943658 65.480595 
L 82.028388 65.636172 
L 82.346296 66.690639 
L 82.494404 66.25848 
L 82.727581 65.584312 
L 82.833324 66.033757 
L 83.278327 69.594746 
L 83.320692 69.491029 
L 83.447788 68.436561 
L 83.871438 64.374267 
L 83.892451 64.339695 
L 83.956168 64.40884 
L 84.252724 66.742497 
L 84.506914 68.229124 
L 84.54928 68.229124 
L 84.570293 68.177266 
L 84.761105 67.433953 
L 84.8882 67.226516 
L 85.036308 68.073547 
L 85.396581 71.340668 
L 85.438946 71.202377 
L 85.566041 70.026905 
L 85.96834 65.895467 
L 86.095435 66.44863 
L 86.476721 68.471133 
L 86.625168 68.557566 
L 86.773277 68.609423 
L 86.921724 68.505706 
L 87.027467 68.280984 
L 87.38774 67.070939 
L 87.451118 67.019079 
L 87.853756 65.35959 
L 88.128959 64.080398 
L 88.150311 64.132258 
L 88.213689 64.374267 
L 88.38315 65.895467 
L 88.72207 68.643998 
L 88.785787 68.661283 
L 88.828152 68.592138 
L 88.997613 67.883397 
L 89.336533 66.725212 
L 89.505994 66.63878 
L 89.611737 66.656065 
L 89.633089 66.621493 
L 89.760184 66.569635 
L 89.781197 66.58692 
L 89.972009 66.673352 
L 90.268565 67.693248 
L 90.438025 68.038974 
L 90.459038 68.021689 
L 90.607486 67.572243 
L 90.882689 66.44863 
L 90.925054 66.483203 
L 90.988771 66.569635 
L 91.433435 68.574851 
L 91.4758 68.540278 
L 91.814721 67.952542 
L 91.878438 68.056261 
L 92.047898 68.540278 
L 92.280737 69.179874 
L 92.492562 69.093442 
L 92.641009 68.661283 
L 93.14939 66.552348 
L 93.212768 66.673352 
L 93.297498 66.949934 
L 93.594054 68.229124 
L 93.700136 68.263697 
L 93.721149 68.194552 
L 93.932975 67.433953 
L 94.22953 66.379485 
L 94.462708 66.310338 
L 94.759263 66.690639 
L 95.013454 67.070939 
L 95.394739 66.880789 
L 95.881768 67.693248 
L 95.966498 67.624102 
L 96.538596 65.826321 
L 96.601974 65.912752 
L 96.962247 66.707925 
L 97.110355 66.604207 
L 97.406911 66.293053 
L 97.470628 66.396771 
L 97.979009 68.177266 
L 98.000022 68.159979 
L 98.106104 67.796965 
L 98.360295 65.394162 
L 98.57212 64.21869 
L 98.677863 64.858284 
L 99.122866 70.182482 
L 99.207596 69.76761 
L 99.673612 65.860894 
L 99.715977 65.947326 
L 99.90645 66.431343 
L 99.927802 66.414058 
L 100.033546 66.102903 
L 100.351453 64.54713 
L 100.372466 64.616277 
L 100.457196 64.962003 
L 100.859834 67.451238 
L 100.965577 67.261089 
L 101.007942 67.122797 
L 101.24112 66.604207 
L 101.262133 66.621493 
L 101.368215 66.707925 
L 101.49531 66.77707 
L 101.876596 65.999184 
L 101.897609 66.051044 
L 101.982339 66.344911 
L 102.194165 68.108119 
L 102.469707 69.733038 
L 102.49072 69.750323 
L 102.533085 69.681178 
L 102.766263 68.851433 
L 103.126196 67.814252 
L 103.380387 67.53767 
L 103.401739 67.572243 
L 103.507482 67.67596 
L 103.655929 68.108119 
L 103.973498 69.162587 
L 104.07958 68.972437 
L 104.227688 68.108119 
L 104.587961 66.102903 
L 104.608974 66.137476 
L 104.757421 66.880789 
L 105.07499 68.937865 
L 105.181072 68.643998 
L 105.41391 66.396771 
L 105.625736 65.065721 
L 105.647088 65.100294 
L 105.710466 65.16944 
L 106.070739 66.82893 
L 106.134117 66.759784 
L 106.303577 65.843607 
L 106.536754 64.944716 
L 106.621485 65.013861 
L 107.341691 67.554956 
L 107.553516 67.848825 
L 107.616894 67.796965 
L 108.188992 66.016471 
L 108.252371 66.102903 
L 108.400818 66.327626 
L 108.570278 66.535062 
L 108.866834 66.431343 
L 109.121024 66.535062 
L 109.205754 66.707925 
L 109.50231 68.038974 
L 109.692783 68.48842 
L 109.84123 67.900684 
L 110.264881 65.083008 
L 110.307246 65.16944 
L 110.434342 65.947326 
L 110.815627 69.162587 
L 110.879005 69.024297 
L 111.006101 68.142692 
L 111.387386 65.376875 
L 111.472116 65.653457 
L 111.895767 68.004402 
L 111.917119 67.952542 
L 112.149958 66.846217 
L 112.319418 66.344911 
L 112.34077 66.362198 
L 112.488878 66.932647 
L 112.933881 69.473741 
L 113.039624 69.491029 
L 113.315167 68.229124 
L 113.696452 66.552348 
L 113.908278 67.572243 
L 114.162468 68.747715 
L 114.204833 68.695856 
L 114.331929 68.004402 
L 114.649497 65.809034 
L 114.670849 65.826321 
L 114.84031 66.984507 
L 115.200243 70.286202 
L 115.284973 70.09605 
L 115.454434 68.765001 
L 115.793354 66.344911 
L 115.941802 66.223908 
L 116.068897 66.44863 
L 116.25937 67.174656 
L 116.640656 69.05887 
L 116.683021 69.024297 
L 116.810116 68.453846 
L 117.170389 66.137476 
L 117.233767 66.275766 
L 117.424579 67.693248 
L 117.615053 68.81686 
L 117.657418 68.799575 
L 117.742148 68.48842 
L 118.038703 66.431343 
L 118.123434 66.58692 
L 118.314246 68.782288 
L 118.568436 71.0468 
L 118.67418 70.217055 
L 119.076817 64.495272 
L 119.161547 64.875571 
L 119.352021 67.745107 
L 119.627563 70.545496 
L 119.648576 70.562782 
L 119.669928 70.493637 
L 119.839389 69.370024 
L 120.135944 67.641388 
L 120.34777 67.952542 
L 120.792433 69.041582 
L 121.004259 68.747715 
L 121.470275 66.863502 
L 121.872912 64.59899 
L 121.93629 64.719994 
L 122.021021 65.16944 
L 122.466023 69.612033 
L 122.571767 69.283592 
L 122.974404 67.001794 
L 123.016769 67.088224 
L 123.461433 68.367416 
L 123.482785 68.332843 
L 124.075896 66.656065 
L 124.308735 65.809034 
L 124.330087 65.774462 
L 124.372452 65.860894 
L 124.457182 66.154761 
L 124.626642 67.468525 
L 124.944211 69.612033 
L 124.986576 69.646606 
L 125.028941 69.560174 
L 125.537322 67.105511 
L 125.622052 67.191943 
L 125.897595 67.641388 
L 125.918608 67.624102 
L 126.067055 67.191943 
L 126.469354 65.567025 
L 126.554084 65.653457 
L 126.765909 66.189334 
L 127.338007 68.955152 
L 127.613211 70.09605 
L 127.697941 70.044192 
L 127.846388 69.283592 
L 128.163957 65.791749 
L 128.418147 64.253263 
L 128.545242 64.806426 
L 128.94788 67.485811 
L 129.03261 67.261089 
L 129.371531 65.342303 
L 129.392544 65.35959 
L 129.498626 65.68803 
L 129.795182 68.038974 
L 130.007007 68.765001 
L 130.02802 68.799575 
L 130.091737 68.730428 
L 130.261198 68.453846 
L 130.663496 67.58953 
L 131.150864 66.690639 
L 131.383703 67.278376 
L 131.78634 68.453846 
L 131.955801 68.48842 
L 132.294721 67.382093 
L 132.654655 65.912752 
L 132.803102 65.826321 
L 132.824115 65.843607 
L 132.908845 65.947326 
L 132.972562 66.102903 
L 133.396213 67.848825 
L 133.544322 68.159979 
L 133.756147 67.606815 
L 134.37061 65.083008 
L 134.836626 66.96722 
L 135.027099 67.451238 
L 135.111829 67.347521 
L 135.45075 66.431343 
L 135.641562 67.140084 
L 136.022848 69.041582 
L 136.170956 68.592138 
L 136.552242 66.310338 
L 136.636972 66.379485 
L 136.806432 67.243801 
L 137.081975 68.592138 
L 137.20907 68.194552 
L 137.569004 66.535062 
L 137.590356 66.58692 
L 138.014007 68.67857 
L 138.077385 68.522993 
L 138.20448 67.67596 
L 138.564753 64.910144 
L 138.585766 64.875571 
L 138.649483 64.979289 
L 139.327324 67.382093 
L 139.771988 66.898075 
L 140.089895 66.102903 
L 140.110908 66.137476 
L 140.174626 66.223908 
L 140.322734 66.880789 
L 140.661654 68.263697 
L 140.70402 68.194552 
L 140.95821 67.053652 
L 141.170035 66.379485 
L 141.784498 64.114973 
L 141.911594 64.305122 
L 142.250514 65.44602 
L 142.504705 66.58692 
L 142.949369 70.355347 
L 143.034099 70.078765 
L 143.479102 67.122797 
L 143.54248 67.157371 
L 143.71194 67.382093 
L 143.818022 67.174656 
L 144.029848 66.102903 
L 144.135591 65.774462 
L 144.199308 65.826321 
L 144.262686 66.051044 
L 144.665324 68.350129 
L 144.707689 68.298269 
L 144.940527 67.157371 
L 145.067622 66.82893 
L 145.088974 66.846217 
L 145.237083 67.485811 
L 145.576003 69.387309 
L 145.597355 69.352737 
L 145.660734 69.249019 
L 146.126749 67.191943 
L 146.232832 67.295661 
L 146.5504 68.367416 
L 146.741212 68.592138 
L 146.762226 68.540278 
L 147.037768 68.194552 
L 147.249593 67.866112 
L 147.270606 67.900684 
L 147.397702 67.900684 
L 147.778987 68.384701 
L 148.096895 67.382093 
L 148.30872 66.63878 
L 148.39345 66.63878 
L 148.583924 67.606815 
L 148.96521 69.76761 
L 149.007575 69.733038 
L 149.071292 69.577461 
L 149.30413 68.177266 
L 149.600686 66.673352 
L 149.749133 66.500488 
L 150.045688 66.604207 
L 150.320892 67.001794 
L 150.97772 68.263697 
L 151.274276 69.231732 
L 151.295289 69.19716 
L 151.422384 68.419274 
L 151.697926 64.374267 
L 151.909752 62.783923 
L 151.994482 63.216082 
L 152.587593 67.91797 
L 152.608606 67.900684 
L 153.011244 68.194552 
L 153.032257 68.108119 
L 153.116987 67.831538 
L 153.434895 65.394162 
L 153.625368 64.685422 
L 153.81618 64.962003 
L 154.176114 66.500488 
L 154.599765 69.387309 
L 154.663482 69.300879 
L 154.875307 67.969829 
L 155.087133 66.949934 
L 155.214228 67.312948 
L 155.553148 69.093442 
L 155.574162 69.05887 
L 155.680244 68.626711 
L 156.188625 64.806426 
L 156.23099 64.823712 
L 156.358085 65.204013 
L 156.56991 66.500488 
L 156.845114 67.77968 
L 157.035926 67.710533 
L 157.205386 67.485811 
L 157.31113 67.641388 
L 157.73478 69.542887 
L 157.777146 69.491029 
L 157.904241 68.920578 
L 158.412622 66.051044 
L 158.433974 66.085616 
L 159.027085 67.572243 
L 159.090463 67.468525 
L 159.23891 67.019079 
L 159.493101 66.154761 
L 159.535466 66.206621 
L 159.577831 66.241193 
L 159.789656 67.77968 
L 160.06486 69.542887 
L 160.086212 69.525601 
L 160.191955 69.024297 
L 160.425132 66.517775 
L 160.657971 65.031149 
L 160.679323 64.979289 
L 160.742701 65.065721 
L 161.208717 66.396771 
L 161.251082 66.344911 
L 161.462907 66.102903 
L 161.547637 66.172048 
L 161.886558 67.606815 
L 162.119735 68.401988 
L 162.246831 68.315556 
L 162.522034 67.364806 
L 162.712846 66.949934 
L 162.860955 67.174656 
L 163.305958 68.522993 
L 163.454066 68.436561 
L 163.708256 68.177266 
L 163.729608 68.194552 
L 163.835352 68.246411 
L 164.110894 68.142692 
L 164.470828 67.157371 
L 164.513193 67.191943 
L 164.619275 67.572243 
L 165.021574 69.715751 
L 165.106304 69.542887 
L 165.360494 67.762393 
L 165.65705 66.189334 
L 165.784145 66.120189 
L 165.91124 66.172048 
L 166.313878 65.860894 
L 166.334891 65.930039 
L 166.440973 66.293053 
L 166.779894 67.72782 
L 166.822259 67.658675 
L 166.906989 67.312948 
L 167.224558 65.68803 
L 167.266923 65.739889 
L 167.373005 66.25848 
L 167.754291 68.730428 
L 167.775304 68.695856 
L 167.860034 68.626711 
L 168.707335 65.515167 
L 168.855783 65.204013 
L 168.876796 65.221298 
L 169.046256 65.705317 
L 169.427542 66.794357 
L 169.469907 66.759784 
L 169.872544 66.500488 
L 169.893558 66.569635 
L 169.978288 66.535062 
L 170.232478 65.912752 
L 170.42329 65.54974 
L 170.465656 65.601598 
L 170.529034 65.791749 
L 170.677481 66.63878 
L 170.974036 68.384701 
L 171.16451 68.090834 
L 171.461065 67.485811 
L 171.545796 67.58953 
L 171.694243 67.745107 
L 171.736608 67.710533 
L 171.842351 67.382093 
L 172.244989 64.668135 
L 172.372084 64.979289 
L 172.880465 68.505706 
L 172.943843 68.419274 
L 173.134655 67.693248 
L 173.536954 66.500488 
L 173.897227 65.670744 
L 173.960605 65.757175 
L 174.024322 65.843607 
L 174.320878 66.604207 
L 174.426621 66.58692 
L 174.702163 66.154761 
L 174.913989 66.656065 
L 175.125814 67.278376 
L 175.189192 67.261089 
L 175.210544 67.226516 
L 175.42237 66.172048 
L 175.76129 64.581704 
L 175.867033 64.59899 
L 176.078859 65.342303 
L 176.629605 68.937865 
L 176.714335 68.851433 
L 176.820417 68.471133 
L 177.074608 67.814252 
L 177.222716 68.263697 
L 177.413528 68.86872 
L 177.519271 68.730428 
L 177.900557 66.604207 
L 177.964274 66.656065 
L 178.154748 67.848825 
L 178.366573 68.834147 
L 178.387925 68.81686 
L 178.451303 68.643998 
L 178.853941 66.500488 
L 178.917319 66.63878 
L 179.129144 67.952542 
L 179.404687 69.05887 
L 179.468065 68.989725 
L 179.637525 68.315556 
L 179.913068 67.330234 
L 179.934081 67.347521 
L 180.018811 67.503098 
L 180.273001 68.989725 
L 180.442462 69.646606 
L 180.463814 69.629319 
L 180.527192 69.560174 
L 180.654287 68.834147 
L 181.09929 66.344911 
L 181.311115 66.898075 
L 181.840509 69.024297 
L 181.946591 68.972437 
L 182.17943 67.91797 
L 182.391255 67.105511 
L 182.475985 67.209229 
L 182.624433 67.848825 
L 182.814906 68.522993 
L 182.878623 68.436561 
L 183.026731 67.572243 
L 183.429369 65.065721 
L 183.556464 65.44602 
L 184.043493 67.641388 
L 184.085858 67.624102 
L 184.19194 67.278376 
L 184.424779 65.860894 
L 184.678969 64.927431 
L 184.827417 65.515167 
L 185.314446 69.128015 
L 185.356811 69.076155 
L 185.441541 68.67857 
L 185.844178 66.362198 
L 185.865192 66.396771 
L 185.949922 66.707925 
L 186.394924 69.612033 
L 186.479655 69.439169 
L 186.649115 68.350129 
L 186.94567 66.483203 
L 186.966684 66.500488 
L 186.988036 66.483203 
L 187.009049 66.569635 
L 187.157496 67.520383 
L 187.60216 71.496245 
L 187.623512 71.461672 
L 187.708242 71.150518 
L 187.877702 69.612033 
L 188.152906 67.399379 
L 188.258988 67.278376 
L 188.280001 67.295661 
L 188.449461 67.77968 
L 188.682639 68.280984 
L 188.809734 68.177266 
L 189.19102 67.554956 
L 189.27575 67.624102 
L 189.911226 68.471133 
L 190.101699 68.367416 
L 190.334877 68.643998 
L 190.673797 69.992333 
L 190.716162 70.044192 
L 190.77954 69.975047 
L 191.012718 68.851433 
L 191.224543 68.332843 
L 191.499747 69.145302 
L 191.605829 68.937865 
L 191.965763 66.63878 
L 192.02948 66.811642 
L 192.219953 68.540278 
L 192.431778 69.9059 
L 192.45313 69.854041 
L 192.516509 69.525601 
L 192.728334 66.690639 
L 193.02489 63.855676 
L 193.10962 64.02854 
L 193.236715 64.910144 
L 193.914556 71.219665 
L 193.978273 71.064087 
L 194.168747 69.421884 
L 194.529019 66.500488 
L 194.550032 66.465916 
L 194.592397 66.569635 
L 194.69848 66.949934 
L 194.931318 67.900684 
L 194.95267 67.866112 
L 194.973683 67.883397 
L 195.016048 67.796965 
L 195.164495 67.191943 
L 195.418686 66.241193 
L 195.566794 66.690639 
L 195.94808 68.125407 
L 196.223622 67.745107 
L 196.244635 67.710533 
L 196.308352 67.814252 
L 196.498826 68.574851 
L 196.710651 69.352737 
L 196.816733 69.231732 
L 196.943829 68.626711 
L 197.45221 65.584312 
L 197.494575 65.705317 
L 197.854508 69.128015 
L 198.066334 70.752933 
L 198.278159 70.199769 
L 198.384241 69.560174 
L 198.489984 68.972437 
L 198.53235 69.05887 
L 198.680797 70.182482 
L 198.934987 74.60779 
L 199.549111 91.081686 
L 199.972762 115.559167 
L 202.112368 262.389461 
L 202.917304 288.319005 
L 203.256225 292.467728 
L 204.103527 301.681347 
L 204.230622 301.785081 
L 204.251635 301.715937 
L 204.505825 301.767795 
L 204.654273 302.995113 
L 205.141302 307.333995 
L 205.162654 307.316709 
L 205.226032 307.35128 
L 205.268397 307.282138 
L 205.522587 306.953692 
L 205.564952 307.005548 
L 205.903873 307.385851 
L 206.073333 307.610585 
L 206.200428 307.541422 
L 206.306511 307.109282 
L 206.539349 304.049592 
L 207.323272 290.479804 
L 208.848415 235.405474 
L 209.822812 189.925066 
L 211.072412 138.411728 
L 211.517415 125.412389 
L 212.38573 108.506331 
L 213.233031 100.658328 
L 213.423844 99.188988 
L 213.868507 95.057548 
L 214.080333 95.766289 
L 214.165063 95.610711 
L 214.334523 94.037653 
L 214.821891 88.45416 
L 214.906621 88.471447 
L 215.097095 88.765314 
L 215.118447 88.748029 
L 215.266555 88.31587 
L 215.436015 87.486124 
L 216.071491 82.697804 
L 216.156222 82.680517 
L 216.177574 82.715092 
L 216.431764 83.354686 
L 216.495142 83.285541 
L 216.685954 82.317505 
L 217.045888 80.398719 
L 217.2367 80.485152 
L 217.469539 80.779019 
L 217.511904 80.744446 
L 217.660351 80.485152 
L 218.126367 79.39611 
L 218.168732 79.447969 
L 218.338192 79.897415 
L 218.571031 80.467864 
L 218.931304 80.122138 
L 218.973669 80.260428 
L 219.100764 80.830878 
L 219.291237 81.712482 
L 219.312589 81.695196 
L 219.333602 81.712482 
L 219.354954 81.62605 
L 219.418332 81.366755 
L 219.630158 78.842948 
L 219.9057 76.180847 
L 219.969078 76.146274 
L 219.99043 76.198134 
L 220.286986 77.148884 
L 220.307999 77.11431 
L 220.392729 76.906875 
L 220.795367 75.610398 
L 220.858745 75.714115 
L 221.112936 76.094417 
L 221.134288 76.059844 
L 221.197666 76.146274 
L 221.303748 76.232707 
L 221.727399 77.961343 
L 221.790777 77.805765 
L 221.960237 76.267281 
L 222.256793 73.916336 
L 222.362875 74.452213 
L 222.765174 78.393502 
L 222.828891 78.272497 
L 222.871256 78.11692 
L 223.231189 76.301852 
L 223.273554 76.353711 
L 223.358285 76.561148 
L 223.464367 76.924162 
L 223.718557 77.632903 
L 224.311668 79.568974 
L 224.375046 79.447969 
L 224.459777 79.102242 
L 224.629237 77.529184 
L 224.947144 74.469498 
L 225.031875 74.296635 
L 225.07424 74.365781 
L 225.2437 75.212811 
L 225.561269 76.958735 
L 225.603634 76.993307 
L 225.645999 76.906875 
L 225.709716 76.716725 
L 225.794446 76.249994 
L 226.387557 72.861867 
L 226.450935 73.000159 
L 226.535665 73.345885 
L 226.641748 74.002767 
L 227.001681 75.88698 
L 227.023033 75.852407 
L 227.128776 75.627685 
L 227.382967 74.884372 
L 227.489049 75.091807 
L 227.616144 75.817835 
L 227.933713 77.581043 
L 228.018443 77.581043 
L 228.25162 77.097025 
L 228.421081 77.02788 
L 228.82338 76.924162 
L 228.90811 76.889588 
L 228.950475 76.958735 
L 229.014192 77.045167 
L 229.310747 77.944057 
L 229.33176 77.92677 
L 229.353112 77.961343 
L 229.416491 77.892198 
L 229.755411 76.543861 
L 229.819128 76.613006 
L 229.903858 76.924162 
L 230.263792 78.600938 
L 230.348522 78.410787 
L 230.687443 77.408179 
L 230.729808 77.511897 
L 230.83589 77.892198 
L 231.047716 78.514506 
L 231.111094 78.462647 
L 231.174811 78.324357 
L 231.450014 77.581043 
L 231.598462 77.805765 
L 231.810287 78.376215 
L 231.8313 78.393502 
L 231.895017 78.307069 
L 231.979747 77.995915 
L 232.551506 75.679543 
L 232.678602 75.575825 
L 232.954144 74.037341 
L 233.33543 71.876546 
L 233.462525 72.118555 
L 233.631985 72.792722 
L 233.822459 73.380458 
L 233.843811 73.363172 
L 233.991919 73.46689 
L 234.055636 73.449605 
L 234.098001 73.51875 
L 234.203744 73.743472 
L 234.352192 74.538645 
L 234.66976 76.059844 
L 234.691112 76.042557 
L 234.75449 75.938839 
L 235.135776 74.434926 
L 235.199493 74.590503 
L 235.326588 75.368389 
L 235.665509 77.684761 
L 235.728887 77.667475 
L 235.940712 76.180847 
L 236.300985 73.501463 
L 236.321998 73.536035 
L 236.34335 73.484175 
L 236.385715 73.587895 
L 236.491458 74.071913 
L 236.830379 76.319139 
L 236.894096 76.215421 
L 237.021191 75.160953 
L 237.42349 70.597356 
L 237.465855 70.683786 
L 237.677681 72.775436 
L 237.889506 74.244776 
L 237.910858 74.158344 
L 237.995588 73.605182 
L 238.546334 67.91797 
L 238.588699 68.056261 
L 238.736808 68.384701 
L 238.779173 68.332843 
L 238.885255 67.814252 
L 239.92303 58.393188 
L 240.156207 56.647267 
L 240.240937 56.906561 
L 240.558506 58.635197 
L 240.727966 57.770879 
L 241.024522 55.765662 
L 241.066887 55.782949 
L 241.193982 56.163248 
L 241.76608 59.153787 
L 242.126014 59.257506 
L 242.295474 60.311974 
L 242.549664 64.149545 
L 242.994667 70.735646 
L 243.439331 75.247384 
L 244.26562 87.572556 
L 244.710283 91.652135 
L 245.091569 97.218343 
L 245.536572 102.11038 
L 246.510969 107.57287 
L 246.574347 107.503722 
L 246.743807 107.486436 
L 246.892254 108.108748 
L 247.10408 110.234971 
L 247.400635 112.309332 
L 247.421648 112.326617 
L 247.464013 112.222898 
L 247.972394 109.64723 
L 248.078476 109.750949 
L 248.43841 110.494264 
L 248.459762 110.476978 
L 248.713953 110.096676 
L 248.819696 110.010248 
L 248.946791 109.958386 
L 249.052873 110.010248 
L 249.073886 109.992956 
L 249.328077 109.699092 
L 249.561254 108.056885 
L 250.175378 101.574505 
L 250.450921 101.885658 
L 250.471934 101.851087 
L 250.535651 101.730082 
L 250.768489 99.534715 
L 251.128762 96.09473 
L 251.213492 96.025585 
L 251.234505 96.09473 
L 251.403966 96.336738 
L 251.488696 96.181161 
L 251.615791 95.593426 
L 251.827616 93.553636 
L 252.547823 86.051357 
L 252.908095 84.633876 
L 253.056204 84.011567 
L 253.755397 79.603546 
L 253.797762 79.499829 
L 253.988235 78.756514 
L 254.538981 75.731403 
L 254.602698 75.852407 
L 255.089727 77.425464 
L 255.132092 77.304461 
L 255.428648 75.368389 
L 255.682838 73.968194 
L 255.767568 73.899049 
L 255.78892 73.933622 
L 255.937029 74.365781 
L 256.424397 76.906875 
L 256.466762 76.855015 
L 256.572505 76.336424 
L 257.017508 72.982871 
L 257.038521 73.000159 
L 257.102238 73.103876 
L 257.398793 74.158344 
L 257.441158 74.089199 
L 257.589267 73.242168 
L 258.012918 70.372632 
L 258.394203 70.268914 
L 259.305222 67.451238 
L 259.347587 67.485811 
L 259.559412 68.557566 
L 259.876981 70.528209 
L 259.919346 70.459064 
L 260.025428 69.784896 
L 260.427727 66.293053 
L 260.491444 66.465916 
L 260.703269 68.332843 
L 260.936108 69.681178 
L 260.999825 69.594746 
L 261.317394 68.522993 
L 261.381111 68.609423 
L 261.550571 69.283592 
L 261.762396 69.940473 
L 261.783409 69.923188 
L 262.20706 69.05887 
L 262.228412 69.093442 
L 262.630711 69.854041 
L 262.800171 69.854041 
L 263.011997 70.14791 
L 263.181457 70.476351 
L 263.202809 70.441779 
L 263.266187 70.355347 
L 263.520378 68.86872 
L 263.71119 68.108119 
L 263.816933 68.436561 
L 264.198219 70.787506 
L 264.261936 70.701073 
L 264.410044 70.044192 
L 264.643222 69.352737 
L 264.685587 69.370024 
L 264.87606 69.888615 
L 265.024507 70.061478 
L 265.532888 68.661283 
L 265.553901 68.67857 
L 265.680996 68.920578 
L 265.914174 69.19716 
L 266.231742 69.024297 
L 266.507285 69.940473 
L 266.71911 70.459064 
L 266.761475 70.459064 
L 266.80384 70.389919 
L 266.973301 69.715751 
L 267.333234 68.436561 
L 267.439317 68.505706 
L 267.88398 71.23695 
L 268.138171 72.619859 
L 268.159523 72.602572 
L 268.180536 72.619859 
L 268.222901 72.533427 
L 268.328983 72.170413 
L 268.583174 71.28881 
L 268.604187 71.323382 
L 268.646552 71.375242 
L 269.027838 72.913726 
L 269.091555 72.723577 
L 269.30338 70.90851 
L 269.536218 69.370024 
L 269.663314 69.698464 
L 270.12933 73.017444 
L 270.29879 72.395135 
L 270.701428 70.303487 
L 270.722441 70.320774 
L 270.828523 70.822078 
L 271.315552 75.143666 
L 271.379269 75.005376 
L 271.612107 73.034731 
L 271.823933 71.945691 
L 271.88765 72.118555 
L 272.565491 75.558538 
L 272.586504 75.541253 
L 272.755964 75.731403 
L 272.840694 75.731403 
L 272.862046 75.765975 
L 272.946777 75.783262 
L 272.989142 75.731403 
L 273.073872 75.64497 
L 273.476171 74.79794 
L 274.005904 71.980263 
L 274.048269 72.118555 
L 274.260094 73.190308 
L 274.429554 73.553322 
L 274.450567 73.51875 
L 274.89557 71.720969 
L 274.916583 71.790114 
L 275.149761 72.896441 
L 275.403951 74.158344 
L 275.573411 74.365781 
L 275.742872 74.262063 
L 275.954697 73.950907 
L 276.018075 74.020054 
L 276.039427 74.002767 
L 276.06044 74.089199 
L 276.166522 74.434926 
L 276.484091 76.02527 
L 276.526456 76.007984 
L 276.632538 75.541253 
L 277.013824 72.637145 
L 277.119567 72.965586 
L 277.437475 75.178239 
L 277.47984 75.143666 
L 277.543218 74.884372 
L 278.009234 71.0468 
L 278.093964 71.306095 
L 278.284776 72.51614 
L 278.55998 73.708899 
L 278.81417 73.812617 
L 279.089713 73.155736 
L 279.661472 71.254237 
L 279.746202 71.167805 
L 279.979379 70.580069 
L 280.339313 69.733038 
L 280.678234 69.352737 
L 281.14425 67.710533 
L 281.186615 67.72782 
L 281.356075 67.969829 
L 281.525535 68.280984 
L 281.589252 68.177266 
L 281.65263 67.935257 
L 281.864456 66.189334 
L 282.161011 63.665526 
L 282.267094 63.509949 
L 282.288107 63.527236 
L 282.648379 64.495272 
L 282.733109 64.374267 
L 282.923583 63.440804 
L 283.32622 61.262724 
L 283.368586 61.210864 
L 283.431964 61.314582 
L 283.876966 63.095077 
L 283.940345 62.991358 
L 284.131157 62.023323 
L 284.363995 60.830565 
L 284.427712 60.761418 
L 284.470078 60.830565 
L 284.575821 61.141719 
L 285.041837 63.146935 
L 286.037585 66.725212 
L 286.588331 70.770218 
L 286.778805 71.150518 
L 286.884887 70.925796 
L 287.244821 68.609423 
L 287.414281 68.090834 
L 287.562728 68.730428 
L 288.198204 73.829904 
L 288.219217 73.812617 
L 288.346313 73.916336 
L 288.706585 74.365781 
L 288.727598 74.331208 
L 289.045506 73.380458 
L 289.130236 73.51875 
L 289.320709 74.988089 
L 289.638617 77.287174 
L 289.765712 77.045167 
L 289.956186 76.595721 
L 290.019903 76.69944 
L 290.146998 77.287174 
L 290.443553 78.566366 
L 290.464566 78.531793 
L 290.506932 78.462647 
L 290.740109 77.632903 
L 290.888217 77.408179 
L 291.184773 77.304461 
L 291.311868 76.889588 
L 291.545045 76.198134 
L 291.608424 76.249994 
L 291.693154 76.526576 
L 292.032074 78.186065 
L 292.053426 78.220637 
L 292.116804 78.168779 
L 292.349982 76.803156 
L 292.752281 74.365781 
L 292.879376 74.22749 
L 292.900728 74.279348 
L 293.027823 74.694222 
L 293.282014 76.78587 
L 293.536204 78.462647 
L 293.557217 78.44536 
L 293.599582 78.358929 
L 293.684312 77.892198 
L 294.00222 73.726186 
L 294.277423 71.893831 
L 294.383506 71.928404 
L 294.573979 72.118555 
L 294.595331 72.083981 
L 294.680061 72.014836 
L 294.891886 71.669109 
L 294.955265 71.686396 
L 294.976617 71.720969 
L 295.400267 73.155736 
L 295.463646 73.000159 
L 295.675471 71.254237 
L 295.951013 69.249019 
L 296.035744 69.439169 
L 296.205204 70.770218 
L 296.459394 72.32599 
L 296.58649 71.772827 
L 296.92541 69.681178 
L 296.988788 69.784896 
L 297.09487 70.303487 
L 297.391426 71.686396 
L 297.412439 71.651824 
L 297.539534 71.115945 
L 298.069267 68.350129 
L 298.386836 68.471133 
L 298.556296 68.453846 
L 298.704743 68.557566 
L 298.789474 68.661283 
L 299.043664 69.577461 
L 299.34022 70.389919 
L 299.488328 69.95776 
L 299.975696 67.658675 
L 299.996709 67.693248 
L 300.42036 68.747715 
L 300.611172 68.453846 
L 300.907727 67.122797 
L 301.182931 66.154761 
L 301.289013 66.25848 
L 301.500838 67.520383 
L 301.733677 68.67857 
L 301.797394 68.661283 
L 302.26341 66.241193 
L 302.34814 66.414058 
L 302.877534 69.352737 
L 302.941251 69.249019 
L 303.131724 68.298269 
L 303.491997 66.206621 
L 303.59774 66.068331 
L 303.619092 66.120189 
L 303.873283 67.001794 
L 304.127473 67.745107 
L 304.148486 67.796965 
L 304.233216 67.745107 
L 304.317947 67.658675 
L 304.529772 67.520383 
L 304.868693 68.263697 
L 305.10187 68.765001 
L 305.440791 69.318164 
L 305.610251 69.231732 
L 305.737346 68.81686 
L 306.118632 67.468525 
L 306.245727 67.468525 
L 306.393835 67.58953 
L 306.415187 67.554956 
L 306.520931 67.451238 
L 306.732756 66.898075 
L 307.156407 66.154761 
L 307.537692 65.342303 
L 307.77087 64.944716 
L 307.813235 64.927431 
L 307.8556 64.979289 
L 308.02506 65.428735 
L 308.427359 67.122797 
L 308.512089 67.036366 
L 309.041822 66.016471 
L 309.168917 65.930039 
L 309.507838 65.013861 
L 309.571216 65.152153 
L 309.719663 66.189334 
L 310.079597 69.00701 
L 310.100949 68.989725 
L 310.228044 68.436561 
L 310.630343 66.206621 
L 310.651695 66.154761 
L 310.736425 66.223908 
L 311.329536 67.658675 
L 311.392914 67.554956 
L 311.477645 67.226516 
L 311.880282 64.806426 
L 311.965012 65.013861 
L 312.219203 67.347521 
L 312.494406 69.231732 
L 312.727584 69.560174 
L 312.981774 69.249019 
L 313.36306 68.004402 
L 313.384073 68.021689 
L 313.511168 68.609423 
L 313.956171 71.859259 
L 313.998536 71.807401 
L 314.104279 71.496245 
L 314.69739 68.194552 
L 314.718742 68.229124 
L 314.824486 68.540278 
L 315.354219 71.530819 
L 315.375232 71.513532 
L 315.438949 71.444387 
L 315.714152 70.873936 
L 315.756517 70.925796 
L 315.820234 71.012228 
L 316.264898 72.775436 
L 316.28625 72.740864 
L 316.328615 72.844581 
L 316.349628 72.827294 
L 316.434359 72.723577 
L 316.709901 71.790114 
L 316.879361 71.444387 
L 316.900374 71.461672 
L 317.006457 71.634536 
L 317.324025 72.654432 
L 317.408755 72.671717 
L 317.430107 72.637145 
L 317.811393 71.945691 
L 317.896123 72.083981 
L 318.256057 72.896441 
L 318.70106 72.395135 
L 319.209441 71.357955 
L 319.399914 71.548104 
L 319.929647 71.0468 
L 320.014377 71.167805 
L 320.395663 72.135841 
L 320.416676 72.118555 
L 320.586136 71.669109 
L 321.031139 69.715751 
L 321.136882 69.491029 
L 321.79371 68.574851 
L 321.984184 68.765001 
L 322.026549 68.851433 
L 322.365469 69.491029 
L 322.429186 69.370024 
L 322.53493 68.834147 
L 322.95858 65.376875 
L 323.064663 65.670744 
L 323.276488 67.796965 
L 323.509326 69.439169 
L 323.573044 69.352737 
L 323.700139 68.574851 
L 324.29325 64.097685 
L 324.505075 63.596381 
L 324.568453 63.648239 
L 325.013456 65.238585 
L 325.098186 65.031149 
L 325.20393 64.477985 
L 325.45812 63.406232 
L 325.479472 63.45809 
L 325.606567 63.976681 
L 326.051231 66.569635 
L 326.135961 66.414058 
L 326.87752 63.838391 
L 327.004615 64.201403 
L 327.30117 66.880789 
L 327.512996 68.125407 
L 327.534009 68.108119 
L 327.576374 68.056261 
L 327.788199 66.794357 
L 328.317932 63.475377 
L 328.338945 63.509949 
L 328.423675 63.838391 
L 328.614488 65.705317 
L 328.911043 68.540278 
L 328.932056 68.574851 
L 328.995773 68.471133 
L 329.101517 67.77968 
L 329.419424 65.68803 
L 329.525167 66.016471 
L 330.224361 69.888615 
L 330.393821 70.199769 
L 330.436186 70.165197 
L 330.838485 68.194552 
L 330.902202 68.263697 
L 331.007945 68.903292 
L 331.389231 72.049408 
L 331.452948 71.859259 
L 331.622408 70.286202 
L 331.897612 68.229124 
L 331.961329 68.298269 
L 332.088424 68.851433 
L 332.342614 70.026905 
L 332.448358 70.044192 
L 332.46971 70.00962 
L 332.55444 69.81947 
L 332.80863 69.421884 
L 333.083834 69.663893 
L 333.295659 69.525601 
L 333.380389 69.577461 
L 333.571202 70.268914 
L 333.825392 71.444387 
L 333.846405 71.4271 
L 333.931135 71.323382 
L 334.249043 69.95776 
L 334.291408 70.078765 
L 334.333773 70.182482 
L 334.545598 71.772827 
L 334.693707 72.395135 
L 334.715059 72.343277 
L 334.778437 72.170413 
L 335.159723 69.05887 
L 335.244453 69.266306 
L 335.350535 70.09605 
L 335.689456 73.103876 
L 335.710469 73.086591 
L 335.752834 73.034731 
L 335.879929 72.274132 
L 336.345945 69.093442 
L 336.409662 69.179874 
L 336.72723 69.733038 
L 336.790948 69.629319 
L 337.108516 68.782288 
L 337.193246 68.920578 
L 337.341694 69.560174 
L 337.595884 70.493637 
L 337.659262 70.407205 
L 337.786357 69.992333 
L 337.955818 69.491029 
L 337.97717 69.525601 
L 338.040548 69.612033 
L 338.464199 71.496245 
L 338.548929 71.23695 
L 338.930214 69.871328 
L 339.05731 70.09605 
L 339.22677 70.268914 
L 339.3115 70.078765 
L 339.587043 69.439169 
L 339.608056 69.473741 
L 339.756503 70.09605 
L 339.989341 71.23695 
L 340.031706 71.18509 
L 340.180154 70.14791 
L 340.561439 66.431343 
L 340.64617 66.673352 
L 341.090833 69.81947 
L 341.15455 69.681178 
L 341.302659 68.851433 
L 341.620566 67.416666 
L 341.747662 67.520383 
L 342.171312 68.505706 
L 342.23469 68.453846 
L 342.658341 67.261089 
L 342.743071 67.382093 
L 343.145709 69.128015 
L 343.188074 69.093442 
L 343.251452 69.00701 
L 343.56936 67.831538 
L 343.590373 67.848825 
L 343.696455 68.073547 
L 344.056389 69.404596 
L 344.098754 69.352737 
L 344.247201 68.730428 
L 344.691865 67.088224 
L 344.882677 67.070939 
L 345.030786 67.330234 
L 345.136868 67.710533 
L 345.412071 68.540278 
L 345.475788 68.453846 
L 345.708627 67.347521 
L 345.941804 66.604207 
L 346.111264 66.863502 
L 346.344103 67.641388 
L 346.725389 67.831538 
L 347.191404 67.140084 
L 347.23377 67.174656 
L 347.509312 67.572243 
L 347.57269 67.572243 
L 347.594042 67.520383 
L 347.678772 67.312948 
L 348.419992 65.238585 
L 348.589452 64.944716 
L 348.631817 64.996576 
L 348.801277 65.618885 
L 349.224928 67.67596 
L 349.521484 66.690639 
L 349.860404 65.774462 
L 350.686693 64.02854 
L 350.813788 64.114973 
L 350.983248 64.996576 
L 351.322169 67.140084 
L 351.364534 67.105511 
L 351.512642 66.120189 
L 351.893928 63.337085 
L 351.91528 63.354372 
L 352.00001 63.440804 
L 352.190484 63.907536 
L 352.402309 63.803817 
L 352.466026 63.751959 
L 352.529404 63.838391 
L 352.614134 64.114973 
L 352.99542 66.293053 
L 353.08015 66.137476 
L 353.334341 64.132258 
L 353.525153 63.26794 
L 353.694613 63.907536 
L 354.096912 66.396771 
L 354.330089 66.77707 
L 354.49955 66.77707 
L 354.901848 66.483203 
L 354.944214 66.552348 
L 355.410229 67.91797 
L 355.452594 67.848825 
L 355.622055 67.364806 
L 355.83388 66.96722 
L 355.855232 66.984507 
L 356.045706 67.503098 
L 356.342261 68.436561 
L 356.426991 68.367416 
L 356.533073 68.280984 
L 356.660169 68.177266 
L 356.681182 68.211839 
L 356.787264 68.401988 
L 357.316658 70.666501 
L 357.401388 70.510924 
L 357.549835 69.923188 
L 357.888756 68.384701 
L 358.100581 68.056261 
L 358.227676 68.280984 
L 358.439502 69.093442 
L 358.714705 69.95776 
L 359.117343 70.787506 
L 359.413899 71.807401 
L 359.456264 71.720969 
L 359.519642 71.582677 
L 359.879914 69.992333 
L 359.900928 70.026905 
L 359.92228 70.00962 
L 359.964645 70.078765 
L 360.155118 70.839364 
L 360.366943 71.409814 
L 360.451674 71.323382 
L 360.684851 70.476351 
L 361.129515 68.886005 
L 361.235597 69.024297 
L 361.680261 71.115945 
L 361.722626 71.029513 
L 361.934451 69.473741 
L 362.188642 68.056261 
L 362.231007 68.004402 
L 362.273372 68.073547 
L 362.887835 69.318164 
L 362.951213 69.404596 
L 363.163038 69.836755 
L 363.226756 69.854041 
L 363.247769 69.81947 
L 363.586689 68.713143 
L 363.735136 68.592138 
L 363.967975 68.765001 
L 364.01034 68.695856 
L 364.201152 67.710533 
L 364.561086 65.947326 
L 364.603451 65.999184 
L 364.794263 66.725212 
L 365.006089 67.226516 
L 365.133184 66.880789 
L 365.556835 65.083008 
L 365.76866 65.186726 
L 365.980486 65.532453 
L 366.170959 66.051044 
L 366.361771 67.036366 
L 366.636975 68.263697 
L 366.721705 68.194552 
L 367.420898 65.791749 
L 367.823197 65.221298 
L 367.865562 65.255871 
L 368.585768 66.223908 
L 368.797594 66.327626 
L 368.818946 66.293053 
L 368.988406 65.843607 
L 369.369692 64.235976 
L 369.412057 64.305122 
L 369.539152 64.910144 
L 369.899086 67.191943 
L 369.920438 67.140084 
L 370.026181 66.759784 
L 370.428819 64.201403 
L 370.492197 64.339695 
L 370.598279 64.875571 
L 370.958213 66.690639 
L 371.000578 66.673352 
L 371.170038 66.431343 
L 371.36085 66.189334 
L 371.826866 65.515167 
L 371.847879 65.567025 
L 371.911596 65.722602 
L 372.059705 66.707925 
L 372.398625 69.231732 
L 372.44099 69.179874 
L 372.483355 69.076155 
L 372.674168 67.624102 
L 372.949371 65.826321 
L 372.970723 65.843607 
L 373.118832 66.673352 
L 373.563834 71.18509 
L 373.606199 71.081373 
L 373.733295 69.940473 
L 374.072215 65.999184 
L 374.11458 66.033757 
L 374.262689 67.226516 
L 374.559244 70.113337 
L 374.580596 70.09605 
L 374.665326 69.802183 
L 374.982895 67.77968 
L 375.067625 68.004402 
L 375.364181 69.542887 
L 375.427898 69.421884 
L 375.872562 66.120189 
L 375.978644 66.517775 
L 376.465673 68.48842 
L 376.487025 68.436561 
L 376.550403 68.48842 
L 376.889323 69.05887 
L 376.95304 68.972437 
L 377.101149 68.315556 
L 377.334326 67.382093 
L 377.355339 67.433953 
L 377.419056 67.58953 
L 377.736625 69.594746 
L 377.821355 69.387309 
L 378.03318 67.140084 
L 378.245006 65.376875 
L 378.266358 65.394162 
L 378.393453 66.189334 
L 378.753387 69.439169 
L 378.795752 69.370024 
L 378.965212 68.263697 
L 379.19839 66.96722 
L 379.36785 67.433953 
L 379.685418 68.540278 
L 380.257516 67.952542 
L 380.426977 67.243801 
L 380.744545 65.809034 
L 380.808262 65.912752 
L 380.935358 66.690639 
L 381.295291 69.145302 
L 381.422387 68.782288 
L 381.655564 67.606815 
L 381.697929 67.624102 
L 381.740294 67.658675 
L 382.079215 69.404596 
L 382.20631 69.110729 
L 382.396783 67.209229 
L 382.672326 64.858284 
L 382.693339 64.875571 
L 382.735704 64.858284 
L 382.757056 64.944716 
L 382.862799 65.44602 
L 383.053612 67.140084 
L 383.392532 69.646606 
L 383.45591 69.76761 
L 383.498275 69.715751 
L 383.731453 68.609423 
L 384.006656 67.503098 
L 384.028008 67.485811 
L 384.070373 67.58953 
L 384.260847 68.574851 
L 384.599767 70.113337 
L 384.726863 69.888615 
L 385.002405 69.024297 
L 385.04477 68.989725 
L 385.087135 69.05887 
L 385.21423 69.612033 
L 385.616529 72.066695 
L 385.701259 71.911118 
L 385.95545 69.888615 
L 386.29437 67.693248 
L 386.358088 67.710533 
L 386.379101 67.762393 
L 386.485183 68.229124 
L 386.908834 70.718359 
L 386.951199 70.683786 
L 387.014577 70.631928 
L 387.501945 68.851433 
L 387.54431 68.886005 
L 387.650053 68.937865 
L 387.671405 68.903292 
L 387.71377 68.851433 
L 387.88323 67.987115 
L 388.285529 64.996576 
L 388.327894 65.031149 
L 388.454989 65.601598 
L 388.836275 68.038974 
L 389.090466 68.609423 
L 389.323643 68.765001 
L 389.344656 68.730428 
L 389.598846 67.866112 
L 390.107227 65.895467 
L 390.21331 65.981899 
L 390.594595 67.174656 
L 390.785069 67.72782 
L 391.018246 67.658675 
L 391.335815 66.241193 
L 391.611357 65.290443 
L 391.63237 65.30773 
L 391.738452 65.515167 
L 392.056021 66.569635 
L 392.162103 66.137476 
L 392.670484 61.141719 
L 392.776227 61.504731 
L 393.263595 64.996576 
L 393.348325 64.944716 
L 393.602516 64.40884 
L 393.602516 64.40884 
" clip-path="url(#p6bcdd947be)" style="fill: none; stroke: #ff0000; stroke-width: 1.5; stroke-linecap: square"/>
   </g>
   <g id="line2d_15">
    <path d="M 54.662921 67.152611 
L 54.832381 67.273615 
L 55.001841 66.979747 
L 55.256032 66.530302 
L 55.425492 66.720452 
L 55.594952 67.20447 
L 55.933873 68.258938 
L 56.018603 68.224364 
L 56.272794 67.256328 
L 56.442254 66.789597 
L 56.611714 66.927889 
L 56.781175 67.135324 
L 57.035365 66.44387 
L 57.120095 66.271006 
L 57.204825 66.426583 
L 57.459016 68.379941 
L 57.628476 69.313406 
L 57.713206 69.209687 
L 58.136857 67.152611 
L 58.221587 67.256328 
L 58.391048 67.58477 
L 58.475778 67.498338 
L 58.899428 65.596839 
L 58.984159 65.68327 
L 59.49254 67.377333 
L 59.91619 66.340152 
L 60.00092 66.39201 
L 60.424571 67.135324 
L 60.594032 66.755024 
L 60.763492 66.357438 
L 60.848222 66.374725 
L 61.102412 67.411906 
L 61.271873 67.91321 
L 61.356603 67.895924 
L 61.695524 67.135324 
L 61.864984 67.809492 
L 62.203904 69.226974 
L 62.373365 68.639238 
L 62.712285 67.169896 
L 62.881746 67.429193 
L 63.135936 67.77492 
L 63.305396 67.256328 
L 63.644317 65.959851 
L 63.729047 65.977138 
L 63.983238 67.014319 
L 64.237428 67.757632 
L 64.322158 67.740347 
L 64.661079 67.169896 
L 64.830539 67.360048 
L 65.16946 68.086074 
L 65.33892 67.653915 
L 65.593111 65.907993 
L 65.932031 63.989208 
L 66.016761 64.02378 
L 66.186222 64.836239 
L 66.694603 68.362656 
L 66.779333 68.310796 
L 66.948793 67.619342 
L 67.287714 66.115429 
L 67.372444 66.115429 
L 67.880825 66.962461 
L 68.050285 67.273615 
L 68.558666 69.002251 
L 68.982317 67.72306 
L 69.321237 68.137933 
L 69.405968 67.999642 
L 69.660158 66.772311 
L 69.914348 65.596839 
L 70.083809 65.475834 
L 70.337999 66.046284 
L 70.67692 66.945174 
L 70.84638 66.893316 
L 71.270031 65.441262 
L 71.354761 65.648697 
L 71.608952 67.930497 
L 71.778412 69.157829 
L 71.863142 69.226974 
L 72.032602 67.930497 
L 72.286793 65.527692 
L 72.371523 65.320257 
L 72.540983 65.994426 
L 72.879904 67.636628 
L 73.134094 68.137933 
L 73.473015 68.881247 
L 73.642475 68.258938 
L 73.981396 66.997034 
L 74.235586 67.118038 
L 74.405047 66.789597 
L 74.574507 66.340152 
L 74.659237 66.322865 
L 74.828697 67.031606 
L 75.082888 68.276224 
L 75.167618 68.310796 
L 75.591269 66.841456 
L 75.675999 66.927889 
L 75.930189 67.256328 
L 76.09965 66.703165 
L 76.35384 65.510407 
L 76.43857 65.510407 
L 76.608031 66.201861 
L 76.946951 67.861352 
L 77.116412 67.91321 
L 77.370602 67.809492 
L 77.794253 68.310796 
L 77.963713 68.120646 
L 78.472094 67.031606 
L 78.641554 67.083466 
L 78.895745 67.377333 
L 79.319396 67.152611 
L 79.488856 67.58477 
L 79.827776 68.67381 
L 79.912507 68.587378 
L 80.505618 66.599447 
L 80.590348 66.58216 
L 80.844538 67.048893 
L 81.098729 68.189791 
L 81.352919 69.123254 
L 81.437649 69.088682 
L 81.94603 67.826779 
L 82.284951 68.276224 
L 82.454411 67.982356 
L 82.793332 67.066179 
L 82.878062 67.135324 
L 83.301713 68.103361 
L 83.471173 67.325473 
L 83.810094 65.596839 
L 83.894824 65.735129 
L 84.318475 67.619342 
L 84.487935 67.083466 
L 84.742125 65.838848 
L 84.826856 65.786989 
L 84.911586 65.959851 
L 85.335236 68.328083 
L 85.419967 68.276224 
L 85.589427 67.273615 
L 85.928348 64.922671 
L 86.013078 65.095535 
L 86.267268 66.962461 
L 86.521459 68.068787 
L 86.606189 67.999642 
L 86.860379 66.945174 
L 87.28403 64.991816 
L 87.36876 64.957243 
L 87.53822 65.769702 
L 87.961871 68.8121 
L 88.216062 66.737737 
L 88.385522 65.838848 
L 88.470252 66.046284 
L 88.893903 68.950392 
L 89.063363 68.137933 
L 89.317554 66.547588 
L 89.402284 66.44387 
L 89.571744 66.755024 
L 89.825935 67.169896 
L 89.995395 66.979747 
L 90.588506 66.39201 
L 90.757966 66.44387 
L 91.266347 67.39462 
L 91.435808 66.893316 
L 91.774728 65.285685 
L 91.859458 65.320257 
L 92.028919 66.322865 
L 92.367839 68.276224 
L 92.5373 67.515625 
L 92.96095 64.715234 
L 93.04568 64.646089 
L 93.215141 65.026388 
L 93.723522 67.39462 
L 93.808252 67.256328 
L 94.231903 65.060961 
L 94.316633 65.199253 
L 94.740284 67.187183 
L 94.909744 66.651307 
L 95.163934 65.856134 
L 95.502855 65.942566 
L 95.757045 65.268398 
L 95.841776 65.337543 
L 96.011236 66.288293 
L 96.265426 67.77492 
L 96.350156 67.446478 
L 96.773807 63.12489 
L 96.858537 63.418759 
L 97.282188 67.481051 
L 97.366918 67.290901 
L 97.705839 65.544979 
L 97.875299 65.942566 
L 98.04476 66.184575 
L 98.21422 65.16468 
L 98.46841 63.159462 
L 98.55314 63.159462 
L 98.722601 64.646089 
L 99.146252 68.86396 
L 99.230982 68.760242 
L 99.824093 66.098143 
L 99.908823 66.150003 
L 100.247744 66.824169 
L 100.332474 66.806884 
L 100.501934 66.461157 
L 100.840855 65.579552 
L 101.010315 65.68327 
L 101.349236 66.703165 
L 101.518696 67.014319 
L 101.688156 66.910602 
L 102.027077 66.322865 
L 102.281267 67.100751 
L 102.450728 67.446478 
L 102.620188 67.014319 
L 102.959108 65.68327 
L 103.043839 65.735129 
L 103.63695 67.809492 
L 103.80641 67.481051 
L 104.145331 66.547588 
L 104.230061 66.547588 
L 104.653712 67.308188 
L 104.907902 66.478443 
L 105.077362 66.132716 
L 105.162092 66.184575 
L 105.585743 67.290901 
L 106.009394 66.599447 
L 106.433045 67.411906 
L 106.517775 67.342761 
L 106.941426 66.564875 
L 107.195616 67.031606 
L 107.534537 67.515625 
L 107.788727 67.602055 
L 107.958188 67.308188 
L 108.381838 65.907993 
L 108.551299 66.824169 
L 108.890219 69.503556 
L 108.974949 69.434409 
L 109.14441 68.189791 
L 109.48333 65.631412 
L 109.56806 65.648697 
L 109.737521 66.44387 
L 110.076441 68.328083 
L 110.245902 68.48366 
L 110.415362 67.91321 
L 110.923743 65.458547 
L 111.093203 65.838848 
L 111.432124 66.772311 
L 111.601584 66.271006 
L 111.855775 65.49312 
L 111.940505 65.665984 
L 112.448886 68.345369 
L 112.618346 67.77492 
L 112.957267 66.271006 
L 113.041997 66.271006 
L 113.211457 66.772311 
L 113.719838 69.192401 
L 113.804568 68.984964 
L 113.974028 67.498338 
L 114.312949 63.487904 
L 114.397679 63.401472 
L 114.56714 64.836239 
L 114.90606 68.984964 
L 114.99079 68.950392 
L 115.160251 67.39462 
L 115.414441 65.009103 
L 115.499171 64.957243 
L 115.668632 65.942566 
L 115.922822 67.77492 
L 116.007552 67.965069 
L 116.177012 67.688487 
L 116.346473 67.342761 
L 116.515933 67.481051 
L 116.854854 68.189791 
L 116.939584 68.207079 
L 117.193774 67.77492 
L 117.447965 67.39462 
L 117.617425 67.463765 
L 118.041076 68.241651 
L 118.125806 68.172506 
L 118.295266 67.792207 
L 118.634187 66.668592 
L 118.803647 66.58216 
L 119.057838 66.876029 
L 119.396758 67.58477 
L 119.905139 68.708383 
L 120.0746 68.552805 
L 120.24406 68.051501 
L 120.58298 67.290901 
L 121.006631 67.567483 
L 121.345552 66.478443 
L 121.599742 66.063571 
L 121.769203 66.132716 
L 121.938663 66.39201 
L 122.192853 67.653915 
L 122.447044 68.708383 
L 122.531774 68.500946 
L 122.955425 65.717844 
L 123.040155 65.942566 
L 123.463806 68.431801 
L 123.633266 67.58477 
L 123.802726 66.599447 
L 123.887456 66.58216 
L 124.056917 67.58477 
L 124.311107 69.382551 
L 124.395837 69.347978 
L 124.904218 67.481051 
L 124.988948 67.515625 
L 125.073679 67.567483 
L 125.243139 67.20447 
L 125.497329 66.772311 
L 125.66679 67.550197 
L 125.92098 68.898532 
L 126.00571 68.829387 
L 126.259901 67.221756 
L 126.514091 66.115429 
L 126.683552 66.374725 
L 127.022472 67.118038 
L 127.446123 67.429193 
L 127.615583 67.239043 
L 127.869774 66.841456 
L 127.954504 66.824169 
L 128.378155 67.308188 
L 128.801805 67.118038 
L 129.225456 67.705774 
L 129.479647 67.53291 
L 129.564377 67.636628 
L 129.988028 69.330691 
L 130.072758 69.226974 
L 130.581139 66.547588 
L 130.665869 66.720452 
L 131.004789 67.792207 
L 131.17425 67.498338 
L 131.51317 66.668592 
L 131.767361 66.547588 
L 132.021551 66.184575 
L 132.106281 66.25372 
L 132.275742 67.048893 
L 132.699392 69.486268 
L 132.784123 69.382551 
L 133.716154 66.374725 
L 133.885615 66.772311 
L 134.224535 67.982356 
L 134.309265 67.982356 
L 134.478726 67.463765 
L 134.817646 66.288293 
L 134.987107 66.357438 
L 135.326027 67.083466 
L 135.495488 66.910602 
L 135.749678 66.357438 
L 135.919138 66.478443 
L 136.173329 66.945174 
L 136.258059 66.893316 
L 136.427519 66.340152 
L 136.68171 65.68327 
L 136.85117 66.167288 
L 137.10536 66.962461 
L 137.274821 66.461157 
L 137.529011 65.614125 
L 137.613741 65.786989 
L 138.037392 68.137933 
L 138.122122 68.034214 
L 138.630503 66.080856 
L 138.715233 66.115429 
L 138.884694 66.167288 
L 139.138884 66.028998 
L 139.308344 66.44387 
L 139.647265 67.58477 
L 139.731995 67.567483 
L 140.155646 66.824169 
L 140.409836 67.290901 
L 140.748757 68.103361 
L 141.002948 68.656523 
L 141.172408 68.137933 
L 141.596059 65.735129 
L 141.680789 65.786989 
L 142.019709 66.374725 
L 142.35863 65.925279 
L 142.52809 66.30558 
L 142.867011 67.135324 
L 143.036471 67.273615 
L 143.205932 67.72306 
L 143.375392 68.137933 
L 143.460122 68.086074 
L 143.629582 67.135324 
L 143.883773 65.320257 
L 143.968503 65.199253 
L 144.137963 65.907993 
L 144.392154 66.893316 
L 144.561614 66.374725 
L 144.815804 65.804274 
L 145.239455 66.63402 
L 145.493646 66.340152 
L 145.663106 66.841456 
L 146.002027 68.414515 
L 146.086757 68.397228 
L 146.679868 67.152611 
L 146.849328 66.979747 
L 147.103519 66.685879 
L 147.272979 66.806884 
L 147.6119 67.325473 
L 147.78136 67.066179 
L 148.03555 66.720452 
L 148.12028 66.720452 
L 148.289741 66.858742 
L 148.374471 66.789597 
L 148.628661 65.752416 
L 148.798122 65.147393 
L 148.882852 65.233825 
L 149.137042 67.014319 
L 149.391233 68.328083 
L 149.560693 67.844065 
L 149.814884 66.979747 
L 149.899614 67.083466 
L 150.238534 68.276224 
L 150.323264 68.172506 
L 150.492725 67.377333 
L 150.746915 66.115429 
L 150.831645 66.028998 
L 151.001106 66.478443 
L 151.424756 67.947784 
L 151.594217 67.77492 
L 151.848407 66.772311 
L 152.102598 65.717844 
L 152.187328 65.648697 
L 152.356788 66.063571 
L 152.949899 68.155219 
L 153.11936 68.379941 
L 153.20409 68.310796 
L 153.37355 67.636628 
L 153.797201 65.423975 
L 153.881931 65.458547 
L 154.136121 66.236433 
L 154.390312 66.789597 
L 154.729232 67.031606 
L 154.898693 66.910602 
L 155.322344 65.873421 
L 155.407074 65.890706 
L 155.830724 66.599447 
L 156.000185 66.219148 
L 156.339105 65.458547 
L 156.593296 65.285685 
L 156.932216 64.594229 
L 157.016947 64.715234 
L 157.186407 65.838848 
L 157.525328 68.466373 
L 157.610058 68.345369 
L 157.864248 66.322865 
L 158.118439 65.060961 
L 158.203169 65.112821 
L 158.88101 66.755024 
L 159.1352 67.740347 
L 159.219931 67.671202 
L 159.474121 66.39201 
L 159.728312 65.614125 
L 159.897772 65.631412 
L 160.067232 65.35483 
L 160.321423 64.732521 
L 160.406153 64.853526 
L 160.914534 66.858742 
L 161.338184 66.184575 
L 161.677105 66.219148 
L 162.016026 65.977138 
L 162.354946 66.167288 
L 162.609137 65.977138 
L 163.117518 66.30558 
L 163.371708 65.977138 
L 163.541168 66.340152 
L 163.964819 67.999642 
L 164.13428 67.429193 
L 164.55793 65.251112 
L 164.64266 65.216538 
L 164.812121 65.68327 
L 165.235772 67.39462 
L 165.405232 67.377333 
L 166.167803 66.288293 
L 166.337264 66.028998 
L 166.506724 66.25372 
L 166.760914 66.858742 
L 166.845644 66.824169 
L 167.184565 65.907993 
L 167.269295 66.011711 
L 167.438756 66.737737 
L 167.692946 67.757632 
L 167.862406 66.910602 
L 168.201327 64.334935 
L 168.286057 64.438652 
L 168.794438 67.602055 
L 168.879168 67.567483 
L 169.133359 67.567483 
L 169.387549 67.72306 
L 169.557009 67.066179 
L 169.8112 66.271006 
L 169.98066 67.014319 
L 170.319581 68.742955 
L 170.489041 68.120646 
L 170.743232 67.169896 
L 170.912692 67.308188 
L 171.082152 67.498338 
L 171.251612 67.169896 
L 171.590533 66.340152 
L 171.759993 66.824169 
L 172.098914 68.293511 
L 172.268374 68.449088 
L 172.522565 67.965069 
L 172.861485 67.360048 
L 173.030946 67.39462 
L 173.285136 67.895924 
L 173.539327 68.328083 
L 173.708787 68.103361 
L 174.217168 67.031606 
L 174.386628 67.135324 
L 174.810279 67.342761 
L 175.064469 67.100751 
L 175.57285 66.132716 
L 175.827041 66.44387 
L 176.335422 67.360048 
L 176.674342 68.172506 
L 177.013263 68.207079 
L 177.267453 68.328083 
L 177.521644 67.636628 
L 177.775834 66.962461 
L 178.114755 67.083466 
L 178.623136 65.337543 
L 178.962056 65.907993 
L 179.300977 65.147393 
L 179.385707 65.285685 
L 179.639898 67.031606 
L 179.894088 68.172506 
L 180.063548 67.688487 
L 180.402469 66.668592 
L 180.65666 66.927889 
L 181.08031 67.498338 
L 181.249771 66.927889 
L 181.588691 65.389402 
L 181.758152 66.184575 
L 182.097072 69.054109 
L 182.181802 69.054109 
L 182.351263 67.982356 
L 182.690183 65.35483 
L 182.774913 65.285685 
L 182.944374 65.838848 
L 183.283294 67.066179 
L 183.452755 66.841456 
L 183.622215 66.49573 
L 183.706945 66.513015 
L 183.876405 66.979747 
L 184.130596 67.498338 
L 184.300056 66.806884 
L 184.554247 65.49312 
L 184.638977 65.389402 
L 185.147358 66.115429 
L 185.316818 66.080856 
L 185.740469 66.893316 
L 185.909929 66.409297 
L 186.16412 65.544979 
L 186.24885 65.631412 
L 186.757231 67.308188 
L 187.604532 66.703165 
L 187.858723 66.44387 
L 188.028183 67.031606 
L 188.536564 69.503556 
L 188.706024 68.829387 
L 189.129675 66.271006 
L 189.299135 66.150003 
L 189.468596 66.513015 
L 189.807516 67.325473 
L 190.061707 67.636628 
L 190.485357 68.552805 
L 190.570088 68.500946 
L 190.739548 68.103361 
L 191.163199 66.720452 
L 191.247929 66.720452 
L 191.502119 67.498338 
L 191.67158 68.016929 
L 191.75631 67.965069 
L 191.92577 67.152611 
L 192.264691 64.801666 
L 192.349421 64.680662 
L 192.518881 65.251112 
L 192.942532 67.39462 
L 193.196722 67.740347 
L 193.366183 67.550197 
L 193.789833 66.910602 
L 194.213484 68.293511 
L 194.298214 68.189791 
L 194.552405 66.703165 
L 194.806595 65.700557 
L 194.891325 65.717844 
L 195.230246 66.236433 
L 195.399706 66.30558 
L 195.569167 66.685879 
L 195.908087 68.068787 
L 195.992817 68.016929 
L 196.162278 67.342761 
L 196.416468 66.357438 
L 196.501198 66.409297 
L 196.924849 67.602055 
L 197.26377 66.997034 
L 197.3485 67.100751 
L 197.60269 68.172506 
L 197.856881 68.967677 
L 198.026341 68.967677 
L 198.195801 68.535518 
L 198.449992 67.187183 
L 198.788912 65.544979 
L 198.873643 65.665984 
L 199.127833 67.39462 
L 199.382024 68.587378 
L 199.551484 68.207079 
L 199.975135 66.858742 
L 200.314055 66.63402 
L 200.568246 65.977138 
L 200.737706 65.700557 
L 200.822436 65.717844 
L 200.991896 66.288293 
L 201.415547 67.930497 
L 201.585008 67.671202 
L 201.839198 67.221756 
L 202.093388 67.239043 
L 202.262849 66.720452 
L 202.517039 65.648697 
L 202.601769 65.68327 
L 202.77123 66.39201 
L 203.02542 67.308188 
L 203.11015 67.100751 
L 203.533801 64.870811 
L 203.618531 64.853526 
L 204.465833 66.271006 
L 204.720023 66.271006 
L 204.889484 66.340152 
L 205.313134 67.550197 
L 205.482595 66.789597 
L 205.736785 65.35483 
L 205.821515 65.285685 
L 205.990976 65.856134 
L 206.245166 66.720452 
L 206.329896 66.63402 
L 206.838277 65.009103 
L 207.007737 65.320257 
L 207.261928 66.530302 
L 207.685579 69.019537 
L 207.855039 67.878637 
L 208.27869 63.88549 
L 208.44815 64.611516 
L 208.70234 66.028998 
L 208.787071 66.080856 
L 209.041261 65.804274 
L 209.210721 66.167288 
L 209.549642 67.169896 
L 209.888563 66.599447 
L 209.973293 66.703165 
L 210.227483 67.740347 
L 210.820594 71.716208 
L 211.667896 81.897871 
L 212.091547 89.953314 
L 212.599928 94.344049 
L 213.193039 101.811754 
L 213.531959 103.955262 
L 213.70142 104.128125 
L 214.12507 103.332954 
L 214.294531 103.626821 
L 215.311292 107.360673 
L 215.989134 108.05213 
L 216.158594 107.498966 
L 216.666975 104.24913 
L 216.836435 104.352849 
L 217.005896 104.577571 
L 217.090626 104.38742 
L 217.344816 102.503208 
L 217.683737 99.806535 
L 218.022657 98.994078 
L 218.276848 96.470269 
L 218.700499 92.356116 
L 219.039419 91.163358 
L 220.649292 78.215879 
L 220.903483 77.97387 
L 221.072943 78.008442 
L 221.242403 77.126837 
L 221.835514 71.543344 
L 222.428625 73.911576 
L 222.767546 73.669567 
L 222.937006 72.597814 
L 223.275927 69.589986 
L 223.360657 69.62456 
L 223.530117 70.834605 
L 223.784308 72.718817 
L 223.869038 72.718817 
L 224.123228 71.664349 
L 224.292689 71.301337 
L 224.462149 71.526059 
L 224.71634 71.837213 
L 224.80107 71.802641 
L 225.05526 71.128472 
L 225.478911 69.953 
L 225.648371 70.350586 
L 225.902562 71.007468 
L 226.072022 70.454304 
L 226.410943 69.123254 
L 226.580403 69.520841 
L 226.834593 70.039432 
L 227.004054 69.62456 
L 227.681895 67.636628 
L 227.851355 67.982356 
L 228.190276 69.140542 
L 228.275006 69.036824 
L 228.698657 67.619342 
L 228.868117 67.965069 
L 229.037577 68.276224 
L 229.122308 68.276224 
L 229.545958 67.048893 
L 229.630688 67.118038 
L 229.884879 68.155219 
L 230.139069 69.088682 
L 230.30853 69.140542 
L 230.64745 68.48366 
L 231.071101 67.135324 
L 231.155831 67.20447 
L 231.325292 67.895924 
L 231.664212 69.555413 
L 231.748942 69.503556 
L 232.087863 68.500946 
L 232.257323 68.881247 
L 232.426784 69.417123 
L 232.511514 69.399836 
L 232.765704 68.120646 
L 232.935164 67.515625 
L 233.019895 67.515625 
L 233.358815 68.276224 
L 233.528276 67.861352 
L 233.782466 67.031606 
L 233.867196 67.014319 
L 234.121387 67.91321 
L 234.460307 69.140542 
L 234.629768 69.296119 
L 234.714498 69.261546 
L 234.968688 68.500946 
L 235.222879 67.809492 
L 235.307609 67.878637 
L 235.81599 69.780137 
L 235.90072 69.62456 
L 236.409101 67.20447 
L 236.493831 67.290901 
L 236.748021 68.466373 
L 237.002212 69.520841 
L 237.171672 69.538128 
L 237.510593 68.345369 
L 237.680053 67.895924 
L 237.764783 67.878637 
L 237.934244 68.241651 
L 238.357894 69.953 
L 238.442624 69.953 
L 238.612085 69.451696 
L 239.035736 67.602055 
L 239.120466 67.619342 
L 239.289926 68.207079 
L 239.628847 69.831995 
L 239.713577 69.883855 
L 239.883037 69.520841 
L 240.306688 68.103361 
L 240.476148 68.397228 
L 240.815069 69.399836 
L 240.984529 69.036824 
L 241.40818 67.118038 
L 241.57764 67.083466 
L 241.66237 67.20447 
L 241.916561 68.500946 
L 242.255481 70.229582 
L 242.340212 69.970287 
L 242.594402 67.360048 
L 242.763862 65.925279 
L 242.848592 65.907993 
L 243.018053 67.221756 
L 243.272243 69.572701 
L 243.356973 69.728278 
L 243.526434 69.002251 
L 243.780624 67.930497 
L 243.865354 68.034214 
L 244.204275 69.192401 
L 244.289005 69.140542 
L 244.543196 68.224364 
L 244.797386 67.481051 
L 244.882116 67.498338 
L 245.051576 67.930497 
L 245.475227 69.659133 
L 245.559957 69.486268 
L 246.068338 66.685879 
L 246.153068 66.876029 
L 246.491989 67.930497 
L 246.83091 67.567483 
L 247.00037 68.034214 
L 247.339291 69.313406 
L 247.508751 69.296119 
L 247.762941 69.261546 
L 247.932402 69.365264 
L 248.101862 68.984964 
L 248.525513 67.39462 
L 248.694973 67.740347 
L 249.033894 68.794815 
L 249.118624 68.639238 
L 249.627005 66.150003 
L 249.711735 66.340152 
L 250.050656 67.757632 
L 250.135386 67.653915 
L 250.559036 66.063571 
L 250.813227 67.118038 
L 250.982687 67.481051 
L 251.152148 66.910602 
L 251.491068 65.648697 
L 251.745259 65.579552 
L 251.999449 65.026388 
L 252.25364 64.594229 
L 252.4231 64.663376 
L 252.67729 64.749807 
L 252.76202 64.715234 
L 252.931481 64.991816 
L 253.694052 68.345369 
L 253.948243 68.552805 
L 254.117703 68.276224 
L 254.287163 68.137933 
L 254.456624 69.157829 
L 254.880274 74.084439 
L 254.965004 73.894289 
L 255.388655 69.572701 
L 255.473385 69.918427 
L 255.897036 73.721426 
L 256.066496 72.632386 
L 256.320687 70.471591 
L 256.405417 70.419731 
L 256.574877 71.422341 
L 256.913798 73.410272 
L 256.998528 73.375699 
L 257.422179 72.37309 
L 257.591639 72.701531 
L 257.84583 73.289267 
L 257.93056 73.168263 
L 258.18475 71.733494 
L 258.438941 70.661741 
L 258.523671 70.90375 
L 258.777861 73.358412 
L 259.032052 75.190766 
L 259.116782 75.087048 
L 259.625163 72.459522 
L 259.794623 73.116403 
L 260.048814 74.22273 
L 260.133544 74.22273 
L 260.303004 73.548562 
L 260.811385 71.059327 
L 260.980845 71.266764 
L 261.489226 72.303945 
L 261.658687 72.252085 
L 261.828147 71.819928 
L 262.082337 70.160437 
L 262.421258 68.034214 
L 262.505988 67.91321 
L 262.675448 68.207079 
L 263.26856 70.471591 
L 263.43802 69.918427 
L 263.77694 68.587378 
L 263.861671 68.67381 
L 264.200591 70.14315 
L 264.454782 70.765458 
L 264.624242 70.644454 
L 264.878432 69.728278 
L 265.132623 68.777528 
L 265.217353 68.829387 
L 265.471544 69.659133 
L 265.641004 69.987572 
L 265.810464 69.520841 
L 266.149385 68.224364 
L 266.318845 68.258938 
L 266.742496 69.261546 
L 267.166147 70.437019 
L 267.335607 69.797423 
L 267.759258 67.308188 
L 267.928718 67.671202 
L 268.437099 69.728278 
L 268.691289 69.538128 
L 269.538591 67.965069 
L 269.792781 67.965069 
L 270.301162 68.587378 
L 270.470623 68.137933 
L 270.809543 66.616734 
L 270.894273 66.547588 
L 271.233194 67.169896 
L 271.317924 67.100751 
L 271.741575 65.959851 
L 271.911035 66.236433 
L 272.165226 66.547588 
L 272.588876 66.201861 
L 272.843067 66.236433 
L 273.181988 66.132716 
L 273.436178 67.619342 
L 273.690368 68.691095 
L 273.859829 68.155219 
L 274.28348 66.340152 
L 274.45294 66.288293 
L 274.6224 66.288293 
L 274.876591 66.201861 
L 275.384972 66.478443 
L 275.978083 65.977138 
L 276.232273 66.080856 
L 276.486464 66.098143 
L 276.655924 65.890706 
L 277.079575 64.818953 
L 277.164305 64.905384 
L 277.418495 65.717844 
L 277.757416 66.841456 
L 278.181067 68.016929 
L 278.265797 67.91321 
L 278.435257 67.048893 
L 278.774178 65.181966 
L 278.943638 65.769702 
L 279.282559 67.567483 
L 279.536749 67.809492 
L 279.79094 67.947784 
L 279.9604 67.653915 
L 280.29932 66.530302 
L 280.384051 66.668592 
L 280.807701 68.310796 
L 281.146622 67.567483 
L 281.231352 67.757632 
L 281.570273 69.002251 
L 281.739733 68.051501 
L 282.078654 65.665984 
L 282.248114 66.945174 
L 282.587035 70.229582 
L 282.671765 70.00486 
L 283.095416 66.772311 
L 283.180146 66.979747 
L 283.603796 69.468983 
L 283.688527 69.382551 
L 283.942717 67.619342 
L 284.281638 65.35483 
L 284.451098 65.233825 
L 284.620558 65.68327 
L 285.044209 66.893316 
L 285.63732 67.20447 
L 285.80678 66.685879 
L 286.145701 65.372115 
L 286.315161 65.994426 
L 286.738812 68.691095 
L 286.908272 68.449088 
L 287.162463 68.068787 
L 287.416653 68.933105 
L 287.670844 69.572701 
L 287.840304 69.244259 
L 288.772336 66.772311 
L 288.941796 66.737737 
L 289.111256 67.135324 
L 289.619637 69.105969 
L 289.789098 68.760242 
L 290.212748 67.550197 
L 290.466939 67.20447 
L 290.89059 66.201861 
L 290.97532 66.25372 
L 291.483701 67.740347 
L 291.568431 67.671202 
L 291.992082 66.876029 
L 292.161542 67.187183 
L 292.415732 67.602055 
L 292.585193 67.187183 
L 292.924113 66.046284 
L 293.093574 66.098143 
L 293.347764 66.25372 
L 293.601955 65.579552 
L 293.771415 65.35483 
L 293.856145 65.458547 
L 294.110336 66.772311 
L 294.364526 67.895924 
L 294.449256 67.930497 
L 294.618716 67.429193 
L 295.042367 65.717844 
L 295.550748 64.525084 
L 295.635478 64.576944 
L 295.974399 66.426583 
L 296.143859 66.979747 
L 296.31332 66.962461 
L 296.56751 66.858742 
L 296.906431 67.221756 
L 297.245351 66.910602 
L 297.414812 67.308188 
L 297.669002 68.293511 
L 297.753732 68.293511 
L 297.923192 67.844065 
L 298.262113 66.63402 
L 298.431573 66.651307 
L 299.024684 67.256328 
L 299.448335 68.466373 
L 299.533065 68.414515 
L 300.380367 66.340152 
L 300.549827 66.30558 
L 300.888748 66.651307 
L 301.227668 66.167288 
L 301.397129 66.685879 
L 301.736049 68.48366 
L 301.82078 68.397228 
L 302.24443 67.048893 
L 302.752811 68.397228 
L 302.837541 68.345369 
L 303.261192 67.239043 
L 303.600113 66.271006 
L 303.684843 66.288293 
L 304.023764 66.772311 
L 304.193224 66.39201 
L 304.447414 65.68327 
L 304.532144 65.752416 
L 304.955795 67.377333 
L 305.040525 67.308188 
L 305.464176 66.098143 
L 305.633636 66.668592 
L 306.057287 68.881247 
L 306.142017 68.760242 
L 306.396208 67.083466 
L 306.650398 66.011711 
L 306.735128 66.098143 
L 307.158779 67.53291 
L 307.243509 67.481051 
L 307.4977 66.962461 
L 307.66716 67.135324 
L 308.006081 67.844065 
L 308.429732 67.498338 
L 308.853382 68.293511 
L 308.938112 68.224364 
L 309.361763 67.325473 
L 309.531224 67.567483 
L 309.785414 67.999642 
L 310.209065 67.77492 
L 310.463255 68.068787 
L 310.547985 68.068787 
L 310.971636 66.997034 
L 311.056366 67.066179 
L 311.988398 68.431801 
L 312.157858 68.155219 
L 312.496779 67.377333 
L 312.666239 67.965069 
L 312.92043 69.175114 
L 313.00516 69.192401 
L 313.17462 68.431801 
L 313.428811 67.221756 
L 313.513541 67.239043 
L 313.852461 68.276224 
L 313.937192 68.189791 
L 314.360842 66.599447 
L 314.445572 66.703165 
L 314.953953 69.607273 
L 315.038684 69.451696 
L 315.292874 67.463765 
L 315.547064 66.115429 
L 315.631795 66.30558 
L 316.140176 69.555413 
L 316.224906 69.417123 
L 316.818017 66.841456 
L 316.987477 67.135324 
L 317.241668 67.792207 
L 317.326398 67.809492 
L 317.495858 67.377333 
L 317.834779 66.340152 
L 317.919509 66.357438 
L 318.173699 66.979747 
L 318.34316 67.239043 
L 318.51262 66.893316 
L 318.936271 65.49312 
L 319.105731 65.562267 
L 319.614112 67.273615 
L 319.698842 67.20447 
L 319.868302 66.58216 
L 320.207223 64.97453 
L 320.291953 64.97453 
L 320.461413 65.596839 
L 320.800334 67.135324 
L 320.969794 67.290901 
L 321.139255 67.066179 
L 321.647636 65.458547 
L 321.732366 65.510407 
L 321.901826 66.150003 
L 322.240747 67.602055 
L 322.410207 67.429193 
L 322.579667 67.187183 
L 322.749128 67.377333 
L 322.918588 67.72306 
L 323.003318 67.688487 
L 323.257508 66.737737 
L 323.426969 66.201861 
L 323.511699 66.271006 
L 323.85062 67.515625 
L 323.93535 67.463765 
L 324.359 66.39201 
L 324.697921 67.031606 
L 324.867381 66.357438 
L 325.206302 64.732521 
L 325.375762 65.579552 
L 325.714683 67.947784 
L 325.799413 67.895924 
L 326.053604 66.789597 
L 326.223064 66.44387 
L 326.561984 67.187183 
L 326.646715 67.066179 
L 327.070365 65.199253 
L 327.155096 65.35483 
L 327.494016 66.616734 
L 327.748207 66.271006 
L 327.832937 66.374725 
L 328.002397 67.39462 
L 328.341318 69.676418 
L 328.426048 69.520841 
L 329.019159 66.530302 
L 329.697 67.221756 
L 329.86646 67.377333 
L 330.205381 68.155219 
L 330.290111 68.103361 
L 330.629032 66.720452 
L 330.713762 66.755024 
L 330.883222 67.930497 
L 331.222143 71.007468 
L 331.306873 71.024755 
L 331.730524 69.434409 
L 332.069444 69.555413 
L 332.493095 68.829387 
L 332.662556 69.157829 
L 332.832016 69.347978 
L 332.916746 69.244259 
L 333.086206 68.362656 
L 333.340397 66.927889 
L 333.425127 66.962461 
L 333.594587 67.982356 
L 333.848778 69.710991 
L 333.933508 69.676418 
L 334.187698 68.034214 
L 334.357159 67.273615 
L 334.441889 67.20447 
L 335.035 68.328083 
L 335.28919 69.002251 
L 335.37392 68.950392 
L 335.543381 68.207079 
L 335.797571 66.755024 
L 335.882301 66.720452 
L 336.051762 67.325473 
L 336.305952 68.172506 
L 336.390682 68.120646 
L 336.729603 67.429193 
L 336.899063 67.58477 
L 337.068524 67.602055 
L 337.576904 66.357438 
L 337.915825 66.910602 
L 338.085285 66.772311 
L 338.254746 66.720452 
L 338.424206 67.135324 
L 338.847857 68.984964 
L 338.932587 68.950392 
L 339.102047 68.362656 
L 339.525698 65.959851 
L 339.610428 65.907993 
L 339.779888 66.288293 
L 340.288269 68.414515 
L 340.45773 68.362656 
L 340.62719 67.965069 
L 341.050841 66.530302 
L 341.135571 66.63402 
L 341.559222 68.535518 
L 341.643952 68.48366 
L 342.067603 67.152611 
L 342.321793 67.567483 
L 342.406523 67.53291 
L 342.830174 66.44387 
L 343.084364 67.550197 
L 343.253825 67.861352 
L 343.423285 67.221756 
L 343.677476 66.132716 
L 343.762206 66.167288 
L 344.101126 68.016929 
L 344.270587 68.500946 
L 344.440047 68.189791 
L 345.117888 65.181966 
L 345.287348 65.458547 
L 345.795729 66.858742 
L 345.88046 66.824169 
L 346.30411 66.167288 
L 346.558301 66.39201 
L 346.727761 65.977138 
L 347.066682 64.697949 
L 347.151412 64.888098 
L 347.575063 66.910602 
L 347.744523 66.651307 
L 347.913983 66.49573 
L 348.083444 66.772311 
L 348.337634 67.169896 
L 348.676555 67.083466 
L 349.015475 67.653915 
L 349.100205 67.567483 
L 349.523856 66.046284 
L 349.608586 66.098143 
L 349.947507 66.824169 
L 350.032237 66.772311 
L 350.286428 66.357438 
L 350.371158 66.426583 
L 350.540618 67.066179 
L 350.794808 67.965069 
L 350.964269 67.498338 
L 351.218459 66.39201 
L 351.303189 66.30558 
L 351.47265 66.599447 
L 351.64211 66.858742 
L 351.81157 66.63402 
L 351.981031 66.426583 
L 352.150491 66.824169 
L 352.489412 67.757632 
L 352.913062 66.616734 
L 352.997792 66.737737 
L 353.251983 67.100751 
L 353.421443 66.25372 
L 353.675634 64.870811 
L 353.760364 64.957243 
L 353.929824 66.150003 
L 354.184015 68.051501 
L 354.268745 68.103361 
L 354.438205 67.463765 
L 354.607665 66.893316 
L 354.692396 66.893316 
L 355.031316 67.809492 
L 355.200776 67.429193 
L 355.539697 66.547588 
L 355.793888 66.513015 
L 356.048078 66.25372 
L 356.217538 66.755024 
L 356.556459 68.48366 
L 356.641189 68.276224 
L 357.06484 65.337543 
L 357.14957 65.389402 
L 357.31903 66.219148 
L 357.657951 67.947784 
L 357.827411 67.965069 
L 358.335792 66.979747 
L 358.420522 67.066179 
L 358.674713 67.308188 
L 358.844173 66.945174 
L 359.352554 64.438652 
L 359.522014 65.181966 
L 359.860935 67.498338 
L 359.945665 67.498338 
L 360.115125 66.824169 
L 360.369316 65.510407 
L 360.454046 65.510407 
L 360.623506 66.219148 
L 360.962427 68.034214 
L 361.047157 68.103361 
L 361.216617 67.757632 
L 361.724998 65.786989 
L 361.894459 66.322865 
L 362.148649 67.463765 
L 362.233379 67.481051 
L 362.40284 66.616734 
L 362.65703 65.527692 
L 362.82649 66.30558 
L 363.165411 68.120646 
L 363.334871 67.619342 
L 363.589062 66.651307 
L 364.097443 66.115429 
L 364.351633 65.631412 
L 364.521093 65.977138 
L 364.860014 67.031606 
L 365.029474 66.426583 
L 365.368395 64.663376 
L 365.453125 64.749807 
L 365.622585 65.717844 
L 365.961506 67.861352 
L 366.046236 67.930497 
L 366.215696 67.550197 
L 366.639347 66.080856 
L 366.978268 65.648697 
L 367.401919 64.006493 
L 367.486649 64.07564 
L 367.656109 64.715234 
L 367.99503 65.977138 
L 368.07976 65.925279 
L 368.41868 65.372115 
L 368.588141 65.441262 
L 368.927061 66.271006 
L 369.265982 67.290901 
L 369.350712 67.239043 
L 369.520172 66.685879 
L 369.774363 65.614125 
L 369.859093 65.544979 
L 370.028553 66.098143 
L 370.282744 66.772311 
L 370.452204 66.011711 
L 370.706395 64.525084 
L 370.791125 64.525084 
L 370.960585 65.475834 
L 371.299506 67.411906 
L 371.384236 67.377333 
L 371.553696 66.824169 
L 371.977347 65.251112 
L 372.062077 65.233825 
L 372.231537 65.821561 
L 372.655188 67.91321 
L 372.824648 67.256328 
L 373.163569 65.475834 
L 373.333029 65.389402 
L 373.50249 65.631412 
L 373.67195 66.098143 
L 374.180331 68.224364 
L 374.349791 68.155219 
L 374.603982 67.895924 
L 374.773442 67.878637 
L 374.942902 67.515625 
L 375.281823 66.599447 
L 375.366553 66.651307 
L 375.705474 67.325473 
L 375.790204 67.273615 
L 376.213855 66.132716 
L 376.383315 66.530302 
L 376.806966 68.414515 
L 376.976426 68.397228 
L 377.400077 68.103361 
L 377.654267 67.999642 
L 378.755759 66.547588 
L 378.840489 66.651307 
L 379.00995 67.360048 
L 379.26414 68.67381 
L 379.34887 68.691095 
L 379.518331 67.636628 
L 379.857251 64.542371 
L 379.941981 64.697949 
L 380.196172 67.463765 
L 380.365632 68.898532 
L 380.450362 68.915819 
L 380.704553 66.703165 
L 380.874013 65.579552 
L 380.958743 65.562267 
L 381.382394 67.58477 
L 381.551854 66.893316 
L 381.890775 64.922671 
L 381.975505 64.922671 
L 382.144965 65.372115 
L 382.653346 67.308188 
L 382.822807 67.550197 
L 382.992267 67.325473 
L 383.246457 66.841456 
L 383.331188 66.893316 
L 383.754838 68.345369 
L 383.839568 68.293511 
L 384.347949 67.273615 
L 384.7716 66.098143 
L 384.85633 66.184575 
L 385.025791 66.893316 
L 385.279981 67.965069 
L 385.364711 67.861352 
L 385.873092 65.717844 
L 385.957822 65.769702 
L 386.212013 65.994426 
L 386.550933 65.423975 
L 386.805124 65.130108 
L 386.974584 65.49312 
L 387.228775 67.187183 
L 387.482965 68.552805 
L 387.567695 68.431801 
L 388.076076 66.184575 
L 388.499727 67.239043 
L 388.669187 66.720452 
L 389.008108 65.147393 
L 389.092838 65.199253 
L 389.262298 65.752416 
L 389.685949 67.463765 
L 389.855409 67.411906 
L 390.27906 67.048893 
L 390.44852 67.20447 
L 390.872171 67.705774 
L 391.041632 67.256328 
L 391.380552 66.080856 
L 391.804203 65.821561 
L 392.058393 65.199253 
L 392.143124 65.268398 
L 392.482044 66.426583 
L 392.566774 66.340152 
L 392.990425 64.749807 
L 393.159885 65.527692 
L 393.414076 66.893316 
L 393.498806 66.979747 
L 393.668266 66.685879 
L 393.668266 66.685879 
" clip-path="url(#p6bcdd947be)" style="fill: none; stroke: #0000ff; stroke-width: 1.5; stroke-linecap: square"/>
   </g>
   <g id="patch_3">
    <path d="M 54.664615 320.202831 
L 54.664615 43.173415 
" style="fill: none; stroke: #000000; stroke-width: 0.8; stroke-linejoin: miter; stroke-linecap: square"/>
   </g>
   <g id="patch_4">
    <path d="M 393.585231 320.202831 
L 393.585231 43.173415 
" style="fill: none; stroke: #000000; stroke-width: 0.8; stroke-linejoin: miter; stroke-linecap: square"/>
   </g>
   <g id="patch_5">
    <path d="M 54.664615 320.202831 
L 393.585231 320.202831 
" style="fill: none; stroke: #000000; stroke-width: 0.8; stroke-linejoin: miter; stroke-linecap: square"/>
   </g>
   <g id="patch_6">
    <path d="M 54.664615 43.173415 
L 393.585231 43.173415 
" style="fill: none; stroke: #000000; stroke-width: 0.8; stroke-linejoin: miter; stroke-linecap: square"/>
   </g>
   <g id="text_16">
    <!-- LGAD pulse &amp; PiN pulse -->
    <g transform="translate(153.271486 37.173415) scale(0.12 -0.12)">
     <defs>
      <path id="DejaVuSans-4c" d="M 628 4666 
L 1259 4666 
L 1259 531 
L 3531 531 
L 3531 0 
L 628 0 
L 628 4666 
z
" transform="scale(0.015625)"/>
      <path id="DejaVuSans-47" d="M 3809 666 
L 3809 1919 
L 2778 1919 
L 2778 2438 
L 4434 2438 
L 4434 434 
Q 4069 175 3628 42 
Q 3188 -91 2688 -91 
Q 1594 -91 976 548 
Q 359 1188 359 2328 
Q 359 3472 976 4111 
Q 1594 4750 2688 4750 
Q 3144 4750 3555 4637 
Q 3966 4525 4313 4306 
L 4313 3634 
Q 3963 3931 3569 4081 
Q 3175 4231 2741 4231 
Q 1884 4231 1454 3753 
Q 1025 3275 1025 2328 
Q 1025 1384 1454 906 
Q 1884 428 2741 428 
Q 3075 428 3337 486 
Q 3600 544 3809 666 
z
" transform="scale(0.015625)"/>
      <path id="DejaVuSans-41" d="M 2188 4044 
L 1331 1722 
L 3047 1722 
L 2188 4044 
z
M 1831 4666 
L 2547 4666 
L 4325 0 
L 3669 0 
L 3244 1197 
L 1141 1197 
L 716 0 
L 50 0 
L 1831 4666 
z
" transform="scale(0.015625)"/>
      <path id="DejaVuSans-44" d="M 1259 4147 
L 1259 519 
L 2022 519 
Q 2988 519 3436 956 
Q 3884 1394 3884 2338 
Q 3884 3275 3436 3711 
Q 2988 4147 2022 4147 
L 1259 4147 
z
M 628 4666 
L 1925 4666 
Q 3281 4666 3915 4102 
Q 4550 3538 4550 2338 
Q 4550 1131 3912 565 
Q 3275 0 1925 0 
L 628 0 
L 628 4666 
z
" transform="scale(0.015625)"/>
      <path id="DejaVuSans-70" d="M 1159 525 
L 1159 -1331 
L 581 -1331 
L 581 3500 
L 1159 3500 
L 1159 2969 
Q 1341 3281 1617 3432 
Q 1894 3584 2278 3584 
Q 2916 3584 3314 3078 
Q 3713 2572 3713 1747 
Q 3713 922 3314 415 
Q 2916 -91 2278 -91 
Q 1894 -91 1617 61 
Q 1341 213 1159 525 
z
M 3116 1747 
Q 3116 2381 2855 2742 
Q 2594 3103 2138 3103 
Q 1681 3103 1420 2742 
Q 1159 2381 1159 1747 
Q 1159 1113 1420 752 
Q 1681 391 2138 391 
Q 2594 391 2855 752 
Q 3116 1113 3116 1747 
z
" transform="scale(0.015625)"/>
      <path id="DejaVuSans-75" d="M 544 1381 
L 544 3500 
L 1119 3500 
L 1119 1403 
Q 1119 906 1312 657 
Q 1506 409 1894 409 
Q 2359 409 2629 706 
Q 2900 1003 2900 1516 
L 2900 3500 
L 3475 3500 
L 3475 0 
L 2900 0 
L 2900 538 
Q 2691 219 2414 64 
Q 2138 -91 1772 -91 
Q 1169 -91 856 284 
Q 544 659 544 1381 
z
M 1991 3584 
L 1991 3584 
z
" transform="scale(0.015625)"/>
      <path id="DejaVuSans-26" d="M 1556 2509 
Q 1272 2256 1139 2004 
Q 1006 1753 1006 1478 
Q 1006 1022 1337 719 
Q 1669 416 2169 416 
Q 2466 416 2725 514 
Q 2984 613 3213 813 
L 1556 2509 
z
M 1997 2859 
L 3584 1234 
Q 3769 1513 3872 1830 
Q 3975 2147 3994 2503 
L 4575 2503 
Q 4538 2091 4375 1687 
Q 4213 1284 3922 891 
L 4794 0 
L 4006 0 
L 3559 459 
Q 3234 181 2878 45 
Q 2522 -91 2113 -91 
Q 1359 -91 881 339 
Q 403 769 403 1441 
Q 403 1841 612 2192 
Q 822 2544 1241 2853 
Q 1091 3050 1012 3245 
Q 934 3441 934 3628 
Q 934 4134 1281 4442 
Q 1628 4750 2203 4750 
Q 2463 4750 2720 4694 
Q 2978 4638 3244 4525 
L 3244 3956 
Q 2972 4103 2725 4179 
Q 2478 4256 2266 4256 
Q 1938 4256 1733 4082 
Q 1528 3909 1528 3634 
Q 1528 3475 1620 3314 
Q 1713 3153 1997 2859 
z
" transform="scale(0.015625)"/>
      <path id="DejaVuSans-50" d="M 1259 4147 
L 1259 2394 
L 2053 2394 
Q 2494 2394 2734 2622 
Q 2975 2850 2975 3272 
Q 2975 3691 2734 3919 
Q 2494 4147 2053 4147 
L 1259 4147 
z
M 628 4666 
L 2053 4666 
Q 2838 4666 3239 4311 
Q 3641 3956 3641 3272 
Q 3641 2581 3239 2228 
Q 2838 1875 2053 1875 
L 1259 1875 
L 1259 0 
L 628 0 
L 628 4666 
z
" transform="scale(0.015625)"/>
      <path id="DejaVuSans-4e" d="M 628 4666 
L 1478 4666 
L 3547 763 
L 3547 4666 
L 4159 4666 
L 4159 0 
L 3309 0 
L 1241 3903 
L 1241 0 
L 628 0 
L 628 4666 
z
" transform="scale(0.015625)"/>
     </defs>
     <use xlink:href="#DejaVuSans-4c"/>
     <use xlink:href="#DejaVuSans-47" x="55.712891"/>
     <use xlink:href="#DejaVuSans-41" x="133.203125"/>
     <use xlink:href="#DejaVuSans-44" x="201.611328"/>
     <use xlink:href="#DejaVuSans-20" x="278.613281"/>
     <use xlink:href="#DejaVuSans-70" x="310.400391"/>
     <use xlink:href="#DejaVuSans-75" x="373.876953"/>
     <use xlink:href="#DejaVuSans-6c" x="437.255859"/>
     <use xlink:href="#DejaVuSans-73" x="465.039062"/>
     <use xlink:href="#DejaVuSans-65" x="517.138672"/>
     <use xlink:href="#DejaVuSans-20" x="578.662109"/>
     <use xlink:href="#DejaVuSans-26" x="610.449219"/>
     <use xlink:href="#DejaVuSans-20" x="688.427734"/>
     <use xlink:href="#DejaVuSans-50" x="720.214844"/>
     <use xlink:href="#DejaVuSans-69" x="778.267578"/>
     <use xlink:href="#DejaVuSans-4e" x="806.050781"/>
     <use xlink:href="#DejaVuSans-20" x="880.855469"/>
     <use xlink:href="#DejaVuSans-70" x="912.642578"/>
     <use xlink:href="#DejaVuSans-75" x="976.119141"/>
     <use xlink:href="#DejaVuSans-6c" x="1039.498047"/>
     <use xlink:href="#DejaVuSans-73" x="1067.28125"/>
     <use xlink:href="#DejaVuSans-65" x="1119.380859"/>
    </g>
   </g>
   <g id="legend_1">
    <g id="patch_7">
     <path d="M 61.664615 315.202831 
L 151.03649 315.202831 
Q 153.03649 315.202831 153.03649 313.202831 
L 153.03649 284.846581 
Q 153.03649 282.846581 151.03649 282.846581 
L 61.664615 282.846581 
Q 59.664615 282.846581 59.664615 284.846581 
L 59.664615 313.202831 
Q 59.664615 315.202831 61.664615 315.202831 
z
" style="fill: #ffffff; opacity: 0.8; stroke: #cccccc; stroke-linejoin: miter"/>
    </g>
    <g id="line2d_16">
     <path d="M 63.664615 290.945018 
L 73.664615 290.945018 
L 83.664615 290.945018 
" style="fill: none; stroke: #ff0000; stroke-width: 1.5; stroke-linecap: square"/>
    </g>
    <g id="text_17">
     <!-- LGAD Pulse -->
     <g transform="translate(91.664615 294.445018) scale(0.1 -0.1)">
      <use xlink:href="#DejaVuSans-4c"/>
      <use xlink:href="#DejaVuSans-47" x="55.712891"/>
      <use xlink:href="#DejaVuSans-41" x="133.203125"/>
      <use xlink:href="#DejaVuSans-44" x="201.611328"/>
      <use xlink:href="#DejaVuSans-20" x="278.613281"/>
      <use xlink:href="#DejaVuSans-50" x="310.400391"/>
      <use xlink:href="#DejaVuSans-75" x="368.953125"/>
      <use xlink:href="#DejaVuSans-6c" x="432.332031"/>
      <use xlink:href="#DejaVuSans-73" x="460.115234"/>
      <use xlink:href="#DejaVuSans-65" x="512.214844"/>
     </g>
    </g>
    <g id="line2d_17">
     <path d="M 63.664615 305.623143 
L 73.664615 305.623143 
L 83.664615 305.623143 
" style="fill: none; stroke: #0000ff; stroke-width: 1.5; stroke-linecap: square"/>
    </g>
    <g id="text_18">
     <!-- PiN Pulse -->
     <g transform="translate(91.664615 309.123143) scale(0.1 -0.1)">
      <use xlink:href="#DejaVuSans-50"/>
      <use xlink:href="#DejaVuSans-69" x="58.052734"/>
      <use xlink:href="#DejaVuSans-4e" x="85.835938"/>
      <use xlink:href="#DejaVuSans-20" x="160.640625"/>
      <use xlink:href="#DejaVuSans-50" x="192.427734"/>
      <use xlink:href="#DejaVuSans-75" x="250.980469"/>
      <use xlink:href="#DejaVuSans-6c" x="314.359375"/>
      <use xlink:href="#DejaVuSans-73" x="342.142578"/>
      <use xlink:href="#DejaVuSans-65" x="394.242188"/>
     </g>
    </g>
   </g>
  </g>
 </g>
 <defs>
  <clipPath id="p6bcdd947be">
   <rect x="54.664615" y="43.173415" width="338.920615" height="277.029415"/>
  </clipPath>
 </defs>
</svg>
