<?xml version="1.0" encoding="utf-8" standalone="no"?>
<!DOCTYPE svg PUBLIC "-//W3C//DTD SVG 1.1//EN"
  "http://www.w3.org/Graphics/SVG/1.1/DTD/svg11.dtd">
<svg xmlns:xlink="http://www.w3.org/1999/xlink" width="460.8pt" height="345.6pt" viewBox="0 0 460.8 345.6" xmlns="http://www.w3.org/2000/svg" version="1.1">
 <metadata>
  <rdf:RDF xmlns:dc="http://purl.org/dc/elements/1.1/" xmlns:cc="http://creativecommons.org/ns#" xmlns:rdf="http://www.w3.org/1999/02/22-rdf-syntax-ns#">
   <cc:Work>
    <dc:type rdf:resource="http://purl.org/dc/dcmitype/StillImage"/>
    <dc:date>2024-12-08T16:03:16.147923</dc:date>
    <dc:format>image/svg+xml</dc:format>
    <dc:creator>
     <cc:Agent>
      <dc:title>Matplotlib v3.7.2, https://matplotlib.org/</dc:title>
     </cc:Agent>
    </dc:creator>
   </cc:Work>
  </rdf:RDF>
 </metadata>
 <defs>
  <style type="text/css">*{stroke-linejoin: round; stroke-linecap: butt}</style>
 </defs>
 <g id="figure_1">
  <g id="patch_1">
   <path d="M 0 345.6 
L 460.8 345.6 
L 460.8 0 
L 0 0 
z
" style="fill: #ffffff"/>
  </g>
  <g id="axes_1">
   <g id="patch_2">
    <path d="M 57.6 307.584 
L 414.72 307.584 
L 414.72 41.472 
L 57.6 41.472 
z
" style="fill: #ffffff"/>
   </g>
   <g id="matplotlib.axis_1">
    <g id="xtick_1">
     <g id="line2d_1">
      <defs>
       <path id="mbce7fa86a4" d="M 0 0 
L 0 3.5 
" style="stroke: #000000; stroke-width: 0.8"/>
      </defs>
      <g>
       <use xlink:href="#mbce7fa86a4" x="88.478797" y="307.584" style="stroke: #000000; stroke-width: 0.8"/>
      </g>
     </g>
     <g id="text_1">
      <!-- 650 -->
      <g transform="translate(78.935047 322.182437) scale(0.1 -0.1)">
       <defs>
        <path id="DejaVuSans-36" d="M 2113 2584 
Q 1688 2584 1439 2293 
Q 1191 2003 1191 1497 
Q 1191 994 1439 701 
Q 1688 409 2113 409 
Q 2538 409 2786 701 
Q 3034 994 3034 1497 
Q 3034 2003 2786 2293 
Q 2538 2584 2113 2584 
z
M 3366 4563 
L 3366 3988 
Q 3128 4100 2886 4159 
Q 2644 4219 2406 4219 
Q 1781 4219 1451 3797 
Q 1122 3375 1075 2522 
Q 1259 2794 1537 2939 
Q 1816 3084 2150 3084 
Q 2853 3084 3261 2657 
Q 3669 2231 3669 1497 
Q 3669 778 3244 343 
Q 2819 -91 2113 -91 
Q 1303 -91 875 529 
Q 447 1150 447 2328 
Q 447 3434 972 4092 
Q 1497 4750 2381 4750 
Q 2619 4750 2861 4703 
Q 3103 4656 3366 4563 
z
" transform="scale(0.015625)"/>
        <path id="DejaVuSans-35" d="M 691 4666 
L 3169 4666 
L 3169 4134 
L 1269 4134 
L 1269 2991 
Q 1406 3038 1543 3061 
Q 1681 3084 1819 3084 
Q 2600 3084 3056 2656 
Q 3513 2228 3513 1497 
Q 3513 744 3044 326 
Q 2575 -91 1722 -91 
Q 1428 -91 1123 -41 
Q 819 9 494 109 
L 494 744 
Q 775 591 1075 516 
Q 1375 441 1709 441 
Q 2250 441 2565 725 
Q 2881 1009 2881 1497 
Q 2881 1984 2565 2268 
Q 2250 2553 1709 2553 
Q 1456 2553 1204 2497 
Q 953 2441 691 2322 
L 691 4666 
z
" transform="scale(0.015625)"/>
        <path id="DejaVuSans-30" d="M 2034 4250 
Q 1547 4250 1301 3770 
Q 1056 3291 1056 2328 
Q 1056 1369 1301 889 
Q 1547 409 2034 409 
Q 2525 409 2770 889 
Q 3016 1369 3016 2328 
Q 3016 3291 2770 3770 
Q 2525 4250 2034 4250 
z
M 2034 4750 
Q 2819 4750 3233 4129 
Q 3647 3509 3647 2328 
Q 3647 1150 3233 529 
Q 2819 -91 2034 -91 
Q 1250 -91 836 529 
Q 422 1150 422 2328 
Q 422 3509 836 4129 
Q 1250 4750 2034 4750 
z
" transform="scale(0.015625)"/>
       </defs>
       <use xlink:href="#DejaVuSans-36"/>
       <use xlink:href="#DejaVuSans-35" x="63.623047"/>
       <use xlink:href="#DejaVuSans-30" x="127.246094"/>
      </g>
     </g>
    </g>
    <g id="xtick_2">
     <g id="line2d_2">
      <g>
       <use xlink:href="#mbce7fa86a4" x="129.162324" y="307.584" style="stroke: #000000; stroke-width: 0.8"/>
      </g>
     </g>
     <g id="text_2">
      <!-- 700 -->
      <g transform="translate(119.618574 322.182437) scale(0.1 -0.1)">
       <defs>
        <path id="DejaVuSans-37" d="M 525 4666 
L 3525 4666 
L 3525 4397 
L 1831 0 
L 1172 0 
L 2766 4134 
L 525 4134 
L 525 4666 
z
" transform="scale(0.015625)"/>
       </defs>
       <use xlink:href="#DejaVuSans-37"/>
       <use xlink:href="#DejaVuSans-30" x="63.623047"/>
       <use xlink:href="#DejaVuSans-30" x="127.246094"/>
      </g>
     </g>
    </g>
    <g id="xtick_3">
     <g id="line2d_3">
      <g>
       <use xlink:href="#mbce7fa86a4" x="169.845851" y="307.584" style="stroke: #000000; stroke-width: 0.8"/>
      </g>
     </g>
     <g id="text_3">
      <!-- 750 -->
      <g transform="translate(160.302101 322.182437) scale(0.1 -0.1)">
       <use xlink:href="#DejaVuSans-37"/>
       <use xlink:href="#DejaVuSans-35" x="63.623047"/>
       <use xlink:href="#DejaVuSans-30" x="127.246094"/>
      </g>
     </g>
    </g>
    <g id="xtick_4">
     <g id="line2d_4">
      <g>
       <use xlink:href="#mbce7fa86a4" x="210.529378" y="307.584" style="stroke: #000000; stroke-width: 0.8"/>
      </g>
     </g>
     <g id="text_4">
      <!-- 800 -->
      <g transform="translate(200.985628 322.182437) scale(0.1 -0.1)">
       <defs>
        <path id="DejaVuSans-38" d="M 2034 2216 
Q 1584 2216 1326 1975 
Q 1069 1734 1069 1313 
Q 1069 891 1326 650 
Q 1584 409 2034 409 
Q 2484 409 2743 651 
Q 3003 894 3003 1313 
Q 3003 1734 2745 1975 
Q 2488 2216 2034 2216 
z
M 1403 2484 
Q 997 2584 770 2862 
Q 544 3141 544 3541 
Q 544 4100 942 4425 
Q 1341 4750 2034 4750 
Q 2731 4750 3128 4425 
Q 3525 4100 3525 3541 
Q 3525 3141 3298 2862 
Q 3072 2584 2669 2484 
Q 3125 2378 3379 2068 
Q 3634 1759 3634 1313 
Q 3634 634 3220 271 
Q 2806 -91 2034 -91 
Q 1263 -91 848 271 
Q 434 634 434 1313 
Q 434 1759 690 2068 
Q 947 2378 1403 2484 
z
M 1172 3481 
Q 1172 3119 1398 2916 
Q 1625 2713 2034 2713 
Q 2441 2713 2670 2916 
Q 2900 3119 2900 3481 
Q 2900 3844 2670 4047 
Q 2441 4250 2034 4250 
Q 1625 4250 1398 4047 
Q 1172 3844 1172 3481 
z
" transform="scale(0.015625)"/>
       </defs>
       <use xlink:href="#DejaVuSans-38"/>
       <use xlink:href="#DejaVuSans-30" x="63.623047"/>
       <use xlink:href="#DejaVuSans-30" x="127.246094"/>
      </g>
     </g>
    </g>
    <g id="xtick_5">
     <g id="line2d_5">
      <g>
       <use xlink:href="#mbce7fa86a4" x="251.212905" y="307.584" style="stroke: #000000; stroke-width: 0.8"/>
      </g>
     </g>
     <g id="text_5">
      <!-- 850 -->
      <g transform="translate(241.669155 322.182437) scale(0.1 -0.1)">
       <use xlink:href="#DejaVuSans-38"/>
       <use xlink:href="#DejaVuSans-35" x="63.623047"/>
       <use xlink:href="#DejaVuSans-30" x="127.246094"/>
      </g>
     </g>
    </g>
    <g id="xtick_6">
     <g id="line2d_6">
      <g>
       <use xlink:href="#mbce7fa86a4" x="291.896432" y="307.584" style="stroke: #000000; stroke-width: 0.8"/>
      </g>
     </g>
     <g id="text_6">
      <!-- 900 -->
      <g transform="translate(282.352682 322.182437) scale(0.1 -0.1)">
       <defs>
        <path id="DejaVuSans-39" d="M 703 97 
L 703 672 
Q 941 559 1184 500 
Q 1428 441 1663 441 
Q 2288 441 2617 861 
Q 2947 1281 2994 2138 
Q 2813 1869 2534 1725 
Q 2256 1581 1919 1581 
Q 1219 1581 811 2004 
Q 403 2428 403 3163 
Q 403 3881 828 4315 
Q 1253 4750 1959 4750 
Q 2769 4750 3195 4129 
Q 3622 3509 3622 2328 
Q 3622 1225 3098 567 
Q 2575 -91 1691 -91 
Q 1453 -91 1209 -44 
Q 966 3 703 97 
z
M 1959 2075 
Q 2384 2075 2632 2365 
Q 2881 2656 2881 3163 
Q 2881 3666 2632 3958 
Q 2384 4250 1959 4250 
Q 1534 4250 1286 3958 
Q 1038 3666 1038 3163 
Q 1038 2656 1286 2365 
Q 1534 2075 1959 2075 
z
" transform="scale(0.015625)"/>
       </defs>
       <use xlink:href="#DejaVuSans-39"/>
       <use xlink:href="#DejaVuSans-30" x="63.623047"/>
       <use xlink:href="#DejaVuSans-30" x="127.246094"/>
      </g>
     </g>
    </g>
    <g id="xtick_7">
     <g id="line2d_7">
      <g>
       <use xlink:href="#mbce7fa86a4" x="332.579959" y="307.584" style="stroke: #000000; stroke-width: 0.8"/>
      </g>
     </g>
     <g id="text_7">
      <!-- 950 -->
      <g transform="translate(323.036209 322.182437) scale(0.1 -0.1)">
       <use xlink:href="#DejaVuSans-39"/>
       <use xlink:href="#DejaVuSans-35" x="63.623047"/>
       <use xlink:href="#DejaVuSans-30" x="127.246094"/>
      </g>
     </g>
    </g>
    <g id="xtick_8">
     <g id="line2d_8">
      <g>
       <use xlink:href="#mbce7fa86a4" x="373.263486" y="307.584" style="stroke: #000000; stroke-width: 0.8"/>
      </g>
     </g>
     <g id="text_8">
      <!-- 1000 -->
      <g transform="translate(360.538486 322.182437) scale(0.1 -0.1)">
       <defs>
        <path id="DejaVuSans-31" d="M 794 531 
L 1825 531 
L 1825 4091 
L 703 3866 
L 703 4441 
L 1819 4666 
L 2450 4666 
L 2450 531 
L 3481 531 
L 3481 0 
L 794 0 
L 794 531 
z
" transform="scale(0.015625)"/>
       </defs>
       <use xlink:href="#DejaVuSans-31"/>
       <use xlink:href="#DejaVuSans-30" x="63.623047"/>
       <use xlink:href="#DejaVuSans-30" x="127.246094"/>
       <use xlink:href="#DejaVuSans-30" x="190.869141"/>
      </g>
     </g>
    </g>
    <g id="xtick_9">
     <g id="line2d_9">
      <g>
       <use xlink:href="#mbce7fa86a4" x="413.947013" y="307.584" style="stroke: #000000; stroke-width: 0.8"/>
      </g>
     </g>
     <g id="text_9">
      <!-- 1050 -->
      <g transform="translate(401.222013 322.182437) scale(0.1 -0.1)">
       <use xlink:href="#DejaVuSans-31"/>
       <use xlink:href="#DejaVuSans-30" x="63.623047"/>
       <use xlink:href="#DejaVuSans-35" x="127.246094"/>
       <use xlink:href="#DejaVuSans-30" x="190.869141"/>
      </g>
     </g>
    </g>
    <g id="text_10">
     <!-- Pixel bin -->
     <g transform="translate(215.27875 335.860562) scale(0.1 -0.1)">
      <defs>
       <path id="DejaVuSans-50" d="M 1259 4147 
L 1259 2394 
L 2053 2394 
Q 2494 2394 2734 2622 
Q 2975 2850 2975 3272 
Q 2975 3691 2734 3919 
Q 2494 4147 2053 4147 
L 1259 4147 
z
M 628 4666 
L 2053 4666 
Q 2838 4666 3239 4311 
Q 3641 3956 3641 3272 
Q 3641 2581 3239 2228 
Q 2838 1875 2053 1875 
L 1259 1875 
L 1259 0 
L 628 0 
L 628 4666 
z
" transform="scale(0.015625)"/>
       <path id="DejaVuSans-69" d="M 603 3500 
L 1178 3500 
L 1178 0 
L 603 0 
L 603 3500 
z
M 603 4863 
L 1178 4863 
L 1178 4134 
L 603 4134 
L 603 4863 
z
" transform="scale(0.015625)"/>
       <path id="DejaVuSans-78" d="M 3513 3500 
L 2247 1797 
L 3578 0 
L 2900 0 
L 1881 1375 
L 863 0 
L 184 0 
L 1544 1831 
L 300 3500 
L 978 3500 
L 1906 2253 
L 2834 3500 
L 3513 3500 
z
" transform="scale(0.015625)"/>
       <path id="DejaVuSans-65" d="M 3597 1894 
L 3597 1613 
L 953 1613 
Q 991 1019 1311 708 
Q 1631 397 2203 397 
Q 2534 397 2845 478 
Q 3156 559 3463 722 
L 3463 178 
Q 3153 47 2828 -22 
Q 2503 -91 2169 -91 
Q 1331 -91 842 396 
Q 353 884 353 1716 
Q 353 2575 817 3079 
Q 1281 3584 2069 3584 
Q 2775 3584 3186 3129 
Q 3597 2675 3597 1894 
z
M 3022 2063 
Q 3016 2534 2758 2815 
Q 2500 3097 2075 3097 
Q 1594 3097 1305 2825 
Q 1016 2553 972 2059 
L 3022 2063 
z
" transform="scale(0.015625)"/>
       <path id="DejaVuSans-6c" d="M 603 4863 
L 1178 4863 
L 1178 0 
L 603 0 
L 603 4863 
z
" transform="scale(0.015625)"/>
       <path id="DejaVuSans-20" transform="scale(0.015625)"/>
       <path id="DejaVuSans-62" d="M 3116 1747 
Q 3116 2381 2855 2742 
Q 2594 3103 2138 3103 
Q 1681 3103 1420 2742 
Q 1159 2381 1159 1747 
Q 1159 1113 1420 752 
Q 1681 391 2138 391 
Q 2594 391 2855 752 
Q 3116 1113 3116 1747 
z
M 1159 2969 
Q 1341 3281 1617 3432 
Q 1894 3584 2278 3584 
Q 2916 3584 3314 3078 
Q 3713 2572 3713 1747 
Q 3713 922 3314 415 
Q 2916 -91 2278 -91 
Q 1894 -91 1617 61 
Q 1341 213 1159 525 
L 1159 0 
L 581 0 
L 581 4863 
L 1159 4863 
L 1159 2969 
z
" transform="scale(0.015625)"/>
       <path id="DejaVuSans-6e" d="M 3513 2113 
L 3513 0 
L 2938 0 
L 2938 2094 
Q 2938 2591 2744 2837 
Q 2550 3084 2163 3084 
Q 1697 3084 1428 2787 
Q 1159 2491 1159 1978 
L 1159 0 
L 581 0 
L 581 3500 
L 1159 3500 
L 1159 2956 
Q 1366 3272 1645 3428 
Q 1925 3584 2291 3584 
Q 2894 3584 3203 3211 
Q 3513 2838 3513 2113 
z
" transform="scale(0.015625)"/>
      </defs>
      <use xlink:href="#DejaVuSans-50"/>
      <use xlink:href="#DejaVuSans-69" x="58.052734"/>
      <use xlink:href="#DejaVuSans-78" x="85.835938"/>
      <use xlink:href="#DejaVuSans-65" x="141.890625"/>
      <use xlink:href="#DejaVuSans-6c" x="203.414062"/>
      <use xlink:href="#DejaVuSans-20" x="231.197266"/>
      <use xlink:href="#DejaVuSans-62" x="262.984375"/>
      <use xlink:href="#DejaVuSans-69" x="326.460938"/>
      <use xlink:href="#DejaVuSans-6e" x="354.244141"/>
     </g>
    </g>
   </g>
   <g id="matplotlib.axis_2">
    <g id="ytick_1">
     <g id="line2d_10">
      <defs>
       <path id="ma30896fb8d" d="M 0 0 
L -3.5 0 
" style="stroke: #000000; stroke-width: 0.8"/>
      </defs>
      <g>
       <use xlink:href="#ma30896fb8d" x="57.6" y="295.488" style="stroke: #000000; stroke-width: 0.8"/>
      </g>
     </g>
     <g id="text_11">
      <!-- 0 -->
      <g transform="translate(44.2375 299.287219) scale(0.1 -0.1)">
       <use xlink:href="#DejaVuSans-30"/>
      </g>
     </g>
    </g>
    <g id="ytick_2">
     <g id="line2d_11">
      <g>
       <use xlink:href="#ma30896fb8d" x="57.6" y="252.411077" style="stroke: #000000; stroke-width: 0.8"/>
      </g>
     </g>
     <g id="text_12">
      <!-- 2000 -->
      <g transform="translate(25.15 256.210296) scale(0.1 -0.1)">
       <defs>
        <path id="DejaVuSans-32" d="M 1228 531 
L 3431 531 
L 3431 0 
L 469 0 
L 469 531 
Q 828 903 1448 1529 
Q 2069 2156 2228 2338 
Q 2531 2678 2651 2914 
Q 2772 3150 2772 3378 
Q 2772 3750 2511 3984 
Q 2250 4219 1831 4219 
Q 1534 4219 1204 4116 
Q 875 4013 500 3803 
L 500 4441 
Q 881 4594 1212 4672 
Q 1544 4750 1819 4750 
Q 2544 4750 2975 4387 
Q 3406 4025 3406 3419 
Q 3406 3131 3298 2873 
Q 3191 2616 2906 2266 
Q 2828 2175 2409 1742 
Q 1991 1309 1228 531 
z
" transform="scale(0.015625)"/>
       </defs>
       <use xlink:href="#DejaVuSans-32"/>
       <use xlink:href="#DejaVuSans-30" x="63.623047"/>
       <use xlink:href="#DejaVuSans-30" x="127.246094"/>
       <use xlink:href="#DejaVuSans-30" x="190.869141"/>
      </g>
     </g>
    </g>
    <g id="ytick_3">
     <g id="line2d_12">
      <g>
       <use xlink:href="#ma30896fb8d" x="57.6" y="209.334154" style="stroke: #000000; stroke-width: 0.8"/>
      </g>
     </g>
     <g id="text_13">
      <!-- 4000 -->
      <g transform="translate(25.15 213.133373) scale(0.1 -0.1)">
       <defs>
        <path id="DejaVuSans-34" d="M 2419 4116 
L 825 1625 
L 2419 1625 
L 2419 4116 
z
M 2253 4666 
L 3047 4666 
L 3047 1625 
L 3713 1625 
L 3713 1100 
L 3047 1100 
L 3047 0 
L 2419 0 
L 2419 1100 
L 313 1100 
L 313 1709 
L 2253 4666 
z
" transform="scale(0.015625)"/>
       </defs>
       <use xlink:href="#DejaVuSans-34"/>
       <use xlink:href="#DejaVuSans-30" x="63.623047"/>
       <use xlink:href="#DejaVuSans-30" x="127.246094"/>
       <use xlink:href="#DejaVuSans-30" x="190.869141"/>
      </g>
     </g>
    </g>
    <g id="ytick_4">
     <g id="line2d_13">
      <g>
       <use xlink:href="#ma30896fb8d" x="57.6" y="166.257231" style="stroke: #000000; stroke-width: 0.8"/>
      </g>
     </g>
     <g id="text_14">
      <!-- 6000 -->
      <g transform="translate(25.15 170.05645) scale(0.1 -0.1)">
       <use xlink:href="#DejaVuSans-36"/>
       <use xlink:href="#DejaVuSans-30" x="63.623047"/>
       <use xlink:href="#DejaVuSans-30" x="127.246094"/>
       <use xlink:href="#DejaVuSans-30" x="190.869141"/>
      </g>
     </g>
    </g>
    <g id="ytick_5">
     <g id="line2d_14">
      <g>
       <use xlink:href="#ma30896fb8d" x="57.6" y="123.180308" style="stroke: #000000; stroke-width: 0.8"/>
      </g>
     </g>
     <g id="text_15">
      <!-- 8000 -->
      <g transform="translate(25.15 126.979526) scale(0.1 -0.1)">
       <use xlink:href="#DejaVuSans-38"/>
       <use xlink:href="#DejaVuSans-30" x="63.623047"/>
       <use xlink:href="#DejaVuSans-30" x="127.246094"/>
       <use xlink:href="#DejaVuSans-30" x="190.869141"/>
      </g>
     </g>
    </g>
    <g id="ytick_6">
     <g id="line2d_15">
      <g>
       <use xlink:href="#ma30896fb8d" x="57.6" y="80.103385" style="stroke: #000000; stroke-width: 0.8"/>
      </g>
     </g>
     <g id="text_16">
      <!-- 10000 -->
      <g transform="translate(18.7875 83.902603) scale(0.1 -0.1)">
       <use xlink:href="#DejaVuSans-31"/>
       <use xlink:href="#DejaVuSans-30" x="63.623047"/>
       <use xlink:href="#DejaVuSans-30" x="127.246094"/>
       <use xlink:href="#DejaVuSans-30" x="190.869141"/>
       <use xlink:href="#DejaVuSans-30" x="254.492188"/>
      </g>
     </g>
    </g>
    <g id="text_17">
     <!-- Intensity -->
     <g transform="translate(12.707812 196.2905) rotate(-90) scale(0.1 -0.1)">
      <defs>
       <path id="DejaVuSans-49" d="M 628 4666 
L 1259 4666 
L 1259 0 
L 628 0 
L 628 4666 
z
" transform="scale(0.015625)"/>
       <path id="DejaVuSans-74" d="M 1172 4494 
L 1172 3500 
L 2356 3500 
L 2356 3053 
L 1172 3053 
L 1172 1153 
Q 1172 725 1289 603 
Q 1406 481 1766 481 
L 2356 481 
L 2356 0 
L 1766 0 
Q 1100 0 847 248 
Q 594 497 594 1153 
L 594 3053 
L 172 3053 
L 172 3500 
L 594 3500 
L 594 4494 
L 1172 4494 
z
" transform="scale(0.015625)"/>
       <path id="DejaVuSans-73" d="M 2834 3397 
L 2834 2853 
Q 2591 2978 2328 3040 
Q 2066 3103 1784 3103 
Q 1356 3103 1142 2972 
Q 928 2841 928 2578 
Q 928 2378 1081 2264 
Q 1234 2150 1697 2047 
L 1894 2003 
Q 2506 1872 2764 1633 
Q 3022 1394 3022 966 
Q 3022 478 2636 193 
Q 2250 -91 1575 -91 
Q 1294 -91 989 -36 
Q 684 19 347 128 
L 347 722 
Q 666 556 975 473 
Q 1284 391 1588 391 
Q 1994 391 2212 530 
Q 2431 669 2431 922 
Q 2431 1156 2273 1281 
Q 2116 1406 1581 1522 
L 1381 1569 
Q 847 1681 609 1914 
Q 372 2147 372 2553 
Q 372 3047 722 3315 
Q 1072 3584 1716 3584 
Q 2034 3584 2315 3537 
Q 2597 3491 2834 3397 
z
" transform="scale(0.015625)"/>
       <path id="DejaVuSans-79" d="M 2059 -325 
Q 1816 -950 1584 -1140 
Q 1353 -1331 966 -1331 
L 506 -1331 
L 506 -850 
L 844 -850 
Q 1081 -850 1212 -737 
Q 1344 -625 1503 -206 
L 1606 56 
L 191 3500 
L 800 3500 
L 1894 763 
L 2988 3500 
L 3597 3500 
L 2059 -325 
z
" transform="scale(0.015625)"/>
      </defs>
      <use xlink:href="#DejaVuSans-49"/>
      <use xlink:href="#DejaVuSans-6e" x="29.492188"/>
      <use xlink:href="#DejaVuSans-74" x="92.871094"/>
      <use xlink:href="#DejaVuSans-65" x="132.080078"/>
      <use xlink:href="#DejaVuSans-6e" x="193.603516"/>
      <use xlink:href="#DejaVuSans-73" x="256.982422"/>
      <use xlink:href="#DejaVuSans-69" x="309.082031"/>
      <use xlink:href="#DejaVuSans-74" x="336.865234"/>
      <use xlink:href="#DejaVuSans-79" x="376.074219"/>
     </g>
    </g>
   </g>
   <g id="line2d_16">
    <path d="M 73.832727 291.352615 
L 74.646398 290.663385 
L 76.273739 290.663385 
L 77.087409 291.697231 
L 77.90108 292.041846 
L 78.714751 291.697231 
L 79.528421 292.041846 
L 80.342092 291.697231 
L 81.155762 292.731077 
L 81.969433 292.041846 
L 82.783103 292.041846 
L 84.410444 291.352615 
L 85.224115 290.663385 
L 86.037785 290.318769 
L 86.851456 291.352615 
L 87.665126 292.041846 
L 88.478797 292.041846 
L 89.292468 291.352615 
L 90.106138 291.352615 
L 90.919809 290.318769 
L 91.733479 291.697231 
L 92.54715 291.008 
L 93.36082 290.663385 
L 94.174491 291.697231 
L 94.988161 291.352615 
L 95.801832 290.663385 
L 96.615502 291.352615 
L 97.429173 291.352615 
L 98.242843 292.386462 
L 99.056514 291.352615 
L 99.870185 291.008 
L 100.683855 291.697231 
L 101.497526 291.352615 
L 102.311196 291.352615 
L 103.124867 291.008 
L 103.938537 291.697231 
L 104.752208 291.008 
L 105.565878 291.697231 
L 107.193219 291.697231 
L 108.00689 291.008 
L 108.82056 290.663385 
L 109.634231 291.352615 
L 110.447902 291.352615 
L 111.261572 291.697231 
L 112.075243 291.008 
L 112.888913 292.041846 
L 113.702584 291.008 
L 114.516254 291.352615 
L 116.957266 291.352615 
L 117.770936 292.041846 
L 118.584607 291.352615 
L 119.398278 292.041846 
L 120.211948 291.008 
L 121.025619 291.352615 
L 121.839289 292.041846 
L 122.65296 290.663385 
L 123.46663 291.008 
L 124.280301 290.663385 
L 125.093971 292.386462 
L 125.907642 291.008 
L 127.534983 290.318769 
L 128.348653 291.697231 
L 129.162324 290.318769 
L 129.975995 291.697231 
L 131.603336 291.008 
L 132.417006 292.386462 
L 133.230677 290.663385 
L 134.044347 291.008 
L 134.858018 290.318769 
L 135.671688 291.008 
L 136.485359 291.352615 
L 137.299029 292.041846 
L 138.92637 290.663385 
L 139.740041 291.352615 
L 140.553712 289.629538 
L 141.367382 291.352615 
L 142.181053 291.352615 
L 142.994723 291.697231 
L 143.808394 290.663385 
L 144.622064 291.697231 
L 145.435735 291.352615 
L 146.249405 291.352615 
L 147.063076 290.663385 
L 147.876746 291.008 
L 148.690417 292.041846 
L 149.504087 290.663385 
L 150.317758 291.697231 
L 151.131429 290.663385 
L 151.945099 291.008 
L 152.75877 290.318769 
L 153.57244 290.663385 
L 155.199781 290.663385 
L 156.013452 290.318769 
L 156.827122 291.352615 
L 157.640793 291.697231 
L 158.454463 291.008 
L 159.268134 289.974154 
L 160.081805 291.008 
L 160.895475 291.697231 
L 162.522816 290.318769 
L 163.336487 291.697231 
L 164.150157 291.352615 
L 164.963828 290.663385 
L 165.777498 291.352615 
L 166.591169 290.663385 
L 167.404839 290.663385 
L 168.21851 291.352615 
L 169.03218 291.008 
L 169.845851 291.697231 
L 170.659522 291.697231 
L 171.473192 291.352615 
L 172.286863 290.663385 
L 173.100533 291.008 
L 173.914204 290.318769 
L 174.727874 290.318769 
L 175.541545 290.663385 
L 176.355215 290.318769 
L 177.168886 291.697231 
L 177.982556 290.663385 
L 178.796227 290.663385 
L 179.609897 291.352615 
L 180.423568 291.352615 
L 181.237239 289.974154 
L 182.050909 289.284923 
L 182.86458 291.008 
L 183.67825 289.974154 
L 184.491921 289.974154 
L 185.305591 289.629538 
L 186.119262 290.318769 
L 186.932932 291.697231 
L 187.746603 290.318769 
L 188.560273 289.974154 
L 189.373944 290.318769 
L 190.187614 289.974154 
L 191.001285 290.663385 
L 191.814956 288.940308 
L 192.628626 289.284923 
L 193.442297 289.284923 
L 194.255967 288.940308 
L 195.069638 288.940308 
L 195.883308 289.629538 
L 196.696979 289.974154 
L 197.510649 289.284923 
L 198.32432 289.284923 
L 199.13799 289.629538 
L 199.951661 287.217231 
L 200.765332 288.251077 
L 201.579002 287.217231 
L 202.392673 288.595692 
L 203.206343 287.217231 
L 204.020014 288.595692 
L 204.833684 287.217231 
L 205.647355 286.183385 
L 206.461025 286.872615 
L 207.274696 286.872615 
L 208.088366 286.528 
L 208.902037 283.771077 
L 209.715707 284.804923 
L 210.529378 286.183385 
L 211.343049 285.494154 
L 212.156719 283.081846 
L 212.97039 281.703385 
L 213.78406 282.392615 
L 214.597731 278.257231 
L 215.411401 278.601846 
L 216.225072 280.324923 
L 217.038742 277.912615 
L 217.852413 278.946462 
L 218.666083 275.500308 
L 219.479754 274.121846 
L 220.293424 267.229538 
L 221.107095 268.608 
L 221.920766 267.918769 
L 223.548107 253.789538 
L 224.361777 248.620308 
L 225.175448 241.383385 
L 225.989118 240.349538 
L 226.802789 230.011077 
L 227.616459 231.044923 
L 228.43013 223.463385 
L 229.2438 225.186462 
L 230.057471 211.746462 
L 230.871141 203.131077 
L 231.684812 210.023385 
L 232.498483 181.764923 
L 233.312153 174.528 
L 234.125824 136.275692 
L 235.753165 77.001846 
L 236.566835 53.568 
L 237.380506 59.426462 
L 238.194176 75.968 
L 239.007847 114.220308 
L 240.635188 160.054154 
L 241.448859 173.838769 
L 242.262529 181.075692 
L 243.0762 196.238769 
L 243.88987 215.881846 
L 244.703541 221.051077 
L 245.517211 235.180308 
L 247.144552 247.586462 
L 247.958223 259.303385 
L 248.771893 252.755692 
L 249.585564 260.681846 
L 250.399234 266.195692 
L 251.212905 262.749538 
L 252.026576 266.195692 
L 252.840246 271.020308 
L 253.653917 272.743385 
L 254.467587 272.054154 
L 255.281258 274.121846 
L 256.094928 278.257231 
L 256.908599 281.014154 
L 257.722269 282.737231 
L 258.53594 282.392615 
L 259.34961 281.014154 
L 260.163281 278.946462 
L 260.976951 280.669538 
L 261.790622 278.257231 
L 262.604293 283.771077 
L 263.417963 283.081846 
L 264.231634 283.771077 
L 265.045304 286.528 
L 265.858975 288.251077 
L 266.672645 286.872615 
L 267.486316 287.906462 
L 268.299986 288.251077 
L 269.113657 287.906462 
L 269.927327 288.940308 
L 270.740998 290.318769 
L 271.554668 287.561846 
L 272.368339 287.906462 
L 273.18201 289.629538 
L 273.99568 288.940308 
L 274.809351 288.940308 
L 275.623021 288.251077 
L 277.250362 290.318769 
L 278.064033 289.284923 
L 278.877703 289.974154 
L 279.691374 290.318769 
L 280.505044 290.318769 
L 281.318715 291.008 
L 282.132386 289.284923 
L 282.946056 289.284923 
L 283.759727 289.974154 
L 284.573397 291.352615 
L 285.387068 291.352615 
L 286.200738 290.318769 
L 287.828079 289.629538 
L 288.64175 290.318769 
L 289.45542 289.974154 
L 290.269091 288.940308 
L 291.082761 291.008 
L 291.896432 291.008 
L 292.710103 289.974154 
L 293.523773 290.663385 
L 294.337444 290.318769 
L 295.151114 290.663385 
L 295.964785 290.663385 
L 296.778455 289.629538 
L 297.592126 290.663385 
L 298.405796 290.663385 
L 299.219467 291.352615 
L 300.033137 290.318769 
L 301.660478 291.697231 
L 302.474149 290.318769 
L 304.915161 290.318769 
L 305.728831 291.008 
L 306.542502 289.284923 
L 308.169843 292.041846 
L 308.983513 291.352615 
L 309.797184 290.318769 
L 310.610854 291.352615 
L 311.424525 291.697231 
L 312.238195 291.697231 
L 313.051866 291.352615 
L 314.679207 292.041846 
L 315.492878 291.352615 
L 316.306548 291.697231 
L 317.120219 291.352615 
L 317.933889 291.352615 
L 318.74756 291.008 
L 319.56123 289.974154 
L 320.374901 291.697231 
L 321.188571 290.663385 
L 322.002242 291.008 
L 322.815913 291.008 
L 323.629583 291.697231 
L 324.443254 291.697231 
L 325.256924 292.041846 
L 326.070595 291.352615 
L 326.884265 291.697231 
L 327.697936 291.352615 
L 328.511606 290.663385 
L 329.325277 291.352615 
L 330.138947 291.352615 
L 330.952618 292.386462 
L 331.766288 291.008 
L 332.579959 290.663385 
L 334.2073 290.663385 
L 335.020971 293.075692 
L 335.834641 292.386462 
L 336.648312 290.318769 
L 337.461982 291.697231 
L 338.275653 291.697231 
L 339.089323 291.352615 
L 339.902994 291.352615 
L 340.716664 291.008 
L 341.530335 291.008 
L 342.344005 290.663385 
L 343.157676 291.008 
L 343.971347 290.663385 
L 344.785017 291.352615 
L 345.598688 291.352615 
L 346.412358 292.041846 
L 347.226029 290.663385 
L 348.85337 290.663385 
L 349.66704 291.008 
L 350.480711 291.008 
L 351.294381 291.352615 
L 352.108052 292.041846 
L 352.921722 290.663385 
L 353.735393 291.352615 
L 354.549064 291.008 
L 356.176405 291.697231 
L 356.990075 290.318769 
L 357.803746 291.352615 
L 358.617416 291.352615 
L 359.431087 291.008 
L 360.244757 292.041846 
L 361.058428 291.352615 
L 361.872098 291.008 
L 362.685769 291.008 
L 363.49944 291.697231 
L 364.31311 290.663385 
L 365.940451 291.352615 
L 366.754122 291.008 
L 367.567792 290.318769 
L 368.381463 290.663385 
L 369.195133 291.352615 
L 370.008804 290.318769 
L 370.822474 291.352615 
L 371.636145 290.663385 
L 372.449815 291.352615 
L 373.263486 291.697231 
L 374.077157 291.352615 
L 375.704498 291.352615 
L 376.518168 292.041846 
L 377.331839 291.697231 
L 378.145509 292.041846 
L 378.95918 292.041846 
L 379.77285 291.352615 
L 380.586521 291.697231 
L 381.400191 291.697231 
L 382.213862 291.008 
L 383.841203 291.008 
L 385.468544 291.697231 
L 386.282215 290.663385 
L 387.095885 291.008 
L 387.909556 291.697231 
L 388.723226 291.008 
L 389.536897 291.352615 
L 390.350567 291.008 
L 391.977908 291.008 
L 392.791579 290.663385 
L 393.605249 290.663385 
L 394.41892 291.008 
L 395.232591 291.008 
L 396.046261 291.352615 
L 396.859932 290.663385 
L 397.673602 291.697231 
L 398.487273 291.352615 
L 398.487273 291.352615 
" clip-path="url(#pb2bfcfca2c)" style="fill: none; stroke: #1f77b4; stroke-width: 1.5; stroke-linecap: square"/>
   </g>
   <g id="line2d_17">
    <path d="M 73.832727 295.488 
L 218.666083 295.377839 
L 220.293424 295.082752 
L 221.107095 294.745136 
L 221.920766 294.166726 
L 222.734436 293.207812 
L 223.548107 291.669939 
L 224.361777 289.284888 
L 225.175448 285.709532 
L 225.989118 280.531617 
L 226.802789 273.291893 
L 227.616459 263.526914 
L 228.43013 250.833962 
L 229.2438 234.954687 
L 230.057471 215.867914 
L 231.684812 169.664284 
L 234.125824 96.154181 
L 234.939494 76.723861 
L 235.753165 62.536364 
L 236.566835 54.80252 
L 237.380506 54.204009 
L 238.194176 60.794201 
L 239.007847 73.990303 
L 239.821517 92.658414 
L 241.448859 140.128091 
L 243.0762 190.019061 
L 244.703541 232.029739 
L 245.517211 248.443193 
L 246.330882 261.64805 
L 247.144552 271.870049 
L 247.958223 279.49429 
L 248.771893 284.979258 
L 249.585564 288.788433 
L 250.399234 291.343834 
L 251.212905 293.000734 
L 252.026576 294.039556 
L 252.840246 294.669581 
L 253.653917 295.039312 
L 255.281258 295.364813 
L 257.722269 295.473868 
L 270.740998 295.488 
L 398.487273 295.488 
L 398.487273 295.488 
" clip-path="url(#pb2bfcfca2c)" style="fill: none; stroke: #ff7f0e; stroke-width: 1.5; stroke-linecap: square"/>
   </g>
   <g id="patch_3">
    <path d="M 57.6 307.584 
L 57.6 41.472 
" style="fill: none; stroke: #000000; stroke-width: 0.8; stroke-linejoin: miter; stroke-linecap: square"/>
   </g>
   <g id="patch_4">
    <path d="M 414.72 307.584 
L 414.72 41.472 
" style="fill: none; stroke: #000000; stroke-width: 0.8; stroke-linejoin: miter; stroke-linecap: square"/>
   </g>
   <g id="patch_5">
    <path d="M 57.6 307.584 
L 414.72 307.584 
" style="fill: none; stroke: #000000; stroke-width: 0.8; stroke-linejoin: miter; stroke-linecap: square"/>
   </g>
   <g id="patch_6">
    <path d="M 57.6 41.472 
L 414.72 41.472 
" style="fill: none; stroke: #000000; stroke-width: 0.8; stroke-linejoin: miter; stroke-linecap: square"/>
   </g>
   <g id="text_18">
    <!-- Data and Fit using gaussian approximation for the Y direction.  -->
    <g transform="translate(48.2475 22.034625) scale(0.12 -0.12)">
     <defs>
      <path id="DejaVuSans-44" d="M 1259 4147 
L 1259 519 
L 2022 519 
Q 2988 519 3436 956 
Q 3884 1394 3884 2338 
Q 3884 3275 3436 3711 
Q 2988 4147 2022 4147 
L 1259 4147 
z
M 628 4666 
L 1925 4666 
Q 3281 4666 3915 4102 
Q 4550 3538 4550 2338 
Q 4550 1131 3912 565 
Q 3275 0 1925 0 
L 628 0 
L 628 4666 
z
" transform="scale(0.015625)"/>
      <path id="DejaVuSans-61" d="M 2194 1759 
Q 1497 1759 1228 1600 
Q 959 1441 959 1056 
Q 959 750 1161 570 
Q 1363 391 1709 391 
Q 2188 391 2477 730 
Q 2766 1069 2766 1631 
L 2766 1759 
L 2194 1759 
z
M 3341 1997 
L 3341 0 
L 2766 0 
L 2766 531 
Q 2569 213 2275 61 
Q 1981 -91 1556 -91 
Q 1019 -91 701 211 
Q 384 513 384 1019 
Q 384 1609 779 1909 
Q 1175 2209 1959 2209 
L 2766 2209 
L 2766 2266 
Q 2766 2663 2505 2880 
Q 2244 3097 1772 3097 
Q 1472 3097 1187 3025 
Q 903 2953 641 2809 
L 641 3341 
Q 956 3463 1253 3523 
Q 1550 3584 1831 3584 
Q 2591 3584 2966 3190 
Q 3341 2797 3341 1997 
z
" transform="scale(0.015625)"/>
      <path id="DejaVuSans-64" d="M 2906 2969 
L 2906 4863 
L 3481 4863 
L 3481 0 
L 2906 0 
L 2906 525 
Q 2725 213 2448 61 
Q 2172 -91 1784 -91 
Q 1150 -91 751 415 
Q 353 922 353 1747 
Q 353 2572 751 3078 
Q 1150 3584 1784 3584 
Q 2172 3584 2448 3432 
Q 2725 3281 2906 2969 
z
M 947 1747 
Q 947 1113 1208 752 
Q 1469 391 1925 391 
Q 2381 391 2643 752 
Q 2906 1113 2906 1747 
Q 2906 2381 2643 2742 
Q 2381 3103 1925 3103 
Q 1469 3103 1208 2742 
Q 947 2381 947 1747 
z
" transform="scale(0.015625)"/>
      <path id="DejaVuSans-46" d="M 628 4666 
L 3309 4666 
L 3309 4134 
L 1259 4134 
L 1259 2759 
L 3109 2759 
L 3109 2228 
L 1259 2228 
L 1259 0 
L 628 0 
L 628 4666 
z
" transform="scale(0.015625)"/>
      <path id="DejaVuSans-75" d="M 544 1381 
L 544 3500 
L 1119 3500 
L 1119 1403 
Q 1119 906 1312 657 
Q 1506 409 1894 409 
Q 2359 409 2629 706 
Q 2900 1003 2900 1516 
L 2900 3500 
L 3475 3500 
L 3475 0 
L 2900 0 
L 2900 538 
Q 2691 219 2414 64 
Q 2138 -91 1772 -91 
Q 1169 -91 856 284 
Q 544 659 544 1381 
z
M 1991 3584 
L 1991 3584 
z
" transform="scale(0.015625)"/>
      <path id="DejaVuSans-67" d="M 2906 1791 
Q 2906 2416 2648 2759 
Q 2391 3103 1925 3103 
Q 1463 3103 1205 2759 
Q 947 2416 947 1791 
Q 947 1169 1205 825 
Q 1463 481 1925 481 
Q 2391 481 2648 825 
Q 2906 1169 2906 1791 
z
M 3481 434 
Q 3481 -459 3084 -895 
Q 2688 -1331 1869 -1331 
Q 1566 -1331 1297 -1286 
Q 1028 -1241 775 -1147 
L 775 -588 
Q 1028 -725 1275 -790 
Q 1522 -856 1778 -856 
Q 2344 -856 2625 -561 
Q 2906 -266 2906 331 
L 2906 616 
Q 2728 306 2450 153 
Q 2172 0 1784 0 
Q 1141 0 747 490 
Q 353 981 353 1791 
Q 353 2603 747 3093 
Q 1141 3584 1784 3584 
Q 2172 3584 2450 3431 
Q 2728 3278 2906 2969 
L 2906 3500 
L 3481 3500 
L 3481 434 
z
" transform="scale(0.015625)"/>
      <path id="DejaVuSans-70" d="M 1159 525 
L 1159 -1331 
L 581 -1331 
L 581 3500 
L 1159 3500 
L 1159 2969 
Q 1341 3281 1617 3432 
Q 1894 3584 2278 3584 
Q 2916 3584 3314 3078 
Q 3713 2572 3713 1747 
Q 3713 922 3314 415 
Q 2916 -91 2278 -91 
Q 1894 -91 1617 61 
Q 1341 213 1159 525 
z
M 3116 1747 
Q 3116 2381 2855 2742 
Q 2594 3103 2138 3103 
Q 1681 3103 1420 2742 
Q 1159 2381 1159 1747 
Q 1159 1113 1420 752 
Q 1681 391 2138 391 
Q 2594 391 2855 752 
Q 3116 1113 3116 1747 
z
" transform="scale(0.015625)"/>
      <path id="DejaVuSans-72" d="M 2631 2963 
Q 2534 3019 2420 3045 
Q 2306 3072 2169 3072 
Q 1681 3072 1420 2755 
Q 1159 2438 1159 1844 
L 1159 0 
L 581 0 
L 581 3500 
L 1159 3500 
L 1159 2956 
Q 1341 3275 1631 3429 
Q 1922 3584 2338 3584 
Q 2397 3584 2469 3576 
Q 2541 3569 2628 3553 
L 2631 2963 
z
" transform="scale(0.015625)"/>
      <path id="DejaVuSans-6f" d="M 1959 3097 
Q 1497 3097 1228 2736 
Q 959 2375 959 1747 
Q 959 1119 1226 758 
Q 1494 397 1959 397 
Q 2419 397 2687 759 
Q 2956 1122 2956 1747 
Q 2956 2369 2687 2733 
Q 2419 3097 1959 3097 
z
M 1959 3584 
Q 2709 3584 3137 3096 
Q 3566 2609 3566 1747 
Q 3566 888 3137 398 
Q 2709 -91 1959 -91 
Q 1206 -91 779 398 
Q 353 888 353 1747 
Q 353 2609 779 3096 
Q 1206 3584 1959 3584 
z
" transform="scale(0.015625)"/>
      <path id="DejaVuSans-6d" d="M 3328 2828 
Q 3544 3216 3844 3400 
Q 4144 3584 4550 3584 
Q 5097 3584 5394 3201 
Q 5691 2819 5691 2113 
L 5691 0 
L 5113 0 
L 5113 2094 
Q 5113 2597 4934 2840 
Q 4756 3084 4391 3084 
Q 3944 3084 3684 2787 
Q 3425 2491 3425 1978 
L 3425 0 
L 2847 0 
L 2847 2094 
Q 2847 2600 2669 2842 
Q 2491 3084 2119 3084 
Q 1678 3084 1418 2786 
Q 1159 2488 1159 1978 
L 1159 0 
L 581 0 
L 581 3500 
L 1159 3500 
L 1159 2956 
Q 1356 3278 1631 3431 
Q 1906 3584 2284 3584 
Q 2666 3584 2933 3390 
Q 3200 3197 3328 2828 
z
" transform="scale(0.015625)"/>
      <path id="DejaVuSans-66" d="M 2375 4863 
L 2375 4384 
L 1825 4384 
Q 1516 4384 1395 4259 
Q 1275 4134 1275 3809 
L 1275 3500 
L 2222 3500 
L 2222 3053 
L 1275 3053 
L 1275 0 
L 697 0 
L 697 3053 
L 147 3053 
L 147 3500 
L 697 3500 
L 697 3744 
Q 697 4328 969 4595 
Q 1241 4863 1831 4863 
L 2375 4863 
z
" transform="scale(0.015625)"/>
      <path id="DejaVuSans-68" d="M 3513 2113 
L 3513 0 
L 2938 0 
L 2938 2094 
Q 2938 2591 2744 2837 
Q 2550 3084 2163 3084 
Q 1697 3084 1428 2787 
Q 1159 2491 1159 1978 
L 1159 0 
L 581 0 
L 581 4863 
L 1159 4863 
L 1159 2956 
Q 1366 3272 1645 3428 
Q 1925 3584 2291 3584 
Q 2894 3584 3203 3211 
Q 3513 2838 3513 2113 
z
" transform="scale(0.015625)"/>
      <path id="DejaVuSans-59" d="M -13 4666 
L 666 4666 
L 1959 2747 
L 3244 4666 
L 3922 4666 
L 2272 2222 
L 2272 0 
L 1638 0 
L 1638 2222 
L -13 4666 
z
" transform="scale(0.015625)"/>
      <path id="DejaVuSans-63" d="M 3122 3366 
L 3122 2828 
Q 2878 2963 2633 3030 
Q 2388 3097 2138 3097 
Q 1578 3097 1268 2742 
Q 959 2388 959 1747 
Q 959 1106 1268 751 
Q 1578 397 2138 397 
Q 2388 397 2633 464 
Q 2878 531 3122 666 
L 3122 134 
Q 2881 22 2623 -34 
Q 2366 -91 2075 -91 
Q 1284 -91 818 406 
Q 353 903 353 1747 
Q 353 2603 823 3093 
Q 1294 3584 2113 3584 
Q 2378 3584 2631 3529 
Q 2884 3475 3122 3366 
z
" transform="scale(0.015625)"/>
      <path id="DejaVuSans-2e" d="M 684 794 
L 1344 794 
L 1344 0 
L 684 0 
L 684 794 
z
" transform="scale(0.015625)"/>
     </defs>
     <use xlink:href="#DejaVuSans-44"/>
     <use xlink:href="#DejaVuSans-61" x="77.001953"/>
     <use xlink:href="#DejaVuSans-74" x="138.28125"/>
     <use xlink:href="#DejaVuSans-61" x="177.490234"/>
     <use xlink:href="#DejaVuSans-20" x="238.769531"/>
     <use xlink:href="#DejaVuSans-61" x="270.556641"/>
     <use xlink:href="#DejaVuSans-6e" x="331.835938"/>
     <use xlink:href="#DejaVuSans-64" x="395.214844"/>
     <use xlink:href="#DejaVuSans-20" x="458.691406"/>
     <use xlink:href="#DejaVuSans-46" x="490.478516"/>
     <use xlink:href="#DejaVuSans-69" x="540.748047"/>
     <use xlink:href="#DejaVuSans-74" x="568.53125"/>
     <use xlink:href="#DejaVuSans-20" x="607.740234"/>
     <use xlink:href="#DejaVuSans-75" x="639.527344"/>
     <use xlink:href="#DejaVuSans-73" x="702.90625"/>
     <use xlink:href="#DejaVuSans-69" x="755.005859"/>
     <use xlink:href="#DejaVuSans-6e" x="782.789062"/>
     <use xlink:href="#DejaVuSans-67" x="846.167969"/>
     <use xlink:href="#DejaVuSans-20" x="909.644531"/>
     <use xlink:href="#DejaVuSans-67" x="941.431641"/>
     <use xlink:href="#DejaVuSans-61" x="1004.908203"/>
     <use xlink:href="#DejaVuSans-75" x="1066.1875"/>
     <use xlink:href="#DejaVuSans-73" x="1129.566406"/>
     <use xlink:href="#DejaVuSans-73" x="1181.666016"/>
     <use xlink:href="#DejaVuSans-69" x="1233.765625"/>
     <use xlink:href="#DejaVuSans-61" x="1261.548828"/>
     <use xlink:href="#DejaVuSans-6e" x="1322.828125"/>
     <use xlink:href="#DejaVuSans-20" x="1386.207031"/>
     <use xlink:href="#DejaVuSans-61" x="1417.994141"/>
     <use xlink:href="#DejaVuSans-70" x="1479.273438"/>
     <use xlink:href="#DejaVuSans-70" x="1542.75"/>
     <use xlink:href="#DejaVuSans-72" x="1606.226562"/>
     <use xlink:href="#DejaVuSans-6f" x="1645.089844"/>
     <use xlink:href="#DejaVuSans-78" x="1703.146484"/>
     <use xlink:href="#DejaVuSans-69" x="1762.326172"/>
     <use xlink:href="#DejaVuSans-6d" x="1790.109375"/>
     <use xlink:href="#DejaVuSans-61" x="1887.521484"/>
     <use xlink:href="#DejaVuSans-74" x="1948.800781"/>
     <use xlink:href="#DejaVuSans-69" x="1988.009766"/>
     <use xlink:href="#DejaVuSans-6f" x="2015.792969"/>
     <use xlink:href="#DejaVuSans-6e" x="2076.974609"/>
     <use xlink:href="#DejaVuSans-20" x="2140.353516"/>
     <use xlink:href="#DejaVuSans-66" x="2172.140625"/>
     <use xlink:href="#DejaVuSans-6f" x="2207.345703"/>
     <use xlink:href="#DejaVuSans-72" x="2268.527344"/>
     <use xlink:href="#DejaVuSans-20" x="2309.640625"/>
     <use xlink:href="#DejaVuSans-74" x="2341.427734"/>
     <use xlink:href="#DejaVuSans-68" x="2380.636719"/>
     <use xlink:href="#DejaVuSans-65" x="2444.015625"/>
     <use xlink:href="#DejaVuSans-20" x="2505.539062"/>
     <use xlink:href="#DejaVuSans-59" x="2537.326172"/>
     <use xlink:href="#DejaVuSans-20" x="2598.410156"/>
     <use xlink:href="#DejaVuSans-64" x="2630.197266"/>
     <use xlink:href="#DejaVuSans-69" x="2693.673828"/>
     <use xlink:href="#DejaVuSans-72" x="2721.457031"/>
     <use xlink:href="#DejaVuSans-65" x="2760.320312"/>
     <use xlink:href="#DejaVuSans-63" x="2821.84375"/>
     <use xlink:href="#DejaVuSans-74" x="2876.824219"/>
     <use xlink:href="#DejaVuSans-69" x="2916.033203"/>
     <use xlink:href="#DejaVuSans-6f" x="2943.816406"/>
     <use xlink:href="#DejaVuSans-6e" x="3004.998047"/>
     <use xlink:href="#DejaVuSans-2e" x="3068.376953"/>
     <use xlink:href="#DejaVuSans-20" x="3100.164062"/>
    </g>
    <!--  -->
    <g transform="translate(236.16 35.472) scale(0.12 -0.12)"/>
   </g>
   <g id="legend_1">
    <g id="patch_7">
     <path d="M 264.581719 82.129781 
L 408.42 82.129781 
Q 410.22 82.129781 410.22 80.329781 
L 410.22 47.772 
Q 410.22 45.972 408.42 45.972 
L 264.581719 45.972 
Q 262.781719 45.972 262.781719 47.772 
L 262.781719 80.329781 
Q 262.781719 82.129781 264.581719 82.129781 
z
" style="fill: #ffffff; opacity: 0.8; stroke: #cccccc; stroke-linejoin: miter"/>
    </g>
    <g id="line2d_18">
     <path d="M 266.381719 64.320188 
L 275.381719 64.320188 
L 284.381719 64.320188 
" style="fill: none; stroke: #ff7f0e; stroke-width: 1.5; stroke-linecap: square"/>
    </g>
    <g id="text_19">
     <!-- Parameters: I_0 = 11232  -->
     <g transform="translate(291.581719 56.251688) scale(0.09 -0.09)">
      <defs>
       <path id="DejaVuSans-3a" d="M 750 794 
L 1409 794 
L 1409 0 
L 750 0 
L 750 794 
z
M 750 3309 
L 1409 3309 
L 1409 2516 
L 750 2516 
L 750 3309 
z
" transform="scale(0.015625)"/>
       <path id="DejaVuSans-5f" d="M 3263 -1063 
L 3263 -1509 
L -63 -1509 
L -63 -1063 
L 3263 -1063 
z
" transform="scale(0.015625)"/>
       <path id="DejaVuSans-3d" d="M 678 2906 
L 4684 2906 
L 4684 2381 
L 678 2381 
L 678 2906 
z
M 678 1631 
L 4684 1631 
L 4684 1100 
L 678 1100 
L 678 1631 
z
" transform="scale(0.015625)"/>
       <path id="DejaVuSans-33" d="M 2597 2516 
Q 3050 2419 3304 2112 
Q 3559 1806 3559 1356 
Q 3559 666 3084 287 
Q 2609 -91 1734 -91 
Q 1441 -91 1130 -33 
Q 819 25 488 141 
L 488 750 
Q 750 597 1062 519 
Q 1375 441 1716 441 
Q 2309 441 2620 675 
Q 2931 909 2931 1356 
Q 2931 1769 2642 2001 
Q 2353 2234 1838 2234 
L 1294 2234 
L 1294 2753 
L 1863 2753 
Q 2328 2753 2575 2939 
Q 2822 3125 2822 3475 
Q 2822 3834 2567 4026 
Q 2313 4219 1838 4219 
Q 1578 4219 1281 4162 
Q 984 4106 628 3988 
L 628 4550 
Q 988 4650 1302 4700 
Q 1616 4750 1894 4750 
Q 2613 4750 3031 4423 
Q 3450 4097 3450 3541 
Q 3450 3153 3228 2886 
Q 3006 2619 2597 2516 
z
" transform="scale(0.015625)"/>
      </defs>
      <use xlink:href="#DejaVuSans-50"/>
      <use xlink:href="#DejaVuSans-61" x="55.802734"/>
      <use xlink:href="#DejaVuSans-72" x="117.082031"/>
      <use xlink:href="#DejaVuSans-61" x="158.195312"/>
      <use xlink:href="#DejaVuSans-6d" x="219.474609"/>
      <use xlink:href="#DejaVuSans-65" x="316.886719"/>
      <use xlink:href="#DejaVuSans-74" x="378.410156"/>
      <use xlink:href="#DejaVuSans-65" x="417.619141"/>
      <use xlink:href="#DejaVuSans-72" x="479.142578"/>
      <use xlink:href="#DejaVuSans-73" x="520.255859"/>
      <use xlink:href="#DejaVuSans-3a" x="572.355469"/>
      <use xlink:href="#DejaVuSans-20" x="606.046875"/>
      <use xlink:href="#DejaVuSans-49" x="637.833984"/>
      <use xlink:href="#DejaVuSans-5f" x="667.326172"/>
      <use xlink:href="#DejaVuSans-30" x="717.326172"/>
      <use xlink:href="#DejaVuSans-20" x="780.949219"/>
      <use xlink:href="#DejaVuSans-3d" x="812.736328"/>
      <use xlink:href="#DejaVuSans-20" x="896.525391"/>
      <use xlink:href="#DejaVuSans-31" x="928.3125"/>
      <use xlink:href="#DejaVuSans-31" x="991.935547"/>
      <use xlink:href="#DejaVuSans-32" x="1055.558594"/>
      <use xlink:href="#DejaVuSans-33" x="1119.181641"/>
      <use xlink:href="#DejaVuSans-32" x="1182.804688"/>
      <use xlink:href="#DejaVuSans-20" x="1246.427734"/>
     </g>
     <!--  mean = 832.6  -->
     <g transform="translate(291.581719 66.580031) scale(0.09 -0.09)">
      <use xlink:href="#DejaVuSans-20"/>
      <use xlink:href="#DejaVuSans-6d" x="31.787109"/>
      <use xlink:href="#DejaVuSans-65" x="129.199219"/>
      <use xlink:href="#DejaVuSans-61" x="190.722656"/>
      <use xlink:href="#DejaVuSans-6e" x="252.001953"/>
      <use xlink:href="#DejaVuSans-20" x="315.380859"/>
      <use xlink:href="#DejaVuSans-3d" x="347.167969"/>
      <use xlink:href="#DejaVuSans-20" x="430.957031"/>
      <use xlink:href="#DejaVuSans-38" x="462.744141"/>
      <use xlink:href="#DejaVuSans-33" x="526.367188"/>
      <use xlink:href="#DejaVuSans-32" x="589.990234"/>
      <use xlink:href="#DejaVuSans-2e" x="653.613281"/>
      <use xlink:href="#DejaVuSans-36" x="685.400391"/>
      <use xlink:href="#DejaVuSans-20" x="749.023438"/>
     </g>
     <!--  std = 5.76 -->
     <g transform="translate(291.581719 76.658063) scale(0.09 -0.09)">
      <use xlink:href="#DejaVuSans-20"/>
      <use xlink:href="#DejaVuSans-73" x="31.787109"/>
      <use xlink:href="#DejaVuSans-74" x="83.886719"/>
      <use xlink:href="#DejaVuSans-64" x="123.095703"/>
      <use xlink:href="#DejaVuSans-20" x="186.572266"/>
      <use xlink:href="#DejaVuSans-3d" x="218.359375"/>
      <use xlink:href="#DejaVuSans-20" x="302.148438"/>
      <use xlink:href="#DejaVuSans-35" x="333.935547"/>
      <use xlink:href="#DejaVuSans-2e" x="397.558594"/>
      <use xlink:href="#DejaVuSans-37" x="429.345703"/>
      <use xlink:href="#DejaVuSans-36" x="492.96875"/>
     </g>
    </g>
   </g>
  </g>
 </g>
 <defs>
  <clipPath id="pb2bfcfca2c">
   <rect x="57.6" y="41.472" width="357.12" height="266.112"/>
  </clipPath>
 </defs>
</svg>
